<svg xmlns="http://www.w3.org/2000/svg" xmlns:xlink="http://www.w3.org/1999/xlink" width="500" height="300" viewBox="0 0 500 300">
  <defs>
    <clipPath id="clip-logo_14">
      <rect width="500" height="300"/>
    </clipPath>
  </defs>
  <g id="logo_14" clip-path="url(#clip-logo_14)">
    <g id="Group_21" data-name="Group 21" transform="translate(157.073 105.891)">
      <path id="Path_2311" data-name="Path 2311" d="M88.2,101.036c-8.066,2.555-40.9,10.516-67.673,0a103.892,103.892,0,0,0,68.945-4.462Z" transform="translate(26.411 -79.725)"/>
      <path id="Path_2312" data-name="Path 2312" d="M48.243,105.953H41.657v20.3a4.67,4.67,0,0,1-5.005,5.005,4.668,4.668,0,0,1-5.005-5.005V109.112a3.161,3.161,0,0,0-3.162-3.159H20.272a6.806,6.806,0,0,1,1.633,4.412v15.381c0,7.83,5.436,10.681,13.8,10.681,5.584,0,9.084-2.19,12.376-2.19a15.012,15.012,0,0,1,3.31.405V109.112a3.157,3.157,0,0,0-3.162-3.159" transform="translate(25.526 -47.379)"/>
      <path id="Path_2313" data-name="Path 2313" d="M59.187,105.953h-6.58v20.3a5.007,5.007,0,1,1-10.015,0V109.112a3.157,3.157,0,0,0-3.159-3.159H31.222a6.8,6.8,0,0,1,1.628,4.412v15.381c0,7.83,5.442,10.681,13.808,10.681,5.584,0,9.084-2.19,12.367-2.19a14.989,14.989,0,0,1,3.314.405V109.112a3.157,3.157,0,0,0-3.159-3.159" transform="translate(63.287 -47.379)"/>
      <path id="Path_2314" data-name="Path 2314" d="M36.179,104.01H27.967a6.724,6.724,0,0,1,1.633,4.418v32.213a1.142,1.142,0,0,0,1.139,1.144h8.6V107.172a3.162,3.162,0,0,0-3.168-3.162" transform="translate(52.061 -54.08)"/>
      <path id="Path_2315" data-name="Path 2315" d="M31.356,103.363H10.736a6.763,6.763,0,0,1,1.624,4.418v35.1a1.155,1.155,0,0,0,1.144,1.148H31.219c5.058,0,19.48-2.932,19.48-21.011,0-18.035-14.3-19.659-19.343-19.659M27.814,138.4H23.108v-29.4h4.715c8.279,0,11.25,4.254,11.25,14.027,0,9.817-3.558,15.38-11.25,15.38" transform="translate(-7.361 -56.32)"/>
      <path id="Path_2316" data-name="Path 2316" d="M70.035,107.234c.445-.538.294-1.277-.547-1.277H62.446l-6.033,7.586-3.67-5.067a5.327,5.327,0,0,0-4.666-2.518H38.588a14.105,14.105,0,0,1,4.431,4.412l7.589,10.5L40.34,133.805c-.427.538-.285,1.277.547,1.277h7.051l6.763-8.52,4.325,6a5.234,5.234,0,0,0,4.666,2.522h8.354L60.528,119.2Z" transform="translate(88.682 -47.376)"/>
      <path id="Path_2317" data-name="Path 2317" d="M50.76,108.951c.659-.628.56-3.416.56-3.416s-1.117-1.8-2.228-1.42-1.12,2.339-.912,4a1.495,1.495,0,0,0,2.584.832" transform="translate(121.394 -53.898)"/>
      <path id="Path_2318" data-name="Path 2318" d="M176.159,104.031c-20-8.9-33.828-5.223-40.447-1.668a46.735,46.735,0,0,0-11.905,9.328c-3.7,3.79-5.343,5.8-8.168,9.013-4.88,5.526-10.142,10.432-18.978,12.385a37.019,37.019,0,0,1-18.458-.832c-11.772-3.431-21.4-13.075-21.4-13.075a54.768,54.768,0,0,1-9.965-12.3,14.1,14.1,0,0,0-2.776-3.905c-1.578-1.263-2.478-.151-3.8.73s-2.354-.075-3.146-.854c-1.077-1.055-2.117-1.151-2.131-.266,0,1.13.987,2.078.093,3.385a1.825,1.825,0,0,1-1.619.755c-2.434,0-4.48-3.892-6.246-5.657-.232-.226-.708-.316-.836.17-.2.73.018,1.578-.405,1.628-.609.089-1.766-2.02-2.5-2.754a4.266,4.266,0,0,0-1.642-.993,7.345,7.345,0,0,1-3.88-2.905c-.511-.547-2.478-2.442-2.963-2.442-.312,0-.328.4-.365.619s-.031.578-.281.578a4.38,4.38,0,0,1-1.482-.912,8.182,8.182,0,0,0-2.038-1.228c-.507-.151-.668.142-.819.774a.467.467,0,0,0,.495.613c.6,0,.984.582,1.241.885a2.821,2.821,0,0,0,1.881,1.232,2.449,2.449,0,0,1,1.912,1.547,29.88,29.88,0,0,1,2.642,6.838c0,.672-.774.832-1.922-1.708a23.156,23.156,0,0,0-1.745-3.19,3.671,3.671,0,0,0-1.069-1.175,6.818,6.818,0,0,0-2.473-.858c-.792-.089-.956.276-.863.613s.431.529.943.956a14.551,14.551,0,0,1,4.613,6.513,75.2,75.2,0,0,0,3.119,6.856c7.692,14.556,19.8,30.221,47.885,30.221,15.423,0,28.445-5.334,39.544-11.38,25.024-13.608,32.569-19.285,46-20.352a54.284,54.284,0,0,1,11.692.3,16.608,16.608,0,0,0-2.243-1.673,45.56,45.56,0,0,0-26.737,4.494,188.033,188.033,0,0,0-16.971,9.235c-1.562.934-2.024.387-.254-.931a115.919,115.919,0,0,1,15.352-9.551c1.325-.7,1.139-1.442-.053-1.588-3.1-.365-3.3-1.294-.792-3.146,6.544-4.8,17.354-4.471,24.3-2.482a19.343,19.343,0,0,1,9.817,5.909,28.879,28.879,0,0,0,5.036,5.894c7.856,6.219,12.571.836,17.257,6.414a16.011,16.011,0,0,1,3.257,9.628c.044,7.664-2.537,10.219-4.294,12.113-.2.223-.392.44-.588.659a6.752,6.752,0,0,1-2.98,2.007l-.071.022c-.993.365-3.35,1.135-5.223,1.606a6.827,6.827,0,0,1-4.768-.65,1.62,1.62,0,0,1-.48-2.038.761.761,0,0,0-.044-.73.75.75,0,0,0-.591-.254,1.4,1.4,0,0,0-1.024.454,1.131,1.131,0,0,0-.245.748,5.963,5.963,0,0,0,2.144,3.5,5.8,5.8,0,0,0,3.861,1.46h.036a3.338,3.338,0,0,1,2.135.774c.779.582.8,1.312.765,2.354a2.748,2.748,0,0,1-1.073,2.277,17.683,17.683,0,0,0-1.7,2c-.668.912-2.051,3.372-2.372,3.951a2.237,2.237,0,0,1-1.005.925l-.111.062c-.383.226-.507.334-1.095,1.544-.2.423-.4,1-.155,1.374a.717.717,0,0,0,.662.307c.859,0,1.69-1.318,1.825-1.578a9.138,9.138,0,0,1,.885-1.318c.223-.294.467-.591.715-.885.089-.111.182-.223.263-.325l.068-.089a7.411,7.411,0,0,1,.8-.872c.328-.281.783-.613,1.374-1.033a5.739,5.739,0,0,0,.934-.783c.071-.075.133-.133.182-.182a3.122,3.122,0,0,1,1.476-.8c.365,0,.73.182.73,1.7a12.207,12.207,0,0,1-.9,4.279c-.347.814-.7,1.476-1.29,2.568-.226.436-.489.925-.8,1.516a13,13,0,0,1-1.268,1.943,14.035,14.035,0,0,1-.953,1.095,6.2,6.2,0,0,0-.73.854,2.886,2.886,0,0,0-.281.495,1.349,1.349,0,0,0,.022,1.277.883.883,0,0,0,.779.392h0a2.533,2.533,0,0,0,1.682-.73,4.426,4.426,0,0,0,1.009-1.943c.068-.182.288-.774.365-.969a17.7,17.7,0,0,1,2.252-3.661c.409-.56.832-1.139,1.294-1.825a15.7,15.7,0,0,0,2.639-9.774c-.04-.476-.089-.854-.133-1.219a12.344,12.344,0,0,1-.1-2.372c.164-3.341,1.451-5.109,3.589-8.029,7.308-10,9.244-30.726-13.969-41.885" transform="translate(-9.981 -92.792)"/>
    </g>
  </g>
</svg>
