<svg xmlns="http://www.w3.org/2000/svg" xmlns:xlink="http://www.w3.org/1999/xlink" width="500" height="300" viewBox="0 0 500 300">
  <defs>
    <clipPath id="clip-logo_30">
      <rect width="500" height="300"/>
    </clipPath>
  </defs>
  <g id="logo_30" clip-path="url(#clip-logo_30)">
    <g id="Group_41" data-name="Group 41" transform="translate(204.223 88.488)">
      <path id="Path_115" data-name="Path 115" d="M584.855,237.273c-.977,2.72-1.949,5.734-2.921,9.115,2.5-2.838,5.03-5.543,7.514-7.873a128.947,128.947,0,0,1,11.258-10.3,51.049,51.049,0,0,1,4.714-3.541,7.926,7.926,0,0,1-3.333.959,24.167,24.167,0,0,1-5.128-.239,11.888,11.888,0,0,0-4.606.239,8.522,8.522,0,0,0-2.9,2.33c-1.543,1.322-3.063,4.446-4.593,9.315" transform="translate(-513.868 -224.669)"/>
      <path id="Path_116" data-name="Path 116" d="M634.6,246.114c-2.056,2.308-4.04,4.734-5.984,7.307a89.01,89.01,0,0,0-11.1,18.981,96.621,96.621,0,0,0-3.333,9.915c-1.269,3.9-2.207,8.006-3.21,12.2-.959,4.187-1.928,8.16-2.785,11.786-.671,3.683-1.384,6.617-1.79,8.947a13.985,13.985,0,0,0-.544,3.514L581.809,224.75H566.536l31.505,120.732h15.852a44.022,44.022,0,0,1,.986-6.105c.7-3.913,1.666-9.079,2.9-15.7,1.269-6.511,2.662-13.681,4.2-21.677,1.507-8.015,3.179-16.024,4.99-24.14,1.8-8.16,3.48-15.755,5.273-22.938.809-3.157,1.632-6.105,2.357-8.805" transform="translate(-566.536 -224.395)"/>
    </g>
  </g>
</svg>
