<svg xmlns="http://www.w3.org/2000/svg" xmlns:xlink="http://www.w3.org/1999/xlink" width="500" height="300" viewBox="0 0 500 300">
  <defs>
    <clipPath id="clip-path">
      <rect id="Rectangle_6" data-name="Rectangle 6" width="330.783" height="68.076" fill="none"/>
    </clipPath>
    <clipPath id="clip-logo_04">
      <rect width="500" height="300"/>
    </clipPath>
  </defs>
  <g id="logo_04" clip-path="url(#clip-logo_04)">
    <g id="Group_12" data-name="Group 12" transform="translate(84.78 116.076)">
      <g id="Group_11" data-name="Group 11" clip-path="url(#clip-path)">
        <path id="Path_104" data-name="Path 104" d="M21.488,17.774a8.4,8.4,0,0,1,5.946,8.332,8.509,8.509,0,0,1-8.489,8.949L0,35.148V1.381l16.174.041a23.127,23.127,0,0,1,4.856.649,8.312,8.312,0,0,1,5.747,8.746,7.572,7.572,0,0,1-5.289,6.956M16.06,15a3.582,3.582,0,0,0,3.513-3.961,3.614,3.614,0,0,0-3.724-3.388l-9-.013.02,7.4Zm.266,14.012a3.788,3.788,0,0,0,3.9-3.946,3.872,3.872,0,0,0-3.8-3.9l-9.579-.054v7.936Z" transform="translate(0 -0.975)"/>
        <path id="Path_105" data-name="Path 105" d="M668.362,19.477c-.452,9.552-7.926,15.624-17.058,15.635l-13.628.016,0-33.64a150.034,150.034,0,0,1,15.07.114A17.475,17.475,0,0,1,663.99,6.595a17.026,17.026,0,0,1,4.372,12.882m-7.275.016a11.375,11.375,0,0,0-2.535-8.638,10.008,10.008,0,0,0-6.959-2.988l-6.841-.051V28.807l6.832-.057c5.138-.043,9.062-4.059,9.5-9.257" transform="translate(-450.177 -0.957)"/>
        <path id="Path_106" data-name="Path 106" d="M277.2,35.168l-6.925.058.019-12.443L254.578,9.845,254.546,35.2l-7.079,0V1.618a45.571,45.571,0,0,1,7.072,0l15.72,12.96.026-12.987a53.951,53.951,0,0,1,6.91.022Z" transform="translate(-174.704 -1.045)"/>
        <path id="Path_107" data-name="Path 107" d="M919.178,35.594l-6.922.045.011-12.448-15.71-12.937-.031,25.381-7.075-.019,0-33.594,7-.027,15.786,12.981.036-12.949,6.905-.015Z" transform="translate(-627.921 -1.409)"/>
        <path id="Path_108" data-name="Path 108" d="M400.263,25.921l.041-4.141-8.864,0,0-6.168,15.846.008L407.273,28.5a18.783,18.783,0,0,1-17.5,6.038,16.937,16.937,0,0,1-14.34-17.033C375.354,7.2,383.305-.306,393.6.011c5.394.166,10.448,2.553,13.266,7.4l-5.854,3.134a9.786,9.786,0,0,0-13.464-2.576c-5.911,3.679-6.418,13.322-1.229,17.892,3.97,3.5,9.763,3.263,13.939.057" transform="translate(-265.044 -0.001)"/>
        <path id="Path_109" data-name="Path 109" d="M1042.247,25.923l.04-4.143-8.863,0,0-6.166h15.613l.006,13.07a18.658,18.658,0,0,1-17.285,5.852A16.937,16.937,0,0,1,1017.418,17.5c-.081-10.3,7.872-17.81,18.171-17.495,5.393.166,10.449,2.553,13.266,7.4L1043,10.548a9.774,9.774,0,0,0-13.279-2.693c-6.039,3.564-6.689,13.354-1.416,18.007,3.972,3.5,9.764,3.262,13.94.061" transform="translate(-718.265 0)"/>
        <path id="Path_110" data-name="Path 110" d="M134.249,29.388l-14.811-.009-2.083,5.783-7.8.006L122.392,1.561a71.506,71.506,0,0,1,8.894.026L144.06,35.164l-7.742.01Zm-1.959-6.224L126.84,7.832l-5.518,15.346Z" transform="translate(-77.346 -1.013)"/>
        <path id="Path_111" data-name="Path 111" d="M776.235,29.691l-14.812-.009-2.082,5.783-7.8.007L764.379,1.864l8.893.025,12.774,33.577-7.742.01Zm-1.96-6.224-5.45-15.333L763.307,23.48Z" transform="translate(-530.567 -1.316)"/>
        <path id="Path_112" data-name="Path 112" d="M524.463,29.375l-14.851-.009-2.062,5.785-7.8.011,12.8-33.537a54.76,54.76,0,0,1,8.919-.059l12.774,33.562-7.747.038Zm-1.978-6.231L517.025,7.81l-5.51,15.362Z" transform="translate(-352.808 -0.998)"/>
        <path id="Path_113" data-name="Path 113" d="M662.712,179.137l-.093-15.2-5.913,15.148-2.176-.009-5.912-15.142-.089,15.2-4.317-.013.008-21.772,6.143.01,5.257,13.551,5.228-13.513,6.216-.046v21.774Z" transform="translate(-454.792 -111.085)"/>
        <path id="Path_114" data-name="Path 114" d="M573.5,179.163l-4.091-7.686-4.922-.069,0,7.735-4.62-.015V157.354l12.359.067a6.628,6.628,0,0,1,6.5,7.295,6.181,6.181,0,0,1-4.693,6.214l4.773,8.18Zm-2.274-11.809a2.975,2.975,0,0,0-.14-5.945l-6.6-.024,0,6.024Z" transform="translate(-395.244 -111.087)"/>
        <path id="Path_115" data-name="Path 115" d="M484.006,175.547l-9.647,0-1.352,3.643-5.048-.027,8.3-21.736,5.819-.011,8.262,21.753-5.041.017Zm-1.285-4.077-3.562-9.926L475.6,171.48Z" transform="translate(-330.364 -111.129)"/>
        <path id="Path_116" data-name="Path 116" d="M416.923,166.074l.027,4.115-10.6.009-.024,8.992-4.649-.016,0-21.748h17.775v4.1l-13.109,0,0,4.549Z" transform="translate(-283.573 -111.138)"/>
      </g>
    </g>
  </g>
</svg>
