<svg xmlns="http://www.w3.org/2000/svg" xmlns:xlink="http://www.w3.org/1999/xlink" width="500" height="300" viewBox="0 0 500 300">
  <defs>
    <clipPath id="clip-logo_16">
      <rect width="500" height="300"/>
    </clipPath>
  </defs>
  <g id="logo_16" clip-path="url(#clip-logo_16)">
    <g id="Group_27" data-name="Group 27" transform="translate(113.194 110.474)">
      <path id="Path_76" data-name="Path 76" d="M560.534,141.315c.681.029,1.376.071,2.057.131a16.384,16.384,0,0,0-2.057-.131" transform="translate(-520.669 -141.305)"/>
      <path id="Path_77" data-name="Path 77" d="M562.8,141.446c-.676-.066-1.364-.107-2.062-.131a13.226,13.226,0,0,0-.243,2.387,12.22,12.22,0,0,0,7.217,10.951c.617.195,1.4.523,2,.771A25.834,25.834,0,0,1,582.3,166.986a26.916,26.916,0,0,1,3.432,13.185c0-26.184-12.641-37.412-22.941-38.727" transform="translate(-520.874 -141.305)"/>
      <path id="Path_78" data-name="Path 78" d="M602.4,154.543c-2.744-3.6-7.2-6.376-10.176-6.376.858,0,2.134,2.774,2.905,6.376a96.265,96.265,0,0,1,1.908,19.919,20.663,20.663,0,0,1-4.813,13.3,20.436,20.436,0,0,1-8.326,6,26.17,26.17,0,0,1-3.16-1.3,26.947,26.947,0,0,1-11.5-37.276,25.956,25.956,0,0,1,12.731-11.479h0a11.774,11.774,0,0,1-2.951.367h-1.2c-13.074,0-23.694,11.858-24.02,25.039A38.774,38.774,0,0,0,584.085,206.4a32.091,32.091,0,0,0,8.144-3.16,32.643,32.643,0,0,0,10.176-8.853c.462-.617.9-1.262,1.34-1.908a33.168,33.168,0,0,0-1.34-37.923" transform="translate(-553.802 -129.514)"/>
      <path id="Path_79" data-name="Path 79" d="M590.811,141.321a37.976,37.976,0,0,0-22.306,8.265,39.025,39.025,0,0,0-14.7,30.591v.729c.326-13.181,10.939-25.039,24.02-25.039h1.2a11.772,11.772,0,0,0,2.951-.374,10.892,10.892,0,0,0,1.826-.634.346.346,0,0,0,.124-.058,12.483,12.483,0,0,0,7.064-10.1l.017-.177a2.3,2.3,0,0,0,0-.28c0-.177.017-.343.017-.54a12.88,12.88,0,0,0-.243-2.395" transform="translate(-553.807 -141.311)"/>
      <path id="Path_80" data-name="Path 80" d="M579.073,170.757a97.043,97.043,0,0,0-1.9-19.919c-.783-3.61-2.064-6.376-2.917-6.376-2.963,0-7.414,2.766-10.152,6.376a33.165,33.165,0,0,0-1.344,37.923,29.533,29.533,0,0,0,3.16,1.3,20.567,20.567,0,0,0,8.333-6,20.78,20.78,0,0,1-4.794-13.309c0-5.066,2.4-11.384,4.794-11.384s4.813,6.32,4.813,11.384" transform="translate(-535.836 -125.802)"/>
      <path id="Path_81" data-name="Path 81" d="M577.079,151.364a25.918,25.918,0,0,1-5.287,3.43c-.428.639-.861,1.286-1.327,1.9a32.817,32.817,0,0,1-10.168,8.866,32.832,32.832,0,0,0,8.143,3.16s6.6-5.227,8.639-17.369" transform="translate(-521.855 -91.837)"/>
      <path id="Path_82" data-name="Path 82" d="M588.615,157.368a38.739,38.739,0,0,0-7.485-7.888,37.924,37.924,0,0,0-20.25-8.144c10.307,1.315,22.941,12.546,22.941,38.727a26.774,26.774,0,0,1-9.648,20.663c-2.027,12.155-8.639,17.364-8.639,17.364a39.065,39.065,0,0,0,23.094-60.715" transform="translate(-518.963 -141.2)"/>
      <path id="Path_83" data-name="Path 83" d="M570.506,163.534a3.16,3.16,0,0,0,1.018,1.215,4.132,4.132,0,0,0,1.553.647,8.032,8.032,0,0,0,1.9.207,5.969,5.969,0,0,0,1.262-.165,4.7,4.7,0,0,0,1.281-.54,3.244,3.244,0,0,0,.973-.919,2.4,2.4,0,0,0,.391-1.386,2.077,2.077,0,0,0-.28-1.072,2.464,2.464,0,0,0-.729-.775,5.125,5.125,0,0,0-.972-.5,9.327,9.327,0,0,0-1.062-.314l-3.289-.817a9.168,9.168,0,0,1-1.257-.408,3.549,3.549,0,0,1-1.067-.668,2.94,2.94,0,0,1-.729-1.019,3.454,3.454,0,0,1-.285-1.459,5.382,5.382,0,0,1,.207-1.274,3.777,3.777,0,0,1,.783-1.369,5.044,5.044,0,0,1,1.57-1.1,6.482,6.482,0,0,1,2.548-.433,7.314,7.314,0,0,1,2.091.289,5.274,5.274,0,0,1,1.743.865,4.424,4.424,0,0,1,1.186,1.439,4.269,4.269,0,0,1,.445,2.008h-1.4a3.608,3.608,0,0,0-.386-1.48,3.2,3.2,0,0,0-.9-1.067,3.959,3.959,0,0,0-1.262-.639,5.455,5.455,0,0,0-1.5-.214,5.953,5.953,0,0,0-1.4.16,3.4,3.4,0,0,0-1.179.486,2.526,2.526,0,0,0-.829.9,2.95,2.95,0,0,0-.3,1.386,2.062,2.062,0,0,0,.178.907,1.9,1.9,0,0,0,.486.651,2.365,2.365,0,0,0,.71.428,4.732,4.732,0,0,0,.848.28l3.622.89a9.7,9.7,0,0,1,1.48.511,5.183,5.183,0,0,1,1.215.746,3.267,3.267,0,0,1,.829,1.091,3.631,3.631,0,0,1,.292,1.553c0,.165-.025.391-.042.664a3.659,3.659,0,0,1-.243.878,4.559,4.559,0,0,1-.564.948,3.583,3.583,0,0,1-.994.853,5.984,5.984,0,0,1-1.57.627,9.014,9.014,0,0,1-2.241.243,9.254,9.254,0,0,1-2.419-.309,5.2,5.2,0,0,1-1.908-.919,4.151,4.151,0,0,1-1.215-1.595,5.167,5.167,0,0,1-.374-2.346h1.4a4.293,4.293,0,0,0,.367,1.9" transform="translate(-480.362 -91.693)"/>
      <path id="Path_84" data-name="Path 84" d="M578.142,152.537a4.587,4.587,0,0,1,1.575,1.215,5.2,5.2,0,0,1,.972,1.8,7.03,7.03,0,0,1,.338,2.188,7.145,7.145,0,0,1-.338,2.188,5.309,5.309,0,0,1-.972,1.8,4.619,4.619,0,0,1-1.575,1.2,4.916,4.916,0,0,1-2.188.457,4.864,4.864,0,0,1-2.156-.457,4.636,4.636,0,0,1-1.582-1.2,5.324,5.324,0,0,1-.973-1.8,6.81,6.81,0,0,1-.326-2.188,6.713,6.713,0,0,1,.326-2.188,5.217,5.217,0,0,1,.973-1.8,4.62,4.62,0,0,1,1.582-1.215,4.863,4.863,0,0,1,2.156-.457,4.917,4.917,0,0,1,2.188.457m-3.812,1.031a3.6,3.6,0,0,0-1.167,1.043,4.62,4.62,0,0,0-.7,1.459,6.02,6.02,0,0,0,0,3.343,4.593,4.593,0,0,0,.705,1.459,3.33,3.33,0,0,0,1.167,1.038,3.256,3.256,0,0,0,1.631.4,3.3,3.3,0,0,0,1.653-.4,3.467,3.467,0,0,0,1.162-1.038,4.6,4.6,0,0,0,.71-1.459,5.859,5.859,0,0,0,0-3.34,4.64,4.64,0,0,0-.71-1.459,3.763,3.763,0,0,0-1.162-1.043,3.358,3.358,0,0,0-1.653-.384,3.314,3.314,0,0,0-1.631.384" transform="translate(-469.518 -88.28)"/>
      <path id="Path_85" data-name="Path 85" d="M579.954,153.86a2.8,2.8,0,0,0-2.039-.688,3.236,3.236,0,0,0-1.629.391,3.6,3.6,0,0,0-1.174,1.038,4.868,4.868,0,0,0-.713,1.459,5.87,5.87,0,0,0-.243,1.67,5.991,5.991,0,0,0,.243,1.67,4.943,4.943,0,0,0,.712,1.459,3.39,3.39,0,0,0,1.174,1.031,3.3,3.3,0,0,0,1.629.4,2.989,2.989,0,0,0,1.15-.226,3.105,3.105,0,0,0,.953-.639,3.232,3.232,0,0,0,.681-.953,3.841,3.841,0,0,0,.331-1.215h1.291a4.9,4.9,0,0,1-1.429,3.041,4.206,4.206,0,0,1-2.981,1.079,4.811,4.811,0,0,1-2.156-.445,4.892,4.892,0,0,1-1.6-1.2,5.554,5.554,0,0,1-.972-1.8,7.078,7.078,0,0,1-.321-2.188,6.99,6.99,0,0,1,.321-2.188,5.318,5.318,0,0,1,.972-1.8,5.129,5.129,0,0,1,1.6-1.216,4.977,4.977,0,0,1,2.156-.445,4.619,4.619,0,0,1,2.917.907,3.956,3.956,0,0,1,1.435,2.749h-1.31a3.646,3.646,0,0,0-1-1.872" transform="translate(-459.941 -88.269)"/>
      <path id="Path_86" data-name="Path 86" d="M576.074,153.532h-1.3v-2.093h1.3Zm0,12.706h-1.3v-10.7h1.3Z" transform="translate(-450.533 -91.431)"/>
      <path id="Path_87" data-name="Path 87" d="M576.165,154.042a3.188,3.188,0,0,1,.912-1.121,4.134,4.134,0,0,1,1.327-.639,6.93,6.93,0,0,1,1.7-.2,7.523,7.523,0,0,1,1.4.136,3.343,3.343,0,0,1,1.262.5,2.7,2.7,0,0,1,.911,1.048,3.728,3.728,0,0,1,.355,1.755v5.671c0,.527.243.788.758.788a1.118,1.118,0,0,0,.425-.083v1.109c-.165.029-.3.041-.416.053a4.3,4.3,0,0,1-.445.024,1.889,1.889,0,0,1-.8-.143,1,1,0,0,1-.462-.379,1.685,1.685,0,0,1-.219-.586,5.978,5.978,0,0,1-.053-.763h0a7.513,7.513,0,0,1-.729.931,3.764,3.764,0,0,1-.807.676,3.643,3.643,0,0,1-1.019.421,6.024,6.024,0,0,1-1.364.143,5.241,5.241,0,0,1-1.393-.185,3,3,0,0,1-1.138-.557,2.575,2.575,0,0,1-.766-.972,3.288,3.288,0,0,1-.285-1.4,2.731,2.731,0,0,1,.486-1.76,3.088,3.088,0,0,1,1.322-.953,6.936,6.936,0,0,1,1.843-.462c.676-.1,1.376-.19,2.085-.267.272-.029.515-.07.729-.112a1.039,1.039,0,0,0,.516-.214.925.925,0,0,0,.313-.416,1.758,1.758,0,0,0,.119-.7,2.43,2.43,0,0,0-.214-1.1,1.877,1.877,0,0,0-.6-.668,2.516,2.516,0,0,0-.894-.343,5.806,5.806,0,0,0-1.1-.095,3.3,3.3,0,0,0-2.032.593,2.316,2.316,0,0,0-.817,1.891h-1.3a4.329,4.329,0,0,1,.379-1.619m6.542,3.2a.869.869,0,0,1-.486.338c-.243.053-.445.107-.635.143-.545.1-1.113.177-1.7.243a8.952,8.952,0,0,0-1.6.355,3.068,3.068,0,0,0-1.186.639,1.56,1.56,0,0,0-.469,1.215,1.758,1.758,0,0,0,.195.89,2.1,2.1,0,0,0,.527.664,2.491,2.491,0,0,0,.771.421,2.589,2.589,0,0,0,.89.143,4.5,4.5,0,0,0,1.422-.243,3.467,3.467,0,0,0,1.191-.659,3.072,3.072,0,0,0,.817-1.06,3.231,3.231,0,0,0,.3-1.405v-1.7Z" transform="translate(-447.85 -88.273)"/>
      <rect id="Rectangle_2" data-name="Rectangle 2" width="1.31" height="14.797" transform="translate(138.829 60.008)"/>
      <path id="Path_88" data-name="Path 88" d="M580.3,151.44v13.589h8.285v1.215h-9.69v-14.8Z" transform="translate(-430.228 -91.427)"/>
      <path id="Path_89" data-name="Path 89" d="M582.138,159.547a4.172,4.172,0,0,0,.639,1.364,3.426,3.426,0,0,0,1.092.989,3.028,3.028,0,0,0,1.607.4,3.211,3.211,0,0,0,2.241-.729,3.953,3.953,0,0,0,1.108-2h1.315a5.155,5.155,0,0,1-1.529,2.815,4.481,4.481,0,0,1-3.136,1.007,4.807,4.807,0,0,1-2.188-.457,3.931,3.931,0,0,1-1.5-1.216,5.17,5.17,0,0,1-.865-1.809,8.511,8.511,0,0,1-.285-2.164,8.11,8.11,0,0,1,.284-2.074,5.346,5.346,0,0,1,.865-1.814,4.283,4.283,0,0,1,1.5-1.286,4.523,4.523,0,0,1,2.188-.486,4.288,4.288,0,0,1,2.188.523,4.53,4.53,0,0,1,1.488,1.356,5.78,5.78,0,0,1,.812,1.933,8.054,8.054,0,0,1,.214,2.2h-8.238a6.027,6.027,0,0,0,.194,1.459m6.471-3.982a3.657,3.657,0,0,0-.669-1.215,3.421,3.421,0,0,0-1.055-.853,3.065,3.065,0,0,0-1.41-.314,3.112,3.112,0,0,0-1.434.314,3.219,3.219,0,0,0-1.055.853,4.135,4.135,0,0,0-.693,1.215,5.811,5.811,0,0,0-.35,1.417h6.933a4.981,4.981,0,0,0-.267-1.429" transform="translate(-421.638 -88.279)"/>
      <path id="Path_90" data-name="Path 90" d="M583.848,152.389v1.85h.049a3.1,3.1,0,0,1,1.315-1.565,3.856,3.856,0,0,1,2.1-.593,5.331,5.331,0,0,1,1.867.284,2.936,2.936,0,0,1,1.216.829,3.086,3.086,0,0,1,.646,1.291,7.561,7.561,0,0,1,.185,1.719v6.887h-1.31v-6.673a6.822,6.822,0,0,0-.112-1.286,2.963,2.963,0,0,0-.437-1.026,2.207,2.207,0,0,0-.841-.688,3.334,3.334,0,0,0-1.322-.243,3.228,3.228,0,0,0-1.393.284,2.917,2.917,0,0,0-1.043.771,3.256,3.256,0,0,0-.659,1.155,4.83,4.83,0,0,0-.26,1.459v6.248h-1.31v-10.7Z" transform="translate(-412.262 -88.28)"/>
      <path id="Path_91" data-name="Path 91" d="M593.013,166.237V164.21h-.053a2.752,2.752,0,0,1-.593.943,4.041,4.041,0,0,1-.936.729,4.673,4.673,0,0,1-1.1.469,4.559,4.559,0,0,1-1.167.173,4.737,4.737,0,0,1-2.135-.457,4.412,4.412,0,0,1-1.5-1.216,5.348,5.348,0,0,1-.882-1.809,8.068,8.068,0,0,1,0-4.332,5.383,5.383,0,0,1,.882-1.8,4.384,4.384,0,0,1,3.639-1.69,4.558,4.558,0,0,1,1.167.136,4.493,4.493,0,0,1,1.072.457,3.785,3.785,0,0,1,.878.729,3.37,3.37,0,0,1,.593,1.026h.036V151.44h1.3v14.8Zm-7.159-3.7a4.472,4.472,0,0,0,.618,1.459,3.337,3.337,0,0,0,1.091,1.043,2.893,2.893,0,0,0,1.6.4,3.475,3.475,0,0,0,1.755-.4A3.436,3.436,0,0,0,592.073,164a4.057,4.057,0,0,0,.634-1.459,6.869,6.869,0,0,0,0-3.3,4.294,4.294,0,0,0-.634-1.459,3.616,3.616,0,0,0-1.155-1.038,3.672,3.672,0,0,0-1.755-.4,3.051,3.051,0,0,0-1.6.4,3.509,3.509,0,0,0-1.092,1.038,4.771,4.771,0,0,0-.617,1.459,7.048,7.048,0,0,0,0,3.3" transform="translate(-403.371 -91.427)"/>
      <path id="Path_92" data-name="Path 92" d="M587.743,153.532h-1.31v-2.093h1.31Zm0,12.706h-1.31v-10.7h1.31Z" transform="translate(-393.081 -91.431)"/>
      <path id="Path_93" data-name="Path 93" d="M588.391,152.389v1.85h.042a3.1,3.1,0,0,1,1.315-1.565,3.833,3.833,0,0,1,2.1-.593,5.266,5.266,0,0,1,1.867.284,2.958,2.958,0,0,1,1.216.829,3.162,3.162,0,0,1,.647,1.291,7.942,7.942,0,0,1,.177,1.719v6.887h-1.3v-6.673a6.336,6.336,0,0,0-.114-1.286,2.968,2.968,0,0,0-.438-1.026,2.165,2.165,0,0,0-.841-.688,3.322,3.322,0,0,0-1.327-.243,3.287,3.287,0,0,0-1.393.284,2.9,2.9,0,0,0-1.038.771,3.347,3.347,0,0,0-.659,1.155,4.823,4.823,0,0,0-.243,1.459v6.248h-1.322v-10.7Z" transform="translate(-389.936 -88.28)"/>
      <path id="Path_94" data-name="Path 94" d="M598.188,164.345a4.088,4.088,0,0,1-.829,1.624,3.42,3.42,0,0,1-1.458,1.014,6.163,6.163,0,0,1-2.21.343,6.683,6.683,0,0,1-1.583-.173,4.456,4.456,0,0,1-1.368-.593,3.4,3.4,0,0,1-1.019-1,2.977,2.977,0,0,1-.462-1.476h1.3a2.317,2.317,0,0,0,1.121,1.665,3.477,3.477,0,0,0,.948.374,5.315,5.315,0,0,0,1.06.1,3.1,3.1,0,0,0,2.626-1.031,4.747,4.747,0,0,0,.817-2.98v-1.459h-.046a3.818,3.818,0,0,1-1.327,1.6,3.626,3.626,0,0,1-2.069.6,5.1,5.1,0,0,1-2.188-.421,4.028,4.028,0,0,1-1.5-1.174,4.767,4.767,0,0,1-.86-1.755,7.835,7.835,0,0,1-.273-2.151,6.521,6.521,0,0,1,.314-2.074,4.986,4.986,0,0,1,.943-1.719,4.582,4.582,0,0,1,1.5-1.167,4.9,4.9,0,0,1,2.069-.416,3.675,3.675,0,0,1,1.125.16,3.19,3.19,0,0,1,.973.486,4.442,4.442,0,0,1,.771.681,2.917,2.917,0,0,1,.532.829h.046v-1.86h1.3v9.831a8.33,8.33,0,0,1-.243,2.127m-3-2.844a3.614,3.614,0,0,0,1.084-.948,4.869,4.869,0,0,0,.651-1.369,6.307,6.307,0,0,0,.214-1.57,7.391,7.391,0,0,0-.185-1.57,4.663,4.663,0,0,0-.618-1.439,3.253,3.253,0,0,0-1.055-1.031,3,3,0,0,0-1.587-.391,3.128,3.128,0,0,0-1.595.379,3.357,3.357,0,0,0-1.1,1,4.309,4.309,0,0,0-.635,1.422,6.568,6.568,0,0,0-.207,1.629,6.036,6.036,0,0,0,.214,1.57,4.536,4.536,0,0,0,.639,1.369,3.453,3.453,0,0,0,1.1.948,3.284,3.284,0,0,0,1.583.362,2.951,2.951,0,0,0,1.493-.362" transform="translate(-381.105 -88.276)"/>
      <path id="Path_95" data-name="Path 95" d="M595.528,143.91l5.725,23.432,5.161-23.432h8.049l-7.823,32.98H596.364L591.208,155.5l-5.12,21.392H575.92l-7.835-32.98h8.292l5.21,23.432L587.2,143.91Z" transform="translate(-483.474 -128.52)"/>
      <path id="Path_96" data-name="Path 96" d="M583.337,160.662v.119c.669,2.674,3.846,3.775,6.726,3.775a17.1,17.1,0,0,0,8.265-2v6.5a17.015,17.015,0,0,1-9.157,2.229c-8.445,0-13.446-5-13.446-12.665,0-8.44,5.222-13.448,12.327-13.448,8.28,0,10.939,5.613,10.939,12.113v3.384Zm8.445-4.439c0-2.387-1-4.6-3.89-4.6-2.555,0-4.06,1.879-4.492,4.6Z" transform="translate(-445.816 -122.338)"/>
      <path id="Path_97" data-name="Path 97" d="M580.264,143.91h8.265v25.714h12.563v7.266H580.254Z" transform="translate(-423.507 -128.52)"/>
      <path id="Path_98" data-name="Path 98" d="M591.523,160.662v.119c.671,2.674,3.834,3.775,6.722,3.775a17.049,17.049,0,0,0,8.266-2v6.5a17,17,0,0,1-9.155,2.229c-8.445,0-13.448-5-13.448-12.665,0-8.44,5.234-13.448,12.339-13.448,8.265,0,10.939,5.613,10.939,12.113v3.384Zm8.445-4.439c0-2.387-1-4.6-3.89-4.6-2.56,0-4.055,1.879-4.492,4.6Z" transform="translate(-405.515 -122.338)"/>
      <path id="Path_99" data-name="Path 99" d="M588.454,147.5a36.49,36.49,0,0,1,12.446-2.336c6.549,0,10.886,2.394,10.886,10.276v15.271h-7.9V155.778a3.16,3.16,0,0,0-3.557-3.561,12.232,12.232,0,0,0-3.994.617v17.88h-7.888Z" transform="translate(-383.144 -122.338)"/>
      <path id="Path_100" data-name="Path 100" d="M618.1,180.157a45.6,45.6,0,0,1-10.9,1.274c-8.659,0-14.323-4.551-14.323-13A13.19,13.19,0,0,1,610.2,155.989V143.1H618.1Zm-7.9-17.216a8.078,8.078,0,0,0-3.664-.729,5.363,5.363,0,0,0-5.666,5.944,5.988,5.988,0,0,0,6.607,6.564,18.413,18.413,0,0,0,2.72-.219Z" transform="translate(-361.35 -132.494)"/>
      <path id="Path_101" data-name="Path 101" d="M598.394,146.438a5.874,5.874,0,0,1,1.332-1.925,6.272,6.272,0,0,1,1.945-1.286,6.15,6.15,0,0,1,6.678,1.286,6.007,6.007,0,0,1,1.821,4.32,6.267,6.267,0,0,1-.486,2.448,6.194,6.194,0,0,1-1.327,1.945,6.08,6.08,0,0,1-1.945,1.281,6.462,6.462,0,0,1-4.74,0,6.15,6.15,0,0,1-1.945-1.281,6.015,6.015,0,0,1-1.332-1.945,6.156,6.156,0,0,1-.486-2.448,5.981,5.981,0,0,1,.486-2.394m1,4.48a5.281,5.281,0,0,0,1.067,1.653,4.778,4.778,0,0,0,1.607,1.1,4.976,4.976,0,0,0,5.559-1.1,5.161,5.161,0,0,0,1.06-1.653,5.425,5.425,0,0,0,.379-2.086,5.245,5.245,0,0,0-.379-2.032,4.988,4.988,0,0,0-1.06-1.641,4.975,4.975,0,0,0-5.559-1.1,5.049,5.049,0,0,0-1.607,1.1,5.106,5.106,0,0,0-1.067,1.641,5.462,5.462,0,0,0-.367,2.032,5.652,5.652,0,0,0,.367,2.086m5.044-5.625a2.846,2.846,0,0,1,1.879.515,1.833,1.833,0,0,1,.622,1.529,1.731,1.731,0,0,1-.539,1.41,2.465,2.465,0,0,1-1.34.532l2.032,3.141h-1.179l-1.945-3.063h-1.174v3.063h-1.113V145.3Zm-.486,3.16a5.4,5.4,0,0,0,.7-.029,1.923,1.923,0,0,0,.606-.136,1.041,1.041,0,0,0,.42-.35,1.216,1.216,0,0,0,.143-.669,1.053,1.053,0,0,0-.131-.569,1.026,1.026,0,0,0-.367-.326,1.328,1.328,0,0,0-.5-.148,3.57,3.57,0,0,0-.552-.041h-1.476v2.271Z" transform="translate(-336.558 -134.213)"/>
    </g>
  </g>
</svg>
