<svg xmlns="http://www.w3.org/2000/svg" xmlns:xlink="http://www.w3.org/1999/xlink" width="500" height="300" viewBox="0 0 500 300">
  <defs>
    <clipPath id="clip-logo_27">
      <rect width="500" height="300"/>
    </clipPath>
  </defs>
  <g id="logo_27" clip-path="url(#clip-logo_27)">
    <g id="Group_11" data-name="Group 11" transform="translate(133.924 119.031)">
      <path id="Path_2285" data-name="Path 2285" d="M580.2,97.216a8.882,8.882,0,0,0-9.338,6.313c-.726,2.676-14.8,56.029-14.8,56.029h10.477c6.218-.572,8.735-4.182,9.368-6.341.644-2.553,14.7-56.008,14.7-56.008Z" transform="translate(-556.055 -97.046)"/>
      <path id="Path_2286" data-name="Path 2286" d="M603.378,97.216a8.882,8.882,0,0,0-9.338,6.313c-.727,2.676-4.46,16.854-4.46,16.854H564.433L560.9,133.864h25.015l-6.669,25.707h10.477c6.218-.572,8.728-4.182,9.368-6.341.645-2.553,14.709-56.008,14.709-56.008Z" transform="translate(-534.032 -97.046)"/>
      <path id="Path_2287" data-name="Path 2287" d="M580.849,107.855l-.023.073.023-.073" transform="translate(-443.3 -48.491)"/>
      <path id="Path_2288" data-name="Path 2288" d="M619.91,157.971c-.888,0-1.633-1.777-1.633-1.777l-9.368-20.806-13.536-30.672c-3.066-5.819-7.24-7.268-9.577-7.516H571.9l27.552,59.848a5.521,5.521,0,0,0,4.514,2.476h13.536a3.719,3.719,0,0,0,3.943-3.066c-.078.312-.5,1.51-1.537,1.51" transform="translate(-483.929 -97.024)"/>
      <path id="Path_2289" data-name="Path 2289" d="M568.89,157.289h10.295a8.91,8.91,0,0,0,9.45-6.291l7.585-28.711-11.333-24.6Z" transform="translate(-497.64 -94.787)"/>
      <path id="Path_2290" data-name="Path 2290" d="M590.1,156.642a.683.683,0,0,0,.456-.139l15.7-59.311H595.843c-6.345.649-8.639,4.159-9.338,6.318-.456,1.695-7.812,29.244-7.812,29.244l9.794,21.737s.872,2.148,1.615,2.148" transform="translate(-453.029 -97.034)"/>
      <path id="Path_2291" data-name="Path 2291" d="M670.153,97.868a12.9,12.9,0,0,0-1.594-.089,10.022,10.022,0,0,0-6.264,2.12c-3.464,3.17-7.516,14.23-20.35,24.953h0c-4.63-11.5-8.817-21.865-9.584-23.625l-.034-.05a6.717,6.717,0,0,0-6.345-4.009H617.1c-2.189.139-4.309,1.444-7.662,6.808l-24.865,40.578c-6.605,11.044,0,15.032,5.774,14.964a118.222,118.222,0,0,0,12.955-1.843,78.223,78.223,0,0,0,29.078-11.955h-.016l4.065,9.468a8.571,8.571,0,0,0,8.024,4.464h11.5s-4.8-11.944-10.083-25.054v.023a114.281,114.281,0,0,0,19.378-26.386l.016-.027c.162-.278.456-.838.815-1.544a2.19,2.19,0,0,0,.166-.317c.911-1.754,1.854-3.542,2.649-5.407h0a4.084,4.084,0,0,0-.194.455c.888-1.954,1.209-2.831,1.455-3.526m-42.2,3.644s1.032-1.931,2.259-1.893c.888.039,1.742,1.089,2.05,1.521a1.381,1.381,0,0,0-.7-.255C630.349,100.842,629.3,103,629.3,103l-8.723,14.925,6.9,16.264a102.552,102.552,0,0,1-23.165,7.634h-.023c7.824-12.944,20.2-34.253,23.671-40.313m39.55-1.56H667.5c-.456,1.116-3.077,6.377-3.681,7.414a114.8,114.8,0,0,1-15.763,21.516,78.819,78.819,0,0,1-29.278,19.462,35.078,35.078,0,0,1-11.616,2.733,6.423,6.423,0,0,1-4.742-1.494,3.786,3.786,0,0,1-.456-3.927c.371-.578.749-1.2,1.139-1.854,10.539-2.337,24.6-6.507,36.419-15.114a78.384,78.384,0,0,0,20.589-23.343,23.518,23.518,0,0,1,3.542-5.1,8.307,8.307,0,0,1,4.314-1.3c-.139.321-.294.656-.444,1.011" transform="translate(-438.813 -97.166)"/>
    </g>
  </g>
</svg>
