<svg xmlns="http://www.w3.org/2000/svg" xmlns:xlink="http://www.w3.org/1999/xlink" width="500" height="300" viewBox="0 0 500 300">
  <defs>
    <clipPath id="clip-logo_06">
      <rect width="500" height="300"/>
    </clipPath>
  </defs>
  <g id="logo_06" clip-path="url(#clip-logo_06)">
    <g id="Group_3" data-name="Group 3" transform="translate(106.379 -187.147)">
      <path id="Path_3" data-name="Path 3" d="M1164.71,504.239c0-1.883,0-2.045-2.97-2.159v-.73c1.8,0,3.62.13,5.5.13s3.668,0,5.486-.13c3.036,0,6.493,1.006,6.493,3.733,0,3.019-3.376,4.983-7.288,5.113a9.575,9.575,0,0,1-2.045-.146l-.341-.893a11.762,11.762,0,0,0,2,.211c2.581,0,4.545-1.412,4.545-3.474,0-2.5-1.964-3.652-5.1-3.652a21.109,21.109,0,0,0-3.1.341,3.943,3.943,0,0,0-.195,1.623v11.054c0,1.883,0,2.045,2.97,2.175v.714c-1.493,0-2.97-.114-4.5-.114s-3.019,0-4.415.114v-.714c3-.13,2.97-.292,2.97-2.175Z" transform="translate(-1084.765 -102.913)"/>
      <path id="Path_4" data-name="Path 4" d="M1183.65,516.085v.876c1.315.13,2.922.13,4.415.13a23.74,23.74,0,0,0,5.048-.406,4.321,4.321,0,0,0,.308-.779l.714-2.013h1.006a13.864,13.864,0,0,1-.308,1.623l-.341,2.532c-1.006.114-3,.1-4.87.114s-3.539-.114-5.356-.114-3.571,0-5.389.114v-.714c1.477-.195,1.623-.893,1.623-2.824v-10.4c0-1.883,0-2.045-2.97-2.159v-.731c1.412,0,2.873.13,4.415.13s3,0,4.513-.13v.731c-3,.114-2.97.276-2.97,2.159Z" transform="translate(-1074.924 -102.925)"/>
      <path id="Path_5" data-name="Path 5" d="M1200.592,511.648l3.912-7.175,3.912,7.175Zm5.194-10.388h-1.006c-.812,1.737-1.85,3.49-2.841,5.211l-4.237,7.272-1.526,2.484c-.763,1.25-.974,1.023-2.727,1.3v.714c1.185,0,2.37-.114,3.6-.114s2.4,0,3.587.114v-.714c-1.12-.13-2.662,0-2.662-.8a25.7,25.7,0,0,1,2.11-4.058h8.863l1.9,3.522c.26.438.227.812-.211.99a6.95,6.95,0,0,1-2.354.341v.714c1.38,0,2.759-.114,4.172-.114s2.776,0,4.156.114v-.714a3.555,3.555,0,0,1-1.721-.422,5.733,5.733,0,0,1-1.623-2.127Z" transform="translate(-1065.003 -102.969)"/>
      <path id="Path_6" data-name="Path 6" d="M1216.954,517.014h8.116a22.418,22.418,0,0,0,4.869-.26c.649-.162.779-.617.974-1.509l.276-1.4h1.006l-.1.6.13,3.7c-3.246,0-6.493-.114-9.739-.114s-6.493,0-9.739.114v-.7l3.036-2.841,10.616-10.453.779-.812.747-.893H1225.9c-2.354,0-4.691,0-7.045.1-3.133.1-2.792.308-2.938,1.347l-.227,1.4h-.974a12.042,12.042,0,0,0,0-3.944h17.515v.747l-.471.39Z" transform="translate(-1052.975 -102.912)"/>
      <path id="Path_7" data-name="Path 7" d="M1236.952,511.648l3.912-7.175,3.912,7.175Zm5.194-10.388h-1.006c-.812,1.737-1.85,3.49-2.841,5.211l-4.236,7.272-1.526,2.484c-.763,1.25-.974,1.023-2.727,1.3v.714c1.185,0,2.37-.114,3.6-.114s2.4,0,3.587.114v-.714c-1.12-.13-2.662,0-2.662-.8a25.681,25.681,0,0,1,2.11-4.058h8.9l1.9,3.522c.26.438.227.812-.211.99a6.951,6.951,0,0,1-2.354.341v.714c1.38,0,2.76-.114,4.172-.114s2.776,0,4.156.114v-.714a3.555,3.555,0,0,1-1.786-.455,5.727,5.727,0,0,1-1.623-2.126Z" transform="translate(-1042.343 -102.969)"/>
      <path id="Path_8" data-name="Path 8" d="M1162.522,496.456c0,1.867,0,2.045,2.97,2.159v.73c-1.493-.081-2.97-.13-4.5-.13s-3.019,0-4.415.13v-.73c3-.114,2.97-.292,2.97-2.159v-5.584h-12.531v5.584c0,1.867,0,2.045,2.97,2.159v.73c-1.493-.081-2.97-.13-4.5-.13s-3.019,0-4.415.13v-.73c3-.114,2.97-.292,2.97-2.159V485.4c0-1.883,0-2.045-2.97-2.175v-.714c1.4,0,2.873.114,4.415.114s3,0,4.5-.114v.714c-3,.13-2.97.292-2.97,2.175v4.415h12.531v-4.448c0-1.883,0-2.045-2.97-2.175v-.714c1.4,0,2.873.114,4.415.114s3,0,4.5-.114v.714c-3,.13-2.97.292-2.97,2.175Z" transform="translate(-1097.64 -114.672)"/>
      <path id="Path_9" data-name="Path 9" d="M1168.333,492.782l3.912-7.174,3.912,7.174Zm5.194-10.372h-1.006c-.812,1.737-1.85,3.49-2.857,5.194l-4.22,7.272-1.623,2.484c-.747,1.266-.958,1.039-2.711,1.3v.73c1.185-.081,2.37-.13,3.587-.13a33.113,33.113,0,0,1,3.6.13v-.73c-1.12-.114-2.662,0-2.662-.8a24.36,24.36,0,0,1,2.11-4.042h8.879l1.915,3.522c.26.438.227.812-.211.99a6.5,6.5,0,0,1-2.354.325v.73c1.38-.081,2.759-.13,4.172-.13s2.776,0,4.155.13v-.73a3.393,3.393,0,0,1-1.721-.406,5.879,5.879,0,0,1-1.623-2.143Z" transform="translate(-1085.157 -114.716)"/>
      <path id="Path_10" data-name="Path 10" d="M1183.609,485.394c0-1.883,0-2.045-2.97-2.175V482.5c1.753,0,3.571.114,5.422.114s3.652,0,5.47-.114c4.318-.179,6.33,1.623,6.33,3.652,0,2.629-3.068,4.188-6.1,4.658l7.11,7.126a2.986,2.986,0,0,0,1.785.665v.73a18.477,18.477,0,0,0-2.126-.13,18.961,18.961,0,0,0-2.142.13c-.5-.5-.844-.941-1.282-1.347l-7.45-7.369.13-.373a15.369,15.369,0,0,0,2.873-.1c2.191-.276,4.074-1.623,4.074-3.36,0-2.6-2.5-3.376-4.87-3.376a16.238,16.238,0,0,0-3.133.308,4.4,4.4,0,0,0-.179,1.623V496.4c0,1.867,0,2.045,2.97,2.159v.73c-1.51-.081-2.97-.13-4.513-.13s-3,0-4.415.13v-.73c3-.114,2.97-.292,2.97-2.159Z" transform="translate(-1073.017 -114.665)"/>
      <path id="Path_11" data-name="Path 11" d="M1203.48,490.476h2.094c4.01,0,6.2,1.023,6.2,3.685s-2.191,4.155-5.47,4.155a17.961,17.961,0,0,1-2.824-.211Zm-2.97,6.493c0,.877-.195,1.412-1.51,1.623v.73c1.136-.081,2.257-.13,3.409-.13a29.481,29.481,0,0,1,3.392.13c4.87.308,9.2-2.337,9.2-5.584,0-2.824-3.1-3.831-6.3-3.928,2.565-.341,5.227-1.753,5.227-3.961,0-2.548-2.63-3.36-5.535-3.36-1.753,0-3.506.114-5.324.114s-3.571,0-5.324-.114v.714c2.191,0,2.759.179,2.759,2.175Zm2.97-11.362a8.119,8.119,0,0,1,.162-1.786,10.767,10.767,0,0,1,2.467-.26c2.629,0,4.724.584,4.724,2.889s-2.4,3.246-5.129,3.246a19.676,19.676,0,0,1-2.224-.1Z" transform="translate(-1062.323 -114.666)"/>
      <path id="Path_12" data-name="Path 12" d="M1225.825,498.794a8.116,8.116,0,0,1-8.765-8.619c0-3.944,2.467-6.866,7.921-6.866,5.811,0,8.6,3.246,8.6,7.954C1233.665,495.694,1231.052,498.534,1225.825,498.794Zm-.357-16.524c-7.256,0-11.768,3.782-11.768,8.7,0,5.486,4.756,8.863,11.119,8.863,6.85,0,12.109-4.139,12.109-9.317s-4.756-8.246-11.379-8.246Z" transform="translate(-1052.383 -114.803)"/>
      <path id="Path_13" data-name="Path 13" d="M1238.941,493.766c-.195,3.409,2.305,4.4,6.412,4.4a7.451,7.451,0,0,0,5.324-1.623,5.891,5.891,0,0,0,1.25-4.026V484.9c0-1.4-.568-1.623-2.467-1.623h-.5v-.714c1.25,0,2.5.114,3.75.114s2.516,0,3.734-.114v.714h-.5c-1.98,0-2.565.211-2.565,1.623v8.9a5.227,5.227,0,0,1-1.38,3.506,7.206,7.206,0,0,1-3.246,1.931,19.235,19.235,0,0,1-4.22.5c-2.857,0-6.266-.341-7.759-2.484a4.529,4.529,0,0,1-.8-3.149v-8.668c0-1.883,0-2.045-2.97-2.175v-.714c1.412,0,2.889.114,4.415.114s3,0,4.513-.114v.714c-3,.13-2.97.292-2.97,2.175Z" transform="translate(-1040.355 -114.629)"/>
      <path id="Path_14" data-name="Path 14" d="M1255.429,485.394c0-1.883,0-2.045-2.97-2.175V482.5c1.753,0,3.555.114,5.405.114s3.668,0,5.486-.114c4.318-.179,6.314,1.623,6.314,3.652,0,2.629-3.068,4.188-6.1,4.658l7.11,7.126a3.021,3.021,0,0,0,1.786.665v.731a18.252,18.252,0,0,0-2.126-.13,18.7,18.7,0,0,0-2.126.13c-.5-.5-.844-.941-1.283-1.347l-7.45-7.369.114-.373a15.541,15.541,0,0,0,2.889-.1c2.191-.276,4.058-1.623,4.058-3.36,0-2.6-2.5-3.376-4.87-3.376a16.247,16.247,0,0,0-3.117.308,4.061,4.061,0,0,0-.195,1.623V496.4c0,1.867,0,2.045,2.97,2.159v.73c-1.493-.081-2.97-.13-4.512-.13s-3,0-4.4.13v-.73c3-.114,2.97-.292,2.97-2.159Z" transform="translate(-1028.259 -114.665)"/>
      <path id="Path_34" data-name="Path 34" d="M1215.008,451.552v-7.937a45.641,45.641,0,0,0-10.161-6.655,25.286,25.286,0,0,1-2.013-7.061c0-9.382,7.434-10.145,10.859-7.353a11.2,11.2,0,0,1,3.831,7.824v23.439a24.316,24.316,0,0,1-2.516-2.256Zm-2-1.8a43.646,43.646,0,0,1-7.45-10.989,40.743,40.743,0,0,1,7.467,4.675Zm-4.5,11.022a34.453,34.453,0,0,1-6.72-1.7,26.6,26.6,0,0,1-6.866-3.652,62.363,62.363,0,0,1,6.3.487,44.771,44.771,0,0,1,7.288,1.526Zm0,1.25v14.219a75.876,75.876,0,0,1-9.268-.6c-4.35-.763-11.1-2.906-14.755-6.119-5.616-4.172-6.3-12.986,6.493-13.895a43.4,43.4,0,0,0,10.194,4.788,44.489,44.489,0,0,0,7.353,1.607Zm4.464-.844a14.687,14.687,0,0,1-2.435-.162v-3.879a57.386,57.386,0,0,0-17.579-3.246,17.852,17.852,0,0,1-4.512-5.081c-3.669-6.022-1.737-13.992,8.116-12.986a30.673,30.673,0,0,1,6.493,2.11,59.359,59.359,0,0,0,9.853,13.521Zm-2.451,34.59V462.2c.617.081,1.932.13,2.451.178v33.389h2.013v-42.82c.568.487,2.094,1.818,2.484,2.094v40.71h2.045V430.077s-.373-14.317-11.931-14.609c-5.162-.179-9.739,5.357-7.5,14.609a29.205,29.205,0,0,0,2.191,5.925,32.611,32.611,0,0,0-11.363-2.565c-14.479.081-12.856,13.326-2.451,20.68a54,54,0,0,0-6.493,1.007c-11.1,2.532-9.171,12.417-.941,17.044,4.772,2.678,11.362,4.285,19.478,5.162a60.047,60.047,0,0,0,7.889.357v16.232h-3.149v1.964Zm16.005-44.216v-7.938a46.027,46.027,0,0,1,10.178-6.655,24.733,24.733,0,0,0,2-7.061c0-9.382-7.434-10.145-10.843-7.353a11.264,11.264,0,0,0-3.847,7.824v23.439a22.855,22.855,0,0,0,2.532-2.256Zm2.013-1.8a44.07,44.07,0,0,0,7.45-10.989,40.175,40.175,0,0,0-7.467,4.675Zm4.5,11.022a34.09,34.09,0,0,0,6.7-1.7,27.031,27.031,0,0,0,6.883-3.652,62.017,62.017,0,0,0-6.3.487,44.761,44.761,0,0,0-7.288,1.526Zm0,1.25v14.219a76.061,76.061,0,0,0,9.268-.6c4.35-.763,11.086-2.906,14.738-6.119,5.633-4.172,6.314-12.986-6.493-13.895a43,43,0,0,1-10.178,4.788,44.5,44.5,0,0,1-7.336,1.607Zm-4.464-.844a14.508,14.508,0,0,0,2.418-.162v-3.879a57.585,57.585,0,0,1,17.6-3.246,17.859,17.859,0,0,0,4.561-5.1c3.652-6.022,1.737-13.992-8.116-12.986a31.039,31.039,0,0,0-6.493,2.11,59.857,59.857,0,0,1-9.837,13.521Zm2.451,34.59V462.2c-.617.081-1.931.13-2.451.178v33.389h-2.029v-42.8c-.568.487-2.094,1.818-2.484,2.094v40.71h-2.045V430.06s.39-14.317,11.947-14.609c5.162-.179,9.74,5.357,7.483,14.609a29.194,29.194,0,0,1-2.175,5.925,32.611,32.611,0,0,1,11.362-2.565c14.479.081,12.856,13.327,2.451,20.68a53.993,53.993,0,0,1,6.493,1.006c11.1,2.532,9.172,12.418.941,17.044-4.772,2.678-11.362,4.285-19.478,5.162a60.074,60.074,0,0,1-7.889.357V493.9h3.149v1.964Z" transform="translate(-1076.968 -156.447)"/>
    </g>
  </g>
</svg>
