<svg xmlns="http://www.w3.org/2000/svg" xmlns:xlink="http://www.w3.org/1999/xlink" width="500" height="300" viewBox="0 0 500 300">
  <defs>
    <clipPath id="clip-logo_17">
      <rect width="500" height="300"/>
    </clipPath>
  </defs>
  <g id="logo_17" clip-path="url(#clip-logo_17)">
    <g id="Group_25" data-name="Group 25" transform="translate(147.215 83.07)">
      <path id="Path_2181" data-name="Path 2181" d="M358.272,157.2v-.812a3.6,3.6,0,0,0,1.908-.328c.3-.227.44-.768.44-1.629V141.515c0-1-.125-1.6-.394-1.808a3.263,3.263,0,0,0-1.734-.3h-.22v-.846c.386.024,8.5.024,9.016,0v.846h-.345a2.507,2.507,0,0,0-1.693.394,2.644,2.644,0,0,0-.406,1.783v4.907h8.661v-4.985c0-1-.142-1.6-.411-1.808a3.249,3.249,0,0,0-1.734-.3h-.208v-.846c.406.024,8.48.024,9.05,0v.846h-.337a1.7,1.7,0,0,0-2.14,2.177V153.94c0,1.115.144,1.788.46,2.045a2.9,2.9,0,0,0,1.854.394h.178v.8h-9.05v-.8a3.547,3.547,0,0,0,1.9-.328c.3-.227.453-.768.453-1.629v-6.78h-8.651v6.3c0,1.128.149,1.8.448,2.057a2.935,2.935,0,0,0,1.825.382h.174v.812c-.489-.024-7.759,0-9.028,0" transform="translate(-275.394 -127.347)"/>
      <path id="Path_2182" data-name="Path 2182" d="M358.274,160.754v-.8a3.462,3.462,0,0,0,1.9-.335,2.079,2.079,0,0,0,.46-1.622V145.083c0-1-.144-1.6-.418-1.812a3.32,3.32,0,0,0-1.712-.3h-.215v-.841c.386.024,8.439.024,8.95,0v.841h-.34a2.542,2.542,0,0,0-1.7.4,2.691,2.691,0,0,0-.394,1.788v6.076l7.9-6.428a7.382,7.382,0,0,0,.859-.829,1.223,1.223,0,0,0,.2-.536.489.489,0,0,0-.352-.472,7.058,7.058,0,0,0-1.585-.091v-.751h6.763v.758h-.183a3.27,3.27,0,0,0-1.729.555,17.79,17.79,0,0,0-1.825,1.4l-5.362,4.354,7.047,9.332a3.3,3.3,0,0,0,1.025.8,5.287,5.287,0,0,0,2.314.585h.154v.841c-2.5,0-6.076.269-7.186-.709-.717-.643-6.4-8.373-6.4-8.373l-1.646,1.3v5.3c.042.228.042,1.1.448,1.323a4.467,4.467,0,0,0,1.986.364v.8Z" transform="translate(-275.384 -109.626)"/>
      <path id="Path_2183" data-name="Path 2183" d="M381.808,159.607l.8.029-.841,3.4a8.169,8.169,0,0,1-3.488,1.957,12.23,12.23,0,0,1-3.2.472,12.646,12.646,0,0,1-9.128-2.982,9.165,9.165,0,0,1-2.779-6.959,8.942,8.942,0,0,1,2.82-6.6,12.269,12.269,0,0,1,8.916-3.136,17.093,17.093,0,0,1,4.376.543,8.316,8.316,0,0,1,2.488,1.049l.037,4.048-.692.017a4.794,4.794,0,0,0-1.592-3.124,6.284,6.284,0,0,0-4.251-1.414,7.4,7.4,0,0,0-5.54,2.152,8.957,8.957,0,0,0-2.182,6.1,9.073,9.073,0,0,0,.345,3.077,8.933,8.933,0,0,0,1.335,2.749,6.629,6.629,0,0,0,2.6,2.255,8.3,8.3,0,0,0,3.752.854,6.308,6.308,0,0,0,4.068-1.575,7.234,7.234,0,0,0,2.153-2.9" transform="translate(-251.089 -91.567)"/>
      <path id="Path_2184" data-name="Path 2184" d="M367.325,146.918v10.824a1.91,1.91,0,0,0,.46,1.539,2.383,2.383,0,0,0,1.927.68v.793h-5.9v-.793a2.018,2.018,0,0,0,1.837-.692,1.957,1.957,0,0,0,.435-1.526v-12.2a2.135,2.135,0,0,0-.668-1.634,2.708,2.708,0,0,0-2.534-1.02v-.758h6.8l5.181,11.707,4.52-11.707h6.531v.758a3.219,3.219,0,0,0-2,.7,3.07,3.07,0,0,0-.716,1.957v12.2c0,.966.174,1.331.435,1.609a2.542,2.542,0,0,0,1.883.609v.793h-8.842v-.793a2.732,2.732,0,0,0,1.957-.656,1.956,1.956,0,0,0,.448-1.563V146.918l-5.42,14.055h-.734Z" transform="translate(-252.505 -109.624)"/>
      <path id="Path_2185" data-name="Path 2185" d="M439,221.234H354.449V136.678H439Zm-6.524-78.027H360.972v71.5h71.509Z" transform="translate(-294.368 -136.678)"/>
      <rect id="Rectangle_89" data-name="Rectangle 89" width="1.079" height="41.068" transform="translate(106.959 32.5)"/>
      <path id="Path_2186" data-name="Path 2186" d="M358.272,157.2v-.8a3.6,3.6,0,0,0,1.908-.328c.3-.245.44-.775.44-1.629V141.523c0-1-.125-1.6-.394-1.808a3.263,3.263,0,0,0-1.734-.3h-.22v-.854c.386.024,8.5.024,9.016,0v.854h-.345a2.546,2.546,0,0,0-1.693.387,2.653,2.653,0,0,0-.406,1.788v4.9h8.661v-4.98c0-1-.142-1.6-.411-1.808a3.25,3.25,0,0,0-1.734-.3h-.208v-.854c.406.024,8.48.024,9.05,0v.854h-.337a2.612,2.612,0,0,0-1.729.394,2.581,2.581,0,0,0-.411,1.783v12.362c0,1.115.144,1.783.46,2.045a2.935,2.935,0,0,0,1.854.394h.178v.8h-9.05v-.8a3.547,3.547,0,0,0,1.9-.328c.3-.245.453-.775.453-1.629v-6.78h-8.651v6.3c0,1.12.149,1.8.448,2.052a2.916,2.916,0,0,0,1.825.386h.174v.8c-.489-.017-7.759,0-9.028,0" transform="translate(-275.394 -127.349)"/>
      <path id="Path_2187" data-name="Path 2187" d="M358.274,160.753v-.8a3.52,3.52,0,0,0,1.9-.335,2.09,2.09,0,0,0,.46-1.622V145.081c0-1-.144-1.6-.418-1.808a3.18,3.18,0,0,0-1.712-.3h-.215v-.841c.386.024,8.439.024,8.95,0v.841h-.34a2.583,2.583,0,0,0-1.7.394,2.691,2.691,0,0,0-.394,1.788v6.083l7.9-6.428a6.813,6.813,0,0,0,.859-.834,1.2,1.2,0,0,0,.2-.531.489.489,0,0,0-.352-.472,6.707,6.707,0,0,0-1.585-.09v-.751h6.763v.751h-.183a3.227,3.227,0,0,0-1.729.56,18.517,18.517,0,0,0-1.825,1.394l-5.362,4.354,7.047,9.332a3.326,3.326,0,0,0,1.025.8,5.465,5.465,0,0,0,2.314.585h.154v.841c-2.5,0-6.076.262-7.186-.717-.717-.643-6.4-8.373-6.4-8.373l-1.646,1.3v5.3c.042.22.042,1.1.448,1.323a4.556,4.556,0,0,0,1.986.364v.8Z" transform="translate(-275.384 -109.619)"/>
      <path id="Path_2188" data-name="Path 2188" d="M381.81,159.607l.8.037-.841,3.393a8.125,8.125,0,0,1-3.488,1.957,14.108,14.108,0,0,1-12.333-2.517,9.143,9.143,0,0,1-2.778-6.954,8.923,8.923,0,0,1,2.82-6.6,12.27,12.27,0,0,1,8.916-3.136,17.332,17.332,0,0,1,4.376.536,8.266,8.266,0,0,1,2.487,1.057l.037,4.048h-.692a4.779,4.779,0,0,0-1.592-3.119,6.284,6.284,0,0,0-4.251-1.414,7.417,7.417,0,0,0-5.54,2.148,8.98,8.98,0,0,0-2.182,6.1,9.108,9.108,0,0,0,.345,3.082,8.9,8.9,0,0,0,1.335,2.742,6.582,6.582,0,0,0,2.605,2.255,8.223,8.223,0,0,0,3.752.859,6.311,6.311,0,0,0,4.068-1.58,7.233,7.233,0,0,0,2.152-2.9" transform="translate(-251.091 -91.569)"/>
      <path id="Path_2189" data-name="Path 2189" d="M367.325,146.912V157.74a1.9,1.9,0,0,0,.46,1.534,2.363,2.363,0,0,0,1.927.68v.8h-5.9v-.8a2.018,2.018,0,0,0,1.837-.692,1.957,1.957,0,0,0,.435-1.521v-12.2a2.157,2.157,0,0,0-.668-1.639,2.734,2.734,0,0,0-2.534-1.02v-.751h6.8l5.181,11.707,4.52-11.707h6.531v.751a3.261,3.261,0,0,0-2,.7,3.058,3.058,0,0,0-.716,1.957v12.2a2.094,2.094,0,0,0,.435,1.609,2.568,2.568,0,0,0,1.884.6v.8h-8.842v-.8a2.732,2.732,0,0,0,1.957-.656,1.957,1.957,0,0,0,.448-1.556V146.914l-5.42,14.055h-.734Z" transform="translate(-252.505 -109.618)"/>
      <path id="Path_2190" data-name="Path 2190" d="M439,221.234H354.449V136.678H439Zm-6.524-78.027H360.972V214.72h71.509Z" transform="translate(-294.368 -136.678)"/>
      <rect id="Rectangle_90" data-name="Rectangle 90" width="1.079" height="41.061" transform="translate(106.959 32.505)"/>
      <path id="Path_2191" data-name="Path 2191" d="M359.422,154.976a38.442,38.442,0,0,1-5.332.758v1.957h7.751c.137,0,.22.108.22.311v.609c0,.2-.083.316-.22.316h-7.186a18.157,18.157,0,0,0,2.153,1.712,15.328,15.328,0,0,0,2.874,1.622,14.406,14.406,0,0,0,2.837.876c0,.12-.066.191-.2.245-.294.3-.543.577-.758.841-.078.1-.142.149-.191.149a18.539,18.539,0,0,1-3.476-1.539,15.532,15.532,0,0,1-2.625-1.874c-.382-.328-.78-.709-1.186-1.132v3.106c0,.144-.1.208-.291.208h-.775c-.2,0-.286-.066-.286-.208v-2.766l-.526.435a17.139,17.139,0,0,1-2.04,1.617,24.61,24.61,0,0,1-2.659,1.419,11.252,11.252,0,0,1-2.069.734c-.09,0-.174-.078-.245-.245a9.756,9.756,0,0,0-.663-.734.415.415,0,0,1-.162-.262,26.788,26.788,0,0,0,3.363-1.079A16.777,16.777,0,0,0,350.5,160.5a20.628,20.628,0,0,0,1.712-1.592h-7.167c-.144,0-.215-.113-.215-.316v-.609c0-.2.071-.311.215-.311h7.676v-1.837c-1.676.108-3.4.174-5.171.174a.316.316,0,0,1-.328-.245,4.675,4.675,0,0,0-.43-.758c0-.2.078-.291.245-.291,2.935,0,5.014-.054,6.274-.179a22.845,22.845,0,0,0,5.188-.822,2.126,2.126,0,0,1,.519-.066.4.4,0,0,1,.274.154,6.209,6.209,0,0,1,.8.978c0,.137-.054.215-.154.215Zm-11.384,8.806h10.985c.208,0,.316.071.316.215v6.988c0,.144-.108.215-.316.215h-.758q-.3,0-.3-.215v-.465h-8.874v.465c0,.144-.1.215-.291.215h-.751c-.215,0-.316-.071-.316-.215V164.07c0-.2.1-.291.316-.291m1.044,2.8h8.867v-1.6h-8.869Zm0,2.737h8.867v-1.6h-8.869Z" transform="translate(-344.372 -52.405)"/>
      <path id="Path_2192" data-name="Path 2192" d="M348.655,158.591a13.682,13.682,0,0,1,1.58.9c.489.352.9.663,1.24.93a.671.671,0,0,1-.088.161c-.377.555-.58.829-.58.829a17.454,17.454,0,0,0-1.7-1.2,7.753,7.753,0,0,0-1.2-.631,9.938,9.938,0,0,1,.6-.846.968.968,0,0,1,.12-.137m2.85,4.938c.059,0,.1.054.12.154.323.717.489,1.091.489,1.132a.488.488,0,0,1-.078.262q-.822,2.02-1.514,3.442c-.274.531-.6,1.108-.978,1.746a1.648,1.648,0,0,0-.1.621c0,.161-.047.245-.154.245a6.308,6.308,0,0,1-1.223-1.223.345.345,0,0,1-.137-.245.327.327,0,0,1,.083-.245,8.352,8.352,0,0,0,1-1.257,23.867,23.867,0,0,0,1.36-2.392c.394-.763.734-1.468,1.013-2.123a.5.5,0,0,1,.071-.132m-1.861-9.4a15.641,15.641,0,0,1,1.539.817c.472.316.858.6,1.2.854a.736.736,0,0,1-.1.154c-.377.548-.58.822-.58.822a16.876,16.876,0,0,0-1.651-1.1,8.967,8.967,0,0,0-1.157-.577,3.538,3.538,0,0,1,.59-.854c.054-.078.108-.12.154-.12m3.637,1.957h2.732v-2.189c0-.166.108-.245.315-.245.961,0,1.438.078,1.438.245s-.066.269-.191.274-.191.154-.191.394v1.521h3.256v-2.189c0-.166.108-.245.3-.245.966,0,1.443.078,1.443.245s-.059.269-.191.274-.174.154-.174.394v1.521h2.791c.161,0,.245.1.245.311v.6c0,.208-.078.311-.245.311h-2.791v2.588h3.339c.137,0,.215.1.215.291v.6c0,.2-.078.311-.215.311h-3.165a13.8,13.8,0,0,0,1,1.556,8.181,8.181,0,0,0,1.406,1.468,4.762,4.762,0,0,0,1.353.834c0,.108-.066.166-.186.208a6.739,6.739,0,0,0-.68.78c-.078.108-.154.149-.2.149a7.8,7.8,0,0,1-1.693-1.431,8.562,8.562,0,0,1-.734-.9v3.537a.272.272,0,0,1-.311.311h-5.533v1.36c0,.555.323.834.978.834h5.022c.614,0,.978-.174,1.1-.519a4.03,4.03,0,0,0,.406-1.223,3.181,3.181,0,0,0,1.008.56.245.245,0,0,1,.22.269,4.177,4.177,0,0,1-.621,1.514c-.227.423-.775.626-1.675.626H356.85c-1.057,0-1.592-.411-1.592-1.223v-5.474l-.567.692a11.861,11.861,0,0,1-1.551,1.448.555.555,0,0,1-.352-.12c-.245-.245-.489-.46-.734-.663l-.059-.154c.489-.377.9-.692,1.223-1a8.462,8.462,0,0,0,1.455-1.676,17.4,17.4,0,0,0,1.057-1.778h-3.052c-.149,0-.227-.108-.227-.311v-.6c0-.2.078-.291.227-.291h3.263V157.28h-2.732c-.149,0-.215-.1-.215-.311v-.6c0-.208.066-.311.215-.311m2.837,7.125h5.976l-.174-.274a12.028,12.028,0,0,1-.954-1.842h-3.7c-.44.888-.829,1.6-1.14,2.116m.489,3.18h4.484V164.41h-4.484Zm.763-6.506h3.256v-2.593H357.3Z" transform="translate(-326.849 -52.491)"/>
      <path id="Path_2193" data-name="Path 2193" d="M351.893,157.846h2.2v-2.808a2.691,2.691,0,0,0-.09-.829,1.248,1.248,0,0,1-.071-.377c0-.1.137-.161.387-.161l1.526.215c.144.071.245.125.245.125,0,.179-.088.245-.245.245-.269.083-.4.382-.4.871v2.732h1.83c.149,0,.245.108.245.3v.626c0,.2-.083.286-.245.286h-1.83v3.28c.6-.323,1.174-.651,1.729-1l.066-.059c.144,0,.186.042.186.137a3.165,3.165,0,0,1-.071,1.066c-.651.4-1.27.788-1.908,1.169v6.034c0,.93-.675,1.377-2.033,1.377l-1.223-.078c-.1,0-.144-.1-.144-.323a2.945,2.945,0,0,0-.389-.9.137.137,0,0,1,.154-.154,5.26,5.26,0,0,0,1.438.245q.841,0,.841-.68v-4.735l-1.514.788c-.186.345-.345.526-.472.526s-.357-.531-.751-1.585a20.683,20.683,0,0,0,2.737-1.133v-3.965h-2.2c-.166,0-.245-.083-.245-.286v-.646c0-.191.066-.3.245-.3m6.142,3.8h3.4c.34-.631.631-1.257.912-1.866a8.236,8.236,0,0,0,.536-1.468.731.731,0,0,1,.042-.154l1.609.954a.7.7,0,0,1,.09.191c0,.132-.066.191-.245.215-.357.017-.548.066-.589.179-.286.6-.614,1.269-.949,1.957h6.477c.154,0,.245.1.245.316v.589c0,.215-.083.316-.245.316h-2.165a12.824,12.824,0,0,1-1.778,4.043c-.137.2-.281.369-.423.56l.286.179c1.468.912,2.744,1.754,3.786,2.5l-.12.161a5.289,5.289,0,0,1-.656.883,43.965,43.965,0,0,0-4.234-2.832l-.186.154a12.705,12.705,0,0,1-2.064,1.323,20.352,20.352,0,0,1-3.53,1.353c-.12,0-.2-.037-.22-.113-.179-.245-.382-.548-.609-.917a.325.325,0,0,1-.149-.245,3.471,3.471,0,0,0,1.091-.245c.567-.144,1.2-.328,1.883-.572a17.658,17.658,0,0,0,2.306-1.247l.245-.2c-1.025-.543-1.908-.978-2.659-1.282l-.876,1.336a.4.4,0,0,1-.245-.09,3.376,3.376,0,0,0-.709-.335c-.083-.017-.108-.083-.108-.191.978-1.468,1.742-2.678,2.272-3.645l.357-.6h-2.779c-.154,0-.245-.1-.245-.316v-.59c0-.215.078-.316.245-.316m5.085-7.971c.966,0,1.443.083,1.443.245a.269.269,0,0,1-.2.3c-.12.017-.186.132-.186.382v1.282h4.706c.2,0,.291.09.291.245v3.865c0,.154-.1.245-.291.245h-.758c-.2,0-.3-.083-.3-.245v-2.894h-8.426v2.874c0,.154-.108.245-.3.245h-.758c-.208,0-.311-.083-.311-.245v-3.779a.276.276,0,0,1,.311-.316h4.466v-1.957c0-.154.1-.245.311-.245m.626,13.13.144-.174a7.051,7.051,0,0,0,1.157-1.825,9.677,9.677,0,0,0,.758-1.937h-3.588l-.174.335c-.34.626-.763,1.353-1.289,2.177,1.108.489,2.1.978,2.982,1.426" transform="translate(-309.711 -52.341)"/>
      <path id="Path_2194" data-name="Path 2194" d="M355.433,157.445h2.277v-2.422a4.383,4.383,0,0,0-.066-.863.993.993,0,0,1-.069-.362c0-.112.108-.166.352-.166l1.538.215a.822.822,0,0,1,.215.12c0,.179-.059.245-.215.245-.245.108-.382.4-.382.888v2.355h1.957c.154,0,.245.1.245.291v.6c0,.215-.083.311-.245.311h-1.957v3.8c.7-.328,1.365-.656,2.02-1.008l.066-.059c.137,0,.186.054.186.161a3.359,3.359,0,0,1-.071,1.037c-.734.423-1.468.793-2.2,1.157V169.8c0,.929-.68,1.389-2.057,1.389h-.675c-.112,0-.166-.12-.166-.328a2.992,2.992,0,0,0-.357-.9.147.147,0,0,1,.149-.166,3.134,3.134,0,0,0,.917.166q.822,0,.822-.68V164.4l-1.6.7c-.179.345-.328.526-.448.526s-.369-.536-.763-1.6a20.026,20.026,0,0,0,2.808-.978v-4.388h-2.277c-.144,0-.227-.1-.227-.311v-.6c0-.191.083-.291.227-.291m7.282-3.124h7.827c.2,0,.291.078.291.245v6.142c0,.144-.1.22-.291.22h-4.985c-.3.489-.58.917-.822,1.294h7.338c.154,0,.245.1.245.3a48.541,48.541,0,0,1-.245,5.122,9.891,9.891,0,0,1-.626,2.779c-.245.643-.912.978-2.02.978-.768,0-1.15-.137-1.181-.423a4.021,4.021,0,0,0-.489-1.174v-.132a5.468,5.468,0,0,0,1.671.3.917.917,0,0,0,.978-.668,6.721,6.721,0,0,0,.435-2.074c.1-.793.186-2.057.245-3.794h-7.25a11.079,11.079,0,0,1-.876.937l-.245.208c.692.029,1.02.108,1.02.245,0,.179-.066.262-.191.274s-.174.174-.174.411v2.8h5.611c.149,0,.2.091.2.311v.572c0,.2-.054.3-.2.3h-5.611v.763c0,.137-.112.215-.315.215h-.751c-.208,0-.323-.078-.323-.215v-5.11l-.668.472a.543.543,0,0,1-.335-.108l-.734-.673a.473.473,0,0,1-.049-.154,14.833,14.833,0,0,0,1.269-.859,8.919,8.919,0,0,0,1.534-1.448,14.615,14.615,0,0,0,1.037-1.455h-1.331c-.191,0-.293-.078-.293-.22v-6.142c0-.166.1-.245.293-.245m1.074,2.659h5.689V155.55h-5.689Zm5.689,1.223h-5.689v1.509h5.689Zm-2.737,5.457c.912.489,1.372.758,1.372.846s-.029.161-.108.161a.472.472,0,0,0-.357.2l-.245.406a9.682,9.682,0,0,0,1.008.768,8.426,8.426,0,0,0,1.468.734.593.593,0,0,1,.132.113c0,.137-.281.489-.854,1.032l-.137-.037a13.344,13.344,0,0,1-2.4-1.6,3.889,3.889,0,0,1-.406.418c-.269.245-.717.6-1.348,1.066a.489.489,0,0,1-.364-.154l-.514-.472a.228.228,0,0,1-.12-.215c.328-.245.673-.489,1.008-.775a7.913,7.913,0,0,0,1.152-1.174,5.866,5.866,0,0,0,.626-1.157.834.834,0,0,1,.059-.154" transform="translate(-292.09 -52.529)"/>
      <path id="Path_2195" data-name="Path 2195" d="M358.679,156.846h5.611c.142,0,.208.108.208.323v.6c0,.208-.066.311-.208.311h-5.611c-.161,0-.245-.1-.245-.311v-.6c0-.215.078-.323.245-.323m.364,8.2h4.545c.208,0,.316.083.316.245v5.694c0,.144-.108.215-.316.215h-.758a.188.188,0,0,1-.208-.215v-.912h-2.51v.912c0,.144-.1.215-.311.215h-.758c-.154,0-.227-.071-.227-.215v-5.611c0-.208.071-.316.227-.316m.083-5.457h4.545c.154,0,.245.1.245.291v.626q0,.286-.245.286h-4.545c-.161,0-.245-.1-.245-.286v-.638c0-.191.078-.291.245-.291m0,2.72h4.545c.154,0,.245.1.245.311v.609c0,.208-.078.311-.245.311h-4.545c-.161,0-.245-.1-.245-.311v-.609c0-.208.078-.311.245-.311m.228-8.175h4.317q.245,0,.245.286v.609c0,.208-.078.311-.245.311h-4.317c-.149,0-.227-.1-.227-.311v-.609c0-.191.078-.286.227-.286m.758,14.705h2.51v-2.563h-2.51Zm5.909-14.784h4.019a.535.535,0,0,1,.328.1,1.705,1.705,0,0,1,.369.489,15.1,15.1,0,0,1-.68,1.932,8.92,8.92,0,0,1-.775,1.4,6.8,6.8,0,0,1-.834.929h4.8l-.526-.763a23.983,23.983,0,0,1-1.842-3.5l.829-.751.7,1.4.1-.108a5.482,5.482,0,0,0,.7-.656,4.777,4.777,0,0,0,.489-.775l.083-.1.871.621a.32.32,0,0,1,.191.286c0,.113-.071.161-.227.161a.289.289,0,0,0-.245.09,9.139,9.139,0,0,1-1.468,1.372l.386.6.44.621.166-.154a4.43,4.43,0,0,0,.8-.734,4.6,4.6,0,0,0,.567-.854l.071-.1.907.631a.318.318,0,0,1,.186.281c0,.1-.071.137-.245.137a.328.328,0,0,0-.269.12,10.282,10.282,0,0,1-1.568,1.468l.465.506a4.245,4.245,0,0,0,1.671,1.162.223.223,0,0,1-.137.215,9.667,9.667,0,0,0-.792.751.313.313,0,0,1-.274.108,9.094,9.094,0,0,1-1.83-1.754v.621c0,.2-.059.291-.208.291H368.15c-.161,0-.232-.09-.232-.291v-.465a9.022,9.022,0,0,1-1.152.685,6.188,6.188,0,0,1-1.438.536.4.4,0,0,1-.335-.149l-.4-.589c-.071-.071-.108-.125-.108-.166a.093.093,0,0,1,.083-.1,8.932,8.932,0,0,0,1.049-.335,5.227,5.227,0,0,0,1.568-.912l.017-.017c-.245-.245-.46-.453-.692-.656a5.982,5.982,0,0,0-.8-.567,3.8,3.8,0,0,1,.543-.8.939.939,0,0,1,.1-.12,8.753,8.753,0,0,1,1.115.822l.519.548.286-.352a9.052,9.052,0,0,0,.954-2.086H366c-.1,0-.132-.066-.132-.208v-.624c0-.137.037-.208.132-.208m6.849,12.511,1.169.489c.174.078.269.166.269.274a.179.179,0,0,1-.144.179.213.213,0,0,0-.215.186,10.709,10.709,0,0,1-.949,2.064h2.678c.149,0,.22.1.22.311v.6c0,.215-.071.311-.22.311H365.488c-.154,0-.245-.1-.245-.311v-.6c0-.208.078-.311.245-.311H372.2l-.489-.215a1.238,1.238,0,0,1-.149-.066.246.246,0,0,1,.042-.137,7.55,7.55,0,0,0,.651-1.223,5.379,5.379,0,0,0,.472-1.343.771.771,0,0,1,.078-.208m-5.963-4.853H374.2c.208,0,.311.071.311.227v3.948c0,.149-.1.245-.311.245h-7.358c-.191,0-.3-.083-.3-.245v-3.948c0-.154.108-.227.3-.227m1.539,4.853a11.826,11.826,0,0,1,.866,1.455,7.52,7.52,0,0,1,.567,1.282,3.916,3.916,0,0,1-1.223.364,4.4,4.4,0,0,0-.377-1.044,8.2,8.2,0,0,0-.834-1.468c0-.071.323-.281,1-.6m4.853-3.7h-5.4v2.111h5.4Z" transform="translate(-274.578 -52.397)"/>
      <path id="Path_2196" data-name="Path 2196" d="M363.591,157.95h5.731a12.767,12.767,0,0,0,.472-1.639c.149-.775.274-1.617.406-2.534,0-.1.024-.154.078-.154a5.2,5.2,0,0,1,1.5.7.323.323,0,0,1-.191.315.367.367,0,0,0-.186.365,23.663,23.663,0,0,1-.787,2.935h7.548c.154,0,.245.108.245.316v.6c0,.215-.078.316-.245.316h-5.42c.519.9,1,1.646,1.438,2.272h5.2c.142,0,.22.091.22.286v.626c0,.191-.078.286-.22.286h-4.261a14.275,14.275,0,0,0,2.189,2.135,9.859,9.859,0,0,0,2.446,1.443c0,.1-.054.149-.179.2a8.955,8.955,0,0,0-.638.717c-.066.108-.132.166-.186.166a15.1,15.1,0,0,1-3.035-2.219l-.174-.179a.489.489,0,0,1,.025.179,28.64,28.64,0,0,1-.208,3.645,5.64,5.64,0,0,1-.609,1.957c-.245.46-.854.68-1.908.68-.929,0-1.426-.149-1.468-.43a3.114,3.114,0,0,0-.589-1.157v-.144a7.976,7.976,0,0,0,2.057.291c.472,0,.775-.137.908-.423a4.558,4.558,0,0,0,.389-1.4c.071-.46.132-1.157.186-2.116h-3.549l-.245.751a6.046,6.046,0,0,1-.663,1.365,6.859,6.859,0,0,1-.883,1.14,5.723,5.723,0,0,1-1.2,1.008,6.461,6.461,0,0,1-1.282.709c-.394.149-.8.286-1.248.406a.345.345,0,0,1-.274-.12,9.741,9.741,0,0,0-.663-.793.144.144,0,0,1-.029-.286,8.907,8.907,0,0,0,1.289-.345,7.633,7.633,0,0,0,1.037-.489,5.279,5.279,0,0,0,1.223-.912,4.08,4.08,0,0,0,.883-1.013,3.621,3.621,0,0,0,.56-.912l.2-.489h-2.935c-.154,0-.245-.113-.245-.316v-.406a17.967,17.967,0,0,1-3.251,2.086.707.707,0,0,1-.4-.091,5.753,5.753,0,0,0-.6-.751.445.445,0,0,1-.154-.291,9.889,9.889,0,0,0,3.309-1.746,7.545,7.545,0,0,0,1.663-1.563l.179-.269h-4.682c-.149,0-.245-.1-.245-.286v-.626c0-.2.083-.286.245-.286h5.423a24.921,24.921,0,0,0,1.1-2.272h-5.3c-.149,0-.245-.1-.245-.315v-.6c0-.208.083-.316.245-.316m1.6-3.5a15.049,15.049,0,0,1,1.49,1.013c.448.386.846.734,1.157,1.054l-.1.174-.643.888a15.3,15.3,0,0,0-1.551-1.4,6.7,6.7,0,0,0-1.128-.734,4.574,4.574,0,0,1,.621-.854c.054-.09.1-.137.154-.137m1.676,10.334h8.561a14.058,14.058,0,0,1-1.808-2.135h-5.063a8.909,8.909,0,0,1-1.688,2.135m5.927-3.334c-.411-.673-.822-1.419-1.257-2.272H370.2a18.5,18.5,0,0,1-.949,2.272Zm3.327-7.133a5.522,5.522,0,0,1,1.049,1.044c0,.1-.059.144-.186.144-.245,0-.389.024-.43.1a11.251,11.251,0,0,1-2.414,2.04.3.3,0,0,1-.294-.174,1.672,1.672,0,0,0-.428-.489.353.353,0,0,1-.113-.228.159.159,0,0,1,.112-.161,8.007,8.007,0,0,0,1.223-.822,7.843,7.843,0,0,0,1.318-1.365.357.357,0,0,1,.108-.083" transform="translate(-257.408 -52.581)"/>
      <path id="Path_2197" data-name="Path 2197" d="M365.683,156.017h5.843c.262-.626.514-1.331.763-2.116.1-.166.2-.245.311-.245l1.521.543c.149.113.22.208.22.291a.306.306,0,0,1-.22.311c-.34,0-.536.12-.609.352l-.386.854h9.344c.137,0,.208.1.208.316v.619c0,.2-.071.3-.208.3h-9.911a17.48,17.48,0,0,1-1.074,1.908l-.186.291h9.033c.245,0,.386.1.386.3v10.244c0,.418-.328.763-.978,1.008a10.153,10.153,0,0,1-2.373.345.218.218,0,0,1-.245-.22,3.914,3.914,0,0,0-.44-1.223.294.294,0,0,1,.208-.078,8.362,8.362,0,0,0,2.064-.132.489.489,0,0,0,.386-.465v-1.36h-8.2v3.18c0,.132-.1.208-.3.208h-.758c-.208,0-.311-.078-.311-.208v-9.539l-.352.448a18.784,18.784,0,0,1-2.373,2.1,1.844,1.844,0,0,1-.472-.059c-.262-.113-.543-.245-.829-.335-.09-.037-.132-.083-.132-.132a.245.245,0,0,1,.154-.245,15.969,15.969,0,0,0,3.488-3.4,13.818,13.818,0,0,0,1.58-2.468l.1-.191h-5.271c-.144,0-.22-.1-.22-.3v-.6c0-.215.078-.316.22-.316m5.474,7h8.194V160.7h-8.194Zm0,3.632h8.194V164.2h-8.194Z" transform="translate(-239.775 -52.395)"/>
      <path id="Path_2198" data-name="Path 2198" d="M370.381,154.893v15.635c0,.137-.1.215-.3.215h-.758c-.208,0-.316-.078-.316-.215V153.973c0-.154.108-.227.316-.227h5.163a.8.8,0,0,1,.489.113c.316.245.489.418.489.506l-2.563,5.242a.9.9,0,0,0-.071.291.521.521,0,0,0,.125.274,7.128,7.128,0,0,1,1.543,2.094,5.96,5.96,0,0,1,.6,2.571,4.439,4.439,0,0,1-.377,1.879,2.263,2.263,0,0,1-1.162,1.186,2.864,2.864,0,0,1-1.651.352c-.328,0-.489-.113-.489-.335a2.578,2.578,0,0,0-.335-1.049c0-.144.083-.215.245-.215l.9.137a1.272,1.272,0,0,0,1.186-.6,2.38,2.38,0,0,0,.345-1.353,4.848,4.848,0,0,0-.514-2.045,8.674,8.674,0,0,0-1.837-2.446.733.733,0,0,1-.162-.154.929.929,0,0,1,.083-.377l2.561-4.921Zm7.365,6.834v6.528c.817-.274,1.6-.56,2.338-.876,0-.029.047-.037.09-.037.09,0,.137.066.137.22a3.467,3.467,0,0,1-.083,1.14c-1.431.585-2.9,1.1-4.383,1.592-.215.345-.386.526-.526.526s-.382-.56-.775-1.68a17.137,17.137,0,0,0,1.82-.453V154.054c0-.208.1-.3.316-.3H384.4c.2,0,.3.071.3.227v7.436a.274.274,0,0,1-.3.316h-3.525c.1.567.2,1.074.316,1.509a12.142,12.142,0,0,0,.775,2.219l.037.083a8.666,8.666,0,0,0,1.211-.841,9.251,9.251,0,0,0,1.742-1.788.778.778,0,0,1,.154-.125c.863.668,1.265,1.049,1.265,1.14s-.083.137-.227.137c-.274,0-.423.037-.448.091a16.525,16.525,0,0,1-2.982,2.571l.2.269a5.726,5.726,0,0,0,1.343,1.343,7.239,7.239,0,0,0,1.9,1.074c.1.049.132.1.132.137a.321.321,0,0,1-.083.245,7.547,7.547,0,0,0-.734.717q-.134.2-.245.2a1.276,1.276,0,0,1-.227-.154,11.508,11.508,0,0,1-1.223-.734,12.141,12.141,0,0,1-1.485-1.34,11.89,11.89,0,0,1-1.211-1.771,9.245,9.245,0,0,1-.822-2.16,18.733,18.733,0,0,1-.668-2.791Zm0-4.647h5.6v-2.116h-5.6Zm0,3.424h5.6v-2.2h-5.6Z" transform="translate(-222.129 -51.975)"/>
      <path id="Path_2199" data-name="Path 2199" d="M377.525,154.284l1.385.506c.144.1.208.186.208.245a.3.3,0,0,1-.208.311.423.423,0,0,0-.46.269,21.357,21.357,0,0,1-1.431,3.1,23.594,23.594,0,0,1-1.5,2.2,13.321,13.321,0,0,1-1.7,1.634.825.825,0,0,1-.423-.091,7.218,7.218,0,0,0-.8-.3c-.1-.066-.132-.1-.132-.154a.166.166,0,0,1,.12-.179,12.334,12.334,0,0,0,2.546-2.666,10.874,10.874,0,0,0,1.14-1.937,15.589,15.589,0,0,0,1.057-2.784c.066-.108.125-.174.208-.174m2.965,4.557a.526.526,0,0,1,.281.066c1.037.506,1.556.817,1.556.925s-.083.144-.245.144a.631.631,0,0,0-.58.364l-4.122,7.693c2.3-.22,5.137-.531,8.5-.978-.6-1.02-1.194-1.945-1.754-2.737,0-.161.316-.394.978-.709a.181.181,0,0,1,.154.078,47.6,47.6,0,0,1,3.72,5.856c0,.208-.054.316-.149.328a2.276,2.276,0,0,1-1.145.489c-.394-.788-.812-1.534-1.2-2.236-5.814.912-9.576,1.468-11.318,1.658a.4.4,0,0,0-.382.274c-.054.208-.149.3-.316.3s-.4-.7-.675-2.111c.626-.029,1.353-.066,2.128-.125,1.5-2.8,2.463-4.608,2.869-5.474a29.036,29.036,0,0,0,1.365-3.583.325.325,0,0,1,.311-.245m.536-5.08h4.034c.09,0,.186.091.245.245a17.419,17.419,0,0,0,1.443,4.5,5.3,5.3,0,0,0,2.862,2.837.276.276,0,0,1,.227.311.343.343,0,0,1-.125.215l-.675.638a.377.377,0,0,1-.34.2,8.1,8.1,0,0,1-3.077-3.209,22.917,22.917,0,0,1-1.468-4.513h-3.106c-.154,0-.245-.108-.245-.323v-.6c0-.191.09-.291.245-.291" transform="translate(-204.999 -52.021)"/>
      <path id="Path_2200" data-name="Path 2200" d="M376.326,153.766h14.938c.262,0,.394.108.394.311v14.615c0,.6-.382,1.062-1.14,1.414a10.406,10.406,0,0,1-2.754.526c-.125,0-.2-.078-.245-.228a3.3,3.3,0,0,0-.44-1.223c0-.066.09-.1.245-.1a6.873,6.873,0,0,0,2.48-.245.734.734,0,0,0,.448-.717V154.986H376.309c-.149,0-.245-.1-.245-.311v-.609c0-.2.09-.311.245-.311m.758,3.728h10.007q.244,0,.245.3v.621c0,.191-.078.291-.245.291h-9.992c-.154,0-.245-.1-.245-.291v-.621q0-.3.245-.3m1.211,3.424h7.888c.2,0,.316.078.316.215v6.237c0,.144-.113.22-.316.22h-.758c-.191,0-.294-.078-.294-.22V166.6h-5.773v2.116c0,.154-.1.228-.311.228h-.751c-.2,0-.291-.071-.291-.228V161.2a.245.245,0,0,1,.291-.286m1.062,4.466h5.777v-3.256h-5.777Z" transform="translate(-187.059 -51.905)"/>
      <path id="Path_2201" data-name="Path 2201" d="M344.51,157.492h5.381v1.257H347.78v7.066h-1.162v-7.066h-2.111Z" transform="translate(-343.705 -33.377)"/>
      <path id="Path_2202" data-name="Path 2202" d="M345.535,157.492H346.6v3.089h.025a1.612,1.612,0,0,1,1.448-.959c1.037,0,1.7.7,1.7,2.057v4.148H348.7v-3.786c-.017-.937-.3-1.353-.929-1.353-.717,0-1.169.692-1.169,1.585v3.554h-1.062Z" transform="translate(-338.608 -33.377)"/>
      <path id="Path_2203" data-name="Path 2203" d="M347.485,161.362c0,.949.4,1.778,1.294,1.778a1.145,1.145,0,0,0,1.169-1h1.008a2.236,2.236,0,0,1-2.177,2.052c-1.509,0-2.368-1.318-2.368-3.168,0-1.712.9-3.18,2.338-3.18,1.521,0,2.446,1.7,2.277,3.512Zm2.475-.876c-.037-.834-.489-1.592-1.211-1.592s-1.24.7-1.265,1.592Z" transform="translate(-334.26 -31.6)"/>
      <path id="Path_2204" data-name="Path 2204" d="M347.818,157.492h1.157v3.314h3.035v-3.314h1.155v8.316H352v-3.75h-3.036v3.75h-1.157Z" transform="translate(-327.301 -33.377)"/>
      <path id="Path_2205" data-name="Path 2205" d="M348.9,161.026c0-1.849.9-3.18,2.446-3.18s2.446,1.323,2.446,3.18-.9,3.18-2.446,3.18-2.446-1.336-2.446-3.18m3.811,0c0-1.037-.423-2.116-1.372-2.116s-1.365,1.079-1.365,2.116.411,2.116,1.365,2.116,1.372-1.066,1.372-2.116" transform="translate(-321.899 -31.608)"/>
      <path id="Path_2206" data-name="Path 2206" d="M349.888,158.015H350.9v.876l.017.024a1.68,1.68,0,0,1,1.49-1.066c1.049,0,1.712.7,1.712,2.045v4.144h-1.074v-3.786c-.017-.937-.311-1.36-.93-1.36-.709,0-1.169.709-1.169,1.592v3.554h-1.062Z" transform="translate(-317.009 -31.604)"/>
      <path id="Path_2207" data-name="Path 2207" d="M355.465,163.727c0,1.8-.863,2.708-2.38,2.708a1.957,1.957,0,0,1-2.148-1.883h1.057a1,1,0,0,0,1.162.888c.858,0,1.223-.548,1.223-1.543v-.912h-.017a1.631,1.631,0,0,1-1.438,1.054c-1.534,0-2.165-1.443-2.165-3.18,0-1.617.8-3.011,2.189-3.011a1.484,1.484,0,0,1,1.414.978h.017V158h1.074Zm-1.074-2.832c0-1.032-.369-1.991-1.294-1.991s-1.277,1.091-1.277,2.086.394,2,1.277,2c.942,0,1.294-1.066,1.294-2.094" transform="translate(-312.663 -31.604)"/>
      <path id="Path_2208" data-name="Path 2208" d="M352.228,157.492h1.157v3.786l2.965-3.786h1.443l-2.666,3.322,2.857,5h-1.455l-2.189-3.977-.954,1.186v2.791h-1.157Z" transform="translate(-305.39 -33.377)"/>
      <path id="Path_2209" data-name="Path 2209" d="M353.254,161.026c0-1.849.888-3.18,2.446-3.18s2.446,1.323,2.446,3.18-.9,3.18-2.446,3.18-2.446-1.336-2.446-3.18m3.811,0c0-1.037-.423-2.116-1.372-2.116s-1.372,1.079-1.372,2.116.406,2.116,1.372,2.116,1.372-1.066,1.372-2.116" transform="translate(-300.298 -31.608)"/>
      <path id="Path_2210" data-name="Path 2210" d="M354.238,158.015h1.008v.876l.024.024a1.688,1.688,0,0,1,1.5-1.066c1.044,0,1.7.7,1.7,2.045v4.144h-1.066v-3.786c-.017-.937-.311-1.36-.937-1.36-.709,0-1.162.709-1.162,1.592v3.554h-1.066Z" transform="translate(-295.414 -31.604)"/>
      <path id="Path_2211" data-name="Path 2211" d="M359.807,163.727c0,1.8-.854,2.708-2.38,2.708a1.957,1.957,0,0,1-2.14-1.883h1.062c.12.758.614.888,1.157.888.859,0,1.24-.548,1.24-1.543v-.912h-.017a1.639,1.639,0,0,1-1.448,1.054c-1.526,0-2.165-1.443-2.165-3.18,0-1.617.812-3.011,2.189-3.011a1.494,1.494,0,0,1,1.426.978h.017V158h1.062Zm-1.062-2.832c0-1.032-.377-1.991-1.306-1.991s-1.269,1.091-1.269,2.086.386,2,1.269,2c.942,0,1.306-1.066,1.306-2.094" transform="translate(-291.06 -31.604)"/>
      <path id="Path_2212" data-name="Path 2212" d="M356.579,157.492h1.629l1.849,6.519h0l1.8-6.519h1.609v8.316h-1.1V159.38h-.029l-1.849,6.428h-.954l-1.854-6.428h0v6.428h-1.108Z" transform="translate(-283.811 -33.377)"/>
      <path id="Path_2213" data-name="Path 2213" d="M357.924,161.026c0-1.849.9-3.18,2.446-3.18s2.426,1.323,2.426,3.18-.9,3.18-2.426,3.18-2.446-1.336-2.446-3.18m3.816,0c0-1.037-.423-2.116-1.372-2.116S359,159.989,359,161.026s.411,2.116,1.372,2.116,1.372-1.066,1.372-2.116" transform="translate(-277.121 -31.608)"/>
      <path id="Path_2214" data-name="Path 2214" d="M358.909,158.017h1v1.162h.017a1.663,1.663,0,0,1,1.394-1.331,2.154,2.154,0,0,1,.418.037v1.277a4.088,4.088,0,0,0-.465-.054c-.734,0-1.3.734-1.3,2.064v2.869h-1.062Z" transform="translate(-272.233 -31.605)"/>
      <path id="Path_2215" data-name="Path 2215" d="M359.4,159.392h.8v-1.82h1.057v1.82h.959v.978h-.959v3.219c0,.543.029.822.506.822a1.468,1.468,0,0,0,.453-.047v1.025a6.547,6.547,0,0,1-.7.078c-1.1,0-1.3-.543-1.318-1.551V160.38h-.8Z" transform="translate(-269.806 -32.98)"/>
      <path id="Path_2216" data-name="Path 2216" d="M364.675,163.727c0,1.8-.859,2.708-2.38,2.708a1.957,1.957,0,0,1-2.147-1.883h1.066c.12.758.6.888,1.152.888.866,0,1.24-.548,1.24-1.543v-.912h-.017a1.632,1.632,0,0,1-1.443,1.054c-1.526,0-2.165-1.443-2.165-3.18,0-1.617.8-3.011,2.182-3.011a1.5,1.5,0,0,1,1.426.978h.017V158h1.067Zm-1.067-2.832c0-1.032-.369-1.991-1.306-1.991s-1.265,1.091-1.265,2.086.394,2,1.265,2c.949,0,1.306-1.066,1.306-2.094" transform="translate(-266.923 -31.604)"/>
      <path id="Path_2217" data-name="Path 2217" d="M365.23,162.711c0,.323.059.435.245.435h.262v.917a2.289,2.289,0,0,1-.685.154.734.734,0,0,1-.8-.734,2.2,2.2,0,0,1-1.68.734,1.614,1.614,0,0,1-1.646-1.766c0-1.514.954-1.759,1.861-1.874.763-.179,1.443-.071,1.443-.854,0-.685-.572-.812-1-.812a.951.951,0,0,0-1.066.959h-1.074a1.971,1.971,0,0,1,2.2-2.016,1.729,1.729,0,0,1,1.932,1.754Zm-1.057-1.68a3.331,3.331,0,0,1-1.323.357.92.92,0,0,0-.859,1.008c0,.589.6.751.978.751a1.13,1.13,0,0,0,1.2-1.12Z" transform="translate(-262.261 -31.613)"/>
      <path id="Path_2218" data-name="Path 2218" d="M366.5,163.727c0,1.8-.854,2.708-2.373,2.708a1.957,1.957,0,0,1-2.14-1.883h1.054c.125.758.609.888,1.162.888.854,0,1.223-.548,1.223-1.543v-.912h-.017a1.632,1.632,0,0,1-1.438,1.054c-1.534,0-2.165-1.443-2.165-3.18,0-1.617.8-3.011,2.182-3.011a1.487,1.487,0,0,1,1.419.978h.017V158h1.062Zm-1.062-2.832c0-1.032-.369-1.991-1.3-1.991s-1.269,1.091-1.269,2.086.394,2,1.269,2c.942,0,1.3-1.066,1.3-2.094" transform="translate(-257.826 -31.604)"/>
      <path id="Path_2219" data-name="Path 2219" d="M363.825,161.362c0,.949.406,1.778,1.306,1.778a1.142,1.142,0,0,0,1.162-1h1.013a2.238,2.238,0,0,1-2.177,2.052c-1.514,0-2.373-1.318-2.373-3.168,0-1.712.908-3.18,2.338-3.18,1.522,0,2.446,1.7,2.277,3.512Zm2.488-.876c-.049-.834-.489-1.592-1.223-1.592s-1.24.7-1.269,1.592Z" transform="translate(-253.136 -31.6)"/>
      <path id="Path_2220" data-name="Path 2220" d="M368.941,160.309c-.191-.954-.68-1.663-1.651-1.663-1.438,0-2.028,1.58-2.028,3.18s.59,3.165,2.028,3.165c1.032,0,1.592-.966,1.693-2.182h1.128c-.09,2-1.223,3.368-2.82,3.368-2,0-3.18-1.986-3.18-4.354s1.186-4.366,3.18-4.366a2.808,2.808,0,0,1,2.815,2.85Z" transform="translate(-246.436 -33.548)"/>
      <path id="Path_2221" data-name="Path 2221" d="M365.247,161.026c0-1.849.9-3.18,2.446-3.18s2.427,1.323,2.427,3.18-.9,3.18-2.427,3.18-2.446-1.336-2.446-3.18m3.816,0c0-1.037-.418-2.116-1.365-2.116s-1.377,1.079-1.377,2.116.418,2.116,1.377,2.116,1.365-1.066,1.365-2.116" transform="translate(-240.775 -31.608)"/>
      <path id="Path_2222" data-name="Path 2222" d="M366.233,158.017h1v1.162h.017a1.656,1.656,0,0,1,1.4-1.331,2.139,2.139,0,0,1,.411.037v1.277a4.073,4.073,0,0,0-.465-.054c-.734,0-1.306.734-1.306,2.064v2.869h-1.054Z" transform="translate(-235.883 -31.605)"/>
      <path id="Path_2223" data-name="Path 2223" d="M366.812,158.017h1.008v.8h0a1.581,1.581,0,0,1,1.49-.966c1.526,0,2.26,1.438,2.26,3.2,0,1.622-.643,3.148-2.069,3.148a1.739,1.739,0,0,1-1.617-.949h-.024v3H366.8Zm2.373.883c-.888,0-1.36.846-1.36,2.128,0,1.223.489,2.116,1.36,2.116.978,0,1.335-1.062,1.335-2.116s-.465-2.128-1.335-2.128" transform="translate(-233.045 -31.6)"/>
      <path id="Path_2224" data-name="Path 2224" d="M367.737,161.026c0-1.849.9-3.18,2.446-3.18s2.434,1.323,2.434,3.18-.9,3.18-2.434,3.18-2.446-1.336-2.446-3.18m3.816,0c0-1.037-.431-2.116-1.377-2.116s-1.372,1.079-1.372,2.116.411,2.116,1.372,2.116,1.377-1.066,1.377-2.116" transform="translate(-228.418 -31.608)"/>
      <path id="Path_2225" data-name="Path 2225" d="M368.722,158.017h1v1.162h.017a1.656,1.656,0,0,1,1.4-1.331,2.131,2.131,0,0,1,.411.037v1.277a4.458,4.458,0,0,0-.465-.054c-.734,0-1.3.734-1.3,2.064v2.869h-1.062Z" transform="translate(-223.53 -31.605)"/>
      <path id="Path_2226" data-name="Path 2226" d="M373.549,162.712c0,.323.054.435.245.435h.262v.917a2.2,2.2,0,0,1-.68.154.758.758,0,0,1-.822-.734,2.157,2.157,0,0,1-1.671.734,1.614,1.614,0,0,1-1.639-1.766c0-1.514.949-1.759,1.854-1.874.758-.179,1.443-.071,1.443-.854,0-.685-.568-.812-1-.812a.956.956,0,0,0-1.066.959h-1.066a1.957,1.957,0,0,1,2.2-2.015,1.729,1.729,0,0,1,1.932,1.754Zm-1.062-1.68a3.276,3.276,0,0,1-1.311.357.92.92,0,0,0-.859,1.008c0,.59.6.751.978.751a1.12,1.12,0,0,0,1.186-1.12Z" transform="translate(-220.938 -31.614)"/>
      <path id="Path_2227" data-name="Path 2227" d="M370.1,159.392h.8v-1.82h1.057v1.82h.966v.978h-.966v3.219c0,.543.037.822.506.822a1.528,1.528,0,0,0,.46-.047v1.025a6.861,6.861,0,0,1-.7.078c-1.1,0-1.294-.543-1.318-1.551V160.38h-.8Z" transform="translate(-216.697 -32.98)"/>
      <path id="Path_2228" data-name="Path 2228" d="M370.723,157.491h1.062v1.257h-1.062Zm0,2.3h1.062v6.029h-1.062Z" transform="translate(-213.597 -33.381)"/>
      <path id="Path_2229" data-name="Path 2229" d="M371.075,161.026c0-1.849.888-3.18,2.446-3.18s2.434,1.323,2.434,3.18-.9,3.18-2.434,3.18-2.446-1.336-2.446-3.18m3.811,0c0-1.037-.418-2.116-1.365-2.116s-1.372,1.079-1.372,2.116.411,2.116,1.372,2.116,1.365-1.066,1.365-2.116" transform="translate(-211.85 -31.608)"/>
      <path id="Path_2230" data-name="Path 2230" d="M372.06,158.015h1.008v.876l.025.024a1.688,1.688,0,0,1,1.5-1.066c1.049,0,1.712.7,1.712,2.045v4.144h-1.074v-3.786c-.024-.937-.311-1.36-.937-1.36-.709,0-1.162.709-1.162,1.592v3.554h-1.066Z" transform="translate(-206.962 -31.604)"/>
      <path id="Path_2231" data-name="Path 2231" d="M373.455,157.492h1.152v7.066h3.4v1.257h-4.549Z" transform="translate(-200.039 -33.377)"/>
      <path id="Path_2232" data-name="Path 2232" d="M374.351,157.491h1.054v1.257h-1.054Zm0,2.3h1.054v6.029h-1.054Z" transform="translate(-195.593 -33.381)"/>
      <path id="Path_2233" data-name="Path 2233" d="M374.741,158.017h1v.834h.029a1.585,1.585,0,0,1,1.485-1,1.35,1.35,0,0,1,1.348,1,1.692,1.692,0,0,1,1.509-1c1.02,0,1.622.555,1.622,2.028v4.158h-1.062v-3.517c0-.966-.059-1.629-.876-1.629-.717,0-1.025.6-1.025,1.617v3.53h-1.066v-3.857c0-.829-.2-1.277-.854-1.277-.543,0-1.044.567-1.044,1.575v3.571h-1.066Z" transform="translate(-193.656 -31.605)"/>
      <path id="Path_2234" data-name="Path 2234" d="M376.124,157.491H377.2v1.257h-1.079Zm0,2.3H377.2v6.029h-1.079Z" transform="translate(-186.794 -33.381)"/>
      <path id="Path_2235" data-name="Path 2235" d="M376.436,159.392h.8v-1.82H378.3v1.82h.978v.978H378.3v3.219c0,.543.037.822.506.822a1.55,1.55,0,0,0,.465-.046v1.025c-.245.024-.472.078-.7.078-1.1,0-1.306-.543-1.331-1.551V160.38h-.8Z" transform="translate(-185.25 -32.98)"/>
      <path id="Path_2236" data-name="Path 2236" d="M378.089,161.362c0,.949.394,1.778,1.3,1.778a1.152,1.152,0,0,0,1.169-1h1.008a2.236,2.236,0,0,1-2.177,2.052c-1.514,0-2.373-1.318-2.373-3.168,0-1.712.912-3.18,2.338-3.18,1.526,0,2.446,1.7,2.277,3.512Zm2.48-.876c-.046-.834-.489-1.592-1.223-1.592s-1.223.7-1.265,1.592Z" transform="translate(-182.37 -31.6)"/>
      <path id="Path_2237" data-name="Path 2237" d="M382.663,165.811h-1V165h-.017a1.553,1.553,0,0,1-1.485.978c-1.522,0-2.26-1.414-2.26-3.214,0-2.189,1.032-3.143,2.074-3.143a1.761,1.761,0,0,1,1.617.949h.017v-3.077h1.049Zm-2.36-.888c.942,0,1.348-1.079,1.348-2.123,0-1.331-.506-2.123-1.335-2.123-.978,0-1.353,1.108-1.353,2.189s.411,2.057,1.343,2.057" transform="translate(-177.954 -33.377)"/>
      <path id="Path_2238" data-name="Path 2238" d="M359.422,154.966a37.451,37.451,0,0,1-5.332.763v1.957h7.751c.137,0,.22.108.22.311v.6c0,.208-.083.315-.22.315h-7.186a17.545,17.545,0,0,0,2.152,1.712,15.012,15.012,0,0,0,2.874,1.622,14.435,14.435,0,0,0,2.837.883c0,.113-.066.186-.2.245-.294.3-.543.577-.758.834-.078.1-.142.149-.191.149a18.181,18.181,0,0,1-3.476-1.534,15.885,15.885,0,0,1-2.624-1.879,14.688,14.688,0,0,1-1.186-1.132v3.114c0,.144-.1.208-.291.208h-.775c-.2,0-.286-.066-.286-.208v-2.774l-.526.44a17.693,17.693,0,0,1-2.04,1.609,23.585,23.585,0,0,1-2.659,1.426,10.977,10.977,0,0,1-2.069.734c-.09,0-.174-.071-.245-.245q-.279-.33-.663-.734a.392.392,0,0,1-.161-.245,27.815,27.815,0,0,0,3.363-1.079,16.4,16.4,0,0,0,2.766-1.556,20.627,20.627,0,0,0,1.712-1.592h-7.167c-.144,0-.215-.108-.215-.316V158c0-.2.071-.311.215-.311h7.676v-1.842q-2.514.169-5.171.174a.316.316,0,0,1-.328-.245,5.235,5.235,0,0,0-.43-.758c0-.2.078-.291.245-.291,2.935,0,5.014-.049,6.274-.174a22.844,22.844,0,0,0,5.188-.822,2.138,2.138,0,0,1,.519-.071.411.411,0,0,1,.274.161,5.9,5.9,0,0,1,.8.978c0,.137-.054.208-.154.208Zm-11.384,8.806h10.985c.208,0,.316.078.316.22v6.983c0,.149-.108.215-.316.215h-.758c-.2,0-.3-.066-.3-.215v-.465h-8.874v.465c0,.149-.1.215-.291.215h-.751c-.215,0-.315-.066-.315-.215V164.06c0-.2.1-.291.315-.291m1.044,2.8h8.867v-1.6h-8.869Zm0,2.737h8.867v-1.6h-8.869Z" transform="translate(-344.372 -52.395)"/>
      <path id="Path_2239" data-name="Path 2239" d="M348.656,158.595a12.85,12.85,0,0,1,1.58.9c.489.352.9.656,1.24.93a.585.585,0,0,1-.088.154c-.377.555-.58.834-.58.834a16.483,16.483,0,0,0-1.7-1.2,7.764,7.764,0,0,0-1.2-.631,4.445,4.445,0,0,1,.6-.846.952.952,0,0,1,.12-.137m2.849,4.931c.059,0,.1.054.12.161.323.709.489,1.086.489,1.128a.506.506,0,0,1-.078.269c-.548,1.343-1.057,2.492-1.514,3.441-.274.531-.6,1.1-.978,1.742a1.682,1.682,0,0,0-.1.626c0,.161-.047.245-.154.245a6.36,6.36,0,0,1-1.223-1.223.345.345,0,0,1-.137-.245.32.32,0,0,1,.083-.245,8.758,8.758,0,0,0,1-1.265,22.609,22.609,0,0,0,1.36-2.392c.394-.763.734-1.468,1.013-2.116a.646.646,0,0,1,.071-.137m-1.861-9.4c.626.3,1.14.572,1.539.817.472.316.859.6,1.2.859a.643.643,0,0,1-.1.149c-.377.548-.58.829-.58.829a15.856,15.856,0,0,0-1.651-1.1,9.128,9.128,0,0,0-1.157-.585,3.82,3.82,0,0,1,.589-.854c.054-.071.108-.12.154-.12m3.637,1.957h2.732v-2.189c0-.161.108-.245.315-.245.961,0,1.438.078,1.438.245s-.066.269-.191.274-.191.154-.191.394v1.521h3.256v-2.189c0-.161.108-.245.3-.245.966,0,1.443.078,1.443.245s-.059.269-.191.274-.174.154-.174.394v1.521h2.791c.161,0,.245.1.245.311v.6c0,.2-.078.311-.245.311H361.95v2.625h3.339c.137,0,.215.09.215.291v.6c0,.208-.078.311-.215.311h-3.165a13.817,13.817,0,0,0,1,1.556,7.992,7.992,0,0,0,1.406,1.468,4.79,4.79,0,0,0,1.353.841c0,.108-.066.166-.186.208a5.879,5.879,0,0,0-.68.78c-.078.1-.154.149-.2.149a7.8,7.8,0,0,1-1.693-1.431,8.076,8.076,0,0,1-.734-.9v3.542a.274.274,0,0,1-.311.311h-5.533v1.353c0,.56.323.834.978.834h5.022c.614,0,.978-.174,1.1-.519a3.966,3.966,0,0,0,.406-1.223,3.18,3.18,0,0,0,1.008.56.244.244,0,0,1,.22.274,4.222,4.222,0,0,1-.621,1.514c-.228.418-.775.626-1.676.626H356.85c-1.057,0-1.592-.418-1.592-1.223v-5.469l-.567.692a11.776,11.776,0,0,1-1.551,1.443.524.524,0,0,1-.352-.12c-.245-.245-.489-.453-.734-.656l-.059-.161c.489-.377.9-.685,1.223-.978a8.643,8.643,0,0,0,1.455-1.675,17.584,17.584,0,0,0,1.057-1.783h-3.053c-.149,0-.227-.1-.227-.311v-.6c0-.2.078-.291.227-.291h3.263v-2.588h-2.732c-.149,0-.215-.108-.215-.311v-.6c0-.208.066-.311.215-.311m2.837,7.133h5.976l-.174-.274a12.4,12.4,0,0,1-.954-1.849h-3.7c-.44.888-.829,1.6-1.14,2.123m.489,3.18h4.483V164.47h-4.483Zm.763-6.5h3.256v-2.6H357.3Z" transform="translate(-326.85 -52.487)"/>
      <path id="Path_2240" data-name="Path 2240" d="M351.893,157.851h2.2v-2.808a2.778,2.778,0,0,0-.09-.841,1.154,1.154,0,0,1-.071-.364c0-.1.137-.161.387-.161l1.526.215c.144.071.245.125.245.174,0,.125-.088.186-.245.186-.269.083-.4.377-.4.863v2.737h1.83c.149,0,.245.108.245.294v.626c0,.2-.083.291-.245.291h-1.83v3.28c.6-.328,1.174-.656,1.729-1l.066-.066c.144,0,.186.049.186.144a3.09,3.09,0,0,1-.071,1.062c-.651.4-1.269.788-1.908,1.174v6.029c0,.93-.675,1.384-2.033,1.384l-1.223-.083c-.1,0-.144-.1-.144-.323a2.936,2.936,0,0,0-.389-.9.137.137,0,0,1,.154-.154,5.234,5.234,0,0,0,1.438.245c.56,0,.842-.228.842-.673v-4.74c-.506.269-1.013.526-1.514.788-.186.352-.345.526-.472.526s-.357-.531-.751-1.585a20.524,20.524,0,0,0,2.737-1.128v-3.965h-2.2c-.166,0-.245-.09-.245-.291v-.638c0-.186.066-.294.245-.294m6.142,3.786h3.4c.34-.626.631-1.252.912-1.854a8.752,8.752,0,0,0,.536-1.468.906.906,0,0,1,.042-.161l1.609.954a.8.8,0,0,1,.091.191c0,.132-.066.2-.245.215-.357.017-.548.071-.589.179-.286.6-.614,1.269-.949,1.957h6.477c.154,0,.245.108.245.328v.59c0,.208-.083.311-.245.311h-2.165a9.913,9.913,0,0,1-.643,1.945,10.324,10.324,0,0,1-1.133,2.106c-.137.191-.281.369-.423.555l.286.186q2.218,1.37,3.786,2.5l-.12.161a5.641,5.641,0,0,1-.656.883,45.191,45.191,0,0,0-4.234-2.837l-.186.161a12.3,12.3,0,0,1-2.064,1.318,21.349,21.349,0,0,1-3.53,1.36c-.12,0-.2-.037-.22-.12q-.269-.367-.609-.912a.345.345,0,0,1-.149-.245,3.476,3.476,0,0,0,1.091-.245c.567-.144,1.2-.328,1.883-.572a16.977,16.977,0,0,0,2.307-1.247l.245-.191a25.807,25.807,0,0,0-2.659-1.282l-.876,1.336a.443.443,0,0,1-.245-.091,3.724,3.724,0,0,0-.71-.34c-.083,0-.108-.078-.108-.191.978-1.468,1.742-2.671,2.272-3.637l.357-.6h-2.779c-.154,0-.245-.1-.245-.311v-.589c0-.22.078-.328.245-.328m5.085-7.962c.966,0,1.443.083,1.443.245a.263.263,0,0,1-.2.291c-.125.029-.186.144-.186.387V155.9H368.9c.2,0,.291.1.291.245v3.87c0,.154-.1.245-.291.245h-.758c-.2,0-.3-.083-.3-.245v-2.874h-8.426v2.874c0,.154-.108.245-.3.245h-.758c-.208,0-.311-.083-.311-.245v-3.823c0-.215.1-.323.311-.323h4.466v-1.957c0-.149.1-.245.311-.245m.626,13.13.144-.174a7.161,7.161,0,0,0,1.157-1.825,9.756,9.756,0,0,0,.758-1.945h-3.591l-.174.34c-.34.621-.763,1.353-1.289,2.165,1.108.514,2.1.978,2.982,1.438" transform="translate(-309.711 -52.34)"/>
      <path id="Path_2241" data-name="Path 2241" d="M355.433,157.455h2.277v-2.422a4.378,4.378,0,0,0-.066-.866,1.039,1.039,0,0,1-.068-.364c0-.112.108-.174.352-.174l1.538.215c.154.071.215.125.215.186,0,.12-.059.174-.215.174-.245.108-.382.4-.382.888v2.356h1.957c.154,0,.245.1.245.286v.6c0,.22-.083.316-.245.316h-1.957v3.8c.7-.323,1.365-.651,2.02-1l.066-.066c.137,0,.186.054.186.166a3.38,3.38,0,0,1-.071,1.037c-.734.418-1.468.788-2.2,1.152v6.059c0,.93-.68,1.384-2.057,1.384h-.675c-.112,0-.166-.12-.166-.328a2.965,2.965,0,0,0-.357-.888c0-.112.059-.166.149-.166a3.342,3.342,0,0,0,.917.166q.822,0,.822-.685V164.4l-1.6.7c-.179.352-.328.526-.448.526s-.369-.543-.763-1.6a20.046,20.046,0,0,0,2.808-.978v-4.388h-2.277c-.144,0-.227-.1-.227-.316v-.6c0-.186.083-.286.227-.286m7.282-3.124h7.827c.2,0,.291.071.291.245v6.142c0,.149-.1.22-.291.22h-4.985c-.3.489-.58.917-.822,1.306h7.338c.154,0,.245.09.245.291a48.631,48.631,0,0,1-.245,5.122,10.055,10.055,0,0,1-.626,2.783c-.245.631-.912.966-2.02.966-.768,0-1.15-.144-1.181-.431a4.057,4.057,0,0,0-.489-1.169v-.125a5.83,5.83,0,0,0,1.671.291.925.925,0,0,0,.978-.668,6.721,6.721,0,0,0,.435-2.074c.1-.793.186-2.057.245-3.8h-7.25a10.335,10.335,0,0,1-.876.942l-.245.208c.692.024,1.02.1,1.02.245,0,.174-.066.245-.191.274s-.174.166-.174.411v2.8h5.611c.149,0,.2.1.2.311v.585c0,.2-.054.3-.2.3h-5.611v.763c0,.137-.112.215-.315.215h-.751c-.208,0-.323-.078-.323-.215v-5.11l-.668.472a.511.511,0,0,1-.335-.113l-.734-.668a.522.522,0,0,1-.049-.161c.489-.323.942-.589,1.27-.854a8.744,8.744,0,0,0,1.534-1.455,13.946,13.946,0,0,0,1.037-1.455h-1.331c-.191,0-.293-.071-.293-.22v-6.142c0-.166.1-.245.293-.245m1.074,2.654h5.689v-1.431h-5.689Zm5.689,1.223h-5.689v1.514h5.689Zm-2.737,5.462c.912.472,1.372.751,1.372.841s-.029.161-.108.161a.489.489,0,0,0-.357.208l-.245.406a9.67,9.67,0,0,0,1.008.768,9.361,9.361,0,0,0,1.468.734.591.591,0,0,1,.132.113c0,.137-.281.472-.854,1.032l-.137-.042a12.73,12.73,0,0,1-2.4-1.6,3.383,3.383,0,0,1-.406.418,16.332,16.332,0,0,1-1.348,1.074.489.489,0,0,1-.364-.161l-.514-.465a.227.227,0,0,1-.12-.215c.328-.245.673-.506,1.008-.775a8.533,8.533,0,0,0,1.152-1.174,5.866,5.866,0,0,0,.626-1.157.64.64,0,0,1,.059-.154" transform="translate(-292.09 -52.533)"/>
      <path id="Path_2242" data-name="Path 2242" d="M358.679,156.85h5.611c.142,0,.208.1.208.316v.6c0,.2-.066.3-.208.3h-5.611c-.161,0-.245-.1-.245-.3v-.6c0-.215.078-.316.245-.316m.364,8.2h4.545c.208,0,.316.078.316.245v5.689c0,.149-.108.215-.316.215h-.758c-.137,0-.208-.066-.208-.215v-.912h-2.51v.912c0,.149-.1.215-.311.215h-.758c-.154,0-.227-.066-.227-.215v-5.611c0-.208.071-.311.227-.311m.083-5.457h4.545c.154,0,.245.1.245.291v.621c0,.191-.078.291-.245.291h-4.545c-.161,0-.245-.1-.245-.291v-.641c0-.191.078-.291.245-.291m0,2.72h4.545c.154,0,.245.1.245.311v.6c0,.208-.078.311-.245.311h-4.545c-.161,0-.245-.1-.245-.311v-.6c0-.208.078-.311.245-.311m.228-8.174h4.317c.154,0,.245.091.245.286v.6c0,.208-.078.311-.245.311h-4.317c-.149,0-.227-.1-.227-.311v-.6c0-.2.078-.286.227-.286m.758,14.705h2.51v-2.563h-2.51Zm5.909-14.789h4.019a.535.535,0,0,1,.328.1c.245.281.369.44.369.506a15.1,15.1,0,0,1-.68,1.932,8.559,8.559,0,0,1-.775,1.394,6.473,6.473,0,0,1-.834.929h4.8l-.526-.763a23.8,23.8,0,0,1-1.842-3.5l.829-.751.7,1.4.1-.108a5.96,5.96,0,0,0,.7-.656,4.574,4.574,0,0,0,.489-.78l.083-.1.871.621a.335.335,0,0,1,.191.286c0,.113-.071.161-.227.161a.291.291,0,0,0-.245.1,9.062,9.062,0,0,1-1.468,1.365l.386.6.44.614.166-.154a4.042,4.042,0,0,0,.8-.734,4.359,4.359,0,0,0,.567-.846l.071-.1.907.626a.335.335,0,0,1,.186.286c0,.1-.071.137-.244.137a.325.325,0,0,0-.269.113,10,10,0,0,1-1.568,1.468l.465.506a4.264,4.264,0,0,0,1.671,1.169.228.228,0,0,1-.137.215,8.734,8.734,0,0,0-.792.751.311.311,0,0,1-.274.1,8.929,8.929,0,0,1-1.829-1.754v.621c0,.2-.059.3-.208.3H368.15c-.161,0-.232-.1-.232-.3v-.46a8.96,8.96,0,0,1-1.152.68,5.927,5.927,0,0,1-1.438.536.386.386,0,0,1-.335-.149l-.4-.585c-.071-.078-.108-.132-.108-.174a.1.1,0,0,1,.083-.1,8.9,8.9,0,0,0,1.049-.328,5.228,5.228,0,0,0,1.568-.912l.017-.024c-.245-.245-.46-.448-.692-.656a7.324,7.324,0,0,0-.8-.567,3.851,3.851,0,0,1,.543-.793.589.589,0,0,1,.1-.12,8.23,8.23,0,0,1,1.115.822l.519.543.286-.345a5.609,5.609,0,0,0,.685-1.348,5.277,5.277,0,0,0,.269-.734H366c-.1,0-.132-.066-.132-.208v-.626c0-.142.037-.215.132-.215m6.849,12.516,1.169.489c.174.071.269.161.269.274a.171.171,0,0,1-.144.174.213.213,0,0,0-.215.186,10.61,10.61,0,0,1-.949,2.069h2.679c.149,0,.22.1.22.3v.609c0,.208-.071.3-.22.3H365.488c-.154,0-.245-.1-.245-.3v-.609c0-.208.078-.3.245-.3H372.2l-.489-.22a1.22,1.22,0,0,1-.149-.066.245.245,0,0,1,.042-.137,7.549,7.549,0,0,0,.651-1.223,5.269,5.269,0,0,0,.472-1.336.774.774,0,0,1,.078-.208m-5.963-4.86H374.2c.208,0,.311.078.311.227v3.948c0,.154-.1.245-.311.245h-7.358c-.191,0-.3-.078-.3-.245V161.93c0-.149.108-.227.3-.227m1.539,4.86a11.375,11.375,0,0,1,.866,1.448,7.584,7.584,0,0,1,.567,1.289,4.355,4.355,0,0,1-1.223.364,4.531,4.531,0,0,0-.377-1.049,8.148,8.148,0,0,0-.834-1.455c0-.078.323-.281,1-.6m4.853-3.708h-5.4v2.111h5.4Z" transform="translate(-274.578 -52.394)"/>
      <path id="Path_2243" data-name="Path 2243" d="M363.592,157.952h5.731a13.4,13.4,0,0,0,.472-1.646c.149-.775.274-1.622.406-2.522,0-.108.024-.161.078-.161a5.4,5.4,0,0,1,1.5.7.316.316,0,0,1-.191.311.377.377,0,0,0-.186.369,23.4,23.4,0,0,1-.788,2.935h7.548c.154,0,.245.108.245.316v.6c0,.215-.078.311-.245.311h-5.42c.519.9,1,1.663,1.438,2.285h5.2c.142,0,.22.083.22.291v.621c0,.191-.078.286-.22.286h-4.261a14.851,14.851,0,0,0,2.189,2.135,9.856,9.856,0,0,0,2.446,1.443c0,.091-.054.144-.179.191-.245.262-.46.489-.638.717-.066.113-.132.166-.186.166a14.665,14.665,0,0,1-3.035-2.223l-.174-.174a.508.508,0,0,1,.024.174,28.615,28.615,0,0,1-.208,3.654,5.687,5.687,0,0,1-.609,1.957c-.245.46-.854.675-1.908.675-.93,0-1.426-.144-1.468-.423a3.179,3.179,0,0,0-.589-1.162v-.149a7.779,7.779,0,0,0,2.057.3c.472,0,.775-.144.907-.43a4.457,4.457,0,0,0,.389-1.394c.071-.46.132-1.157.186-2.116h-3.549l-.245.758a6.127,6.127,0,0,1-.663,1.36,7.4,7.4,0,0,1-.883,1.145,6.544,6.544,0,0,1-1.2,1.008,7.474,7.474,0,0,1-1.282.7c-.394.137-.8.286-1.247.4a.339.339,0,0,1-.274-.113,9.568,9.568,0,0,0-.663-.788.338.338,0,0,1-.132-.227.3.3,0,0,1,.1-.071,6.976,6.976,0,0,0,2.326-.834,5.462,5.462,0,0,0,1.223-.912,3.975,3.975,0,0,0,.883-1.013,3.93,3.93,0,0,0,.56-.907l.2-.506H366.54c-.154,0-.245-.12-.245-.311v-.411a17.652,17.652,0,0,1-3.251,2.082.922.922,0,0,1-.4-.078,6.312,6.312,0,0,0-.6-.763.445.445,0,0,1-.154-.286,9.919,9.919,0,0,0,3.309-1.754,7.54,7.54,0,0,0,1.663-1.563l.179-.262h-4.682c-.149,0-.245-.1-.245-.286v-.621c0-.208.083-.291.245-.291h5.425a23.035,23.035,0,0,0,1.1-2.285h-5.3c-.149,0-.245-.1-.245-.311v-.6c0-.208.083-.316.245-.316m1.6-3.5a16.184,16.184,0,0,1,1.49,1.013c.448.394.846.734,1.157,1.062l-.1.161c-.43.609-.643.9-.643.9a15.324,15.324,0,0,0-1.551-1.4,6.7,6.7,0,0,0-1.128-.734,4.57,4.57,0,0,1,.621-.854c.054-.09.1-.144.154-.144m1.676,10.339h8.561a14.355,14.355,0,0,1-1.808-2.135H368.55a9.03,9.03,0,0,1-1.688,2.135m5.927-3.334c-.411-.668-.822-1.419-1.257-2.285H370.2a18.334,18.334,0,0,1-.949,2.285Zm3.326-7.133c.692.614,1.049.959,1.049,1.049s-.059.137-.186.137c-.245,0-.389.029-.43.1a11.807,11.807,0,0,1-2.414,2.04.293.293,0,0,1-.293-.186,1.626,1.626,0,0,0-.43-.462.393.393,0,0,1-.112-.245.152.152,0,0,1,.112-.161,7.589,7.589,0,0,0,1.223-.822,8.337,8.337,0,0,0,1.318-1.372.678.678,0,0,1,.108-.078" transform="translate(-257.409 -52.579)"/>
      <path id="Path_2244" data-name="Path 2244" d="M365.683,156.015h5.843c.262-.621.514-1.323.763-2.111.1-.166.2-.245.311-.245l1.521.548c.149.108.22.208.22.286a.308.308,0,0,1-.22.315c-.34,0-.536.113-.609.345l-.386.854h9.344c.137,0,.208.1.208.316v.616c0,.2-.071.311-.208.311h-9.911a16.788,16.788,0,0,1-1.074,1.9l-.186.291h9.033c.245,0,.386.1.386.311v10.239c0,.423-.328.763-.978,1.008a9.849,9.849,0,0,1-2.373.345.213.213,0,0,1-.245-.215,3.8,3.8,0,0,0-.44-1.223.284.284,0,0,1,.208-.083,8.7,8.7,0,0,0,2.064-.132.489.489,0,0,0,.386-.465v-1.365h-8.2v3.18c0,.137-.1.215-.3.215h-.758c-.208,0-.311-.078-.311-.215V161.5l-.352.448a18.278,18.278,0,0,1-2.373,2.094,1.614,1.614,0,0,1-.472-.059c-.262-.112-.543-.227-.829-.328-.09-.037-.132-.083-.132-.137a.245.245,0,0,1,.154-.245,15.938,15.938,0,0,0,3.488-3.4,13.863,13.863,0,0,0,1.58-2.475l.1-.186h-5.271c-.144,0-.22-.108-.22-.311v-.6c0-.215.078-.316.22-.316m5.474,7h8.194v-2.3h-8.194Zm0,3.625h8.194v-2.422h-8.194Z" transform="translate(-239.775 -52.392)"/>
      <path id="Path_2245" data-name="Path 2245" d="M370.381,154.9v15.642c0,.137-.1.208-.3.208h-.758c-.208,0-.316-.071-.316-.208V153.987c0-.154.108-.245.316-.245h5.163a.761.761,0,0,1,.489.12c.316.245.489.411.489.489l-2.563,5.242a.94.94,0,0,0-.071.291.52.52,0,0,0,.125.281,7.128,7.128,0,0,1,1.543,2.094,5.937,5.937,0,0,1,.6,2.563,4.439,4.439,0,0,1-.377,1.878,2.3,2.3,0,0,1-1.162,1.194,2.92,2.92,0,0,1-1.651.345c-.328,0-.489-.113-.489-.328a2.545,2.545,0,0,0-.335-1.049c0-.144.083-.215.245-.215l.9.132a1.269,1.269,0,0,0,1.186-.6,2.415,2.415,0,0,0,.345-1.36,4.823,4.823,0,0,0-.514-2.04,8.587,8.587,0,0,0-1.837-2.446c-.108-.078-.162-.154-.162-.22a.9.9,0,0,1,.083-.311l2.561-4.907Zm7.365,6.849v6.524c.817-.274,1.6-.56,2.338-.871,0-.029.047-.042.09-.042.09,0,.137.071.137.22a3.445,3.445,0,0,1-.083,1.14c-1.431.585-2.9,1.108-4.383,1.6-.215.345-.386.526-.526.526s-.382-.567-.775-1.68a17.267,17.267,0,0,0,1.82-.46V154.075a.274.274,0,0,1,.315-.311H384.4q.3,0,.3.245v7.436a.274.274,0,0,1-.3.316h-3.525c.1.567.2,1.066.316,1.509a12.141,12.141,0,0,0,.775,2.219l.037.078a8.628,8.628,0,0,0,1.211-.834,9.475,9.475,0,0,0,1.742-1.8,1.194,1.194,0,0,1,.154-.125,5.489,5.489,0,0,1,1.265,1.14c0,.1-.083.144-.227.144q-.411,0-.448.09a16.726,16.726,0,0,1-2.982,2.563l.2.269a5.87,5.87,0,0,0,1.343,1.348,7.232,7.232,0,0,0,1.9,1.066.355.355,0,0,1,.132.1.378.378,0,0,1-.083.274,6.382,6.382,0,0,0-.734.717c-.088.125-.166.191-.245.191a1.054,1.054,0,0,1-.227-.149,13.935,13.935,0,0,1-1.223-.734,12.218,12.218,0,0,1-1.485-1.348,11.87,11.87,0,0,1-1.211-1.766,9.247,9.247,0,0,1-.822-2.16,18.93,18.93,0,0,1-.668-2.791Zm0-4.647h5.6V154.99h-5.6Zm0,3.424h5.6v-2.2h-5.6Z" transform="translate(-222.129 -51.981)"/>
      <path id="Path_2246" data-name="Path 2246" d="M377.524,154.295l1.385.489c.144.108.208.191.208.245a.306.306,0,0,1-.208.316.426.426,0,0,0-.46.262,21.816,21.816,0,0,1-1.431,3.106,23.491,23.491,0,0,1-1.5,2.2,12.563,12.563,0,0,1-1.7,1.634.892.892,0,0,1-.423-.083c-.245-.113-.531-.208-.8-.3-.1-.059-.132-.1-.132-.154a.174.174,0,0,1,.12-.179,12.2,12.2,0,0,0,2.546-2.666,10.871,10.871,0,0,0,1.14-1.937,15.507,15.507,0,0,0,1.057-2.779c.066-.108.125-.174.208-.174m2.965,4.55a.531.531,0,0,1,.281.071c1.037.506,1.556.812,1.556.925s-.083.144-.245.144a.626.626,0,0,0-.58.357l-4.121,7.693c2.3-.215,5.137-.526,8.5-.978-.6-1.02-1.194-1.945-1.754-2.737,0-.161.316-.394.978-.709a.166.166,0,0,1,.154.078,47.623,47.623,0,0,1,3.72,5.856c0,.208-.054.316-.149.328a2.276,2.276,0,0,1-1.145.489c-.394-.793-.812-1.531-1.2-2.236-5.814.912-9.576,1.468-11.318,1.658a.387.387,0,0,0-.382.269c-.054.208-.149.311-.315.311s-.4-.7-.675-2.111c.626-.037,1.353-.071,2.128-.125,1.5-2.8,2.463-4.616,2.869-5.474a28.744,28.744,0,0,0,1.365-3.591.332.332,0,0,1,.311-.245m.536-5.075h4.034c.09,0,.186.083.245.245a17.4,17.4,0,0,0,1.443,4.508,5.335,5.335,0,0,0,2.862,2.837.272.272,0,0,1,.227.311.375.375,0,0,1-.125.215l-.675.638a.372.372,0,0,1-.34.191,8.072,8.072,0,0,1-3.077-3.209,22.925,22.925,0,0,1-1.468-4.513h-3.106c-.154,0-.245-.1-.245-.323v-.6c0-.191.09-.286.245-.286" transform="translate(-204.998 -52.028)"/>
      <path id="Path_2247" data-name="Path 2247" d="M376.326,153.772h14.938c.262,0,.394.113.394.311V168.7c0,.6-.382,1.066-1.14,1.419a10.653,10.653,0,0,1-2.754.526c-.125,0-.2-.083-.245-.245a3.333,3.333,0,0,0-.44-1.223c0-.059.09-.09.245-.09a7.028,7.028,0,0,0,2.48-.245.751.751,0,0,0,.448-.722v-13.13H376.309c-.149,0-.245-.108-.245-.311v-.614c0-.2.09-.311.245-.311m.758,3.728h10.007c.154,0,.245.108.245.311v.621c0,.186-.078.286-.245.286h-9.992c-.154,0-.245-.1-.245-.286v-.621c0-.2.078-.311.245-.311m1.211,3.424h7.888c.2,0,.316.078.316.215v6.237c0,.137-.113.215-.316.215h-.758c-.191,0-.294-.078-.294-.215V166.6h-5.773v2.116c0,.154-.1.227-.311.227h-.751c-.2,0-.291-.071-.291-.227v-7.507a.245.245,0,0,1,.291-.286m1.062,4.466h5.777v-3.251h-5.777Z" transform="translate(-187.059 -51.91)"/>
      <path id="Path_2248" data-name="Path 2248" d="M344.51,157.493h5.381v1.24H347.78v7.093h-1.162v-7.093h-2.111Z" transform="translate(-343.705 -33.373)"/>
      <path id="Path_2249" data-name="Path 2249" d="M345.535,157.493H346.6v3.089h.025a1.607,1.607,0,0,1,1.448-.966c1.037,0,1.7.709,1.7,2.064v4.146H348.7v-3.791c-.017-.937-.3-1.348-.929-1.348-.717,0-1.169.692-1.169,1.58v3.559h-1.062Z" transform="translate(-338.608 -33.371)"/>
      <path id="Path_2250" data-name="Path 2250" d="M347.485,161.359c0,.949.4,1.778,1.294,1.778a1.145,1.145,0,0,0,1.169-1h1.008a2.236,2.236,0,0,1-2.177,2.057c-1.509,0-2.368-1.323-2.368-3.165,0-1.712.9-3.18,2.338-3.18,1.521,0,2.446,1.712,2.277,3.517Zm2.475-.871c-.037-.841-.489-1.6-1.211-1.6s-1.24.7-1.265,1.6Z" transform="translate(-334.26 -31.596)"/>
      <path id="Path_2251" data-name="Path 2251" d="M347.818,157.493h1.157v3.314h3.035v-3.314h1.155v8.316H352v-3.75h-3.036v3.767h-1.157Z" transform="translate(-327.301 -33.373)"/>
      <path id="Path_2252" data-name="Path 2252" d="M348.9,161.028c0-1.849.9-3.18,2.446-3.18s2.446,1.331,2.446,3.18-.9,3.18-2.446,3.18-2.446-1.331-2.446-3.18m3.811,0c0-1.044-.423-2.116-1.372-2.116s-1.365,1.074-1.365,2.116.411,2.116,1.365,2.116,1.372-1.074,1.372-2.116" transform="translate(-321.899 -31.605)"/>
      <path id="Path_2253" data-name="Path 2253" d="M349.888,158.011H350.9v.888l.017.017a1.67,1.67,0,0,1,1.49-1.067c1.049,0,1.712.7,1.712,2.045v4.144h-1.074v-3.791c-.017-.937-.311-1.348-.93-1.348-.709,0-1.169.7-1.169,1.585v3.554h-1.062Z" transform="translate(-317.009 -31.6)"/>
      <path id="Path_2254" data-name="Path 2254" d="M355.465,163.733c0,1.8-.863,2.708-2.38,2.708a1.957,1.957,0,0,1-2.148-1.883h1.057a1,1,0,0,0,1.162.888c.859,0,1.223-.548,1.223-1.543v-.917h-.017a1.639,1.639,0,0,1-1.438,1.062c-1.534,0-2.165-1.443-2.165-3.18,0-1.617.8-3.018,2.189-3.018a1.489,1.489,0,0,1,1.414,1h.017v-.829h1.074Zm-1.074-2.832c0-1.037-.369-1.991-1.294-1.991S351.821,160,351.821,161s.394,2,1.277,2c.942,0,1.294-1.074,1.294-2.094" transform="translate(-312.663 -31.603)"/>
      <path id="Path_2255" data-name="Path 2255" d="M352.228,157.493h1.157v3.786l2.965-3.786h1.443l-2.666,3.322,2.857,5h-1.455l-2.189-3.977-.954,1.181v2.806h-1.157Z" transform="translate(-305.39 -33.373)"/>
      <path id="Path_2256" data-name="Path 2256" d="M353.254,161.028c0-1.849.888-3.18,2.446-3.18s2.446,1.331,2.446,3.18-.9,3.18-2.446,3.18-2.446-1.331-2.446-3.18m3.811,0c0-1.044-.423-2.116-1.372-2.116s-1.372,1.074-1.372,2.116.406,2.116,1.372,2.116,1.372-1.074,1.372-2.116" transform="translate(-300.298 -31.605)"/>
      <path id="Path_2257" data-name="Path 2257" d="M354.238,158.011h1.008v.888l.024.017a1.68,1.68,0,0,1,1.5-1.066c1.045,0,1.7.7,1.7,2.045v4.144h-1.066v-3.791c-.017-.937-.311-1.348-.937-1.348-.709,0-1.162.7-1.162,1.585v3.554h-1.066Z" transform="translate(-295.414 -31.6)"/>
      <path id="Path_2258" data-name="Path 2258" d="M359.807,163.733c0,1.8-.854,2.708-2.38,2.708a1.957,1.957,0,0,1-2.14-1.883h1.062c.12.751.614.888,1.157.888.859,0,1.24-.548,1.24-1.543v-.917h-.017a1.646,1.646,0,0,1-1.448,1.062c-1.526,0-2.165-1.443-2.165-3.18,0-1.617.812-3.018,2.189-3.018a1.5,1.5,0,0,1,1.426,1h.017v-.829h1.062Zm-1.062-2.823c0-1.037-.377-1.991-1.306-1.991s-1.269,1.091-1.269,2.086.386,2,1.269,2c.942,0,1.306-1.074,1.306-2.094" transform="translate(-291.06 -31.603)"/>
      <path id="Path_2259" data-name="Path 2259" d="M356.579,157.493h1.629L360.057,164h0l1.8-6.511h1.609v8.316h-1.1v-6.428h-.029l-1.849,6.428h-.954l-1.854-6.428h0v6.445h-1.108Z" transform="translate(-283.811 -33.373)"/>
      <path id="Path_2260" data-name="Path 2260" d="M357.924,161.028c0-1.849.9-3.18,2.446-3.18s2.426,1.331,2.426,3.18-.9,3.18-2.426,3.18-2.446-1.331-2.446-3.18m3.816,0c0-1.044-.423-2.116-1.372-2.116S359,159.986,359,161.028s.411,2.116,1.372,2.116,1.372-1.074,1.372-2.116" transform="translate(-277.121 -31.605)"/>
      <path id="Path_2261" data-name="Path 2261" d="M358.909,158.012h1v1.169h.017a1.656,1.656,0,0,1,1.394-1.331,2.162,2.162,0,0,1,.418.037v1.277a4.083,4.083,0,0,0-.465-.049c-.734,0-1.3.734-1.3,2.052v2.874h-1.062Z" transform="translate(-272.233 -31.6)"/>
      <path id="Path_2262" data-name="Path 2262" d="M359.4,159.382h.8v-1.808h1.057v1.808h.959v.978h-.959v3.214c0,.548.029.829.506.829a1.669,1.669,0,0,0,.452-.042v1.02a5.317,5.317,0,0,1-.7.078c-1.1,0-1.3-.536-1.318-1.543v-3.554h-.8Z" transform="translate(-269.806 -32.97)"/>
      <path id="Path_2263" data-name="Path 2263" d="M364.675,163.733c0,1.8-.859,2.708-2.38,2.708a1.957,1.957,0,0,1-2.147-1.883h1.066c.12.751.6.888,1.152.888.866,0,1.24-.548,1.24-1.543v-.917h-.017a1.639,1.639,0,0,1-1.443,1.062c-1.526,0-2.165-1.443-2.165-3.18,0-1.617.8-3.018,2.182-3.018a1.5,1.5,0,0,1,1.426,1h.017v-.829h1.067Zm-1.067-2.832c0-1.037-.369-1.991-1.306-1.991S361.038,160,361.038,161s.394,2,1.265,2c.949,0,1.306-1.074,1.306-2.094" transform="translate(-266.923 -31.603)"/>
      <path id="Path_2264" data-name="Path 2264" d="M365.23,162.714c0,.316.059.435.245.435h.262v.917a2.474,2.474,0,0,1-.685.149.734.734,0,0,1-.8-.734,2.2,2.2,0,0,1-1.68.734,1.612,1.612,0,0,1-1.646-1.759c0-1.514.954-1.766,1.861-1.871.763-.179,1.443-.078,1.443-.854,0-.685-.572-.812-1-.812a.947.947,0,0,0-1.066.954h-1.074a1.976,1.976,0,0,1,2.2-2.016,1.734,1.734,0,0,1,1.932,1.759Zm-1.057-1.68a3.423,3.423,0,0,1-1.323.357.917.917,0,0,0-.859,1.008c0,.589.6.751.978.751a1.135,1.135,0,0,0,1.2-1.128Z" transform="translate(-262.261 -31.608)"/>
      <path id="Path_2265" data-name="Path 2265" d="M366.5,163.733c0,1.8-.854,2.708-2.373,2.708a1.957,1.957,0,0,1-2.14-1.883h1.054c.125.751.609.888,1.162.888.854,0,1.223-.548,1.223-1.543v-.917h-.017a1.636,1.636,0,0,1-1.438,1.062c-1.534,0-2.165-1.443-2.165-3.18,0-1.617.8-3.018,2.182-3.018a1.492,1.492,0,0,1,1.419,1h.017v-.829h1.062ZM365.44,160.9c0-1.037-.369-1.991-1.3-1.991S362.872,160,362.872,161s.394,2,1.269,2c.942,0,1.3-1.074,1.3-2.094" transform="translate(-257.826 -31.603)"/>
      <path id="Path_2266" data-name="Path 2266" d="M363.825,161.359c0,.949.406,1.778,1.306,1.778a1.142,1.142,0,0,0,1.162-1h1.013a2.238,2.238,0,0,1-2.177,2.057c-1.514,0-2.373-1.323-2.373-3.165,0-1.712.908-3.18,2.338-3.18,1.522,0,2.446,1.712,2.277,3.517Zm2.488-.871c-.049-.841-.489-1.6-1.223-1.6s-1.24.7-1.269,1.6Z" transform="translate(-253.136 -31.596)"/>
      <path id="Path_2267" data-name="Path 2267" d="M368.941,160.3c-.191-.961-.68-1.651-1.651-1.651-1.438,0-2.028,1.568-2.028,3.18s.59,3.155,2.028,3.155c1.032,0,1.592-.954,1.693-2.177h1.128c-.09,2-1.223,3.375-2.82,3.375-2,0-3.18-1.986-3.18-4.354s1.186-4.366,3.18-4.366a2.8,2.8,0,0,1,2.815,2.845Z" transform="translate(-246.436 -33.535)"/>
      <path id="Path_2268" data-name="Path 2268" d="M365.247,161.028c0-1.849.9-3.18,2.446-3.18s2.427,1.331,2.427,3.18-.9,3.18-2.427,3.18-2.446-1.331-2.446-3.18m3.816,0c0-1.044-.418-2.116-1.365-2.116s-1.377,1.074-1.377,2.116.418,2.116,1.377,2.116,1.365-1.074,1.365-2.116" transform="translate(-240.775 -31.605)"/>
      <path id="Path_2269" data-name="Path 2269" d="M366.233,158.012h1v1.169h.017a1.649,1.649,0,0,1,1.4-1.331,2.139,2.139,0,0,1,.411.037v1.277a4.086,4.086,0,0,0-.465-.049c-.734,0-1.306.734-1.306,2.052v2.874h-1.054Z" transform="translate(-235.883 -31.6)"/>
      <path id="Path_2270" data-name="Path 2270" d="M366.812,158.021h1.008v.8h0a1.585,1.585,0,0,1,1.49-.978c1.526,0,2.26,1.443,2.26,3.2,0,1.629-.643,3.155-2.069,3.155a1.739,1.739,0,0,1-1.617-.949h-.024v3H366.8Zm2.373.888c-.888,0-1.36.846-1.36,2.123,0,1.223.489,2.123,1.36,2.123.978,0,1.335-1.066,1.335-2.123s-.465-2.123-1.335-2.123" transform="translate(-233.045 -31.604)"/>
      <path id="Path_2271" data-name="Path 2271" d="M367.737,161.028c0-1.849.9-3.18,2.446-3.18s2.434,1.331,2.434,3.18-.9,3.18-2.434,3.18-2.446-1.331-2.446-3.18m3.816,0c0-1.044-.431-2.116-1.377-2.116s-1.372,1.074-1.372,2.116.411,2.116,1.372,2.116,1.377-1.074,1.377-2.116" transform="translate(-228.418 -31.605)"/>
      <path id="Path_2272" data-name="Path 2272" d="M368.722,158.012h1v1.169h.017a1.648,1.648,0,0,1,1.4-1.331,2.14,2.14,0,0,1,.411.037v1.277a4.392,4.392,0,0,0-.465-.049c-.734,0-1.3.734-1.3,2.052v2.874h-1.062Z" transform="translate(-223.53 -31.6)"/>
      <path id="Path_2273" data-name="Path 2273" d="M373.549,162.714c0,.316.054.435.245.435h.262v.917a2.39,2.39,0,0,1-.68.149.753.753,0,0,1-.822-.734,2.172,2.172,0,0,1-1.671.734,1.615,1.615,0,0,1-1.639-1.759c0-1.514.949-1.766,1.854-1.871.758-.179,1.443-.078,1.443-.854,0-.685-.567-.812-1-.812a.951.951,0,0,0-1.066.954h-1.066a1.971,1.971,0,0,1,2.2-2.016,1.734,1.734,0,0,1,1.932,1.759Zm-1.061-1.68a3.375,3.375,0,0,1-1.311.357.917.917,0,0,0-.859,1.008c0,.589.6.751.978.751a1.125,1.125,0,0,0,1.186-1.128Z" transform="translate(-220.938 -31.609)"/>
      <path id="Path_2274" data-name="Path 2274" d="M370.1,159.382h.8v-1.808h1.057v1.808h.966v.978h-.966v3.214c0,.548.037.829.506.829a1.738,1.738,0,0,0,.46-.042v1.02a5.519,5.519,0,0,1-.7.078c-1.1,0-1.294-.536-1.318-1.543v-3.554h-.8Z" transform="translate(-216.697 -32.97)"/>
      <path id="Path_2275" data-name="Path 2275" d="M370.723,157.492h1.062v1.243h-1.062Zm0,2.3h1.062v6.039h-1.062Z" transform="translate(-213.597 -33.377)"/>
      <path id="Path_2276" data-name="Path 2276" d="M371.075,161.028c0-1.849.888-3.18,2.446-3.18s2.434,1.331,2.434,3.18-.9,3.18-2.434,3.18-2.446-1.331-2.446-3.18m3.811,0c0-1.044-.418-2.116-1.365-2.116s-1.372,1.074-1.372,2.116.411,2.116,1.372,2.116,1.365-1.074,1.365-2.116" transform="translate(-211.85 -31.605)"/>
      <path id="Path_2277" data-name="Path 2277" d="M372.06,158.011h1.008v.888l.025.017a1.678,1.678,0,0,1,1.5-1.066c1.049,0,1.712.7,1.712,2.045v4.144h-1.074v-3.791c-.024-.937-.311-1.348-.937-1.348-.709,0-1.162.7-1.162,1.585v3.554h-1.066Z" transform="translate(-206.962 -31.6)"/>
      <path id="Path_2278" data-name="Path 2278" d="M373.455,157.493h1.152v7.059h3.4v1.265h-4.549Z" transform="translate(-200.039 -33.373)"/>
      <path id="Path_2279" data-name="Path 2279" d="M374.351,157.492h1.054v1.243h-1.054Zm0,2.3h1.054v6.039h-1.054Z" transform="translate(-195.593 -33.377)"/>
      <path id="Path_2280" data-name="Path 2280" d="M374.741,158.012h1v.841h.029a1.575,1.575,0,0,1,1.485-1,1.35,1.35,0,0,1,1.348,1,1.683,1.683,0,0,1,1.509-1c1.02,0,1.622.555,1.622,2.028v4.158h-1.062v-3.52c0-.954-.059-1.617-.876-1.617-.717,0-1.025.589-1.025,1.6v3.537h-1.066v-3.867c0-.822-.2-1.265-.854-1.265-.543,0-1.044.56-1.044,1.556v3.583h-1.066Z" transform="translate(-193.656 -31.6)"/>
      <path id="Path_2281" data-name="Path 2281" d="M376.124,157.492H377.2v1.243h-1.079Zm0,2.3H377.2v6.039h-1.079Z" transform="translate(-186.794 -33.377)"/>
      <path id="Path_2282" data-name="Path 2282" d="M376.436,159.382h.8v-1.808H378.3v1.808h.978v.978H378.3v3.214c0,.548.037.829.506.829a1.755,1.755,0,0,0,.465-.042v1.02a5.779,5.779,0,0,1-.7.078c-1.1,0-1.306-.536-1.331-1.543v-3.554h-.8Z" transform="translate(-185.25 -32.97)"/>
      <path id="Path_2283" data-name="Path 2283" d="M378.089,161.359c0,.949.394,1.778,1.3,1.778a1.152,1.152,0,0,0,1.169-1h1.008a2.236,2.236,0,0,1-2.177,2.057c-1.514,0-2.373-1.323-2.373-3.165,0-1.712.912-3.18,2.338-3.18,1.526,0,2.446,1.712,2.277,3.517Zm2.48-.871c-.046-.841-.489-1.6-1.223-1.6s-1.223.7-1.265,1.6Z" transform="translate(-182.37 -31.596)"/>
      <path id="Path_2284" data-name="Path 2284" d="M382.663,165.812h-1V165h-.017a1.553,1.553,0,0,1-1.485.978c-1.522,0-2.26-1.419-2.26-3.219,0-2.182,1.032-3.143,2.074-3.143a1.756,1.756,0,0,1,1.617.954h.017v-3.077h1.049Zm-2.36-.888c.942,0,1.348-1.086,1.348-2.123,0-1.336-.506-2.123-1.335-2.123-.978,0-1.353,1.1-1.353,2.2,0,1.032.411,2.052,1.343,2.052" transform="translate(-177.954 -33.371)"/>
    </g>
  </g>
</svg>
