<svg xmlns="http://www.w3.org/2000/svg" xmlns:xlink="http://www.w3.org/1999/xlink" width="500" height="300" viewBox="0 0 500 300">
  <defs>
    <clipPath id="clip-logo_01">
      <rect width="500" height="300"/>
    </clipPath>
  </defs>
  <g id="logo_01" clip-path="url(#clip-logo_01)">
    <g id="Group_8" data-name="Group 8" transform="translate(81.35 112.874)">
      <path id="Path_2385" data-name="Path 2385" d="M717.866,89.449c-3.429,0-5.654-3.392-5.654-7.442,0-.369.072-.743.072-1.112-2.384,5.159-7.1,8.4-10.838,8.4-3.1,0-5.5-2.2-5.5-7.427,0-6.716,7.593-19.246,11.727-24.261a8.994,8.994,0,0,1-5.021,1.624c-1.594,0-3.018-.584-4.226-.584a2.443,2.443,0,0,0-2.228,2.649,4.508,4.508,0,0,0,1.594,2.8,3.525,3.525,0,0,1,1.352,2.582,2.676,2.676,0,0,1-2.711,2.661c-1.424,0-2.8-1.121-2.8-3.845a9.883,9.883,0,0,1,9.734-10.4c1.357,0,3.035.446,4.31.446a3.713,3.713,0,0,0,2.535-.814l.646.295c-3.669,4.491-10.917,17.406-10.917,25.2,0,2.958,1.2,4.951,4.067,4.951,9.722,0,12.131-18.515,12.91-25.583.247-2.208.339-4.659,2.547-4.659,1.436,0,1.8,1.166,1.637,2.409-.411,3.156-6.115,15.9-6.489,22.154a4.82,4.82,0,0,0,5.407,5.679c6.3,0,10.923-10.477,10.923-17.923a11.746,11.746,0,0,0-.948-4.936c-.723-1.485-2.173-2.51-2.173-4.365a2.877,2.877,0,0,1,2.956-2.939c1.594,0,3.1,1.389,3.1,5.154,0,7.3-4.835,29.277-16,29.277" transform="translate(-487.24 -35.3)"/>
      <path id="Path_2386" data-name="Path 2386" d="M687.994,101.216H659.423l.478-1.322h2.384a3.2,3.2,0,0,0,3.4-2.132L679.75,56.024a3.238,3.238,0,0,0,.144-.73c0-1.02-.706-1.683-2.136-1.683h-2.951l.5-1.322h16.091l-.478,1.322h-2.3a3.124,3.124,0,0,0-3.4,2.124L671.066,97.473a4.457,4.457,0,0,0-.134.743c0,1.02.718,1.683,2.131,1.683h3.186a15.926,15.926,0,0,0,14.275-9.759h1.2Z" transform="translate(-659.423 -47.587)"/>
      <path id="Path_2387" data-name="Path 2387" d="M682.48,56.661c-4.122,0-12.143,18.51-12.143,26.375,0,2.07.621,3.387,1.98,3.387,6.355,0,12.457-20.652,12.457-26.393,0-1.381-.307-3.367-2.293-3.367m.4,27.254a4.368,4.368,0,0,0-.247,1.389c0,.827.314,1.406,1.183,1.406,3.1,0,5.969-5.516,6.35-7.647h1.272c-1.112,4.491-4.679,10.507-9.935,10.507-2.775,0-3.483-1.834-3.483-3.807a15.443,15.443,0,0,1,.564-3.075,10.821,10.821,0,0,1-8.727,6.976c-2.636,0-4.689-1.919-4.689-6.258,0-10.061,11.031-28.717,17.852-28.717,2.384,0,3.018,2.723,3.018,4.327v1.02l1.5-4.322h4.934Z" transform="translate(-630.484 -35.506)"/>
      <path id="Path_2388" data-name="Path 2388" d="M689.074,89.524c-2.7,0-3.585-1.98-3.585-4.1a9.287,9.287,0,0,1,.555-3.03l7.085-21a4.922,4.922,0,0,0,.248-1.419c0-1.015-.574-1.822-2.4-1.822-3.278,0-7.7,4.785-10.8,13.965l-5.721,16.97h-4.912l10.712-32.106h-5.095l.5-1.322h4.9a11.838,11.838,0,0,0,5.092-.81h.247l-2.723,7.922c3.265-5.365,7.791-8.075,11.358-8.075a3.77,3.77,0,0,1,3.961,3.961,4.965,4.965,0,0,1-.23,1.817L690.426,83.85a3.808,3.808,0,0,0-.248,1.485c0,.743.248,1.31,1.183,1.31,3.107,0,5.956-5.516,6.36-7.64h1.263c-1.1,4.491-4.689,10.507-9.922,10.507" transform="translate(-608.435 -35.461)"/>
      <path id="Path_2389" data-name="Path 2389" d="M691.834,56.36c-3.9,0-8.016,7.865-10.175,15.648,7.387-2.191,12.945-9.331,12.945-13.121,0-1.411-.785-2.518-2.77-2.518M681.273,73.281a34.371,34.371,0,0,0-1.111,8c0,3.387.876,5.729,3.018,5.729,3.651,0,6.662-5.063,7.145-7.942h1.347c-1.1,4.345-4.526,10.514-10.073,10.514-4.7,0-6.684-3.748-6.684-8.811,0-10.363,8.437-26.083,18.815-26.083a4.243,4.243,0,0,1,4.278,4.407c0,4.5-4.907,11.1-16.735,14.188" transform="translate(-581.429 -35.51)"/>
      <path id="Path_2390" data-name="Path 2390" d="M722.884,68.851a2.57,2.57,0,0,1-2.614-2.723,5.8,5.8,0,0,1,.478-2.2,8.143,8.143,0,0,0,.718-3.312,7.934,7.934,0,0,0-8.328-7.942c-11.829,0-28.348,34.1-28.348,54.679,0,8.89,3.421,15.349,11.2,15.349,9.113,0,15.324-8.449,17.852-14.992h1.423c-4.122,11.177-12.378,17.357-21.352,17.357-7.766,0-14.515-5.813-14.515-19.114,0-21.746,16.676-54.444,34.05-54.444A12.772,12.772,0,0,1,726,64.368c0,3.379-1.594,4.5-3.114,4.5" transform="translate(-558.832 -51.512)"/>
      <path id="Path_2391" data-name="Path 2391" d="M710.161,60.423c-2.934,0-2.228-2.649-3.9-2.649-5.154,0-9.284,11.031-10.308,14.111l-5.788,17.2h-4.937l10.724-32.1h-5.1l.5-1.334h4.912a11.738,11.738,0,0,0,5.082-.81h.248l-2.456,7.479c2.854-5.28,7.06-7.617,10.645-7.617,2.282,0,3.265,1.315,3.265,2.711a2.819,2.819,0,0,1-2.872,3.018" transform="translate(-529.495 -35.442)"/>
      <path id="Path_2392" data-name="Path 2392" d="M706.073,56.661c-4.117,0-12.131,18.51-12.131,26.375,0,2.07.629,3.387,1.98,3.387,6.343,0,12.457-20.652,12.457-26.393,0-1.381-.307-3.367-2.3-3.367m.409,27.264a4.206,4.206,0,0,0-.248,1.389c0,.827.315,1.406,1.184,1.406,3.107,0,5.969-5.516,6.362-7.647h1.28c-1.134,4.491-4.689,10.507-9.952,10.507-2.765,0-3.488-1.834-3.488-3.808a15.414,15.414,0,0,1,.569-3.085,10.806,10.806,0,0,1-8.727,6.976c-2.637,0-4.7-1.919-4.7-6.258,0-10.061,11.051-28.717,17.859-28.717,2.4,0,3.03,2.723,3.03,4.327v1.02l1.485-4.322h4.954Z" transform="translate(-511.695 -35.506)"/>
      <path id="Path_2393" data-name="Path 2393" d="M740.945,57.847a2.181,2.181,0,0,1-2.305-1.755c-.319-1.847-1.188-2.136-2.064-2.136-1.9,0-3.018,1.473-3.874,4.043L728.966,69.02h5.063l-.374,1.322h-5.1L716.9,105.248c-2.54,7.568-6.367,16.978-15.317,16.978-2.854,0-4.223-1.636-4.223-3.109a2.8,2.8,0,0,1,2.867-2.7,2.176,2.176,0,0,1,2.3,1.763c.307,1.829,1.1,2.131,2.07,2.131,1.9,0,3.013-1.485,3.874-4.117L723.8,70.347h-5.239l.386-1.322h5.318c2.476-7.64,6.283-16.983,15.329-16.983,2.854,0,4.208,1.552,4.208,3.1a2.807,2.807,0,0,1-2.862,2.711" transform="translate(-468.392 -48.826)"/>
      <path id="Path_2394" data-name="Path 2394" d="M718.964,55.947c-6.578,0-11.353,15.794-11.353,25.184,0,4.063.874,7.14,2.946,7.14,6.506,0,11.269-15.794,11.269-25.2,0-4.038-.881-7.122-2.862-7.122m-8.969,33.567c-5.238,0-7.4-4.1-7.4-9.469,0-10.363,7.87-25.348,16.834-25.348,5.246,0,7.392,4.122,7.392,9.548,0,10.284-7.87,25.269-16.834,25.269" transform="translate(-442.041 -35.458)"/>
      <path id="Path_2395" data-name="Path 2395" d="M731.288,60.423c-2.939,0-2.228-2.649-3.9-2.649-5.159,0-9.3,11.031-10.313,14.111l-5.8,17.2h-4.931l10.732-32.1h-5.082l.47-1.334h4.924a11.66,11.66,0,0,0,5.075-.81h.248l-2.463,7.479c2.867-5.28,7.073-7.617,10.645-7.617,2.287,0,3.248,1.315,3.248,2.711a2.81,2.81,0,0,1-2.854,3.018" transform="translate(-423.162 -35.442)"/>
      <path id="Path_2396" data-name="Path 2396" d="M727.219,68.741c-4.134,0-12.16,18.51-12.16,26.375,0,2.07.629,3.387,1.981,3.387,6.355,0,12.462-20.652,12.462-26.393,0-1.381-.319-3.367-2.288-3.367M727.606,96a3.928,3.928,0,0,0-.247,1.389c0,.827.314,1.406,1.2,1.406,3.085,0,5.941-5.516,6.338-7.647h1.28c-1.116,4.491-4.672,10.507-9.927,10.507-2.783,0-3.488-1.834-3.488-3.808a20.923,20.923,0,0,1,.555-3.085,10.813,10.813,0,0,1-8.727,6.976c-2.624,0-4.7-1.919-4.7-6.258,0-10.061,11.056-28.717,17.864-28.717,2.4,0,3.005,2.723,3.005,4.327v1.02l6.283-18.493h-5.781l.478-1.327h10.63Z" transform="translate(-405.351 -47.587)"/>
    </g>
  </g>
</svg>
