<svg xmlns="http://www.w3.org/2000/svg" xmlns:xlink="http://www.w3.org/1999/xlink" width="500" height="300" viewBox="0 0 500 300">
  <defs>
    <clipPath id="clip-logo_26">
      <rect width="500" height="300"/>
    </clipPath>
  </defs>
  <g id="logo_26" clip-path="url(#clip-logo_26)">
    <g id="Group_6" data-name="Group 6" transform="translate(193.528 89.868)">
      <path id="Path_2415" data-name="Path 2415" d="M615.242,1.129h7.5l-4.349,16.686h-7.507Zm-44.735,0h10.662c3.855,0,8.812,2.547,7.97,8.294a10.224,10.224,0,0,1-10.559,8.39H566.3Zm6.028,4.03-2.228,8.95H577A5.182,5.182,0,0,0,581.781,9.7c.5-1.9.133-4.542-2.643-4.542ZM597.2,1.129l-9.494,16.686h4.964l1.579-2.825h6.759l.512,2.825H608.8L605.7,1.129Zm-.545,9.687,2.724-4.909.794,4.909Zm52.369-9.687h7.5l-4.31,16.686h-7.511Zm-22.848,0-4.317,16.686h7l1.482-5.746,3.848,5.746h8.7l-6.437-8.659,9.365-8.018h-7.585l-6.4,5.517,1.343-5.517Zm33.925,0-4.356,16.686h5.23l2.591-9.691,3.151,9.691h8.2l4.318-16.686h-5.2l-2.405,9.914-3.433-9.914Z" transform="translate(-566.3 -1.129)"/>
      <path id="Path_2416" data-name="Path 2416" d="M675.113,5.033h-52.7L566.3,56.323v48.166Z" transform="translate(-566.296 15.774)"/>
      <path id="Path_2417" data-name="Path 2417" d="M566.3,5.033v47.8l52.3-47.8Z" transform="translate(-566.296 15.774)"/>
    </g>
  </g>
</svg>
