<svg xmlns="http://www.w3.org/2000/svg" xmlns:xlink="http://www.w3.org/1999/xlink" width="500" height="300" viewBox="0 0 500 300">
  <defs>
    <clipPath id="clip-logo_23">
      <rect width="500" height="300"/>
    </clipPath>
  </defs>
  <g id="logo_23" clip-path="url(#clip-logo_23)">
    <g id="Group_37" data-name="Group 37" transform="translate(115.961 121.385)">
      <path id="Path_230" data-name="Path 230" d="M139.461,279.141V244.23H157.45l3.381,2.817v12.374l-2.242,2.3,2.242,2.258v12.345l-3.381,2.817Zm7.3-13.508h6.756v6.181h-6.756Zm0-14.086h6.756v6.186h-6.756Zm26.994,13.224a1.69,1.69,0,1,1,3.381,0v23.356a1.7,1.7,0,0,1-1.688,1.693H122.534a1.671,1.671,0,0,1-1.688-1.671V235.22a1.712,1.712,0,0,1,1.7-1.688h52.9a1.688,1.688,0,0,1,1.671,1.7v23.344a1.694,1.694,0,1,1-3.388,0,24.22,24.22,0,1,0,0,6.207M129.476,261.7a20.262,20.262,0,1,1,20.255,20.267A20.261,20.261,0,0,1,129.476,261.7m-2.258,0a22.5,22.5,0,1,1,6.59,15.923,22.513,22.513,0,0,1-6.59-15.923" transform="translate(-120.846 -233.532)" fill-rule="evenodd"/>
      <path id="Path_231" data-name="Path 231" d="M156.442,234.375a9.16,9.16,0,0,1,1.141,1.566c-.122.652.477,1.194.979,1.5a5.238,5.238,0,0,1,1.413.668c.68.134,1.566-.315,1.91.349l4.737.088c.542.478,1.421.057,1.963.547.616.162,1.432-.15,1.91.377.542.048,1.194-.122,1.595.275.891.138,1.461-.652,2.356-.616.344-.477,1.06-.138,1.42-.582.575,0,1.292-.088,1.514.623-.048.263.344.349.344.623-.117.757.315,1.769-.344,2.311l-.093.4a22.747,22.747,0,0,1-3.328,2.745,2.891,2.891,0,0,0-1.432,1.607c-.449.477-.3,1.194-.7,1.724-.477.349-.191,1.194-.239,1.776a4.789,4.789,0,0,1,1.38,1.769c.4.315.239,1.024.129,1.421-.129.582-.571.656-.979,1.019-.926.174-2.077-.222-2.882.308l-2.626.093-.255.267-2.712.041a15.949,15.949,0,0,0-2.438-1.024,2.97,2.97,0,0,1-1.91-1.065c-.535,0-.4-.616-.757-.838-.275-.659.442-.8.408-1.368.616-.105.879-1.024,1.595-.938.494-.477,1.506.181,1.955-.523.833.036,1.951-.361,2.562.344l2.76-.045c.477-.215.093-.931.583-1.194-.239-.845.518-1.339.757-2a1.375,1.375,0,0,0,.215-1.287l-1.506-1.42c-1.113-.181-2.5.239-3.469-.356h-4.569a23.634,23.634,0,0,0-2.165,1.194c0,.43-.542.623-.716.972-.146.628.081,1.38-.368,1.829.105.692-.267,1.635.32,2.118l.045,4.971c.611.623-.146,1.776.611,2.364l-.048,4.125-.239.3-.1,5.028c-.535.3,0,1.182-.745,1.368-.769,0-1.781.255-2.311-.449-.408-.623-.616-1.287-.972-1.91l-.048-4.4-.315-.389.045-3.82c.668-.535,0-1.688.611-2.247l-.041-8.258c-.523-.454.1-1.432-.745-1.736-.85,0-1.514-.716-2.409-.308-.4.356-1.012.129-1.42.53-1.007.088-2.218-.275-3.008.308-.75.134-.972,1.019-1.554,1.432a6.777,6.777,0,0,0-.181,3.412c.583.361,1.072,1.031,1.817.664.267-.356.75-.134,1.072-.356.535-.134.879-.623,1.506-.477.4-.571,1.287-.4,1.862-.3.368.611,1.146.036,1.466.785a3.157,3.157,0,0,1,.361,1.671c.215.68-.408.955-.408,1.518l-1.153,1.012a4.118,4.118,0,0,0-1.559.32c-.657.081-1.421-.215-1.85.4-.886-.186-1.421.477-2.311.36-.571.611-1.019-.267-1.647-.186-.442-.048-.7-.571-1.153-.442-.926.523-1.583,2.344-2.927,1.671-.879-.53-.984-1.413-1.315-2.17.029-.611-.15-1.327.3-1.776.093-.716-.267-1.6.263-2.13.222-.668-.263-1.64.408-2.13l-.093-1.158-2.531-2.574c-.181-1.06-1.64-1.373-1.724-2.473.349-.676.263-1.466.716-2.089a19.037,19.037,0,0,0,1.769-.716,7.659,7.659,0,0,0,4.085-.664c.356-.041.843.1,1.06-.308.762,0,1.607-.186,2.177.308,1.194.1,2.607-.308,3.581.36.716-.036,1.571.129,2.1-.36,1.053-.041,2.433.263,2.788-.936.093-.879-.239-1.991.408-2.643.3-1.036,1.5-1.077,2.3-1.339.263.356.757.076.979.53" transform="translate(-55.221 -232.035)" fill-rule="evenodd"/>
      <path id="Path_232" data-name="Path 232" d="M165.744,239.075c.215.162.477.523.692.215l.745.308c-.053.6.4,1.635-.43,1.857l-5.513-.041c-.53-.43-1-.826-.793-1.6-.093-.652.75-.267.874-.785,1.466-.088,3,.045,4.424.045m-9.5.68c.513.222.21.8.692,1.053-.129.477.3,1.473-.559,1.385-.4.349-1.053.146-1.385.623-.833-.275-1.194.547-1.962.384-.4.518-1.258-.088-1.619.518a1.432,1.432,0,0,1-1.6-.833c-.162-.513.174-1.251-.308-1.6a.864.864,0,0,1,.437-.955,1.7,1.7,0,0,0,.657-.356c.437-.041.955.134,1.246-.255a41.13,41.13,0,0,1,4.4.036m18.665.75c.454.43,1.315-.088,1.671.559a2.789,2.789,0,0,1,1.559.349.678.678,0,0,1,0,.745c-.43.384-.781.821-1.421.773-.186.215-.4-.117-.616-.048-.477-.029-1.093.141-1.351-.344a12.1,12.1,0,0,0-3.557-.477c-.048-.611-.308-1.478.267-1.869a4.345,4.345,0,0,1,2.76.134Zm-6.331,4.178a1.941,1.941,0,0,1,1.351.3c.563.041,1.218-.139,1.559.3.611.134,1.473-.222,1.736.518,0,.349-.437.478-.337.867-.879.3-1.4,1.218-2.223,1.607l-.955.692a21.863,21.863,0,0,1-3.7-3.6c.215-.566.943-.606,1.3-1.041a1.273,1.273,0,0,1,1.258.356m-15.279,1.368c0,.36-.349.308-.571.4l-2.27,2.182c-.855.3-.64-.745-.955-1.1-.11-.477.174-.68.477-.9.349-.048.785,0,.955-.389.907.3,1.53-.74,2.356-.191m8.545.239c.315.74,1.141.513,1.432,1.194l-.088.838c-1.829.093-3.784.093-5.594,0,.332-.793.43-1.781,1.258-2.125a2.352,2.352,0,0,1,2.387.048Zm16.029.657-.263.523-.048,6.112c-.239.1-.377.477-.692.315a5.73,5.73,0,0,0-1.984-1.612c-.513-.43-.955-1.218-1.659-1.351-.263-.21-.122-.652-.122-.955a3.581,3.581,0,0,1,2.287-1.194l2.1-2.008c.222,0,.344-.036.384.181M159.5,250.692a1.156,1.156,0,0,1-.263,1.263c-1.089.781-1.822,2.344-3.295,2.433-.53.349-1.4-.057-1.886.478h-2.865a.9.9,0,0,1-1,.215c-.162-.3-.85-.122-.6-.647.389-.611.053-1.218.263-1.869.337-.3.559-.874,1.077-.826.408-.478,1.1-.162,1.53-.571.563-.036,1.17.093,1.559-.344,1.432.344,2.387-.563,3.784-.263a1.227,1.227,0,0,1,1.693.134m9.633.879c.74.239.315,1.124.793,1.547,0,.356.041.793-.361.833s-.907-.134-1.165.349c-1.007-.129-2.17.222-2.951-.349a2.179,2.179,0,0,1-1.4-.3c-.332,0-.774.088-.943-.215-.053-.7.838-1.134,1.218-1.566.688.239.826-.7,1.518-.384Zm-9.772,4.51,15.738.081c.692.4,1.764.076,2.165,1.077-.523.7,0,1.879-1.141,2.06-.762.513-1.979-.146-2.688.513-.652-.041-1.385.134-1.91-.3l-3.254-.093c-.74-.554-1.793-.036-2.648-.263l-.36-.291a16.437,16.437,0,0,0-3.581.041l-.389-.081-5.384-.053-.611.384a19.4,19.4,0,0,0-4.954.263c-.616,0-1.344.134-1.518-.513-.134-.862.9-1.308,1.518-1.74.349-.7,1.175-.349,1.611-.821,1-.105,2.149.263,3.044-.263.907-.181,1.869.158,2.648-.32.594.045,1.3-.117,1.724.32m2.789-21.546.425-.162h5.57c.955.6,2.3.162,3.381.384.571.606,1.693-.181,2.165.64.926-.162,1.432.523,2.311.4.523.559,1.526-.048,2.036.518.518.134,1.215-.093,1.671.4l3.5.041a6.217,6.217,0,0,1,1.093,1.141c-.048.955.088,1.943-.523,2.59s-1.559,1.268-1.834,2.084c-1,.437-.255,1.659-.855,2.3l-.1,3.581c-.477.477-.255,1.339-.162,1.951a2.239,2.239,0,0,1,.222,1.729c.129.356-.349.4-.315.7l.048,6.25.267.344v3.615c-.315.389-.7.955-1.263.955-.3.3-.955.17-1.344.076-.575-.437-1.53,0-2.056-.518-.692-.041-1.194-.43-1.91-.389-.332-.478-1.041-.093-1.339-.652-.4-.129-1.041.21-1.3-.3-.6-.041-1.3.122-1.745-.3-.523-.174-1.292.21-1.688-.32a5.916,5.916,0,0,1-2.7-.291c-2.817-.088-5.73-.088-8.549,0-.74.611-2.1-.088-2.829.554-1-.291-1.518.571-2.485.32l-.291.3c-.955-.141-2.048.215-2.781-.3a1.4,1.4,0,0,0-1.263.3c-.862-.088-1.91.239-2.387-.74a5.061,5.061,0,0,1-.647-1.571c-.523-.523-.32-1.332-.793-1.862.093-.733-.263-1.688.267-2.294a7.105,7.105,0,0,1,.647-2.089,11.555,11.555,0,0,0,1.093-2.008c-.146-.606.477-.862.389-1.478.563-.647.21-1.724.255-2.555a4.427,4.427,0,0,1-.477-1.21c-.384-.315-.045-.914-.263-1.311-.162-.477-.692-.867-.594-1.518a2.352,2.352,0,0,1-.843-1.566c-.239-.692-.774-1.258-1-2.008-.372-.255,0-.9-.518-1.158.146-.7-.255-1.607.3-2.084-.158-.914.955-1.093,1.053-1.874a13.1,13.1,0,0,1,3.65-.129l.384.3,4.813-.041c.793-.7,2.316.041,3.137-.616l3.82-.036a2.917,2.917,0,0,1,2.344-.088" transform="translate(-15.796 -229.699)" fill-rule="evenodd"/>
      <path id="Path_233" data-name="Path 233" d="M182.738,237.941c2.084.657,4.6.215,6.685.774.652.041,1.432-.134,1.781.535.239.559.74.988.75,1.671a2.387,2.387,0,0,1-1.59,1.547c-1.781.337-3.235-.4-5.04-.2a36.642,36.642,0,0,1-5.08-.477,7.019,7.019,0,0,1-2-.3,2.891,2.891,0,0,1-2.963,0c-.85-.583-1.595.42-2.469.348-1.356.668-2.777-.513-4,.437a1.194,1.194,0,0,0-.9.408c-.239,1.077.89,1.7,1.671,2.375.523.239,1.048-.105,1.554-.105,1.263.623,2.934.267,4.254.692,1.392-.263,2.531.437,3.837-.017.563.275,1.081-.053,1.7-.024l6.561-.158a1.392,1.392,0,0,1,1.129-.088,1.463,1.463,0,0,1,.43,1.671c-.9,1.182-2.614,2.206-2.1,3.951a4.743,4.743,0,0,0,1.432,1.583c1.158-.093,2.008-.8,3.185-.85,1.368.494,3.364.587,3.789,2.387.162.437-.122.757-.349,1.124a7.017,7.017,0,0,1-5.169,1.432,8.641,8.641,0,0,0-3.61-.867.814.814,0,0,0-.931.017,16.446,16.446,0,0,0-.781,3.056c-.11.6-.1,1.392.628,1.619a10.833,10.833,0,0,1,5.634,2.387,1.433,1.433,0,0,1,.3,1.392,2.423,2.423,0,0,1-.833.7c-1.91.239-3.295-1.153-5.064-1.4a21.963,21.963,0,0,1-5.947-2.025c-.6-.315-1.432-.057-2.077-.332a20,20,0,0,0-9.359-.284,19.366,19.366,0,0,1-3.55,1.17.974.974,0,0,1-.955-.506,1.951,1.951,0,0,1,.284-1.8c.413-.972,1.454-1.659,1.757-2.7a4.488,4.488,0,0,0,1.17-2.177,3.62,3.62,0,0,0-3.178-1.158c-.6.3-.752,1.031-1.1,1.506a65.342,65.342,0,0,0-4.04,5.3,5.212,5.212,0,0,1-4.226,2.7c-.716-.222-1.571-.3-1.91-1.089a4.624,4.624,0,0,1,.389-3.2c.088-1.879,2.218-1.712,3.161-2.81.785-1.218,3.137-1.757,2.056-3.626-2.149-1.688-5.04-3.2-5.878-5.942a6.535,6.535,0,0,1-.7-3.557,2.168,2.168,0,0,1,2.235-.513c3.206.716,3.784,4.469,6.518,6.019a12.892,12.892,0,0,1,4.417,3.206c1.275-.785,2.7-1.165,3.877-1.972.361-.8,1.38-1.227,1.263-2.182-.122-.523-.11-1.165-.623-1.432-1.28-.105-2.149-1.246-3.225-1.834a29.327,29.327,0,0,1-5.109-1.91c-2.1-1.124-4.737-1.967-5.866-4.436-.064-1.024-.041-2.108,1-2.6.855-.616,1.822.088,2.788.024a15.344,15.344,0,0,1,7.3,4.092c.174.239.337.478.477.664.891-.361,1.3-1.413,2.223-1.554a9.206,9.206,0,0,1,4.121-.057,3.551,3.551,0,0,0,2.421-.681l-.413-1.308c.745-.733.141-2.566,1.712-2.387,2.793-.1,4.324,2.526,6.542,3.765m-5.558,10.3c.3.874-.413,1.566-.652,2.368-.53,1.432-2.149.833-3.3.972-.563-.384-1.4-.21-1.8-.926a3.077,3.077,0,0,1,1.053-3.049,8.57,8.57,0,0,1,2.886-.088Zm7.3-.833a1.108,1.108,0,0,1,.606.919c-.408,1.036-.477,2.514-1.745,2.939-1.478-.105-3.538,1.093-4.476-.575a6.04,6.04,0,0,1,.513-2.433c1.263-1.392,3.433-.652,5.1-.85m-10.407,6.31.158.21c-.1,1.635.129,3.557-1.117,4.775l-3.887.105c-.275-.239-.8-.389-.85-.826.064-.919-.275-2,.284-2.729l.064-.563a5.921,5.921,0,0,1,1.733-1.432,12.342,12.342,0,0,1,3.615.461m8.16.845a3.252,3.252,0,0,1-.162,2.242,4.071,4.071,0,0,1-.886,2.886,1.234,1.234,0,0,1-1.019-.181,19.537,19.537,0,0,1-3.416-.7c-.623-.635-.315-1.834-.284-2.643A3.565,3.565,0,0,1,178.259,254a9.453,9.453,0,0,1,3.975.542" transform="translate(24.735 -230.547)" fill-rule="evenodd"/>
      <path id="Path_234" data-name="Path 234" d="M187.319,234.168a1.951,1.951,0,0,1,.583,2.077c-.454.7-1.215,1.141-1.368,2.008a17.3,17.3,0,0,1-.141,3.433,7.489,7.489,0,0,1,.141,2.077c-.611,1.072.291,2,.587,2.939,1.093.2,1.717-.826,2.655-1.041a13.918,13.918,0,0,0,4.355-2.025,3.276,3.276,0,0,1,2.4-.594c.855.325,1.4,1.175,2.182,1.7a2.328,2.328,0,0,1-.437,2.246,5.334,5.334,0,0,1-3.1-.017,18.954,18.954,0,0,0-4.336.606c-1.258.255-2.263,1.113-3.493,1.368-.477.21-.449.692-.477,1.105a21.008,21.008,0,0,1,1.652,2.387,11.529,11.529,0,0,0,10.982,3.068,20.888,20.888,0,0,1,4.027-2.025.84.84,0,0,1,1.036.523,5.314,5.314,0,0,1-.36,2.614c.21.611-.635.716-.437,1.28-.688,1.392-1.409,2.736-2.177,4.059a3.514,3.514,0,0,1-3.712,1.578,19.746,19.746,0,0,1-8.521-5.618c-.867-.315-1.623-1.671-2.6-.757-.64.616.141,1.3-.093,2.036l.029,10.342c-.478.454-1.194.215-1.838.215a5.013,5.013,0,0,1-2.032-3.66,15.537,15.537,0,0,1,.53-5.028c.478-.5.081-1.392.478-1.967a6.305,6.305,0,0,1,.4-3.1,3.4,3.4,0,0,0-1.829-3.015c-1.029-.076-1.764-.886-2.822-.85a15.452,15.452,0,0,0-1.218,1.817,24.4,24.4,0,0,1-7.06,5.57c-1.082.826-2.368,1.077-3.388,1.943a26.925,26.925,0,0,0-4.479,2.373c-1.17.239-2.509,1.246-3.667.349a6.182,6.182,0,0,1,.141-3.1,4.018,4.018,0,0,1,2.025-3.486,7.568,7.568,0,0,0,4.319-1.578,5.467,5.467,0,0,0,3.342-2.189c.4-1.724-1.538-2.736-2.316-3.918-2.263-2.113-4.085,1.292-6.542.7-.6-.174-1.339-.239-1.5-1.019a6.489,6.489,0,0,1,1.113-3.97,13.532,13.532,0,0,1,3.82-2.27,34.564,34.564,0,0,0,6.076-1.6c1.845-.535,1.194-2.578,1.857-3.846a2.714,2.714,0,0,1,2.521-1.246c2.02.437,2.805,2.6,4.116,3.846a7.943,7.943,0,0,1,2.643,4.894c.337,1.06-.239,2.118-.134,3.271-.117.478-.809,1.227.057,1.542.7.413,1.292-.461,2.072-.291.628-.239.4-.984.437-1.432-.267-2.905.134-6.088-.222-8.993a4.026,4.026,0,0,1-.088-1.554c.36-.535.158-1.351.3-1.962.372-.862.408-2.287,1.7-2.294a2.249,2.249,0,0,1,1.8.477m-9.97,10.808a4.412,4.412,0,0,1,.955,2.939c-.821.7-.676,2.077-1.9,2.34-1.268.239-2.574,1.32-3.882.647-.943-.611-2.461-1.089-2.59-2.409a5.45,5.45,0,0,1,2.387-2.91,9.072,9.072,0,0,1,4.481-1.194Z" transform="translate(64.211 -232.927)" fill-rule="evenodd"/>
      <path id="Path_235" data-name="Path 235" d="M144.946,251.123a4.923,4.923,0,0,1-3.182,1.332c-2.729,0-4.214-2.13-4.214-5.162,0-2.6,1.194-5.419,4.125-5.419a3.65,3.65,0,0,1,2.946,1.623h.239c.146-.616.239-1.227.413-1.822a7.79,7.79,0,0,0-3.615-.867,6.393,6.393,0,0,0-7.055,6.747,6.066,6.066,0,0,0,6.658,5.969,7.809,7.809,0,0,0,3.517-.757l.4-1.526Z" transform="translate(-54.545 -198.567)" fill-rule="evenodd"/>
      <path id="Path_236" data-name="Path 236" d="M137.257,253.014c.437-.036.879-.088,1.332-.088s.886.053,1.327.088v-5.942c.9-.024,1.81-.093,2.717-.093s1.793.069,2.707.093v5.942c.442-.036.891-.088,1.32-.088s.9.053,1.332.088V240.838c-.437.036-.886.088-1.332.088s-.879-.052-1.32-.088v4.808c-.914.036-1.817.088-2.707.088s-1.822-.052-2.717-.088v-4.808c-.442.036-.886.088-1.327.088s-.9-.053-1.332-.088Z" transform="translate(-41.734 -198.292)" fill-rule="evenodd"/>
      <path id="Path_237" data-name="Path 237" d="M140.329,253.014c.442-.036.886-.088,1.332-.088s.879.052,1.327.088V240.838c-.449.036-.886.088-1.327.088s-.89-.053-1.332-.088Z" transform="translate(-26.927 -198.292)" fill-rule="evenodd"/>
      <path id="Path_238" data-name="Path 238" d="M141.9,252.986c.239-.017.477-.053.716-.053s.477.036.7.053v-8.595l1.931,2.02c2.008,2.113,3.923,4.3,5.983,6.582l1.495.017V240.834a5.025,5.025,0,0,1-.7.057,4.84,4.84,0,0,1-.716-.057v8.311c-2.5-2.865-5.145-5.558-7.654-8.311H141.9Z" transform="translate(-19.362 -198.298)" fill-rule="evenodd"/>
      <path id="Path_239" data-name="Path 239" d="M151.558,249.431c.477,1.194.838,2.387,1.263,3.7.506-.036,1.007-.076,1.506-.076s1.012.041,1.53.076l-4.942-12.317a4.972,4.972,0,0,1-1.356,0L144.491,253.1c.284-.017.575-.041.862-.041s.542.024.826.041c.344-1.222.785-2.323,1.246-3.667Zm-3.655-1.089,1.659-4.125,1.59,4.125Z" transform="translate(-6.864 -198.412)" fill-rule="evenodd"/>
      <path id="Path_240" data-name="Path 240" d="M162.148,247.115a6,6,0,0,0-6.553-6.31,6.393,6.393,0,0,0-7,6.384,5.985,5.985,0,0,0,6.565,6.327,6.468,6.468,0,0,0,6.99-6.4m-6.67-5.238c2.667,0,3.724,2.626,3.724,4.9,0,2.963-1.222,5.675-3.958,5.675-2.655,0-3.708-2.449-3.708-4.744,0-3.975,1.478-5.832,3.939-5.832" transform="translate(12.868 -198.567)" fill-rule="evenodd"/>
      <path id="Path_241" data-name="Path 241" d="M157.76,253.014c1.49-4.173,3.218-8.132,4.947-12.176a6.58,6.58,0,0,1-.826.053,6.331,6.331,0,0,1-.814-.053c-.955,2.939-2.1,5.866-3.306,8.783-1.077-2.956-2.282-5.844-3.142-8.783-.518.036-1.053.088-1.566.088s-1.041-.052-1.559-.088c1.671,4.032,3.266,8.038,4.749,12.176a5.256,5.256,0,0,1,.769-.088,5.391,5.391,0,0,1,.75.088" transform="translate(26.882 -198.292)" fill-rule="evenodd"/>
      <path id="Path_242" data-name="Path 242" d="M154.256,240.849v12.073H161a5.818,5.818,0,0,1-.076-.762A5.451,5.451,0,0,1,161,251.4a30.889,30.889,0,0,1-4.085.239v-4.5h1.834a17.325,17.325,0,0,1,2.182.15c-.024-.239-.081-.506-.081-.752s.057-.518.081-.762a17.36,17.36,0,0,1-2.182.15h-1.833v-3.8a23.391,23.391,0,0,1,4.085.239,5.535,5.535,0,0,1-.076-.769,5.638,5.638,0,0,1,.076-.757Z" transform="translate(40.205 -198.291)" fill-rule="evenodd"/>
      <path id="Path_243" data-name="Path 243" d="M156.246,253.021c.442-.036.874-.088,1.327-.088s.891.052,1.332.088v-5.7h.122c.4.68.9,1.5,1.158,1.979l2.108,3.72c.53-.036,1.072-.088,1.59-.088s1.089.052,1.631.088l-.7-1.105c-1.065-1.64-2.149-3.276-3.142-4.975a3.159,3.159,0,0,0,2.765-3.19,2.657,2.657,0,0,0-1.53-2.538,7.163,7.163,0,0,0-2.886-.356h-3.772Zm2.66-11.221c1.089,0,2.409-.134,2.7,1.332a4.671,4.671,0,0,1,.093.891,2.244,2.244,0,0,1-2.788,2.531Z" transform="translate(49.797 -198.299)" fill-rule="evenodd"/>
      <path id="Path_244" data-name="Path 244" d="M164.961,243.4c.174-.6.356-1.182.571-1.757a4.7,4.7,0,0,0-2.812-.838,3.662,3.662,0,0,0-4.08,3.708c0,4.3,5.252,3.254,5.252,6.088a1.862,1.862,0,0,1-2.056,1.85,2.387,2.387,0,0,1-2.457-1.955h-.337a14.344,14.344,0,0,1-.518,2.251,5.46,5.46,0,0,0,2.865.757,4.185,4.185,0,0,0,4.684-3.906c0-4.059-5.379-3.607-5.379-6.007,0-1,.542-1.729,1.943-1.729a2.122,2.122,0,0,1,2.044,1.538Z" transform="translate(60.799 -198.554)" fill-rule="evenodd"/>
      <path id="Path_245" data-name="Path 245" d="M160.708,240.849v12.073h6.752a4.375,4.375,0,0,1-.088-.762,4.14,4.14,0,0,1,.088-.762,30.982,30.982,0,0,1-4.092.239v-4.5h1.838a17.314,17.314,0,0,1,2.177.15,6.582,6.582,0,0,1-.076-.752,6.662,6.662,0,0,1,.076-.762,17.325,17.325,0,0,1-2.177.15h-1.838v-3.8a23.467,23.467,0,0,1,4.092.239,4.2,4.2,0,0,1-.088-.769,4.248,4.248,0,0,1,.088-.757Z" transform="translate(71.305 -198.291)" fill-rule="evenodd"/>
      <path id="Path_246" data-name="Path 246" d="M169.6,249.431c.477,1.194.843,2.387,1.258,3.7.518-.036,1.012-.076,1.518-.076s1.007.041,1.526.076l-4.93-12.317a5.631,5.631,0,0,1-.7.045,5.325,5.325,0,0,1-.669-.045L162.531,253.1c.3-.017.575-.041.874-.041s.53.024.821.041c.344-1.222.785-2.323,1.246-3.667Zm-3.65-1.089,1.652-4.125,1.59,4.125Z" transform="translate(80.092 -198.412)" fill-rule="evenodd"/>
      <path id="Path_247" data-name="Path 247" d="M171.624,243.406c.174-.6.356-1.194.571-1.757a4.691,4.691,0,0,0-2.805-.838,3.672,3.672,0,0,0-4.1,3.712c0,4.278,5.274,3.247,5.274,6.083a1.869,1.869,0,0,1-2.06,1.85,2.411,2.411,0,0,1-2.449-1.951h-.349a13.747,13.747,0,0,1-.506,2.247,5.447,5.447,0,0,0,2.865.757,4.195,4.195,0,0,0,4.7-3.906c0-4.059-5.384-3.607-5.384-6.007,0-1,.542-1.736,1.943-1.736a2.1,2.1,0,0,1,2.036,1.542Z" transform="translate(92.963 -198.521)" fill-rule="evenodd"/>
    </g>
  </g>
</svg>
