<svg xmlns="http://www.w3.org/2000/svg" xmlns:xlink="http://www.w3.org/1999/xlink" width="500" height="300" viewBox="0 0 500 300">
  <defs>
    <clipPath id="clip-logo_24">
      <rect width="500" height="300"/>
    </clipPath>
  </defs>
  <g id="logo_24" clip-path="url(#clip-logo_24)">
    <g id="Group_40" data-name="Group 40" transform="translate(155.238 88.536)">
      <path id="Path_53" data-name="Path 53" d="M493.285,273.534l-5.467,10.2a2.148,2.148,0,0,1-3.832-.092l-25.39-53.1a2.146,2.146,0,0,1,1.932-3.082h10.348a2.133,2.133,0,0,1,1.932,1.224L493.326,271.6a2.152,2.152,0,0,1-.045,1.938" transform="translate(-417.697 -225.309)"/>
      <path id="Path_54" data-name="Path 54" d="M491.862,258.08c0,.518.016,1.029.045,1.541a.858.858,0,0,1-1.632.409L476.1,230.38a2.151,2.151,0,0,0-1.938-1.219H463.821a2.153,2.153,0,0,0-1.949,3.075l25.4,53.148a2.153,2.153,0,0,0,3.832.087l30.975-57.125a.869.869,0,0,0-.817-1.268,31.04,31.04,0,0,0-29.4,31" transform="translate(-403.114 -227.025)"/>
      <path id="Path_55" data-name="Path 55" d="M494.267,227.793l-25.538,47.1a1.375,1.375,0,0,0,.19,1.583,29.935,29.935,0,1,0,26.748-49.394,1.376,1.376,0,0,0-1.394.712" transform="translate(-372.454 -227.067)"/>
      <path id="Path_56" data-name="Path 56" d="M461.083,262.622h-2.16L457.181,252.3h-.045l-1.711,10.317h-2.151l-2.363-15.9h2.407l1.143,10.1h.049l1.786-10.1h1.731l1.856,10.344h.049l1.094-10.344h2.418Z" transform="translate(-450.879 -139.727)"/>
      <path id="Path_57" data-name="Path 57" d="M458.092,251.3h-.049l-1.117,5.759h2.282Zm-.965-4.578h1.9l3.548,15.9H460.3l-.67-3.419h-3.1l-.67,3.419h-2.28Z" transform="translate(-439.041 -139.727)"/>
      <path id="Path_58" data-name="Path 58" d="M455.83,246.72h2.188l3.435,9.582h.054V246.72h2.276v15.9h-2.155l-3.468-9.56h-.049v9.56h-2.28Z" transform="translate(-429.035 -139.727)"/>
      <path id="Path_59" data-name="Path 59" d="M458.057,250.585a4.059,4.059,0,0,1,.337-1.7,3.412,3.412,0,0,1,.893-1.215,3.8,3.8,0,0,1,1.219-.73,4.146,4.146,0,0,1,1.371-.246,4.2,4.2,0,0,1,1.378.246,4.023,4.023,0,0,1,1.235.73,3.62,3.62,0,0,1,.882,1.215,4.145,4.145,0,0,1,.326,1.7v.8H463.41v-.8a1.505,1.505,0,0,0-.447-1.219,1.7,1.7,0,0,0-2.155,0,1.487,1.487,0,0,0-.447,1.219v8.4a1.5,1.5,0,0,0,.447,1.226,1.715,1.715,0,0,0,2.155,0,1.518,1.518,0,0,0,.447-1.226v-2.995H461.6v-2.01h4.089v5a4.068,4.068,0,0,1-.326,1.7,3.572,3.572,0,0,1-.882,1.215,3.888,3.888,0,0,1-1.235.723,4.192,4.192,0,0,1-1.378.239,4.137,4.137,0,0,1-1.371-.239,3.7,3.7,0,0,1-1.219-.724,3.368,3.368,0,0,1-.893-1.215,3.981,3.981,0,0,1-.337-1.7Z" transform="translate(-419.161 -139.834)"/>
      <path id="Path_60" data-name="Path 60" d="M463.657,258.983a1.517,1.517,0,0,0,.447,1.226,1.673,1.673,0,0,0,1.078.382,1.644,1.644,0,0,0,1.083-.382,1.516,1.516,0,0,0,.447-1.226v-8.394a1.505,1.505,0,0,0-.447-1.219,1.622,1.622,0,0,0-1.083-.386,1.648,1.648,0,0,0-1.079.386,1.5,1.5,0,0,0-.447,1.219Zm-2.276-8.394a4.057,4.057,0,0,1,.337-1.7,3.479,3.479,0,0,1,.882-1.215,3.75,3.75,0,0,1,1.219-.73,4.146,4.146,0,0,1,1.371-.246,4.257,4.257,0,0,1,1.382.246,4.114,4.114,0,0,1,1.231.73,3.615,3.615,0,0,1,.882,1.215,4.146,4.146,0,0,1,.322,1.7v8.394a4.067,4.067,0,0,1-.321,1.7,3.572,3.572,0,0,1-.882,1.215,3.982,3.982,0,0,1-1.23.724,4.244,4.244,0,0,1-1.382.239,4.135,4.135,0,0,1-1.371-.239,3.648,3.648,0,0,1-1.219-.724,3.433,3.433,0,0,1-.882-1.215,3.981,3.981,0,0,1-.337-1.7Z" transform="translate(-404.355 -139.829)"/>
      <path id="Path_61" data-name="Path 61" d="M463.549,246.72h2.184l3.441,9.582h.054V246.72H471.5v15.9h-2.155l-3.468-9.56h-.049v9.56h-2.28Z" transform="translate(-394.732 -139.727)"/>
      <path id="Path_62" data-name="Path 62" d="M469.248,254.273h1.094a2.3,2.3,0,0,0,1.061-.2,1.481,1.481,0,0,0,.576-.549,2.773,2.773,0,0,0,.223-.833c.022-.337.027-.7.027-1.1s0-.724-.027-1.061a2.958,2.958,0,0,0-.208-.871,1.219,1.219,0,0,0-.534-.576,1.943,1.943,0,0,0-1.018-.223h-1.186Zm-2.275-7.557h3.414a5.256,5.256,0,0,1,1.65.246,3.231,3.231,0,0,1,1.3.871,3.351,3.351,0,0,1,.791,1.469,8.676,8.676,0,0,1,.223,2.264,10.876,10.876,0,0,1-.114,1.8,3.928,3.928,0,0,1-.534,1.393,3.189,3.189,0,0,1-1.242,1.208,4.174,4.174,0,0,1-2.052.447h-1.166v6.206H466.97Z" transform="translate(-379.526 -139.732)"/>
      <path id="Path_63" data-name="Path 63" d="M471.323,253.822h1.3a2.354,2.354,0,0,0,.965-.17,1.3,1.3,0,0,0,.549-.473,2.114,2.114,0,0,0,.25-.779,8.567,8.567,0,0,0,.06-1.052,8.664,8.664,0,0,0-.06-1.072,1.866,1.866,0,0,0-.273-.773,1.327,1.327,0,0,0-.605-.485,2.551,2.551,0,0,0-1-.152h-1.186Zm-2.271-7.1h3.658q4.02,0,4.02,4.665a5.841,5.841,0,0,1-.435,2.378,3.308,3.308,0,0,1-1.53,1.594l2.456,7.262h-2.409l-2.124-6.793h-1.367v6.793H469.05Z" transform="translate(-370.282 -139.728)"/>
      <path id="Path_64" data-name="Path 64" d="M473.46,258.983a1.517,1.517,0,0,0,.447,1.226,1.671,1.671,0,0,0,1.079.382,1.63,1.63,0,0,0,1.078-.382,1.5,1.5,0,0,0,.462-1.226v-8.394a1.489,1.489,0,0,0-.462-1.219,1.606,1.606,0,0,0-1.079-.386,1.645,1.645,0,0,0-1.078.386,1.505,1.505,0,0,0-.447,1.219Zm-2.28-8.394a4.061,4.061,0,0,1,.337-1.7,3.478,3.478,0,0,1,.893-1.215,3.81,3.81,0,0,1,1.219-.73,4,4,0,0,1,2.756,0,4.11,4.11,0,0,1,1.231.73,3.547,3.547,0,0,1,.882,1.215,4.056,4.056,0,0,1,.326,1.7v8.394a3.977,3.977,0,0,1-.326,1.7,3.5,3.5,0,0,1-.882,1.215,3.978,3.978,0,0,1-1.23.724,4.081,4.081,0,0,1-2.756,0,3.7,3.7,0,0,1-1.219-.723,3.428,3.428,0,0,1-.893-1.215,3.985,3.985,0,0,1-.337-1.7Z" transform="translate(-360.811 -139.829)"/>
      <path id="Path_65" data-name="Path 65" d="M475.643,254.273h1.09a2.36,2.36,0,0,0,1.072-.2,1.364,1.364,0,0,0,.561-.549,2.361,2.361,0,0,0,.223-.833c.022-.337.038-.7.038-1.1s-.016-.724-.038-1.061a2.658,2.658,0,0,0-.208-.871,1.255,1.255,0,0,0-.523-.576,2.01,2.01,0,0,0-1.029-.223h-1.181Zm-2.276-7.557h3.414a5.326,5.326,0,0,1,1.661.246,3.2,3.2,0,0,1,1.291.871,3.367,3.367,0,0,1,.8,1.469,8.411,8.411,0,0,1,.223,2.264,10.819,10.819,0,0,1-.12,1.8,4.132,4.132,0,0,1-.527,1.393,3.349,3.349,0,0,1-1.246,1.208,4.224,4.224,0,0,1-2.059.446H475.64v6.206h-2.276Z" transform="translate(-351.107 -139.732)"/>
      <path id="Path_66" data-name="Path 66" d="M475.446,246.72h6.789v2.15h-4.513v4.66h3.93v2.15h-3.93v4.66h4.513v2.28h-6.789Z" transform="translate(-341.862 -139.727)"/>
      <path id="Path_67" data-name="Path 67" d="M479.65,253.822h1.3a2.372,2.372,0,0,0,.965-.17,1.253,1.253,0,0,0,.545-.473,2.107,2.107,0,0,0,.25-.779,7.555,7.555,0,0,0,.065-1.052,7.667,7.667,0,0,0-.065-1.072,1.86,1.86,0,0,0-.268-.773,1.328,1.328,0,0,0-.605-.484,2.569,2.569,0,0,0-1-.152H479.65Zm-2.275-7.1h3.658c2.68,0,4.02,1.563,4.02,4.665a5.753,5.753,0,0,1-.435,2.378,3.294,3.294,0,0,1-1.525,1.594l2.456,7.262H483.14l-2.133-6.786h-1.36v6.793h-2.275Z" transform="translate(-333.299 -139.728)"/>
      <path id="Path_68" data-name="Path 68" d="M481.883,248.865h-2.635v-2.146h7.539v2.146h-2.628v13.756h-2.276Z" transform="translate(-324.966 -139.728)"/>
      <rect id="Rectangle_1" data-name="Rectangle 1" width="2.276" height="15.902" transform="translate(165.133 106.993)"/>
      <path id="Path_69" data-name="Path 69" d="M482.476,246.72h6.789v2.15h-4.513v4.66h3.937v2.15h-3.937v4.66h4.513v2.28h-6.789Z" transform="translate(-310.621 -139.727)"/>
      <path id="Path_70" data-name="Path 70" d="M492.148,251.423h-2.285V250.9a2.439,2.439,0,0,0-.364-1.34,1.373,1.373,0,0,0-1.253-.567,1.475,1.475,0,0,0-.762.174,1.184,1.184,0,0,0-.469.447,1.672,1.672,0,0,0-.223.654,4.306,4.306,0,0,0-.072.768,7.862,7.862,0,0,0,.038.8,1.325,1.325,0,0,0,.163.556,1.455,1.455,0,0,0,.386.413,4.16,4.16,0,0,0,.7.353l1.753.692a4.429,4.429,0,0,1,1.219.67,2.768,2.768,0,0,1,.73.916,3.72,3.72,0,0,1,.337,1.208,11.962,11.962,0,0,1,.1,1.563,8.728,8.728,0,0,1-.2,1.862,4.228,4.228,0,0,1-.67,1.469,3.22,3.22,0,0,1-1.224.98,4.431,4.431,0,0,1-1.856.353,4.019,4.019,0,0,1-1.534-.295,3.767,3.767,0,0,1-2.041-1.981,3.72,3.72,0,0,1-.31-1.5v-.849h2.28v.712a1.915,1.915,0,0,0,.371,1.117,1.454,1.454,0,0,0,1.235.507,1.861,1.861,0,0,0,.893-.174,1.1,1.1,0,0,0,.5-.474,1.907,1.907,0,0,0,.224-.741,9.007,9.007,0,0,0,.049-.98,8.708,8.708,0,0,0-.049-1.029,1.649,1.649,0,0,0-.19-.654,1.2,1.2,0,0,0-.4-.4,5.345,5.345,0,0,0-.67-.333l-1.632-.67a3.6,3.6,0,0,1-1.97-1.595,5.41,5.41,0,0,1-.507-2.494,5.654,5.654,0,0,1,.25-1.7,3.611,3.611,0,0,1,.724-1.382,3.423,3.423,0,0,1,1.208-.936,4.071,4.071,0,0,1,1.726-.337,3.75,3.75,0,0,1,2.76,1.139,3.577,3.577,0,0,1,.761,1.154,3.394,3.394,0,0,1,.272,1.3Z" transform="translate(-302.431 -139.846)"/>
      <path id="Path_71" data-name="Path 71" d="M475.176,267.931l-1.284-2.215-1.094,2.215H460.031v-2.619l6.293-10.578h4.689l-6.349,10.692h9.071l-3.946-6.811h4.69l5.411,9.314Zm-.447-18.416v-3.723H456.367v3.723h-4.256v-6.228h11.105l-1.117-2.749h4.824l1.154,2.749h10.882v6.228Zm-11,4-8.166,14.417h-4.654l8.16-14.417h-7.474v-2.5h8.874l2.28-4h4.669l-2.286,4h14.16v2.5Z" transform="translate(-450.907 -167.2)"/>
      <path id="Path_72" data-name="Path 72" d="M481.653,254.164H468.648v3.446l6.5,3.245,6.505-3.245Zm2.82-5.569V245.72H465.823v2.874h-4.214v-5.373h11.23l-1.132-2.68h4.828l1.159,2.68h11v5.373Zm-3.149,19.365-6.168-3.1-6.163,3.1h-8l10.165-5.1-6.675-3.309v-5.384H461.22v-2.532h3.267v-2.351h4.169v2.351h13.006v-2.351h4.16v2.351h3.289v2.532h-3.3v5.384l-6.63,3.309,10.174,5.1Z" transform="translate(-406.085 -167.195)"/>
      <path id="Path_73" data-name="Path 73" d="M497.917,267.987H480.945V252.509l-2.15.719v-2.5l2.15-.719v-7.1h4.02v5.766l2.434-.855V240.54h3.995v5.94l6.532-2.188v17.954h-4.971l-1.177-2.5h2.155V248.206l-2.541.844v14.83H487.4V250.39l-2.434.788V265.5h14.225ZM470.8,267.65v-2.814l2.532-1.034V249.383h-2.309v-2.5h2.313v-6.326h4.131v6.326h2.309v2.5h-2.309v12.755l2.5-1v2.809Z" transform="translate(-362.493 -167.193)"/>
      <path id="Path_74" data-name="Path 74" d="M495.952,259.347h-4.437l-.67,2.1h5.1Zm-8.45,8.765V265.82h8.45v-2.115h-6.637v-1.787h-2.472l2.128-6.88h3.941l-.632,1.976h3.669v-2.264h4.229v2.255h7.28v2.34h-7.28v2.1h6.565v2.262H500.18v2.124h8.189v2.291Zm-6.157-23.5v-2.287h11.105l-.822-1.813h4.857l.844,1.813h10.344v2.287Zm18.014,6.512-4.5-1.541-4.562,1.541h-8.981l9.189-3.037-7.622-2.6h8.28l3.593,1.2,3.631-1.2h8.546l-7.791,2.631,9,3.01Zm-13.137,3.093v10.049l-1.253,3.8h-4.312l1.4-4.154V251.962h26.25v2.253Z" transform="translate(-318.696 -167.302)"/>
    </g>
  </g>
</svg>
