<svg xmlns="http://www.w3.org/2000/svg" xmlns:xlink="http://www.w3.org/1999/xlink" width="500" height="300" viewBox="0 0 500 300">
  <defs>
    <clipPath id="clip-logo_09">
      <rect width="500" height="300"/>
    </clipPath>
  </defs>
  <g id="logo_09" clip-path="url(#clip-logo_09)">
    <g id="Group_20" data-name="Group 20" transform="translate(79.82 123.447)">
      <path id="Path_469" data-name="Path 469" d="M15.034,60.147V81.368A8.146,8.146,0,0,1,14.5,85a5.38,5.38,0,0,1-1.665,1.558l-1.361.723H26.494l-1.576-.723a5.874,5.874,0,0,1-1.746-1.715,7.5,7.5,0,0,1-.723-3.472V60.147h2.046a36.515,36.515,0,0,1,7.187.576,15.019,15.019,0,0,1,4.9,1.785l.884.488-1.311-3.98a8.858,8.858,0,0,1-.63-2.145l.469-2.08-.454-.1L1.476,54.652l.134.569.381,1.588a7.892,7.892,0,0,1-.665,2.168L0,63.012l.862-.5a15.484,15.484,0,0,1,5.01-1.785,37.725,37.725,0,0,1,7.257-.576Z" transform="translate(0 -44.401)" fill-rule="evenodd"/>
      <path id="Path_470" data-name="Path 470" d="M14.189,87.907l.7-.077,4.783.431a64.211,64.211,0,0,0,6.713.431,23.133,23.133,0,0,0,12.238-2.815,8.484,8.484,0,0,0,4.572-7.829,7.205,7.205,0,0,0-1.52-4.536,11.469,11.469,0,0,0-4.361-3.538,35.379,35.379,0,0,0-9.167-2.218l-2.538-.415A11.247,11.247,0,0,1,21,65.738c-1.1-.7-1.619-1.245-1.619-1.973a2.867,2.867,0,0,1,1.946-2.515,11.952,11.952,0,0,1,5.491-1.027,31.161,31.161,0,0,1,6.679.68,22.977,22.977,0,0,1,5.756,1.98l.4.193,2.118-7.994-1.422.342-.476.045L34.4,55.015a61.705,61.705,0,0,0-6.91-.488,20.52,20.52,0,0,0-11.326,2.749A8.133,8.133,0,0,0,11.8,64.463a7.366,7.366,0,0,0,3.468,6.11A24.04,24.04,0,0,0,25.518,74a38.079,38.079,0,0,1,7.84,1.692,3.567,3.567,0,0,1,1.991,3.191A3.679,3.679,0,0,1,33.165,82.1a12.939,12.939,0,0,1-6.259,1.311,36.26,36.26,0,0,1-7.752-.873,40.879,40.879,0,0,1-7.613-2.565l-.68-.32,2.091,8.7Z" transform="translate(49.192 -45.052)" fill-rule="evenodd"/>
      <path id="Path_471" data-name="Path 471" d="M23.952,84.873a5.162,5.162,0,0,1-1.9,1.647l-1.411.742H53.524l-.27-1.465-.066-.68a9.57,9.57,0,0,1,.846-2.356l1.785-4.45-1.05.769a14.9,14.9,0,0,1-5.416,2.372,30.391,30.391,0,0,1-7.536.819H31.872V60.844a8.511,8.511,0,0,1,.619-3.515,3.876,3.876,0,0,1,1.869-1.946l1.431-.73h-15.1l1.338.73a4.23,4.23,0,0,1,1.9,1.969,8.418,8.418,0,0,1,.619,3.495V81.5a7.355,7.355,0,0,1-.608,3.379" transform="translate(93.463 -44.397)" fill-rule="evenodd"/>
      <path id="Path_472" data-name="Path 472" d="M40.6,86.677h3.434V79.192H40.6Zm3.445,1.361H40.6v2.8c0,.3-.454.592-1.361.85a12.461,12.461,0,0,1-1.481.438c-.293,0-.454-.188-.454-.569l.127-1.941c.045-.454.073-1.8.073-4.218V80.932l-.227-4.683,3.787,1.969h2.495l1.073-1.658.4-.134A5.976,5.976,0,0,1,46.715,77.6a11.375,11.375,0,0,1,1.442,1.077c0,.143-.172.37-.5.635s-.481.485-.481.64v8.414c0,.42-.481.669-1.4.846l-1.361.288-.122.016-.243-.365Zm17.946-16.6.63-.327a21.184,21.184,0,0,1,3.123,4.309A5.586,5.586,0,0,1,66.29,77.7a2.656,2.656,0,0,1-.7,1.873,1.785,1.785,0,0,1-1.272.846c-.619,0-.923-.454-.946-1.381-.027-.608-.161-1.8-.365-3.488a13.392,13.392,0,0,0-1.018-4.114m-25.174.923h6.507L44.955,70.1l.358-.154c.154,0,.642.488,1.476,1.461s1.272,1.576,1.272,1.814l-.088.376-.265.116H40.274a10.449,10.449,0,0,0-2.515.454Zm-.143-5.026h6.69l1.361-2.145.415-.227c.2,0,.785.492,1.8,1.51s1.526,1.431,1.526,1.431l-.454.438H39.846a13.743,13.743,0,0,0-2.361.392,11.647,11.647,0,0,0-.819-1.393m3.016-12.791.642-.408c2.819,1.769,4.225,2.948,4.225,4.268a2.8,2.8,0,0,1-.653,1.923,1.792,1.792,0,0,1-1.315.746c-.565,0-.907-.6-1.1-1.753a11.986,11.986,0,0,0-1.8-4.776m13.54,22.679h4.645V72.47H53.222Zm0-6.171h4.645V67.039H53.222Zm0-5.425h4.645V61.051H53.222Zm-3.25-3.35.073-.093-.288-4.184c1.023.415,2.284.957,3.738,1.642a27.952,27.952,0,0,0,1.157-5.513,14.13,14.13,0,0,1,2.041.807c.7.331,1.234.565,1.619.719s.553.32.553.576l-.023.177-.166.181-1.161.5-2.692,2.753h2.722l1.123-1.8.354-.227A16.522,16.522,0,0,1,60.8,58.942c1.123.719,1.7,1.254,1.7,1.558,0,.193-.227.438-.68.785s-.642.658-.642.93V84.751l.05,3.753a6.237,6.237,0,0,1-.846,3.595,7.521,7.521,0,0,1-3.679,2.313,7.8,7.8,0,0,0-1.089-2.787,7.235,7.235,0,0,0-3.379-1.907l.066-.358.073-.3a36.993,36.993,0,0,0,4.971.526c.454,0,.68-.172.68-.438V80.27l-.1-.15-.073.023A38.28,38.28,0,0,1,44.7,92.517a2.5,2.5,0,0,1-.7-.646A35.679,35.679,0,0,0,55.277,78.451H50.968c-.249,0-1,.088-2.268.227l-.95-1.449h2.288V62.6H50c-.061.211-.327.311-.812.311H38.562a13.093,13.093,0,0,0-3.1.338l-1.123-1.7H44.588l1.569-2.238.454-.177a7.768,7.768,0,0,1,1.726,1.415,13.656,13.656,0,0,1,1.531,1.515ZM67.437,89.026V67.9H62.312l-.973-1.393h6.1V59.543l-.342-5.622c3.175.973,4.749,1.669,4.749,2.062,0,.177-.172.454-.542.807-.349.315-.519.315-.519.315v9.41h.469l1.3-1.792.3-.138.227.05L75.493,67.2c0,.476-.116.7-.338.7H70.783V90.543c0,1.431-1.526,2.8-4.6,4.082A6.9,6.9,0,0,0,65.4,91.75a7.427,7.427,0,0,0-3.588-2.168l.05-.581c.438.027,1.284.111,2.515.249s2.041.2,2.495.2l.354-.172Z" transform="translate(155.5 -47.714)" fill-rule="evenodd"/>
      <path id="Path_473" data-name="Path 473" d="M67.967,77.213h8.967l1.245-1.619.254-.143a8.029,8.029,0,0,1,2.184,1.188c1.261.773,1.869,1.211,1.869,1.334,0,.177-.254.392-.762.63-.508.193-.746.327-.746.476V90.712c0,1.687-1.542,3.03-4.617,3.98A5.8,5.8,0,0,0,71.124,91l.277-1a30.471,30.471,0,0,0,4.082.37,4.235,4.235,0,0,0,1.653-.2,1.018,1.018,0,0,0,.358-.885V78.6H74.138v4.06l.05,4.989c0,.431-.388.823-1.2,1.188a4.236,4.236,0,0,1-1.488.492l-.27-.3.127-6.706V78.6H68.541v7.736l.138,2.948c0,.143-.358.315-1.134.531a5.6,5.6,0,0,1-1.615.438L65.742,90V78.6H62.819v7.332l.249,6.486c0,.293-.454.68-1.334,1.173a4.5,4.5,0,0,1-2.091.746l-.358-.358.084-7.4V78.955l-.127-4c1.111.576,2.438,1.315,3.976,2.257H66a19.6,19.6,0,0,0,1.476-4.949H63.427a23.542,23.542,0,0,0-3.361.6,14.744,14.744,0,0,0-1.011-1.969H77.878L79.4,68.94c.415-.531.68-.585.773-.585a7.278,7.278,0,0,1,2.184,1.526c1.361,1.161,2.012,1.853,2.012,2.041l-.27.338H71.4a48.538,48.538,0,0,1-3.434,4.949M53.7,72.957V83.307l4.826-1.647L59,82.48c-.547.261-2.88,1.626-6.96,4.1l-5.829,3.2-.227.084c-.2,0-.426-.177-.635-.5l-1.411-3.211c1.361-.342,3.461-1,6.253-1.973V72.961H48.268a12.809,12.809,0,0,0-2.542.349l-.85-1.746h5.336V60.633H48.22A16.431,16.431,0,0,0,45.413,61l-.757-1.746h9.886L56.2,57.063l.388-.161c.181,0,.519.277.989.658l1.6,1.449c.569.615.869,1.023.869,1.254l-.193.37H53.7V71.571h.469l1.642-2.384.281-.211.358.177,2.742,3.118.134.392-.227.3ZM77.018,68.35V67.012H63.991a5.847,5.847,0,0,0-.565.846c-.227.438-.481.5-.7.5a4.669,4.669,0,0,1-1.742-.785c-1.011-.642-1.531-1.046-1.531-1.211l.166-.254.476-.585.277-.488V59.859a16.9,16.9,0,0,0-.261-2.919,25.343,25.343,0,0,0,2.948.619c.984.2,1.476.469,1.476.635l-.438.68-.454.553v6.23H68.5V57.176l-.249-3.261,4.606,1.322.4.381c0,.315-.227.542-.658.723s-.68.392-.68.635v8.675h5.1v-6.5L76.935,56.6c2.976.907,4.472,1.116,4.472,1.431,0,.122-.193.288-.569.488s-.542.42-.542.68v4.434l.138,3.733c.027.3-.4.642-1.272.973a11.515,11.515,0,0,0-1.676.193Z" transform="translate(199.029 -47.739)" fill-rule="evenodd"/>
      <path id="Path_474" data-name="Path 474" d="M63.777,86.867h.265l1.953-1.107.2.581a52.663,52.663,0,0,0-4.06,4.953l-.519.454c-.392,0-1.084-.8-2.145-2.268a4.309,4.309,0,0,1,.907-.576,2.148,2.148,0,0,0,.841-1.869V77.353l-.145-3.068L64.6,75.441l.227.381c0,.1-.181.293-.535.569s-.526.481-.526.642v1.891h.227l.608-1.007.358-.177.265.134,1.293,1.631.066.293-.392.3H63.777Zm26.344-1.288v3.855l.023,3.7c0,.392-.454.73-1.334,1.027l-1.327.438-.122.023-.265-.454V85.579H84.268l-.5.408-.535.381c-.116,0-.431-.3-.989-.873a4.646,4.646,0,0,1-.807-1l.37-.315.558-.388a9.6,9.6,0,0,0,.553-1.957c.281-1.2.5-2.288.658-3.073,2.073.653,3.091,1.2,3.091,1.411,0,.166-.177.354-.535.547s-.542.338-.581.438l-.823,3.223H87.1V77.75l-1.388-.05a11.905,11.905,0,0,0-1.449.358l-.83-1.531c.338-.023,1.549-.054,3.665-.054V74.158a21.715,21.715,0,0,0-.127-2.268l4.107,1.177.138.265c0,.122-.181.331-.542.669s-.558.535-.558.68v1.8h1.05L92.21,75l.349-.15.376.15,2.041,2.139.066.261-.227.3H90.123v6.679h1.184l1.245-2.018.426-.193c.116,0,.6.476,1.4,1.411a7.811,7.811,0,0,1,1.211,1.6l-.32.4ZM75.2,56.851l.476-.542c3.3,1.084,4.942,2.311,4.942,3.765a3.374,3.374,0,0,1-.585,1.7c-.408.631-.792.946-1.084.946l-.558-.42A10.485,10.485,0,0,0,75.2,56.86m11.183,6.312-.508-.535a44.771,44.771,0,0,0,3.855-7.049c2.168,1.692,3.284,2.334,3.284,2.692,0,.261-.327.376-1,.376a10.64,10.64,0,0,0-2.334,1.857,23.637,23.637,0,0,1-3.3,2.658m-16.928,9.3h1.814V66.841H69.451Zm-9.09,0H62.38V66.841H60.361Zm4.384,0h2.13V66.841H64.743Zm9.267-5.03V72a13.637,13.637,0,0,0,2.83-3.155,10.63,10.63,0,0,0,2.6-4.284H76.661a11.622,11.622,0,0,0-1.912.454l-1.107-1.653h8.337V55.624L81.907,54q4.552,1.177,4.556,1.785c0,.111-.261.37-.8.762s-.785.723-.785.846v5.971h5.318l1.4-2.1.376-.188c.193,0,.791.5,1.726,1.5a7.155,7.155,0,0,1,1.442,1.715l-.277.261H87.1a13.038,13.038,0,0,0,8.99,5.264l-.084.773a5.391,5.391,0,0,0-4.1,1.842,12.614,12.614,0,0,1-6.307-7.879h-.723V68.34l.15,4.806c.016.376-.476.664-1.465.923l-1.238.388-.143.016c-.177,0-.27-.177-.27-.531l.073-7.309c-1.873,1.846-3.715,3.692-5.484,5.187l3.08,1.665.122.388-.431.365a1.844,1.844,0,0,0-.785.846c-.254.42-.515.823-.812,1.261l.664.077a8.189,8.189,0,0,0,.835-.034L80.192,75l.138-.066a2.921,2.921,0,0,1,1.234.669l1.5,1.057.1.281-.454.492-.642.653a8.39,8.39,0,0,0-.408,1.411,18.3,18.3,0,0,1-3.388,7.938,18.937,18.937,0,0,1-5.956,4.733l-3.234,1.658-.415-.358-.277-.392A25.521,25.521,0,0,0,75.724,86.8a15.859,15.859,0,0,0,3.114-7.276l.265-1.814-2.2-.088-1.814,2.234c1.626.819,2.445,1.753,2.445,2.753a1.991,1.991,0,0,1-.646,1.3,1.737,1.737,0,0,1-1.123.624c-.227,0-.4-.438-.535-1.338a5.153,5.153,0,0,0-.823-2.288h-.073a35.1,35.1,0,0,1-2.495,2.753l-.547-.431c.535-.862,1.061-1.835,1.608-2.93H69.451v6.933a20.664,20.664,0,0,0,2.495-1.4c1.116-.7,1.935-1.173,2.4-1.411l.354.615-5.38,4.989c-.3.32-.63.669-.946,1.039s-.553.542-.708.558c-.227,0-.642-.331-1.311-1.023s-.973-.989-.973-1.1c0-.05.227-.227.73-.515.5-.454.753-.8.753-1.1V77.43l-.082-3.075A37.29,37.29,0,0,1,70.333,75.6l.088.249-.054.227c-.615.454-.907.7-.907.78v2.2h.592l.984-1.177.338-.111A13.546,13.546,0,0,1,73.4,79.229a27.138,27.138,0,0,0,2.948-7.137h-.227a13.114,13.114,0,0,1-2.062,1.438c0,.454-.376.869-1.073,1.177a6.823,6.823,0,0,1-1.216.5l-.492-.2V73.643H60.316l-.492,5.264A30.327,30.327,0,0,1,58.6,85.293a16.663,16.663,0,0,1-2.458,5.094l-1.379,2.375-.454-.193-.376-.227A43.181,43.181,0,0,0,57.145,74.8V60.693l-.154-2.6,3.76,2h4.837a16.055,16.055,0,0,0-3.157-5.606l.315-.565q6,1.617,6,3.472a8.952,8.952,0,0,1-1.846,2.7h3.191l1.658-2.062.426-.154c.193,0,.753.481,1.669,1.449a7.187,7.187,0,0,1,1.349,1.687l-.454.454H60.361v4.175H62.38V63.535l-.066-2.007c2.311.592,3.45,1.068,3.45,1.388l-.034.281c-.669.547-.984.907-.984,1.089v1.361h2.13V63.605a13.28,13.28,0,0,0-.093-2.041,23.962,23.962,0,0,1,3.549,1.277l.082.331a5.443,5.443,0,0,1-.968,1V65.61l1.515.045,1.134-1.481.408-.1a7.938,7.938,0,0,1,1.322.862c.791.581,1.2.968,1.2,1.123s-.188.42-.515.746-.5.531-.5.646" transform="translate(244.265 -47.711)" fill-rule="evenodd"/>
      <rect id="Rectangle_33" data-name="Rectangle 33" width="3.4" height="53.106" transform="translate(168.378 0)"/>
    </g>
  </g>
</svg>
