<svg xmlns="http://www.w3.org/2000/svg" xmlns:xlink="http://www.w3.org/1999/xlink" width="500" height="300" viewBox="0 0 500 300">
  <defs>
    <clipPath id="clip-logo_15">
      <rect width="500" height="300"/>
    </clipPath>
  </defs>
  <g id="logo_15" clip-path="url(#clip-logo_15)">
    <g id="Group_39" data-name="Group 39" transform="translate(126.67 105.594)">
      <path id="Path_248" data-name="Path 248" d="M401.406,247.111c.83-.112,1.659,0,1.78.243.355.359.591,1.309-.12,1.425a3.889,3.889,0,0,1-1.659.116v3.443a4,4,0,0,0,2.371-.243,2.219,2.219,0,0,0,1.775-2.255c0-1.062.481-3.671.365-4.854a1.937,1.937,0,0,0-1.435-1.786,13.587,13.587,0,0,0-3.074,0Zm0,11.868V254h3.074c.83,0,2.138.355,2.138-.713,0-.946.481-4.389.481-5.573s-.239-7.357-.355-8.191c0-.94.116-3.074-.83-3.555a5.358,5.358,0,0,0-3.333,0,12.1,12.1,0,0,1-1.178.359v-4.5c1.066-.239,2.609-.355,3.319-.475a8.118,8.118,0,0,1,4.748.475,6.064,6.064,0,0,1,2.25,4.148c.116,1.309.116,4.87.116,7.6v7.948c.122,1.659-.707,2.36,1.659,2.489,2.25.116,4.86.239,5.567-.714a6.844,6.844,0,0,0,.83-3.207c0-.946.243-1.9-.475-2.012-.591-.126-2.954-.713-2.954-2.022-.122-1.294.355-1.9,1.182-1.9.94.122,1.9.365,2.244.122s.365-2.128.365-2.128-.365-.359-2.371-.359c-1.9,0-2.852-.239-2.134-1.543s.83-1.547,1.9-1.659c1.066,0,2.371.355,2.609,0,.359-.355.471-1.9-.238-2.022a24.394,24.394,0,0,1-3.439-.348c-1.421-.481-2.613-1.188-1.421-1.78,1.066-.714,2.36-1.182,3.08-1.659.714-.6,2.377-.232,3.074-.232.724.116,5.1.95,5.339,3.555a30.366,30.366,0,0,1-.587,8.183c-.481,2.255-1.9,6.637-1.9,7.828.112,1.072-.718,1.427,3.792,1.775,4.389.365,9.491.6,9.966.6.591,0,0,1.062-1.659,2.613-1.674,1.659-2.138,3.2-2.74,3.439a15.81,15.81,0,0,1-4.495-.239c-2.73-.475-7.479-.956-7.828-1.072s-.481,1.072.946,1.427a9.666,9.666,0,0,1,4.148,4.269c.83,1.659,1.178,2.371,0,1.9a4.414,4.414,0,0,0-3.682.714,5.04,5.04,0,0,1-4.034.83c-1.769-.239-2.964-2.609-3.555-3.675a1.771,1.771,0,0,1,1.066-2.381,5.138,5.138,0,0,0,1.786-2.842c0-.707-.591-.471-2.371-.591a58.241,58.241,0,0,0-12.808,0,4.355,4.355,0,0,1-1.3.122m0-17.788a5.418,5.418,0,0,1,1.3-.116c1.3-.122,1.3-.359,1.421-1.425s.116-.713-.243-1.066a5.363,5.363,0,0,0-2.489-.355Zm-1.547,6.048c.365,0,.956-.127,1.547-.127v-3.908h-.116a1.721,1.721,0,0,1-1.543-.355,1.294,1.294,0,0,1,.112-1.3c.238-.355.83-.355,1.547-.355v-2.964h-1.786c-1.659,0-.94-.475-1.178-.83-.355-.471-.718-1.066-1.315-1.066a3.406,3.406,0,0,0-1.9,1.427,15.605,15.605,0,0,0-.349,4.86c0,1.427,0,8.9.112,10.082a2.163,2.163,0,0,1-1.659,2.134c-.94.239-3.319.355-4.737.591-1.543.239-1.543.348-1.659-1.659-.126-1.9.116-1.189.355-2.25.349-1.188,1.543-.95,2.968-1.78s1.3-1.188,1.178-2.018c-.112-.95-1.659-.359-2.73-.359-1.066.12-1.769.239-1.769-.83,0-.946.116-.946.591-1.182s1.659-.239,2.377-.591a1.659,1.659,0,0,0,1.066-1.309c0-.471-.122-1.421-.83-1.659a3.8,3.8,0,0,0-2.255.239c-.83.232-1.066.12-1.066-.946s.481-1.425.591-1.9c.127-.591,2.022-.718,2.62-1.066a8.719,8.719,0,0,0,2.371-1.547c1.066-.83.94-1.537-.126-2.244a3.136,3.136,0,0,0-2.134-.713,8.935,8.935,0,0,0-2.489,0c-.465,0-2.008,0-2.489.471s-1.072.359-1.9.714c-.713.239-.83.6-1.077,1.427a6.753,6.753,0,0,0-.475,3.319c0,1.431.243,4.04.243,6.175.122,2.244.6,10.557.6,10.557s-1.543.471-3.2.83c-1.543.348-3.09.83-5.932,1.537-2.964.707-1.9,1.9-1.193,4.273s4.638,1.537,6.295.83a43.185,43.185,0,0,1,9.01-2.489c1.3,0,.591,2.022-.239,3.565a17.959,17.959,0,0,1-2.25,3.319,12.947,12.947,0,0,0,4.864,2.012c2.124.122,3.19-2.012,3.319-3.439s-2.25-4.03-3.09-4.744-.112-1.182.471-1.421a80.334,80.334,0,0,1,10.8-1.543V254.04h-1.421c-1.066,0-1.543,0-1.543-.83,0-.713.239-.95,1.178-.95.475,0,1.066.122,1.786.122V248.94a3.316,3.316,0,0,1-1.066-.116c-1.066-.359-1.421-1.425-.481-1.543m1.547-15.417v4.505a2.738,2.738,0,0,1-2.489-.6c-1.193-1.066-.475-1.659-.718-2.367-.112-.6,1.193-.95,1.9-1.193a10.319,10.319,0,0,1,1.309-.348" transform="translate(-204.546 -223.042)"/>
      <path id="Path_249" data-name="Path 249" d="M381.248,236.695c.713.591,0,3.2-.83,4.627-.718,1.421-.83,2.371.348,2.371s1.9-.475,3.559-1.543a12.686,12.686,0,0,0,4.269-4.511,4.007,4.007,0,0,0-.714-3.792c-.94-.946-1.769-1.543-2.725-1.421a18.179,18.179,0,0,1-3.429.83c-1.659.243-2.138.359-3.686.6-1.417.116-.94-.475-1.066-.946a1.825,1.825,0,0,0-1.417-1.188,2.269,2.269,0,0,0-2.018,1.188,1.917,1.917,0,0,1-1.78,1.421,24.625,24.625,0,0,1-4.148,0,3.928,3.928,0,0,0-2.856.946c-.471.359-1.533,2.018-.112,2.018s2.377-.243,4.034-.355c1.533-.127,1.533.355,1.659,1.066.238.83-.591,1.775-2.261,3.2-1.775,1.543-1.421,1.78-.591,1.9a11.408,11.408,0,0,0,3.443-.359,16.189,16.189,0,0,0,4.864-4.034c.83-1.182.94-2.367,2.371-2.489a5.492,5.492,0,0,1,3.08.475" transform="translate(-235.024 -220.925)"/>
      <path id="Path_250" data-name="Path 250" d="M383.574,236.884a4.354,4.354,0,0,0-1.182-1.417,10.783,10.783,0,0,0-3.792.239c-1.309.112-2.377.348-2.73-.127a9.867,9.867,0,0,0-1.431-1.066,2.105,2.105,0,0,0-1.9.83c-.348.95-.83,1.3-2.367,1.78-1.543.355.6-.348-1.543.355-2.134.83-.12,2.255.94,2.371,1.2.239,1.309.481,1.2.95a10.323,10.323,0,0,1-2.377,3.675c-.83.83-1.659,1.659-1.547,2.012.127.239.718.12.956.12a1.451,1.451,0,0,0,.707-.12c.359-.116.713-.228,1.062-.348a9.106,9.106,0,0,0,2.138-1.425,13.43,13.43,0,0,0,3.207-4.627c.714-1.659,2.489-1.659,2.968-.355a4.806,4.806,0,0,1-.238,3.2,2.681,2.681,0,0,1-.359.83c-.127.365-.475.713-.718,1.193a11.933,11.933,0,0,0-1.066,2.134.166.166,0,0,0,0,.232c.243.359,1.786-.471,3.924-1.659a2.445,2.445,0,0,0,.94-.7h.127a16.392,16.392,0,0,0,2.362-2.613,9.126,9.126,0,0,0,.956-1.9,4.8,4.8,0,0,0-.239-3.559" transform="translate(-223.238 -209.612)"/>
      <path id="Path_251" data-name="Path 251" d="M378.436,236.513c-.728.116-3.692.116-4.52.116s-.46-.591-.7-.946a2.749,2.749,0,0,0-1.066-.95c-.475-.355-1.066.6-1.547,1.431s-1.769,1.066-2.377,1.3c-.587.116-2,.239-3.422.355-1.431.243-.718.243-1.309.591-.591.475-.359.475-.591,1.3-.238.95,1.182,1.427,2.25,1.309s2.012-.95,2.244-.12a.207.207,0,0,1,0,.355,4.022,4.022,0,0,1-1.417,2.254L364.8,244.7c-1.431,1.543-1.659,2.255-.369,2.371,1.435.239,2.613-.95,3.791-1.78a10.476,10.476,0,0,0,2.73-2.36,10.819,10.819,0,0,0,1.3-1.9c1.066-1.9,1.9-1.309,2.964-.95,1.066.471.83,1.543.83,2.371a2.121,2.121,0,0,1-.239.946,5,5,0,0,1-.94,1.3,27.318,27.318,0,0,1-1.9,3.559c-1.178,1.543-.718,1.78-.348,1.78a10.2,10.2,0,0,0,6.042-4.148,4.5,4.5,0,0,1,.6-.83,25.479,25.479,0,0,0,1.3-2.489,2.149,2.149,0,0,1,.238-.83,7.812,7.812,0,0,0,.112-2.846,3,3,0,0,0-2.478-2.371" transform="translate(-239.321 -209.001)"/>
      <path id="Path_252" data-name="Path 252" d="M378.246,238.7c-.116-1.659-2.381-1.421-2.846-1.182s-1.9.348-2.134-.122c-.238-.359.116-1.9-.238-3.555a3.91,3.91,0,0,0-3.095-2.848c-.94.116-2.25,1.659-2.489,2.36-.112.6,0,3.449,0,4.04-.112.471-1.066.83-1.769.95a8.36,8.36,0,0,1-2.968,0,3.8,3.8,0,0,0-2.852,1.533c-1.3,1.315.591,2.145,1.547,2.145.946.116,5.932.239,5.932.239s.112,4.621,0,7.589v.83c0,3.675.348,12.8.348,16.247.127,3.675.481,5.455,2.145,5.1,1.78-.355,3.555-3.918,3.555-4.978v-1.417c0-1.659-.116-4.273-.243-6.407v-.83c0-2.964.243-5.694.243-9.02a52.014,52.014,0,0,1,.239-7.467c.348-.471,1.78.122,3.074-.239,1.2-.355,1.551-1.3,1.551-2.964" transform="translate(-253.364 -223.874)"/>
      <path id="Path_253" data-name="Path 253" d="M359.5,240.371h4.385v9.956h8.662v-9.956h4.376v24.778h-4.376v-10.9h-8.662v10.9H359.5Z" transform="translate(-253.003 -185.821)"/>
      <rect id="Rectangle_10" data-name="Rectangle 10" width="4.389" height="24.782" transform="translate(128.199 54.548)"/>
      <path id="Path_254" data-name="Path 254" d="M372.739,244.4a3.368,3.368,0,0,1,2.848,3.675,3.24,3.24,0,0,1-2.848,3.559v4.03c4.269-.348,7.467-2.489,7.467-7.938,0-5.1-3.443-7-7.467-7.353Zm-2.842-.116h1.543a4.539,4.539,0,0,1,1.3.116v-4.026H365.5V265.15h4.389v-9.485h2.842V251.63a4.192,4.192,0,0,1-1.3.127h-1.543Z" transform="translate(-228.654 -185.818)"/>
      <path id="Path_255" data-name="Path 255" d="M370.195,240.371h4.273v9.956h8.767v-9.956h4.393v24.778h-4.385v-10.9h-8.767v10.9H370.2Z" transform="translate(-209.621 -185.821)"/>
      <rect id="Rectangle_11" data-name="Rectangle 11" width="4.273" height="24.782" transform="translate(182.394 54.548)"/>
      <path id="Path_256" data-name="Path 256" d="M376.223,240.371h5.347l8.3,18.5h.127v-18.5h4.148v24.778h-5.353l-8.419-18.607v18.607h-4.148Z" transform="translate(-185.173 -185.821)"/>
      <path id="Path_257" data-name="Path 257" d="M398.754,245.493a13.691,13.691,0,0,0-5.581-1.3c-5.092,0-7.944,3.8-7.944,8.894s2.725,8.9,7.353,8.9a10.581,10.581,0,0,0,2.964-.359V255.1h-4.627v-3.914H399.7V264.7a24.794,24.794,0,0,1-7.118,1.188c-6.994,0-11.974-4.03-11.974-12.445s4.621-13.162,11.974-13.162a16.8,16.8,0,0,1,6.407,1.066Z" transform="translate(-167.378 -186.204)"/>
      <path id="Path_258" data-name="Path 258" d="M375.325,276.547a12.652,12.652,0,0,0,7.589-3.319,10.022,10.022,0,0,0,3.19-7.589s0-4.026.131-4.026V246.42h21.106v19.8h19.331a44.662,44.662,0,0,0-43.764-36.64,43.612,43.612,0,0,0-13.167,2.012V246.42H380.3v19.8a5.233,5.233,0,0,1-5.345,5.339h-5.212v4.978h5.577ZM369.747,231.6a44.561,44.561,0,0,0-31.3,42.454,17.848,17.848,0,0,0,.116,2.489h31.189v-4.978H359.194V246.42h10.553Z" transform="translate(-338.438 -229.582)"/>
      <path id="Path_259" data-name="Path 259" d="M396.218,282.5a44.409,44.409,0,0,0,30.587-42.211,17.013,17.013,0,0,0-.112-2.377H396.218v4.978h10.543v25.031H396.218Zm-5.577-44.594a11.945,11.945,0,0,0-7.589,3.319,10.114,10.114,0,0,0-3.319,7.589v19.1H358.625v-19.69H338.58a44.768,44.768,0,0,0,57.638,34.267V267.913H385.665v-19.69a5.218,5.218,0,0,1,5.324-5.339h5.229v-4.978h-5.577Z" transform="translate(-337.866 -195.813)"/>
    </g>
  </g>
</svg>
