<svg xmlns="http://www.w3.org/2000/svg" xmlns:xlink="http://www.w3.org/1999/xlink" width="500" height="300" viewBox="0 0 500 300">
  <defs>
    <clipPath id="clip-path">
      <rect id="Rectangle_4" data-name="Rectangle 4" width="309.877" height="85.073" fill="none"/>
    </clipPath>
    <clipPath id="clip-logo_05">
      <rect width="500" height="300"/>
    </clipPath>
  </defs>
  <g id="logo_05" clip-path="url(#clip-logo_05)">
    <g id="Group_8" data-name="Group 8" transform="translate(94.793 107.707)">
      <g id="Group_7" data-name="Group 7" clip-path="url(#clip-path)">
        <path id="Path_43" data-name="Path 43" d="M54.677,60.81c3.215-2.584,6.477-5.01,9.885-7.391l8.6-6.007a35.686,35.686,0,0,0,8.09-7.726,8.382,8.382,0,0,0,1.575-7.45c-.551-2.137-2.021-4.711-4.691-5.476-4.583-1.312-9.51.845-12.35,4.9l-2.691-8.033,2.422-2.074,1.667,5.3a11.152,11.152,0,0,1,9.846-3.624,10.488,10.488,0,0,1,8.039,5.656,12.315,12.315,0,0,1-1.29,12.686c-3.121,4.338-9.346,8.858-14.039,12.051-11.907,8.1-23.936,16.1-25.469,31.432l-2.727.021a20.424,20.424,0,0,0-3.447-3.981,139.168,139.168,0,0,0-12.25-8.854,79.366,79.366,0,0,1-16.4-14.011C2.94,50.79-.6,41.673.084,31.8A33.94,33.94,0,0,1,54.691,7.1a33.873,33.873,0,0,1,51.2,11.862,35.345,35.345,0,0,1-4.554,37.7A64.983,64.983,0,0,1,87.963,69.07L72.9,79.742a22.324,22.324,0,0,0-4.97,5.3l-3.209.023a38.109,38.109,0,0,0-1.254-7.16l2.5-2.558L67.6,80.238A135.461,135.461,0,0,1,83.9,68.09C91.88,62.955,99.84,55.57,103.58,46.826a31.462,31.462,0,0,0-4.635-32.733A30.592,30.592,0,0,0,62.8,6C52.1,10.878,46.2,20.207,43.683,31.789c-2.132-2.59-4.669-4.809-7.962-5.383a8.011,8.011,0,0,0-7.593,2.546c-3.835,4.455-1.3,10.443,3.283,14.443,3.036,2.653,6.207,4.871,9.482,7.279ZM14.5,45.405a23.03,23.03,0,0,1,1.054-24.232,29.58,29.58,0,0,1,5.181-5.368,22.641,22.641,0,0,1,26.149-.14,58.3,58.3,0,0,1,5.341-6.533,30.95,30.95,0,0,0-39.8,2.69A31.316,31.316,0,0,0,7.245,49.582c8.116,14.562,23.06,20.2,34.829,30.836a32.3,32.3,0,0,1,3.075-8.482C34.608,62.9,21.451,57.859,14.5,45.405m24.068,7.437c-5.294-3.687-10.93-7.565-13.9-12.954a11.378,11.378,0,0,1,2.9-14.763,11.556,11.556,0,0,1,14.73,1.427,48.752,48.752,0,0,1,3.025-8.177,18.91,18.91,0,0,0-10.565-3.569c-3.073.147-6.04.247-8.785,1.531a19.6,19.6,0,0,0-8.906,27.135,30.993,30.993,0,0,0,7.35,9.084c7.359,6.306,15.029,10.782,22.459,16.634A56.6,56.6,0,0,1,52.346,62.9c-4.521-3.512-9.013-6.744-13.774-10.06" transform="translate(0 -0.001)"/>
        <path id="Path_44" data-name="Path 44" d="M173.488,94.892c11.028-9.252,28.237-16.2,31.7-31.008,1.685-7.2-.924-13.965-6.327-18.762a18.926,18.926,0,0,0-24.541-.39,27.831,27.831,0,0,0-8.584,12.42A43.456,43.456,0,0,0,161,48.693l1.641-2.7c1.1,1.641,1.965,3.059,3.094,4.98A31.165,31.165,0,0,1,171,43.3l-3-4.026,2.428-1.975c1.048,1.263,1.943,2.452,3.061,4.06A22.439,22.439,0,0,1,206.2,70.319a35.165,35.165,0,0,1-8.286,10.42c-5.08,4.394-10.544,7.985-16.082,11.817-6.288,4.35-14.089,10.323-14.536,18.194h-3.17a23.835,23.835,0,0,0-3.22-8.142l1.624-3.041a52.788,52.788,0,0,1,3.176,4.726,28.77,28.77,0,0,1,5.457-7.2l-3.092-3.959,2.3-2.169Z" transform="translate(-110.951 -25.691)"/>
        <path id="Path_45" data-name="Path 45" d="M951.574,42.192l-.7-15.382-5.583,9.244-1.545.212L938.145,27,937.4,42.091l-2.726.079.933-20.154,2.8.009,6.169,10.487,6.13-10.481,2.769-.023.6,13.685.288,6.536Z" transform="translate(-644.49 -15.176)"/>
        <path id="Path_46" data-name="Path 46" d="M606.69,42.047l-2.895.063L592.754,26.4l-.091,15.694-2.809-.014V21.908l2.89-.048,11.018,15.676.089-15.632,2.832-.007Z" transform="translate(-406.726 -15.073)"/>
        <path id="Path_47" data-name="Path 47" d="M568.023,118.021a10.368,10.368,0,1,1-10.1-11.471,10.366,10.366,0,0,1,10.1,11.471m-14.94,5.323a7.168,7.168,0,0,0,8.208.753,7.919,7.919,0,0,0,3.7-7.154c-.026-3.917-2.5-7.194-6.179-7.717a7.178,7.178,0,0,0-8.127,5.6,8.488,8.488,0,0,0,2.4,8.514" transform="translate(-377.425 -73.468)"/>
        <path id="Path_48" data-name="Path 48" d="M421.159,119.53l.108-2.538,7.057-.011-.062,7.958c-1.686,2.028-4.38,2.52-6.825,2.776a9.992,9.992,0,0,1-11.318-8.824c-.491-4.03.878-8.223,4.294-10.506a9.864,9.864,0,0,1,13.632,2.131L425.98,112.3a6.8,6.8,0,0,0-7.3-2.976,7.042,7.042,0,0,0-5.295,5.464c-.78,3.291-.069,6.953,2.8,9.01a8.531,8.531,0,0,0,9.292-.029l.053-4.246Z" transform="translate(-282.725 -73.487)"/>
        <path id="Path_49" data-name="Path 49" d="M500.857,42.1l-2.919.106.015-9.162-11.058-.01.005,9.042-2.943.077V21.974l2.927,0,.014,8.4,11.057,0-.019-8.413,2.908.012Z" transform="translate(-333.707 -15.147)"/>
        <path id="Path_50" data-name="Path 50" d="M817.611,42.114l-2.9.088-.027-9.183-11.088.018,0,9.137-2.853-.034V21.97l2.852-.017,0,8.414h11.1l0-8.415,2.9.01Z" transform="translate(-552.146 -15.136)"/>
        <path id="Path_51" data-name="Path 51" d="M503.2,128.2l-3.245.063L495.68,120l-4.071-.057-.033,8.3-2.8-.044V108.014l7.069.085a6.093,6.093,0,0,1,4.981,10.093l-2.244,1.555Zm-5.941-10.986c1.911-.489,2.277-2.709,1.906-4.152a3.42,3.42,0,0,0-3.557-2.473l-4.025-.046.008,7.014a22.448,22.448,0,0,0,5.668-.342" transform="translate(-337.03 -74.48)"/>
        <path id="Path_52" data-name="Path 52" d="M671.593,36.6l-8.388-.042-2.092,5.652-3.058-.046,7.86-20.072,3.034-.1,7.879,20.171-3.24.053Zm-.973-2.532-3.237-8.807-3.35,8.842Z" transform="translate(-453.753 -15.159)"/>
        <path id="Path_53" data-name="Path 53" d="M644.346,108.143l2.9-.038-.086,13.57c-.029,4.52-3.769,7.23-8.012,7.21-4.3-.02-7.9-2.81-7.924-7.325l-.077-13.386,2.851-.07.068,13.085a5.731,5.731,0,0,0,1.474,3.68,5.459,5.459,0,0,0,3.927,1.249,4.512,4.512,0,0,0,4.8-4.546Z" transform="translate(-435.197 -74.542)"/>
        <path id="Path_54" data-name="Path 54" d="M886.362,33.013l-7.415.007-.01,6.59,10.51.023.075,2.543-13.479.016V21.938h12.689l.068,2.555-9.832,0-.034,5.87,7.379-.014Z" transform="translate(-604.063 -15.127)"/>
        <path id="Path_55" data-name="Path 55" d="M731.6,36.663a6.925,6.925,0,0,0,10.854-.722l2.06,1.783A9.983,9.983,0,0,1,728.832,38a11.418,11.418,0,0,1-1.237-11.761,9.8,9.8,0,0,1,7.38-5.639c3.893-.536,7.316.625,9.6,3.751l-2.069,1.85c-1.761-2.7-4.2-3.487-7.221-3.025A6.811,6.811,0,0,0,730,28.36c-.7,2.772-.511,5.959,1.6,8.3" transform="translate(-500.966 -14.115)"/>
        <path id="Path_56" data-name="Path 56" d="M414.931,36.572a6.978,6.978,0,0,0,10.917-.579l2.181,1.557a9.775,9.775,0,0,1-8.022,4.069,9.644,9.644,0,0,1-8.237-4.261,11.549,11.549,0,0,1-.17-12.266,9.68,9.68,0,0,1,8.553-4.655A9.249,9.249,0,0,1,428,24.394l-2.071,1.721A6.927,6.927,0,0,0,413.5,27.956a8.971,8.971,0,0,0,1.431,8.616" transform="translate(-282.656 -14.092)"/>
        <path id="Path_57" data-name="Path 57" d="M711.888,120.213l-5.4.159-.007,7.981-2.849-.006,0-20.169,7.285.055a5.849,5.849,0,0,1,5.921,4.515c.771,3.488-1.1,6.989-4.947,7.464m.163-2.654c1.754-.58,2.152-2.453,1.936-3.969a3.306,3.306,0,0,0-2.9-2.849l-4.614-.13.009,7.359a17.549,17.549,0,0,0,5.564-.412" transform="translate(-485.177 -74.593)"/>
        <path id="Path_58" data-name="Path 58" d="M614.107,198.266l-.132,1.635,6.227.023c.329,0,.408,1.16.077,1.161l-6.214.016-.046,1.755,8.123,0-.06,1.335-15.138.022a2.8,2.8,0,0,1-2.3.619l-.03-7.269-1.865,1.508-1.249-1.14a21.707,21.707,0,0,0,5.25-6.169l1.946.208-1.252,2.045,5.1.011-.8-1.932,1.654-.471,1.227,2.411,6.847-.006.011,1.418-7.488.012.2,1.711,5.9.014c.2,0,.534.782.37.848a3.825,3.825,0,0,1-.887.244Zm-1.976-1.1.047-1.716-5.624-.012-.017,1.733Zm.044,2.734-.013-1.633h-5.6l-.038,1.649Zm0,2.95-.011-1.761-5.626,0,.006,1.761Z" transform="translate(-414.758 -132.127)"/>
        <path id="Path_59" data-name="Path 59" d="M719.473,214.152l-15.6.006c-.032.47-.044,1.142-.244,1.143l-1.512.013L702.1,194.7h19.2l0,20.505-1.354.056c-.259.011-.379-.638-.475-1.1m.1-1.366,0-16.743-15.791.011L703.8,212.8Z" transform="translate(-484.124 -134.25)"/>
        <path id="Path_60" data-name="Path 60" d="M420.873,225.885l-1.808,0,0-2.994-8.174-.01-.016-1.457,8.167,0-.016-2.039-9.409.007.058-1.583h9.384l0-6.239-8.767-.007.038-1.524h19.552l.046,1.522-9.031.01V217.8l9.758.018.052,1.566-9.793,0-.007,2.04,8.333,0v1.468l-8.278,0Z" transform="translate(-282.448 -144.827)"/>
        <path id="Path_61" data-name="Path 61" d="M562.4,42.118l-2.916.054.005-20.184,2.907-.016Z" transform="translate(-385.783 -15.15)"/>
        <path id="Path_62" data-name="Path 62" d="M527.065,205.732l.025-3.9-3.216,3.748-.965-.983a17.2,17.2,0,0,0,3.889-4.651l-2.666-.11,0-1.134,3.64-.119-2.651-1.7c.214-.224.591-.681.8-.624l1.241.34c.511.14,1.293-.831,1.7-1.391l-4.4-.051.008-1.17,5.364-.038a2.893,2.893,0,0,1,1.531.763L528.52,197.3l.841,1.244,2.545.347-1.085,3.222-1.017-.429.472-1.815-1.657.043-.066,6.481a5.568,5.568,0,0,1-2.56.465l-.307-.97c-.055-.174.7-.161,1.38-.151" transform="translate(-360.565 -133.736)"/>
        <path id="Path_63" data-name="Path 63" d="M552.238,205.817l-1.467-.03-.034-5.739-2.708,4.382-1.053-1.277a16.652,16.652,0,0,0,3.6-6.514l-2.145-.117v-1.28l2.331-.024,0-3.5,1.535-.037-.034,3.542,3.025,0,.014,1.261-3.329.225,3.338,5.3a3.16,3.16,0,0,1,.391,1.079c.018.252-.775.567-.876.488l-2.468-4.2Z" transform="translate(-377.16 -132.171)"/>
        <path id="Path_64" data-name="Path 64" d="M614.425,242.15l-1.818.061-.009-5.45-9.319,0a7.807,7.807,0,0,1-.018-1.454l9.292-.011.2-1.268c.051-.327,1.18-.371,1.412-.134a2.529,2.529,0,0,1,.27,1.414l9.491,0,0,1.443-9.49.012Z" transform="translate(-415.953 -161.179)"/>
        <path id="Path_65" data-name="Path 65" d="M509.382,205.811l-1.513.048-.058-5.2-1.717,3.209-1.041-1.122a19.059,19.059,0,0,0,2.8-6.148l-2.507-.063.018-1.3,2.471-.036v-3.475l1.56-.044-.026,3.507,2,.118.052.984c.014.262-.806.273-1.07.3l-.887.094c-.185.02-.1.858.03.989l2.138,2.107-.746.9-1.5-1.541Z" transform="translate(-348.253 -132.17)"/>
        <path id="Path_66" data-name="Path 66" d="M532.715,242.8c.09-.163,1.131-.024,1.354.246.628.76-.312,3.429-2.107,3.422l-6.792-.026a2.22,2.22,0,0,1-2.217-2.422l.076-3.639,1.753.108.126,4.153a33.951,33.951,0,0,0,6.807.123c.506-.047.891-1.235,1-1.966" transform="translate(-360.595 -165.753)"/>
        <path id="Path_67" data-name="Path 67" d="M417.268,194.834l-.226,1.339c-.056.328-1.013.253-1.379.212-.332-.037-.4-.61-.418-1.544l-4.874-.132c-.42-.024-.48-1.419-.107-1.548l5-.06c-.019-.475-.1-1.4.187-1.42l1.274-.1c.349-.029.425.86.389,1.5l2.553.107.036,1.517Z" transform="translate(-282.721 -132.099)"/>
        <path id="Path_68" data-name="Path 68" d="M449.773,194.753l-.322,1.375c-.079.336-1.082.279-1.394.132s-.289-.88-.268-1.505l-2.356-.1a2.743,2.743,0,0,1-.1-1.542l2.37-.079.2-1.262c.043-.278.929-.313,1.206-.264.346.062.485.684.506,1.523l5.317.06-.022,1.585Z" transform="translate(-307.028 -132.04)"/>
        <path id="Path_69" data-name="Path 69" d="M455.553,220.466l-.2,1.354c-.049.337-1.078.428-1.335.205s-.26-.932-.275-1.561l-2.565-.018-.006-1.525,2.484-.035.381-1.194c.08-.251,1.131-.242,1.2.011l.326,1.186,2.966.027-.007,1.523Z" transform="translate(-311.101 -149.981)"/>
        <path id="Path_70" data-name="Path 70" d="M416.413,220.561c-.043.688-.069,1.408-.344,1.421l-1.228.058c-.278.013-.211-.986-.161-1.511l-3.214-.052-.038-1.464,3.094-.081.339-1.265c.07-.26,1.142-.246,1.223.011l.395,1.248,2.351.09-.036,1.389Z" transform="translate(-283.695 -149.96)"/>
        <path id="Path_71" data-name="Path 71" d="M650.564,250.224l-5.412-2.156c-.139-.231.725-1.094,1.1-.965l6.288,2.171-.666,1.111c-.15.25-.985-.032-1.311-.162" transform="translate(-444.846 -170.378)"/>
        <path id="Path_72" data-name="Path 72" d="M603.79,251.565l-1.021-1.392,5.394-1.648c.881-.269,1.431-.6,2.2.237a36.936,36.936,0,0,1-6.578,2.8" transform="translate(-415.631 -171.163)"/>
        <path id="Path_73" data-name="Path 73" d="M564.735,243.465l-1.687.926-2.3-4.334,1.628-.634Z" transform="translate(-386.657 -165.091)"/>
        <path id="Path_74" data-name="Path 74" d="M508.111,245.757l-1.682-.853,1.884-4.295,1.556.686Z" transform="translate(-349.201 -165.909)"/>
        <path id="Path_75" data-name="Path 75" d="M540.3,240.228l-2.346-2.507c.22-.328,1.184-.886,1.444-.629l2.118,2.1Z" transform="translate(-370.941 -163.439)"/>
        <path id="Path_76" data-name="Path 76" d="M724.063,210.869c-.01.2-.651.886-.805.743l-.885-.826a77.813,77.813,0,0,1-11.4-.05,25.369,25.369,0,0,1,5.943-.584l-.007-1.378-4.85-.006-.073-4.392,4.875-.027.042-1.206-5.794-.052.611-.964,5.1-.005c.218-.652.523-1.07.809-1.076.468-.009.82.484.917,1.092l5.716.011.009.978h-5.834l-.028,1.227,5.121.011-.029,4.414h-5.031l-.026,1.106c-.005.207,2.543.819,3.333-.89Zm-7.153-4.634-.006-1.275h-3.455l-.01,1.234Zm5.222-.044-.161-1.235-3.528.024-.031,1.3Zm-5.207,1.94-.073-1.235-3.389-.045-.028,1.281Zm5.175,0v-1.246h-3.668l0,1.245Z" transform="translate(-490.242 -138.628)"/>
        <path id="Path_77" data-name="Path 77" d="M717.626,238.5l2.215-.338.087-2.4-8.88-.007.011-.9,8.712-.034c.166-.407.764-1.077.977-.889l.97.853,2.9.094.008.865-3.186.018-.135,2.793a3.175,3.175,0,0,1-3.678-.056" transform="translate(-490.293 -161.285)"/>
        <path id="Path_78" data-name="Path 78" d="M722.093,242.949c-.155.247-.866.928-1.04.732l-.789-.884-.7-.788c-.18-.2.782-.792.978-.6Z" transform="translate(-496.148 -166.436)"/>
      </g>
    </g>
  </g>
</svg>
