<?xml version="1.0" encoding="UTF-8"?>
<svg id="Layer_1" xmlns="http://www.w3.org/2000/svg" version="1.1" viewBox="0 0 22.86 11.07">
  <!-- Generator: Adobe Illustrator 30.3.0, SVG Export Plug-In . SVG Version: 2.1.3 Build 182)  -->
  <g id="right-arrow">
    <g id="Group_68">
      <path id="Path_159" d="M22.6,4.9h0L17.93.26c-.35-.35-.92-.35-1.26,0-.35.35-.35.92,0,1.26l3.13,3.12H.89c-.49,0-.89.4-.89.9,0,.49.4.89.89.89h18.91l-3.13,3.12c-.35.35-.35.91,0,1.26.35.35.91.35,1.26,0l4.67-4.64h0c.35-.35.35-.91,0-1.26,0,0,0,0,0,0Z"/>
    </g>
  </g>
</svg>