<svg id="Group_25" data-name="Group 25" xmlns="http://www.w3.org/2000/svg" width="121.73" height="19.339" viewBox="0 0 121.73 19.339">
  <path id="Path_126" data-name="Path 126" d="M90.213,26.045c.432-2.244,2.419-3.8,5.181-3.8,3.2,0,5.7,1.379,5.7,5.7v8.03H98.329l-.345-1.727a4.961,4.961,0,0,1-4.143,1.985A3.9,3.9,0,0,1,89.7,32.089c0-2.677,2.418-4.4,5.785-4.4h2.245v-.605c0-1.553-1.123-1.985-2.419-1.985a2.258,2.258,0,0,0-2.33,1.554Zm4.4,7.339a2.919,2.919,0,0,0,3.108-2.762v-.26H95.568c-1.468-.087-2.332.518-2.332,1.727a1.345,1.345,0,0,0,1.382,1.295" transform="translate(-89.696 -16.98)" fill="#fff"/>
  <path id="Path_127" data-name="Path 127" d="M143.363,26.045c.431-2.244,2.418-3.8,5.18-3.8,3.2,0,5.7,1.379,5.7,5.7v8.03H151.48l-.347-1.727a4.959,4.959,0,0,1-4.143,1.985,3.9,3.9,0,0,1-4.145-4.143c0-2.677,2.418-4.4,5.785-4.4h2.245v-.605c0-1.553-1.123-1.985-2.419-1.985a2.258,2.258,0,0,0-2.329,1.554Zm4.4,7.339a2.918,2.918,0,0,0,3.108-2.762v-.26H148.63c-1.468,0-2.332.518-2.332,1.727a1.5,1.5,0,0,0,1.468,1.295" transform="translate(-77.75 -16.98)" fill="#fff"/>
  <path id="Path_128" data-name="Path 128" d="M154.617,36.06V22.42h3.367v2.244a4.611,4.611,0,0,1,3.972-2.416,5.072,5.072,0,0,1,1.641.258l-.606,3.108a2.614,2.614,0,0,0-1.382-.432c-1.985,0-3.625,1.641-3.625,5.958v4.833Z" transform="translate(-75.104 -16.981)" fill="#fff"/>
  <path id="Path_129" data-name="Path 129" d="M168.924,23.215a4.359,4.359,0,0,1,3.28,1.466V17.947h3.367V37.028H172.2V35.646a4,4,0,0,1-3.28,1.64c-4.058,0-6.129-2.849-6.129-6.992s2.071-7.079,6.129-7.079m.518,11.136c1.727,0,3.108-1.468,3.108-4.143s-1.382-4.145-3.108-4.145-3.108,1.467-3.108,4.145,1.382,4.143,3.108,4.143" transform="translate(-73.266 -17.947)" fill="#fff"/>
  <path id="Path_130" data-name="Path 130" d="M184.838,24.437l-1.985,1.814a2.834,2.834,0,0,0-2.245-1.209,1.188,1.188,0,0,0-1.3,1.122c0,.6.519,1.035,1.3,1.3,1.9.69,4.92,1.295,4.92,4.143a4.5,4.5,0,0,1-4.833,4.489,5.76,5.76,0,0,1-5.352-3.625L178.017,31a3.015,3.015,0,0,0,2.763,2.245c1.036,0,1.727-.518,1.727-1.467,0-1.123-1.727-1.382-3.367-2.074-1.468-.6-2.763-1.553-2.763-3.625a4.1,4.1,0,0,1,4.317-3.969,5.232,5.232,0,0,1,4.143,2.33" transform="translate(-70.446 -17.012)" fill="#fff"/>
  <path id="Path_131" data-name="Path 131" d="M128.72,22.388,126.3,31.8l-2.332-9.411h-3.107L118.62,31.8l-1.9-5.439-.261.6L115.425,30.5l1.727,5.524h2.936l2.329-8.806,2.331,8.806h3.021l4.317-13.64Z" transform="translate(-83.913 -16.949)" fill="#fff"/>
  <path id="Path_132" data-name="Path 132" d="M141.918,22.388,139.5,31.8l-2.332-9.411h-3.107L131.817,31.8l-1.9-5.439-.26.6L128.536,30.5l1.814,5.524h2.936l2.33-8.806,2.331,8.806h2.935l4.4-13.64Z" transform="translate(-80.966 -16.949)" fill="#fff"/>
  <path id="Path_133" data-name="Path 133" d="M119.365,22.388l-4.317,13.554h-2.936l-2.329-8.72-2.332,8.806h-2.936L100.2,22.475h3.367l2.416,9.324,2.331-9.324h3.108l2.331,9.324,2.418-9.324Z" transform="translate(-87.335 -16.949)" fill="#fff"/>
  <path id="Path_134" data-name="Path 134" d="M187.666,29.93a2.244,2.244,0,1,1-2.245,2.245,2.179,2.179,0,0,1,2.245-2.245" transform="translate(-68.18 -15.254)" fill="#fff"/>
</svg>
