<svg id="Group_29" data-name="Group 29" xmlns="http://www.w3.org/2000/svg" width="124" height="30.33" viewBox="0 0 124 30.33">
  <path id="Path_135" data-name="Path 135" d="M477.822,22.714h-1.75v-1.2h4.851v1.2h-1.75v4.939h-1.352Z" transform="translate(-440.796 -20.272)" fill="#fff"/>
  <path id="Path_136" data-name="Path 136" d="M480.292,21.293V24.2h.017a1.224,1.224,0,0,1,1.179-.676c1.319,0,1.56.867,1.56,1.994v2.32h-1.3V25.779c0-.484-.007-1.107-.674-1.107s-.781.527-.781,1.072v2.1h-1.3V21.293Z" transform="translate(-438.363 -20.462)" fill="#fff"/>
  <path id="Path_137" data-name="Path 137" d="M485.728,26.094a2.285,2.285,0,0,1-1.775.831,2.213,2.213,0,1,1,0-4.418,1.964,1.964,0,0,1,1.976,2.212v.405h-3.015a.97.97,0,0,0,.978.816,1.108,1.108,0,0,0,.926-.512Zm-1.1-1.853a.778.778,0,0,0-.8-.8.869.869,0,0,0-.919.8Z" transform="translate(-436.178 -19.442)" fill="#fff"/>
  <path id="Path_138" data-name="Path 138" d="M482.788,28.28a2.166,2.166,0,0,0-1.741-.753,2.737,2.737,0,0,0-2.663,2.961,2.73,2.73,0,0,0,2.6,2.965,2.206,2.206,0,0,0,1.9-.987l1.691,1.258a4.015,4.015,0,0,1-3.326,1.6,4.658,4.658,0,0,1-4.963-4.834,4.657,4.657,0,0,1,4.963-4.832,3.938,3.938,0,0,1,3.1,1.352Z" transform="translate(-440.629 -16.847)" fill="#fff"/>
  <path id="Path_139" data-name="Path 139" d="M484.545,27.264a3.319,3.319,0,1,1-3.51,3.315,3.3,3.3,0,0,1,3.51-3.315m0,4.912a1.6,1.6,0,1,0-1.558-1.6,1.474,1.474,0,0,0,1.558,1.6" transform="translate(-436.665 -15.503)" fill="#fff"/>
  <path id="Path_140" data-name="Path 140" d="M485.458,27.422h1.871v.856h.026a2.048,2.048,0,0,1,1.845-1.013,1.984,1.984,0,0,1,1.948,1.129,2.056,2.056,0,0,1,2-1.129c1.716,0,2.238,1.21,2.238,2.742v3.727h-1.95V30.059c0-.584-.223-1.077-.858-1.077-.9,0-1.18.635-1.18,1.414v3.339h-1.952V30.4c0-.468.028-1.414-.869-1.414-1.013,0-1.169.79-1.169,1.611v3.142h-1.949Z" transform="translate(-432.986 -15.501)" fill="#fff"/>
  <path id="Path_141" data-name="Path 141" d="M491.625,27.422H493.5v.856h.026a2.047,2.047,0,0,1,1.844-1.013,1.981,1.981,0,0,1,1.948,1.129,2.059,2.059,0,0,1,2-1.129c1.715,0,2.234,1.21,2.234,2.742v3.727H499.6V30.059c0-.584-.219-1.077-.856-1.077-.9,0-1.184.635-1.184,1.414v3.339h-1.947V30.4c0-.468.026-1.414-.871-1.414-1.013,0-1.171.79-1.171,1.611v3.142h-1.947Z" transform="translate(-427.849 -15.501)" fill="#fff"/>
  <path id="Path_142" data-name="Path 142" d="M503.846,33.663h-1.869v-.856h-.028a2.05,2.05,0,0,1-1.843,1.013c-1.976,0-2.335-1.3-2.335-2.989V27.35h1.945v3.09c0,.727.013,1.661,1.017,1.661s1.168-.79,1.168-1.61V27.35h1.947Z" transform="translate(-422.719 -15.431)" fill="#fff"/>
  <path id="Path_143" data-name="Path 143" d="M501.846,27.422h1.869v.856h.028a2.047,2.047,0,0,1,1.843-1.013c1.974,0,2.339,1.3,2.339,2.987v3.483h-1.948v-3.09c0-.729-.013-1.663-1.013-1.663s-1.169.79-1.169,1.611v3.142h-1.948Z" transform="translate(-419.323 -15.501)" fill="#fff"/>
  <path id="Path_144" data-name="Path 144" d="M506.958,25.657a1.13,1.13,0,1,1-1.131,1.129,1.126,1.126,0,0,1,1.131-1.129m-.976,3.118h1.947v6.313h-1.947Z" transform="translate(-415.993 -16.845)" fill="#fff"/>
  <path id="Path_145" data-name="Path 145" d="M512.046,29.46a1.2,1.2,0,0,0-.963-.481,1.6,1.6,0,0,0,0,3.2,1.244,1.244,0,0,0,.963-.479l1.285,1.35a3.172,3.172,0,0,1-2.249.847,3.319,3.319,0,1,1,0-6.628,3.17,3.17,0,0,1,2.249.845Z" transform="translate(-414.548 -15.502)" fill="#fff"/>
  <path id="Path_146" data-name="Path 146" d="M515.226,32.943h-.03a2.272,2.272,0,0,1-2,.948,2.027,2.027,0,0,1-2.249-1.952c0-2.18,2.65-2.219,4.276-2.219a1.161,1.161,0,0,0-1.249-1.131,2.082,2.082,0,0,0-1.584.753l-1.041-1.064a4.076,4.076,0,0,1,2.781-1.013c2.274,0,2.884,1.155,2.884,3.262v3.208h-1.792Zm-.482-1.976c-.6,0-1.923.052-1.923.91,0,.466.5.689.923.689.766,0,1.482-.405,1.482-1.182v-.416Z" transform="translate(-411.823 -15.502)" fill="#fff"/>
  <path id="Path_147" data-name="Path 147" d="M519.488,29.764h-1.715v2.1c0,.676.077,1.169.923,1.169a1.4,1.4,0,0,0,.792-.182v1.622a3.981,3.981,0,0,1-1.363.2c-1.3,0-2.3-.534-2.3-1.91v-3h-1.247V28.206h1.247V26.333h1.95v1.873h1.715Z" transform="translate(-408.771 -16.281)" fill="#fff"/>
  <path id="Path_148" data-name="Path 148" d="M521.13,27.264a3.319,3.319,0,1,1-3.508,3.315,3.3,3.3,0,0,1,3.508-3.315m0,4.912a1.6,1.6,0,1,0-1.56-1.6,1.475,1.475,0,0,0,1.56,1.6" transform="translate(-406.208 -15.503)" fill="#fff"/>
  <path id="Path_149" data-name="Path 149" d="M522.044,27.422h1.948v1.013h.028a1.927,1.927,0,0,1,1.82-1.169,2.472,2.472,0,0,1,.646.066v1.777a2.994,2.994,0,0,0-.831-.127c-1.481,0-1.663.856-1.663,2.118v2.635h-1.948Z" transform="translate(-402.486 -15.501)" fill="#fff"/>
  <path id="Path_150" data-name="Path 150" d="M480.006,31.71h1.68l4,9.2H483.4l-.79-1.95h-3.575l-.768,1.95h-2.234Zm.783,2.68-1.118,2.856h2.249Z" transform="translate(-440.836 -11.827)" fill="#fff"/>
  <path id="Path_151" data-name="Path 151" d="M480.882,33.278h2.079l1.285,3.961h.028l1.077-3.961h2.131l1.169,3.961h.026l1.182-3.961h1.972l-2.247,6.313h-1.921l-1.313-4.2h-.026l-1.169,4.2H483.2Z" transform="translate(-436.8 -10.507)" fill="#fff"/>
  <path id="Path_152" data-name="Path 152" d="M491.08,38.871h-.028a2.272,2.272,0,0,1-2,.947,2.024,2.024,0,0,1-2.249-1.947c0-2.182,2.65-2.221,4.276-2.221a1.161,1.161,0,0,0-1.249-1.131,2.08,2.08,0,0,0-1.584.751l-1.041-1.063a4.069,4.069,0,0,1,2.779-1.015c2.276,0,2.886,1.155,2.886,3.26v3.212H491.08ZM490.6,36.9c-.6,0-1.925.052-1.925.91,0,.466.5.687.925.687.768,0,1.482-.4,1.482-1.18V36.9Z" transform="translate(-431.857 -10.579)" fill="#fff"/>
  <path id="Path_153" data-name="Path 153" d="M490.682,33.35h1.948v1.013h.026a1.934,1.934,0,0,1,1.821-1.171,2.47,2.47,0,0,1,.646.068v1.777a2.984,2.984,0,0,0-.831-.127c-1.479,0-1.663.856-1.663,2.118v2.635h-1.948Z" transform="translate(-428.621 -10.58)" fill="#fff"/>
  <path id="Path_154" data-name="Path 154" d="M500.15,41.2h-1.794v-.831h-.024a2.455,2.455,0,0,1-1.937.987,3.031,3.031,0,0,1-3.1-3.262c0-1.755,1.09-3.365,2.886-3.365a2.358,2.358,0,0,1,2,.831h.026V31.374h1.949ZM496.8,36.44a1.6,1.6,0,1,0,1.558,1.6,1.477,1.477,0,0,0-1.558-1.6" transform="translate(-426.454 -12.11)" fill="#fff"/>
  <path id="Path_155" data-name="Path 155" d="M501.57,35.208a1.386,1.386,0,0,0-1.129-.532c-.326,0-.715.142-.715.519,0,.936,3.285.144,3.285,2.547,0,1.61-1.56,2.077-2.91,2.077a3.467,3.467,0,0,1-2.481-.856l1.181-1.315a1.692,1.692,0,0,0,1.377.691c.444,0,.884-.116.884-.453,0-1.015-3.287-.157-3.287-2.56,0-1.481,1.326-2.133,2.65-2.133a3.194,3.194,0,0,1,2.337.831Z" transform="translate(-422.841 -10.579)" fill="#fff"/>
  <path id="Path_156" data-name="Path 156" d="M464.915,27.574a8.368,8.368,0,0,1,5.219-1.82,8.53,8.53,0,0,1,1.86.211,8.382,8.382,0,0,1,5.678,4.5l2.37-1.133a11.015,11.015,0,0,0-16.764-3.808,10.945,10.945,0,0,0,6.856,19.5,11.07,11.07,0,0,0,9.908-6.2l-2.37-1.135a8.388,8.388,0,0,1-12.757,2.894,8.281,8.281,0,0,1,0-13.01" transform="translate(-454.902 -18.914)" fill="#fff"/>
  <path id="Path_157" data-name="Path 157" d="M474.94,48.554a12.858,12.858,0,1,1,8.77-18.131l2.081-1a15.222,15.222,0,0,0-10.337-8.2,15.405,15.405,0,0,0-3.39-.38,15.158,15.158,0,1,0,13.727,21.749l-2.081-1a12.963,12.963,0,0,1-8.77,6.961" transform="translate(-456.831 -20.842)" fill="#fff"/>
</svg>
