<svg xmlns="http://www.w3.org/2000/svg" width="16.433" height="16.433" viewBox="0 0 16.433 16.433">
  <path id="night-mode" d="M17.265,11.252a.548.548,0,0,0-.571-.128A7.351,7.351,0,0,1,7.3,1.731a.548.548,0,0,0-.7-.7A8.332,8.332,0,0,0,3.467,3.015,8.446,8.446,0,1,0,15.411,14.959a8.331,8.331,0,0,0,1.984-3.137.548.548,0,0,0-.13-.57Zm-2.629,2.933A7.35,7.35,0,1,1,5.951,2.513a8.5,8.5,0,0,0,2.3,7.659,8.494,8.494,0,0,0,7.659,2.3,7.315,7.315,0,0,1-1.274,1.712Z" transform="translate(-0.993 -1)" fill="#fff"/>
</svg>
