<svg id="Group_24" data-name="Group 24" xmlns="http://www.w3.org/2000/svg" width="40.783" height="63.521" viewBox="0 0 40.783 63.521">
  <path id="Path_75" data-name="Path 75" d="M27.1,16.154l3.467-3.464c.067.361.12.728.166,1.1l-2.365,2.363,2.368,2.365c-.046.371-.1.74-.168,1.1Z" transform="translate(8.394 3.931)" fill="#fff"/>
  <path id="Path_76" data-name="Path 76" d="M24.035,16.9l6.617-6.614c.115.309.223.626.32.946L25.305,16.9l5.671,5.669c-.1.321-.208.64-.324.952Z" transform="translate(7.445 3.186)" fill="#fff"/>
  <path id="Path_77" data-name="Path 77" d="M20.973,17.549l9.365-9.361c.151.272.3.549.437.826l-8.532,8.532,8.534,8.534c-.14.283-.287.562-.44.833Z" transform="translate(6.497 2.536)" fill="#fff"/>
  <path id="Path_78" data-name="Path 78" d="M17.912,18.119,29.684,6.347c.186.238.364.481.541.728L19.18,18.116,30.229,29.163c-.177.249-.356.492-.542.732Z" transform="translate(5.548 1.966)" fill="#fff"/>
  <path id="Path_79" data-name="Path 79" d="M20.538,16.254V19L38.63.906H20.538V2.954l1.9-1.9c.368.043.737.1,1.1.166L20.538,4.223V6.964l5.21-5.21c.32.1.637.207.948.318L20.538,8.233v2.744L28.614,2.9c.28.138.557.284.826.437l-8.9,8.905v2.744L31.128,4.4c.248.173.49.354.727.54Zm0,20.961v2.054h18.1l-18.1-18.092v2.733L31.863,35.234c-.241.183-.486.368-.732.542L20.536,25.184l0,2.737,8.913,8.913c-.275.156-.55.3-.833.44l-8.08-8.08v2.74L26.7,38.1c-.312.117-.63.224-.95.322l-5.214-5.214v2.736l3.014,3.015c-.364.065-.735.122-1.1.17Zm.183-17.129L39.271,38.635V1.54Zm-1.086.448H.9V39.269H19.636Zm0-1.534V.906H1.544ZM.9,1.54l0,18.094H19ZM40.169,40.172H0V0H40.169Z" transform="translate(0 0)" fill="#fff" fill-rule="evenodd"/>
  <path id="Path_80" data-name="Path 80" d="M2.314,47.148H3.38a2.577,2.577,0,0,1-.452-.329,2.669,2.669,0,0,1-.574-.7H2.314ZM1.036,48.985H3.216v-.469H1.036Zm0-.946H3.216v-.4H1.036Zm-.17-.892H1.887V46.122H1.852a2.48,2.48,0,0,1-.451.6,3.3,3.3,0,0,1-.536.426m2.743-2.663.211.469a11.637,11.637,0,0,1-1.5.206v.494H4.192v.469H2.818a2.041,2.041,0,0,0,.458.4,4.249,4.249,0,0,0,.934.445l-.2.515c-.143-.064-.272-.127-.389-.194v2.427H3.216v-.261H1.036v.261H.626V47.3c-.118.069-.241.139-.373.207L.01,46.993a4.505,4.505,0,0,0,1.071-.578,1.942,1.942,0,0,0,.293-.293H.06v-.469H1.887v-.465c-.444.024-.925.035-1.438.035l-.12-.491a18.648,18.648,0,0,0,3.28-.248" transform="translate(0.003 13.78)" fill="#fff"/>
  <path id="Path_81" data-name="Path 81" d="M6.754,46.1h.83v-.563h-.83Zm-.178,1.965H7.619v-.555H6.576Zm-.01-1h1.2a3.453,3.453,0,0,1-.283-.492H6.809a3.026,3.026,0,0,1-.244.492m-1.5-2.554a3.6,3.6,0,0,1,.692.515l-.269.517a2.907,2.907,0,0,0-.652-.6Zm.21,2.732.213.2a2.874,2.874,0,0,0,.681-.567,1.642,1.642,0,0,0,.2-.3h-.7V46.1h.66v-.559H5.778v-.472h.549v-.584h.427v.584h.83v-.584h.407v.584h.69v.472h-.69V46.1h.8v.47H7.943a1.581,1.581,0,0,0,.287.36,2.446,2.446,0,0,0,.616.416l-.182.494a3.724,3.724,0,0,1-.635-.475v1.151H6.576v.423c0,.119.052.178.16.178H7.991a.218.218,0,0,0,.19-.075,2.037,2.037,0,0,0,.1-.731l.386.158a2.2,2.2,0,0,1-.191.968.519.519,0,0,1-.427.148H6.576a.366.366,0,0,1-.3-.13.564.564,0,0,1-.111-.361V47.55a5.908,5.908,0,0,1-.479.406l-.092-.194a16.405,16.405,0,0,1-.559,1.979l-.343-.47a14.919,14.919,0,0,0,.585-2.03m-.389-1.388a3.851,3.851,0,0,1,.731.559l-.27.515a3.078,3.078,0,0,0-.688-.647Z" transform="translate(1.444 13.78)" fill="#fff"/>
  <path id="Path_82" data-name="Path 82" d="M11.116,46.781h1.97v.376a4.257,4.257,0,0,1-.559,1.494,3.569,3.569,0,0,0,.961.521l-.262.494a4.108,4.108,0,0,1-1.015-.614,3.4,3.4,0,0,1-1.022.659l-.249-.469a3.348,3.348,0,0,0,.929-.538,4.353,4.353,0,0,1-.648-1.1l.372-.27a3.508,3.508,0,0,0,.608,1.009l0,0a3.331,3.331,0,0,0,.441-1.088h-1.53Zm1.793-2.172v1.319c0,.136.051.206.157.206h.354v.508h-.443a.513.513,0,0,1-.388-.138.671.671,0,0,1-.126-.464v-.963h-.689a3.592,3.592,0,0,1-.092.819,2.149,2.149,0,0,1-.427.791l-.316-.358a2.5,2.5,0,0,0,.351-.622,6.023,6.023,0,0,0,.056-1.1Zm-3.032,4.2h.582V48.1H9.877Zm-.39-2.031h1.378v.445H9.486Zm0-.832h1.378v.445H9.486Zm1.38,1.679V49.28h-.99v.41H9.471V47.629Zm-.654-3.174a5.887,5.887,0,0,1,.19.647h.639v.469H9.324V45.1h.665a5.756,5.756,0,0,0-.2-.584Z" transform="translate(2.888 13.77)" fill="#fff"/>
  <path id="Path_83" data-name="Path 83" d="M15.985,46.086h.866V44.455H17.3v1.631h.867V46.6H17.3v3.108h-.444V46.6h-.866ZM15.311,48.1h-.762v.714h.762Zm-.762,1.183v.407h-.406V47.629h1.574V49.6h-.406V49.28Zm-.424-2.5h1.628v.448H14.124Zm0-.806h1.628v.445H14.124Zm.781-1.518a6.257,6.257,0,0,1,.262.644h.745v.472H13.963V45.1h.787a4.294,4.294,0,0,0-.27-.582Z" transform="translate(4.325 13.77)" fill="#fff"/>
  <path id="Path_84" data-name="Path 84" d="M20.416,44.7h2.305v.511H21.8v.6h.8v2.931a.718.718,0,0,1-.089.372.3.3,0,0,1-.265.136h-.249l-.1-.529.233.021c.058,0,.085-.055.085-.16V46.312H21.8v3.4h-.422v-3.4h-.409V49.28h-.389V45.817h.8v-.6h-.957Zm-1.31,4.064h.829V47.85h-.829Zm0-2.436h.741v-.851h-.741Zm.28-1.876.445.063a3.205,3.205,0,0,1-.158.494h.584V46.8H19.107v.576h1.236v2.194h-.407v-.331h-.829V49.6H18.7V45.012h.534a2.929,2.929,0,0,0,.155-.557" transform="translate(5.792 13.77)" fill="#fff"/>
  <path id="Path_85" data-name="Path 85" d="M25.856,47.135h.409c0-.14.01-.291.012-.447h.392c0,.157-.008.308-.014.447h.707a7.462,7.462,0,0,1-.186,2.262c-.063.164-.28.245-.65.245l-.067-.516a1.366,1.366,0,0,0,.3.047c.069,0,.119-.052.157-.155a11.55,11.55,0,0,0,.059-1.415h-.346a6.4,6.4,0,0,1-.126.969,2.957,2.957,0,0,1-.523,1.095l-.268-.426a2.194,2.194,0,0,0,.427-.871,4.517,4.517,0,0,0,.1-.768h-.382Zm-1.172-2.169h.986c0-.065.008-.132.008-.2v-.31h.42v.31c0,.068,0,.135-.008.2h1.18a4.4,4.4,0,0,1-.178,1.43c-.089.138-.291.207-.6.207a3.86,3.86,0,0,1-.5-.024l-.088-.47a4.332,4.332,0,0,0,.584.039c.149,0,.238-.038.272-.115a1.607,1.607,0,0,0,.069-.6h-.817a1.764,1.764,0,0,1-.25.571,1.868,1.868,0,0,1-.976.66l-.228-.472a1.673,1.673,0,0,0,.872-.532,1.1,1.1,0,0,0,.123-.228h-.872Zm-.371,2.169h.43c.008-.135.012-.276.012-.423h.388c0,.153-.007.293-.013.423h.616a8.235,8.235,0,0,1-.162,2.262q-.086.246-.58.245l-.086-.54a1.407,1.407,0,0,0,.317.05c.047,0,.079-.052.1-.151s.037-.568.042-1.4H25.1a6.479,6.479,0,0,1-.143.973,2.731,2.731,0,0,1-.561,1.091l-.262-.426a2.2,2.2,0,0,0,.46-.867,4.12,4.12,0,0,0,.118-.771h-.4Zm-1.1-1.294h.423V44.494h.424v1.346h.465v.49h-.465v3.358h-.424V46.331h-.423Z" transform="translate(7.191 13.77)" fill="#fff"/>
  <path id="Path_86" data-name="Path 86" d="M31.335,47.106v-.779H30.149v.779h.575l-.274-.244a3.019,3.019,0,0,0,.284-.487l.286.153a3.078,3.078,0,0,1-.255.578Zm-1.976-1.787h1.189a6.954,6.954,0,0,1-.609-.448c-.2.166-.4.317-.58.448m-.536,3.827h2.284v-.339H28.823Zm0-.669h2.284v-.314H28.823Zm.921-1.371v-.779H28.591v.779h.567c-.071-.157-.157-.333-.269-.53l.249-.2a5.175,5.175,0,0,1,.335.508l-.249.223Zm-1.312-1.183H31.5c-.27-.156-.515-.308-.735-.452V45.7H29.158v-.234c-.258.178-.5.33-.727.458m3.1,1.835v1.948h-.424v-.182H28.823v.2H28.4V47.758Zm-1.593-3.29h.21a10.947,10.947,0,0,0,1.9,1.145l-.178.515c-.048-.026-.1-.052-.14-.081v1.47H28.2v-1.47a1.1,1.1,0,0,1-.155.081l-.178-.491a9.133,9.133,0,0,0,1.859-1.168Z" transform="translate(8.632 13.774)" fill="#fff"/>
  <path id="Path_87" data-name="Path 87" d="M1.148,33.736v5.026H6.98V33.736h.939V44.982H6.98V39.6H1.148v5.382H.208V33.736Z" transform="translate(0.064 10.45)" fill="#fff" fill-rule="evenodd"/>
  <path id="Path_88" data-name="Path 88" d="M19.14,33.737c4.005,0,5.564,2.293,5.564,5.6,0,4.069-2.654,5.641-6.4,5.641H16.113V33.737Zm-2.083,10.4h1.13c3.335,0,5.589-1.154,5.589-4.863,0-3.683-2.212-4.714-4.861-4.714H17.057Z" transform="translate(4.991 10.45)" fill="#fff" fill-rule="evenodd"/>
  <path id="Path_89" data-name="Path 89" d="M8.814,33.736H9.57V44.982H8.628V33.736Z" transform="translate(2.673 10.45)" fill="#fff"/>
  <path id="Path_90" data-name="Path 90" d="M14.8,33.736h1.218l-5.466,5.322L16.5,44.982h-1.31L9.347,39.066Z" transform="translate(2.895 10.45)" fill="#fff" fill-rule="evenodd"/>
  <path id="Path_91" data-name="Path 91" d="M30.881,40.647l-2.447-6.041-2.443,6.041Zm-1.855-6.908,4.536,11.243h-.921l-1.411-3.468H25.639l-1.377,3.468h-.951l4.532-11.243Z" transform="translate(7.221 10.451)" fill="#fff"/>
</svg>
