<svg id="Group_27" data-name="Group 27" xmlns="http://www.w3.org/2000/svg" width="87.298" height="22.462" viewBox="0 0 87.298 22.462">
  <path id="Path_105" data-name="Path 105" d="M312.069,28.525a10.146,10.146,0,0,1,4.3.957,8.947,8.947,0,0,0-17.734,1.27,8.525,8.525,0,0,0,4.625,7.511,4.513,4.513,0,0,1-.112-1.165,8.753,8.753,0,0,1,8.92-8.573" transform="translate(-284.995 -21.815)" fill="#fff"/>
  <rect id="Rectangle_33" data-name="Rectangle 33" width="0.447" height="3.569" transform="translate(6.945 18.701)" fill="#fff"/>
  <path id="Path_106" data-name="Path 106" d="M296.166,36.966V33.224l2.681,2.81V33.4h.446v3.716l-2.68-2.809v2.663Z" transform="translate(-286.587 -14.694)" fill="#fff"/>
  <path id="Path_107" data-name="Path 107" d="M300.493,33.736V36.9h-.446V33.736H299.2v-.408h2.142v.408Z" transform="translate(-284.631 -14.627)" fill="#fff"/>
  <path id="Path_108" data-name="Path 108" d="M301.664,36.9V33.329h1.92v.406h-1.472v1h1.428v.41h-1.428V36.49h1.472V36.9Z" transform="translate(-283.041 -14.626)" fill="#fff"/>
  <path id="Path_109" data-name="Path 109" d="M305.211,35.345l1.127,1.553h-.543l-1.048-1.51h-.186V36.9h-.446V33.328h.541a4.075,4.075,0,0,1,.54.03,1.047,1.047,0,0,1,.4.135.882.882,0,0,1,.255.22,1.085,1.085,0,0,1,.16.3,1,1,0,0,1,.056.334,1.093,1.093,0,0,1-.059.362,1.04,1.04,0,0,1-.174.308.926.926,0,0,1-.271.22.974.974,0,0,1-.35.11m-.65-1.619v1.293h.14a1.521,1.521,0,0,0,.688-.135.533.533,0,0,0,.261-.521.508.508,0,0,0-.275-.507,1.655,1.655,0,0,0-.7-.13Z" transform="translate(-281.461 -14.627)" fill="#fff"/>
  <path id="Path_110" data-name="Path 110" d="M308.922,36.064h-1.638l-.41.895H306.4l1.706-3.724,1.706,3.724h-.479Zm-.186-.408L308.1,34.21l-.637,1.446Z" transform="translate(-279.989 -14.687)" fill="#fff"/>
  <path id="Path_111" data-name="Path 111" d="M312.281,33.523v.518a1.23,1.23,0,0,0-.436-.26,1.431,1.431,0,0,0-.508-.092,1.341,1.341,0,0,0-.716.2,1.425,1.425,0,0,0-.508.533,1.485,1.485,0,0,0-.186.727,1.468,1.468,0,0,0,.186.719,1.438,1.438,0,0,0,.507.535,1.332,1.332,0,0,0,.711.2,1.353,1.353,0,0,0,.5-.1,1.459,1.459,0,0,0,.447-.275v.526a1.749,1.749,0,0,1-.452.184,1.869,1.869,0,0,1-2.1-.845,1.8,1.8,0,0,1-.25-.931,1.849,1.849,0,0,1,.944-1.628,1.919,1.919,0,0,1,1.429-.191,1.54,1.54,0,0,1,.426.181" transform="translate(-278 -14.657)" fill="#fff"/>
  <path id="Path_112" data-name="Path 112" d="M313.546,33.736V36.9H313.1V33.736h-.847v-.408H314.4v.408Z" transform="translate(-276.212 -14.627)" fill="#fff"/>
  <rect id="Rectangle_34" data-name="Rectangle 34" width="0.446" height="3.569" transform="translate(40.082 18.701)" fill="#fff"/>
  <path id="Path_113" data-name="Path 113" d="M316.6,33.329l1.064,2.642,1.061-2.642h.488l-1.549,3.76-1.551-3.76Z" transform="translate(-273.726 -14.626)" fill="#fff"/>
  <path id="Path_114" data-name="Path 114" d="M319.129,36.9V33.329h1.92v.406h-1.474v1H321v.41h-1.429V36.49h1.474V36.9Z" transform="translate(-271.779 -14.626)" fill="#fff"/>
  <path id="Path_115" data-name="Path 115" d="M325.655,36.064h-1.638l-.41.895h-.477l1.706-3.724,1.706,3.724h-.479Zm-.186-.408-.633-1.446-.637,1.446Z" transform="translate(-269.198 -14.687)" fill="#fff"/>
  <path id="Path_116" data-name="Path 116" d="M326.577,33.359l1,2.556,1.01-2.633,1.008,2.633,1-2.556h.484l-1.48,3.711-1.008-2.617-1.01,2.617-1.482-3.711Z" transform="translate(-267.287 -14.657)" fill="#fff"/>
  <path id="Path_117" data-name="Path 117" d="M332.535,36.064H330.9l-.41.895h-.477l1.706-3.724,1.706,3.724h-.479Zm-.186-.408-.633-1.446-.637,1.446Z" transform="translate(-264.761 -14.687)" fill="#fff"/>
  <path id="Path_118" data-name="Path 118" d="M334.311,35.345l1.127,1.553h-.543l-1.048-1.51h-.186V36.9h-.446V33.328h.541a4.074,4.074,0,0,1,.539.03,1.047,1.047,0,0,1,.4.135.881.881,0,0,1,.255.22,1.041,1.041,0,0,1,.16.3,1,1,0,0,1,.056.334,1.091,1.091,0,0,1-.059.362,1.039,1.039,0,0,1-.174.308.926.926,0,0,1-.271.22.974.974,0,0,1-.35.11m-.65-1.619v1.293h.14a1.521,1.521,0,0,0,.688-.135.531.531,0,0,0,.262-.521.508.508,0,0,0-.275-.507,1.652,1.652,0,0,0-.7-.13Z" transform="translate(-262.694 -14.627)" fill="#fff"/>
  <path id="Path_119" data-name="Path 119" d="M335.705,36.9V33.328h.742a2.708,2.708,0,0,1,.785.11,1.821,1.821,0,0,1,.633.332,1.5,1.5,0,0,1,.428.553,1.807,1.807,0,0,1,.155.773,1.905,1.905,0,0,1-.151.783,1.482,1.482,0,0,1-.429.566,1.8,1.8,0,0,1-.642.342,2.665,2.665,0,0,1-.794.112Zm.447-3.163v2.755h.155a2.775,2.775,0,0,0,.663-.072,1.594,1.594,0,0,0,.536-.235,1.106,1.106,0,0,0,.365-.429,1.439,1.439,0,0,0,.132-.642,1.454,1.454,0,0,0-.132-.645,1.121,1.121,0,0,0-.365-.429,1.54,1.54,0,0,0-.535-.232,2.88,2.88,0,0,0-.665-.071Z" transform="translate(-261.088 -14.627)" fill="#fff"/>
  <path id="Path_120" data-name="Path 120" d="M340.608,33.823l-.354.212a.764.764,0,0,0-.239-.255.642.642,0,0,0-.336-.081.681.681,0,0,0-.285.061.561.561,0,0,0-.225.179.443.443,0,0,0-.086.265q0,.323.5.513l.255.1a2.276,2.276,0,0,1,.47.247.962.962,0,0,1,.3.339.984.984,0,0,1,.112.489,1.145,1.145,0,0,1-.087.446,1.077,1.077,0,0,1-.243.355,1.065,1.065,0,0,1-.365.232,1.228,1.228,0,0,1-.444.081,1.053,1.053,0,0,1-.521-.13,1.1,1.1,0,0,1-.39-.354,1.224,1.224,0,0,1-.191-.515l.449-.1a.7.7,0,0,0,.09.347.658.658,0,0,0,.252.242.708.708,0,0,0,.347.089.618.618,0,0,0,.34-.1.671.671,0,0,0,.234-.255.74.74,0,0,0,.084-.347.527.527,0,0,0-.165-.411,1.557,1.557,0,0,0-.449-.265l-.247-.1a2.579,2.579,0,0,1-.4-.215.92.92,0,0,1-.27-.288.741.741,0,0,1-.107-.4.867.867,0,0,1,.087-.382.9.9,0,0,1,.232-.293,1.075,1.075,0,0,1,.337-.184,1.231,1.231,0,0,1,.4-.064,1.093,1.093,0,0,1,.37.063,1,1,0,0,1,.313.186,1.111,1.111,0,0,1,.234.293" transform="translate(-259.299 -14.656)" fill="#fff"/>
  <path id="Path_121" data-name="Path 121" d="M292.129,28.128h6.787V22.375H300.7V36.655h-1.786V29.792h-6.787v6.863h-1.786V22.375h1.786Z" transform="translate(-290.343 -21.69)" fill="#fff"/>
  <path id="Path_122" data-name="Path 122" d="M315.485,30.438l4.5,6.216h-2.163l-4.2-6.038h-.74v6.038H311.1V22.375h2.166a16.716,16.716,0,0,1,2.158.115,4.331,4.331,0,0,1,1.605.543,3.581,3.581,0,0,1,1.008.882,4.083,4.083,0,0,1,.869,2.528,4.315,4.315,0,0,1-.239,1.443,3.989,3.989,0,0,1-.7,1.227,3.667,3.667,0,0,1-1.076.888,3.971,3.971,0,0,1-1.406.438m-2.6-6.473v5.172h.564a6.07,6.07,0,0,0,2.742-.536,2.114,2.114,0,0,0,1.049-2.082,2.024,2.024,0,0,0-1.1-2.03,6.511,6.511,0,0,0-2.785-.523Z" transform="translate(-276.956 -21.69)" fill="#fff"/>
  <rect id="Rectangle_35" data-name="Rectangle 35" width="1.786" height="14.279" transform="translate(44.375 0.686)" fill="#fff"/>
  <path id="Path_123" data-name="Path 123" d="M322.2,35.028h7.233v1.628H319.3L326.54,24h-6.214V22.375h9.109Z" transform="translate(-271.669 -21.69)" fill="#fff"/>
  <path id="Path_124" data-name="Path 124" d="M333.253,22.189a7.259,7.259,0,0,1,2.875.589,7.466,7.466,0,0,1,4.019,3.986,7.2,7.2,0,0,1,.59,2.87,7.4,7.4,0,0,1-.582,2.93,7.3,7.3,0,0,1-1.614,2.385,7.381,7.381,0,0,1-2.4,1.573,7.558,7.558,0,0,1-2.887.559,7.478,7.478,0,0,1-3.759-.975,7.349,7.349,0,0,1-3.731-6.471,7.129,7.129,0,0,1,.589-2.856,7.621,7.621,0,0,1,4.035-4.01,7.276,7.276,0,0,1,2.865-.579m0,13.227a5.519,5.519,0,0,0,2.831-.767,5.76,5.76,0,0,0,2.089-2.1,5.671,5.671,0,0,0,.778-2.92,6.1,6.1,0,0,0-.408-2.212,5.5,5.5,0,0,0-3.005-3.114,5.988,5.988,0,0,0-4.566,0,5.546,5.546,0,0,0-1.829,1.258,5.6,5.6,0,0,0-1.184,1.846,5.983,5.983,0,0,0-.411,2.222,5.776,5.776,0,0,0,2.875,5.019,5.532,5.532,0,0,0,2.831.763" transform="translate(-267.499 -21.81)" fill="#fff"/>
  <path id="Path_125" data-name="Path 125" d="M335.813,36.924V21.959L346.531,33.2V22.645h1.786V37.506L337.6,26.278V36.924Z" transform="translate(-261.019 -21.959)" fill="#fff"/>
</svg>
