<?xml version="1.0" encoding="UTF-8"?>
<svg id="Layer_1" xmlns="http://www.w3.org/2000/svg" version="1.1" viewBox="0 0 50.78 18.68">
  <!-- Generator: Adobe Illustrator 30.3.0, SVG Export Plug-In . SVG Version: 2.1.3 Build 182)  -->
  <defs>
    <style>
      .st0 {
        fill: #fff;
      }
    </style>
  </defs>
  <path id="Path_158" class="st0" d="M5.57.25l3.73,12.82h.14L13.17.25h5.57l-6,18.18h-6.75L0,.25h5.57ZM36.33,7.07h-5.01c-.03-.39-.12-.77-.28-1.13-.15-.33-.36-.63-.62-.87-.28-.25-.6-.45-.95-.57-.41-.14-.84-.21-1.27-.2-.75-.03-1.48.18-2.1.6-.6.43-1.05,1.04-1.3,1.73-.31.87-.46,1.79-.44,2.71-.03.95.12,1.9.45,2.79.25.68.7,1.27,1.3,1.69.61.39,1.33.58,2.05.56.41,0,.83-.05,1.22-.17.34-.11.66-.27.94-.5.27-.22.49-.49.65-.8.17-.33.29-.68.34-1.05l5.01.04c-.07.82-.29,1.61-.65,2.35-.39.82-.93,1.57-1.59,2.2-.73.7-1.59,1.25-2.53,1.62-1.12.43-2.31.64-3.51.61-1.56.03-3.11-.34-4.49-1.07-1.33-.72-2.42-1.82-3.13-3.16-.81-1.58-1.21-3.33-1.15-5.1-.06-1.78.35-3.54,1.17-5.12.73-1.33,1.82-2.43,3.16-3.15C24.98.35,26.51-.02,28.05,0c1.07-.01,2.14.15,3.17.47.93.29,1.79.75,2.54,1.37.73.61,1.33,1.36,1.76,2.22.46.94.74,1.96.81,3.01Z"/>
</svg>