<svg id="Group_26" data-name="Group 26" xmlns="http://www.w3.org/2000/svg" width="35.4" height="35.236" viewBox="0 0 35.4 35.236">
  <path id="Path_104" data-name="Path 104" d="M234.706,50.056h35.4V14.82h-35.4Zm20.385-7.283-7.385-7.958-1.647,10.3-10.03-10.929V28.7l7.585,8.382,1.895-10.229,6.736,7.135,1.1-5.878,3.842-1.047Zm11.5-8.167c-6.346,4.041-9.212-2.248-9.212-2.248l3.432-1.184c.622,1.464,2.348,1.405,3.311.9a2.349,2.349,0,0,0,.763-2.989,2.119,2.119,0,0,0-2.308-1.2,10,10,0,0,0-1.9.494l-2.064.711.57-3.968-5.532,1.467.468-3.955,9.648-2.874-.944,4.735c6.038-.723,7.858,7.513,3.773,10.113" transform="translate(-234.706 -14.82)" fill="#fff"/>
</svg>
