<svg id="Group_28" data-name="Group 28" xmlns="http://www.w3.org/2000/svg" width="40.7" height="33.091" viewBox="0 0 40.7 33.091">
  <path id="Path_92" data-name="Path 92" d="M423.418,16.846a2.907,2.907,0,0,1,1.074.212l-.406-1.9c-.5-2.256-1.26-2.819-3.282-2.819s-2.783.6-3.243,2.819l-.339,1.688Z" transform="translate(-393.684 -12.303)" fill="#fff"/>
  <path id="Path_93" data-name="Path 93" d="M416,16.846l-.5-2.064c-.382-1.653-1.3-2.443-2.63-2.443a2.508,2.508,0,0,0-2.557,2.594,5.538,5.538,0,0,0,.228,1.391l.15.522H416Z" transform="translate(-396.733 -12.303)" fill="#fff"/>
  <path id="Path_94" data-name="Path 94" d="M429.081,12.314c-1.182,0-2.136.827-2.517,2.368l-2.823,11.876-.206-.957v7.405c.153.007.3.019.473.019,2.022,0,2.632-.414,3.318-2.782l4.005-14.059a5.972,5.972,0,0,0,.267-1.466,2.269,2.269,0,0,0-2.516-2.406" transform="translate(-390.898 -12.314)" fill="#fff"/>
  <path id="Path_95" data-name="Path 95" d="M424.095,18.2h0a2.788,2.788,0,0,0-1.829-2.586l1.829,8.53Z" transform="translate(-391.458 -10.858)" fill="#fff"/>
  <path id="Path_96" data-name="Path 96" d="M418.532,15.466h-4.276l2.328,9.7Z" transform="translate(-394.993 -10.923)" fill="#fff"/>
  <path id="Path_97" data-name="Path 97" d="M424.884,28.083c-.223,0-.388.257-.483.613h-.011v-.267c0-.209-.089-.346-.3-.346s-.3.137-.3.346v2.24c0,.262.127.382.326.382s.323-.12.323-.382v-1.4a.355.355,0,0,1,.365-.386.358.358,0,0,0,.405-.382c0-.288-.144-.414-.319-.414" transform="translate(-390.788 -5.355)" fill="#fff"/>
  <path id="Path_98" data-name="Path 98" d="M426.561,27.432c-.2,0-.323.121-.323.382V28.7h-.01a.639.639,0,0,0-.574-.33c-.585,0-.69.523-.69,1.105v.758c0,.581.105,1.1.69,1.1a.615.615,0,0,0,.574-.329h.01a.315.315,0,0,0,.323.329c.2,0,.324-.12.324-.382V27.814c0-.261-.127-.382-.324-.382m-.323,2.685c0,.4-.069.692-.323.692s-.272-.272-.272-.744v-.372c0-.621.059-.8.277-.8.153,0,.319.115.319.686Z" transform="translate(-390.267 -5.642)" fill="#fff"/>
  <path id="Path_99" data-name="Path 99" d="M430.758,28.852l-2.747-11.84-2.594,11.84c-.494,2.329-1.144,2.78-3.357,2.78-2.174,0-2.708-.487-3.355-2.78l-3.818-13.386H403.792a2.981,2.981,0,0,0-1.489.4l0,0a2.973,2.973,0,0,0-.6.455h0a2.735,2.735,0,0,0-.812,1.939V41.214h0a2.828,2.828,0,0,0,2.481,2.764,2.907,2.907,0,0,0,.421.035h26.869a2.968,2.968,0,0,0,1.49-.4h0l0,0a2.94,2.94,0,0,0,.6-.457h0a2.734,2.734,0,0,0,.813-1.939v-9.6c-1.688-.089-2.319-.7-2.808-2.764m-10.422,5.285L419.9,36.22c-.055.267-.127.4-.437.4s-.4-.161-.461-.476l-.228-1.178h-.01l-.246,1.3a.388.388,0,0,1-.43.35c-.265,0-.378-.125-.441-.43l-.435-2.025a.807.807,0,0,1-.02-.187.3.3,0,0,1,.329-.326c.223,0,.319.151.35.378l.265,1.753h.012l.271-1.606c.059-.356.127-.525.35-.525.128,0,.261.068.3.293l.362,1.838h.01L419.709,34c.037-.235.154-.346.345-.346a.3.3,0,0,1,.3.321.752.752,0,0,1-.022.166m1.327,1.977a.284.284,0,0,0,.252-.291c.009-.278.138-.342.318-.342s.329.063.329.314a.8.8,0,0,1-.882.822c-.882,0-.987-.466-.987-1.186v-.592c0-.724.105-1.189.987-1.189.674,0,.9.373.9,1.116,0,.257-.033.455-.362.455h-.849v.288c0,.339.025.605.29.605m3.374-.6c0,.581-.105,1.1-.69,1.1a.611.611,0,0,1-.574-.329h-.012a.315.315,0,0,1-.323.329c-.2,0-.324-.12-.324-.382V33.1c0-.262.128-.383.324-.383s.323.121.323.383v.884h.012a.64.64,0,0,1,.574-.33c.585,0,.69.525.69,1.105Zm2.169,1.1a.315.315,0,0,1-.34-.362l-.01.006a.618.618,0,0,1-.589.356c-.383,0-.67-.225-.67-.76a.827.827,0,0,1,.463-.852l.578-.3a.33.33,0,0,0,.208-.3.255.255,0,0,0-.249-.282c-.225,0-.293.111-.32.334-.014.125-.137.2-.307.2-.144,0-.34-.068-.34-.262,0-.491.4-.754.9-.754.865,0,.96.378.96.839v1.454c0,.183.037.334.037.424,0,.167-.115.251-.323.251m3.877-2.481-.437,2.083c-.052.267-.127.4-.435.4s-.4-.161-.463-.476l-.228-1.178h-.011l-.244,1.3a.391.391,0,0,1-.431.35c-.265,0-.376-.125-.44-.43l-.437-2.025a.891.891,0,0,1-.02-.187.3.3,0,0,1,.33-.326c.222,0,.319.151.35.378l.265,1.753h.01l.271-1.606c.058-.356.127-.525.35-.525.127,0,.259.068.3.293l.36,1.838h.01L430.455,34c.039-.235.156-.346.346-.346a.3.3,0,0,1,.3.321.818.818,0,0,1-.019.166m1.923,2.481a.315.315,0,0,1-.34-.362l-.012.006a.615.615,0,0,1-.59.356c-.38,0-.669-.225-.669-.76a.827.827,0,0,1,.463-.852l.578-.3a.328.328,0,0,0,.208-.3.253.253,0,0,0-.249-.282c-.223,0-.293.111-.318.334-.016.125-.137.2-.309.2-.143,0-.339-.068-.339-.262,0-.491.4-.754.9-.754.865,0,.961.378.961.839v1.454c0,.183.036.334.036.424,0,.167-.115.251-.323.251" transform="translate(-400.891 -10.923)" fill="#fff"/>
  <path id="Path_100" data-name="Path 100" d="M415.665,28.813c0-.215-.069-.381-.283-.381s-.281.166-.281.381v.236h.564Z" transform="translate(-394.62 -5.201)" fill="#fff"/>
  <path id="Path_101" data-name="Path 101" d="M417.078,28.45c-.154,0-.319.115-.319.686v.533c0,.4.069.69.324.69.238,0,.271-.271.271-.742v-.373c0-.621-.058-.794-.277-.794" transform="translate(-393.888 -5.193)" fill="#fff"/>
  <path id="Path_102" data-name="Path 102" d="M418.5,29.774c0,.215.091.334.229.334.21,0,.34-.231.34-.528v-.5l-.229.159c-.287.2-.34.3-.34.539" transform="translate(-393.118 -4.917)" fill="#fff"/>
  <path id="Path_103" data-name="Path 103" d="M422.528,29.774c0,.215.091.334.229.334.21,0,.339-.231.339-.528v-.5l-.228.159c-.287.2-.34.3-.34.539" transform="translate(-391.342 -4.917)" fill="#fff"/>
</svg>
