<svg xmlns="http://www.w3.org/2000/svg" xmlns:xlink="http://www.w3.org/1999/xlink" width="500" height="300" viewBox="0 0 500 300">
  <defs>
    <clipPath id="clip-logo_28">
      <rect width="500" height="300"/>
    </clipPath>
  </defs>
  <g id="logo_28" clip-path="url(#clip-logo_28)">
    <g id="Group_43" data-name="Group 43" transform="translate(140.899 94.197)">
      <path id="Path_228" data-name="Path 228" d="M871.658,317.71h4.6V296.819h-4.6Zm-9.1-7.788a6.542,6.542,0,0,1-1.86,5.2v2.592a7.936,7.936,0,0,0,6.452-7.52V296.819h-4.589Zm18.108,7.788h4.6V296.819h-4.6Zm-29.253-2.239a8.938,8.938,0,0,0,1.643-1.26,6.794,6.794,0,0,0,1.916-3.062H850.4a5.711,5.711,0,0,1-1.07,2.478,8.9,8.9,0,0,1-1.925,1.845h-1.9V310.1H855.94v-2.283H845.506v-3.242h6.452a16.709,16.709,0,0,0,4.491,1.932V304.29a14.673,14.673,0,0,1-3.636-3.56,22.5,22.5,0,0,1-2.178-3.913H836.014a22.666,22.666,0,0,1-2.156,3.913,14.874,14.874,0,0,1-3.636,3.559v2.216a16.889,16.889,0,0,0,4.477-1.932h6.461v3.242H830.623v2.277h10.537v5.373h-1.91a8.505,8.505,0,0,1-1.916-1.845,5.613,5.613,0,0,1-1.092-2.478H831.68a6.716,6.716,0,0,0,1.905,3.063,9,9,0,0,0,1.654,1.26h-4.715c-.038.338-.4,2.277-.4,2.277h26.383s-.338-1.936-.387-2.277Zm-13.835-13.179a11.643,11.643,0,0,0,2.239-3.006h7.029a11.341,11.341,0,0,0,2.239,3.007ZM674.564,309.9c0,3.165-1.442,4.043-3.754,4.043a11.078,11.078,0,0,1-2.816-.372l-.611,3.7a16.73,16.73,0,0,0,4,.475c5.355,0,8.661-2,8.661-7.782V297.153h-5.473Zm9.588,7.526h5.529v-20.28h-5.529Zm24.952-7.374-8.655-12.9h-6.418v20.276h5.048V303.41l9.3,14.021h5.769V297.155H709.1Zm110,0-8.666-12.9H804v20.276h5.059V303.41l9.311,14.021h5.78V297.155H819.1Zm-88.9-9.443a13.566,13.566,0,0,1,4.612.763l1.119-3.647a16.645,16.645,0,0,0-6-.9c-7.345,0-13.273,3.853-13.273,10.779,0,5.762,4.327,10.15,12.734,10.15a18.582,18.582,0,0,0,6.248-.9l-.835-3.582a16.1,16.1,0,0,1-4.574.672c-4.925,0-7.793-2.554-7.793-6.62,0-4.52,3.389-6.716,7.755-6.716m22.295,4.345h-9.06v-7.8H737.9V317.44h5.529v-8.476h9.06v8.476h5.474V297.164h-5.474Zm22.387,3.868c0,3.582-1.583,5.272-4.459,5.272-2.828,0-4.415-1.773-4.415-5.272V297.162H760.5V308.48c0,6.461,3.607,9.284,9.743,9.284,6.342,0,10.13-2.964,10.13-9.219V297.162h-5.491Zm16.7-11.675h-3.56l-7.531,20.276h5.762a20.779,20.779,0,0,1,8.225-6.779c1.184,3.51,2.281,6.768,2.281,6.768h5.917l-7.558-20.276Zm-2.991,13.551s2.881-8.283,2.991-8.491c.1.224,1.2,3.394,2.342,6.79a24.943,24.943,0,0,0-5.333,1.7" transform="translate(-667.382 -206.798)"/>
      <path id="Path_229" data-name="Path 229" d="M671.059,335.867l8.171,14.119a224.883,224.883,0,0,1,161.654-.125l7.918-13.687a74.3,74.3,0,0,0-8.11-3.6,212.49,212.49,0,0,0-141.837-.2c-.224.087-.327-.022-.114-.1a194.266,194.266,0,0,1,82.038-18.055,135.214,135.214,0,0,1,46.083,8.2c.562.2.425-.17.2-.289l-34.525-21.491c-.687,0-1.375-.022-2.064-.022a185.51,185.51,0,0,0-63.625,11.162c-.289.081-.224-.11-.121-.163,15.4-7.853,33.045-14.18,50.99-15.554a35.289,35.289,0,0,1,7.242-.137c.1,0,.049-.132.049-.132L760,280.321Z" transform="translate(-650.987 -280.321)"/>
    </g>
  </g>
</svg>
