<svg xmlns="http://www.w3.org/2000/svg" xmlns:xlink="http://www.w3.org/1999/xlink" width="500" height="300" viewBox="0 0 500 300">
  <defs>
    <clipPath id="clip-logo_20">
      <rect width="500" height="300"/>
    </clipPath>
  </defs>
  <g id="logo_20" clip-path="url(#clip-logo_20)">
    <g id="Group_24" data-name="Group 24" transform="translate(117.389 105.454)">
      <path id="Path_451" data-name="Path 451" d="M246.517,164.763c0,4.913,0,8.758.236,10.9.127,1.486.391,2.611,1.721,2.825a16.081,16.081,0,0,0,2.2.207c.579,0,.763.144.763.4,0,.367-.3.511-.975.511-2.806,0-5.58-.144-6.726-.144s-3.936.144-5.636.144c-.607,0-.93-.1-.93-.511,0-.259.191-.4.659-.4a6.358,6.358,0,0,0,1.613-.207c.89-.207,1.1-1.333,1.281-2.825.207-2.147.207-5.992.207-10.9v-9c0-7.783,0-9.229-.075-10.865-.087-1.74-.436-2.559-1.912-2.926a9.093,9.093,0,0,0-1.721-.144c-.443,0-.751-.1-.751-.4,0-.419.351-.506,1.022-.506,1.137,0,2.446.047,3.588.047,1.142.04,2.152.087,2.778.087,1.681,0,10.674,0,11.691-.047a6.51,6.51,0,0,0,1.813-.2c.271-.1.506-.315.723-.315.172,0,.287.219.287.471,0,.351-.2.97-.351,2.3-.035.506-.132,3.531-.2,4.16-.052.4-.16.706-.471.706s-.4-.259-.443-.826a5.972,5.972,0,0,0-.259-1.952,3.084,3.084,0,0,0-2.938-1.533l-6.813-.148c-.252,0-.391.148-.391.706v12.8c0,.3.045.454.311.454l5.671-.047c.751,0,1.365,0,1.987-.057a2.288,2.288,0,0,0,1.928-.918c.2-.316.28-.516.551-.516.188,0,.264.16.264.471s-.235,1.589-.344,3.181c-.087,1.022-.191,3.374-.191,3.732,0,.471,0,.975-.436.975-.271,0-.351-.355-.351-.706a6.12,6.12,0,0,0-.271-1.589,2.653,2.653,0,0,0-2.272-1.836c-1.09-.16-5.784-.16-6.538-.16-.235,0-.311.1-.311.471Z" transform="translate(-236.474 -139.277)"/>
      <path id="Path_452" data-name="Path 452" d="M253.343,155.443c0-7.769,0-9.224-.087-10.858-.075-1.733-.436-2.559-1.916-2.915a7.73,7.73,0,0,0-1.728-.148c-.471,0-.73-.1-.73-.471s.292-.471.965-.471c2.354,0,5.13.139,6.072.139,1.493,0,4.857-.139,6.255-.139a12.678,12.678,0,0,1,8.139,2.2,9.333,9.333,0,0,1,3,7.02c0,3.788-1.361,7.261-5.848,11.461,3.943,5.74,7,10.291,9.631,13.464a8.593,8.593,0,0,0,4.944,3.489,7.1,7.1,0,0,0,1.229.144c.339,0,.534.144.534.4,0,.419-.311.516-.85.516H278.76a8,8,0,0,1-4.746-.975,23.154,23.154,0,0,1-6.067-7.52c-1.785-2.813-3.788-6.291-4.379-7.063a.873.873,0,0,0-.81-.363l-3.835-.108c-.235,0-.355.108-.355.407v.706c0,4.77,0,8.81.207,10.961.148,1.476.4,2.611,1.745,2.8a16.642,16.642,0,0,0,2.164.212c.339,0,.534.144.534.4,0,.363-.311.516-.9.516-2.547,0-5.824-.155-6.5-.155-.85,0-3.621.155-5.389.155-.591,0-.9-.155-.9-.516,0-.259.188-.4.706-.4a5.806,5.806,0,0,0,1.589-.212c.878-.188,1.1-1.325,1.3-2.8.207-2.152.207-6.192.207-10.917Zm5.234,4.047c0,.556.087.751.384.918a10.358,10.358,0,0,0,3.364.516,3.969,3.969,0,0,0,3.145-.878,9.669,9.669,0,0,0,2.618-7.673c0-7.265-4.143-9.361-6.778-9.361a8.923,8.923,0,0,0-2.354.188c-.3.108-.384.315-.384.706Z" transform="translate(-177.654 -138.953)"/>
      <path id="Path_453" data-name="Path 453" d="M269.157,163.354c0-7.376,0-8.734-.08-10.286-.068-1.648-.414-2.423-1.785-2.766a8.191,8.191,0,0,0-1.648-.139c-.471,0-.723-.1-.723-.435s.292-.436.942-.436c2.2,0,4.85.144,5.74.144,1.441,0,4.614-.144,5.923-.144a11.95,11.95,0,0,1,7.724,2.084,8.84,8.84,0,0,1,2.858,6.63c0,3.6-1.3,6.9-5.528,10.893,3.731,5.415,6.618,9.744,9.092,12.753a8.141,8.141,0,0,0,4.708,3.3,5.923,5.923,0,0,0,1.165.155c.351,0,.511.144.511.391,0,.384-.311.471-.822.471h-3.972a7.409,7.409,0,0,1-4.487-.942,21.9,21.9,0,0,1-5.751-7.129c-1.681-2.658-3.616-5.956-4.16-6.693a.822.822,0,0,0-.775-.339l-3.64-.092c-.235,0-.344.092-.344.379v.69c0,4.518,0,8.346.219,10.382.127,1.413.367,2.463,1.629,2.663a14.909,14.909,0,0,0,2.06.2c.323,0,.5.144.5.391,0,.339-.3.471-.831.471-2.439,0-5.556-.144-6.164-.144-.822,0-3.465.144-5.149.144-.523,0-.815-.144-.815-.471,0-.235.16-.391.659-.391a5.515,5.515,0,0,0,1.509-.2c.826-.2,1.034-1.257,1.205-2.663.212-2.036.212-5.865.212-10.342Zm4.958,3.84c0,.527.085.706.372.866a9.652,9.652,0,0,0,3.209.471,3.708,3.708,0,0,0,2.966-.815,9.212,9.212,0,0,0,2.486-7.277c0-6.882-3.943-8.89-6.411-8.89a8.476,8.476,0,0,0-2.251.207c-.287.108-.372.275-.372.683Z" transform="translate(-101.649 -97.699)"/>
      <path id="Path_454" data-name="Path 454" d="M274.56,163.659c0-7.369,0-8.73-.12-10.286-.064-1.648-.414-2.423-1.792-2.755a7.019,7.019,0,0,0-1.617-.148c-.471,0-.734-.087-.734-.436s.315-.436.942-.436c1.109,0,2.343.057,3.409.057,1.078.04,2.048.087,2.634.087,1.342,0,9.695,0,10.481-.047a16.342,16.342,0,0,0,1.8-.287,3.244,3.244,0,0,1,.69-.207c.212,0,.236.207.236.454,0,.323-.207.906-.327,3.138-.064.471-.148,2.623-.235,3.2,0,.235-.1.539-.419.539s-.367-.235-.367-.678a6.107,6.107,0,0,0-.235-1.756c-.3-.866-.706-1.457-2.825-1.752-.706-.092-5.125-.179-5.963-.179-.207,0-.3.139-.3.471V164.93c0,.323.04.523.3.523.93,0,5.756,0,6.733-.092s1.629-.235,2-.73c.3-.384.447-.631.666-.631.179,0,.315.1.315.4s-.184,1.057-.339,3.531c-.052.986-.2,2.915-.2,3.265s0,.923-.362.923c-.283,0-.372-.207-.372-.443a13.159,13.159,0,0,0-.16-1.752,2.354,2.354,0,0,0-2.375-1.883c-.786-.115-4.944-.148-5.952-.148-.212,0-.252.2-.252.471v3.833c0,1.648-.045,6.121,0,7.508.092,3.352.775,4.08,5.057,4.08a9.331,9.331,0,0,0,3.932-.574c1.114-.586,1.608-1.6,1.883-3.588.087-.546.172-.73.471-.73s.316.4.316.878a40.125,40.125,0,0,1-.546,5.377c-.28,1.25-.659,1.25-2.255,1.25-3.157,0-5.453-.092-7.277-.139-1.8-.092-3.11-.139-4.351-.139-.471,0-1.394,0-2.387.047-.975,0-2.067.092-2.91.092-.534,0-.826-.139-.826-.471,0-.235.16-.384.659-.384a5.5,5.5,0,0,0,1.516-.207c.833-.188,1.045-1.25,1.205-2.663.235-2.027.235-5.86.235-10.331Z" transform="translate(-76.168 -98.009)"/>
      <path id="Path_455" data-name="Path 455" d="M278.593,163.332c0-7.369,0-8.73-.092-10.286-.075-1.648-.494-2.467-1.413-2.714a5.365,5.365,0,0,0-1.509-.188c-.431,0-.694-.087-.694-.494,0-.28.367-.379,1.017-.379,1.608,0,4.238.144,5.457.144,1.045,0,3.548-.144,5.125-.144.551,0,.873.1.873.379,0,.407-.235.494-.647.494a5.811,5.811,0,0,0-1.281.148c-1.118.235-1.464,1.062-1.544,2.755-.092,1.556-.092,2.915-.092,10.286v8.546c0,4.709,0,8.541.172,10.625.127,1.314.419,2.18,1.676,2.371a13.8,13.8,0,0,0,2.14.207c.471,0,.666.139.666.384,0,.344-.332.471-.782.471-2.762,0-5.415-.139-6.554-.139-.975,0-3.6.139-5.285.139-.539,0-.866-.139-.866-.471,0-.235.188-.384.695-.384a5.7,5.7,0,0,0,1.526-.207c.822-.188,1.067-1.005,1.2-2.427.207-2.027.207-5.848.207-10.566Z" transform="translate(-54.408 -97.682)"/>
      <path id="Path_456" data-name="Path 456" d="M289.556,152.556l-6.255.2c-2.434.1-3.437.332-4.075,1.394a7.114,7.114,0,0,0-.706,1.7c-.08.391-.219.591-.471.591s-.363-.264-.363-.782c0-.775.8-5.194.895-5.584.115-.631.252-.918.5-.918.32,0,.751.471,1.8.579a36.994,36.994,0,0,0,4.207.252h16.628a16.251,16.251,0,0,0,2.882-.252c.643-.144.993-.252,1.142-.252.287,0,.344.3.344,1.033,0,1.015-.132,4.367-.132,5.624-.04.471-.115.791-.363.791-.351,0-.443-.235-.471-.975l-.045-.546c-.08-1.262-1.222-2.623-4.958-2.722l-5.3-.139v19.887c0,4.473,0,8.3.207,10.389.132,1.361.4,2.411,1.636,2.611a13.877,13.877,0,0,0,2.14.207c.471,0,.69.139.69.384,0,.344-.344.471-.81.471-2.771,0-5.415-.139-6.592-.139-.97,0-3.6.139-5.281.139-.546,0-.838-.139-.838-.471,0-.235.155-.384.659-.384a5.7,5.7,0,0,0,1.526-.207c.815-.2,1.074-1.25,1.194-2.658.212-2.044.212-5.872.212-10.342Z" transform="translate(-41.157 -98.237)"/>
      <path id="Path_457" data-name="Path 457" d="M252.79,166.067h3.225v1.222H236.6v-1.222h3.272v-9.062h4.944a3.573,3.573,0,0,0,.527-1.067h-8.019v-1.234h8.414a4.188,4.188,0,0,0,.144-1.01h-7.6v-4.238h15.95V153.7h-7.063c-.057.316-.087.586-.2,1.01H255.2v1.234h-8.431c-.184.363-.332.775-.471,1.066h6.491Zm-13.184-13.6h3.586v-1.808h-3.6Zm1.584,6.785h10.3v-1.05h-10.3Zm10.3,1.022h-10.3V161.4h10.3Zm0,2.175h-10.3v1.234h10.3Zm-10.3,3.616h10.3v-1.309h-10.3Zm6.858-15.4H244.5v1.808h3.553Zm1.309,1.808h3.553v-1.808h-3.553Z" transform="translate(-235.877 -96.802)"/>
      <path id="Path_458" data-name="Path 458" d="M257.36,154.22v-1.808H242.845v1.923H241.52v-3.181h7.852a3.874,3.874,0,0,0-1.413-1.118l1.177-.786a6.466,6.466,0,0,1,1.022.942,8.681,8.681,0,0,1,.671.965H258.7v3.061Zm-1.326,14.728V167.79h-11.8v1.292h-1.309v-8.04H257.36v7.908Zm.4-14.21H243.757v-1.222H256.43Zm-12.2,9.132h5.243v-1.6h-5.234Zm5.234,1.13h-5.234v1.561h5.243Zm6.121-5.193H244.651v-3.823H255.6Zm-9.612-1.21h8.275v-1.413h-8.275Zm10.05,3.68h-5.252v1.6h5.252Zm0,2.726h-5.252v1.561h5.252Z" transform="translate(-212.553 -97.778)"/>
      <path id="Path_459" data-name="Path 459" d="M262.4,157.11h2.262v1.281H249.685a19.848,19.848,0,0,1-1.158,8.861,9.233,9.233,0,0,1-1.281,1.987l-1.2-.81A8.56,8.56,0,0,0,247.3,166.4a6.874,6.874,0,0,0,.751-2.394,17.154,17.154,0,0,0,.28-2.933l-.024-3.96h13.815a18.982,18.982,0,0,0-4.579-1.935c-.494.132-.878.379-1.361.546a21.223,21.223,0,0,1-6.411,1.154l-.862-1.241a21.483,21.483,0,0,0,7-.942l-.108-.052a32.7,32.7,0,0,0-5.5-.556l.659-1.2a53.659,53.659,0,0,1,6.467.895,7.4,7.4,0,0,0,1.8-1.325H247.189v-1.269H255.5a6.184,6.184,0,0,0-1.975-1.165l1.281-.763a6.413,6.413,0,0,1,2.107,1.916h7.552v1.269h-3.421a9.161,9.161,0,0,1-1.992,1.8,14.669,14.669,0,0,1,4.132,1.8Zm-12.449,11.065v-1.234h6.91v-2.1h-4.527v-1.2l4.527-.024v-2l-3.835.028a7.433,7.433,0,0,1-1.74,2.211l-1.262-.8a7.145,7.145,0,0,0,2.571-4.259l1.257.563-.32,1.038h3.329v-1.486h1.321v1.509h5.492v1.25h-5.488v1.975l4.833.023v1.177h-4.845v2.084h6.945v1.245Z" transform="translate(-191.108 -97.735)"/>
      <path id="Path_460" data-name="Path 460" d="M269.632,163.36H262.91a11.645,11.645,0,0,0,3.334,2.279,17.423,17.423,0,0,0,4.155,1.177,7.591,7.591,0,0,1-.706,1.13,13.977,13.977,0,0,1-8.391-4.459c-.08,1.785,0,3.788-.028,5.457h-1.389v-5.429a.113.113,0,0,0-.068-.023,16.757,16.757,0,0,1-8.322,4.5l-.706-1.137a16.2,16.2,0,0,0,7.093-3.341l-6.255-.04v-1.285h8.214l.028-1.413H253.3v-1.21h6.543v-1.349h-7.576v-1.205h5.069a8.133,8.133,0,0,0-1.968-1.544l1.038-.706-5.029-.035v-1.262h6.611l.017-4.143h1.361l-.016,4.143,2.387.024v-4.2h1.372v4.172h6.646v1.222h-5.441a9.757,9.757,0,0,0,.914.631,8.6,8.6,0,0,1-1.648,1.6l5.12.056v1.25h-7.432v1.337h6.324v1.262h-6.251v1.372h8.322ZM256.6,152.312a4.606,4.606,0,0,1-1.073.763,9.344,9.344,0,0,0-2.486-2.4c.3-.28.647-.471.97-.742a13.4,13.4,0,0,1,1.429,1.1,7.108,7.108,0,0,1,1.158,1.274m0,2.371a13.024,13.024,0,0,1,2.383,2.291l2.915.024a10.939,10.939,0,0,0,1.963-2.312Zm11.392-4.238a11.185,11.185,0,0,1-2.411,2.578h-.1a12.581,12.581,0,0,0-1.05-.706,10.185,10.185,0,0,0,2.538-2.474h.092Z" transform="translate(-168.648 -97.59)"/>
      <path id="Path_461" data-name="Path 461" d="M258.709,169.074V156.646a15.615,15.615,0,0,1-2.055,3.15l-1.177-.855a17.016,17.016,0,0,0,2.783-4.139l.148-.259a37.832,37.832,0,0,0,1.968-5l1.314.506a37.912,37.912,0,0,1-1.625,4.259v14.773Zm16.362-16.48v1.281h-13.81v-1.281h6.858a9.47,9.47,0,0,0-2.571-2.531l.958-.8.155.068a9.356,9.356,0,0,1,2.519,2.531l-.65.73Zm-1.7,4.6H262.514v-1.245h10.858Zm0,3.232H262.53V159.16h10.841Zm-9.182,8.61h-1.354v-6.491h10.215v6.446h-1.373v-1.262H264.19Zm0-2.59h7.5v-2.634h-7.5Z" transform="translate(-146.408 -97.703)"/>
      <path id="Path_462" data-name="Path 462" d="M263.286,149.232a6.29,6.29,0,0,1,2.14,2.514c-.3.259-.695.443-1,.73l3.88.024v1.337l-8.1-.024V152.5l4.08-.024a4.451,4.451,0,0,0-.8-1.349,6.214,6.214,0,0,0-1.309-1.154Zm4.144,7.329h-6.3v-1.229h6.279Zm.063,2.945H261.13V158.3l6.326-.024Zm-.435,1.945v7.063h-1.292V167.12H262.9v1.446h-1.326l-.016-7.105Zm-1.309,1.285h-2.87v3.105h2.87Zm13.958-3.8c-1.98.179-3.936.363-5.886.516l.016,6.978c.016.235.287.4.523.516,1.057.064,2.119,0,3.2-.024.815-.292.631-1.3.833-2l.075-.831c.431.184.843.431,1.241.619a8.431,8.431,0,0,1-.574,2.479,2.041,2.041,0,0,1-2.032,1.062l-3.046-.024a1.728,1.728,0,0,1-1.457-1.038,2.308,2.308,0,0,1-.179-.923v-6.686c-1.434.12-2.865.3-4.327.443-.024-.471-.1-.8-.148-1.262,1.521-.172,2.99-.235,4.473-.407v-5.573c-.487.024-.958.148-1.469.16l-1.74.12-.843-1.321a19.232,19.232,0,0,0,9.652-2.312l.782,1.017a15.356,15.356,0,0,1-4.958,2.015v5.723l5.784-.494Z" transform="translate(-123.975 -97.863)"/>
      <path id="Path_463" data-name="Path 463" d="M266.688,144.03l-6.592.212c-2.59.1-3.64.355-4.3,1.481a6.154,6.154,0,0,0-.751,1.792c-.087.419-.235.619-.471.619-.311,0-.419-.259-.419-.826,0-.822.855-5.476.942-5.872.155-.683.271-.993.539-.993.363,0,.786.523,1.883.619a38.845,38.845,0,0,0,4.431.235H279.5a17.985,17.985,0,0,0,3.061-.235c.666-.144,1.01-.259,1.177-.259.3,0,.344.311.344,1.085,0,1.066-.12,4.6-.12,5.928-.04.516-.127.822-.4.822-.344,0-.443-.235-.494-1.022l-.045-.574c-.08-1.321-1.293-2.754-5.205-2.853l-5.591-.16v21c0,4.709,0,8.758.235,10.945.115,1.434.391,2.571,1.721,2.773a16.794,16.794,0,0,0,2.255.207c.471,0,.706.139.706.4,0,.372-.344.523-.838.523-2.938,0-5.716-.148-6.962-.148-1.022,0-3.8.148-5.573.148-.574,0-.883-.148-.883-.523,0-.259.172-.4.706-.4a6.617,6.617,0,0,0,1.6-.207c.895-.2,1.158-1.337,1.293-2.813.235-2.147.235-6.192.235-10.9Z" transform="translate(-152.682 -139.523)"/>
      <path id="Path_464" data-name="Path 464" d="M264.317,155.413c0-7.769,0-9.224-.092-10.865-.08-1.733-.436-2.554-1.912-2.922a8.625,8.625,0,0,0-1.716-.144c-.471,0-.751-.1-.751-.454s.3-.459.982-.459c2.343,0,5.113.132,6.458.132,1.057,0,3.844-.132,5.441-.132.659,0,.975.092.975.459s-.275.454-.706.454a6.726,6.726,0,0,0-1.292.144c-1.177.259-1.549,1.137-1.636,2.922-.092,1.648-.092,3.089-.092,10.865v7.162c0,7.428,1.293,10.549,3.449,12.581a7.484,7.484,0,0,0,5.549,2.119,8,8,0,0,0,6.1-2.766c2.434-2.813,2.571-7.428,2.571-12.7v-6.394c0-7.769,0-9.224-.092-10.865-.092-1.733-.431-2.554-1.883-2.922a8.53,8.53,0,0,0-1.608-.144c-.471,0-.735-.1-.735-.454s.3-.459.93-.459c2.239,0,5.029.132,5.081.132.523,0,3.324-.132,5.022-.132.638,0,.942.092.942.459s-.264.454-.782.454a6.737,6.737,0,0,0-1.3.144c-1.177.259-1.556,1.137-1.636,2.922-.087,1.648-.087,3.089-.087,10.865v5.471c0,5.671-.471,11.715-4.184,15.411a12.242,12.242,0,0,1-9.236,3.691,12.916,12.916,0,0,1-9.82-3.531c-2.255-2.354-3.936-6.147-3.936-13.563Z" transform="translate(-125.695 -138.915)"/>
      <path id="Path_465" data-name="Path 465" d="M274.368,173.024c.08,4,.655,5.332,1.556,5.676a6.14,6.14,0,0,0,2.312.372c.471,0,.742.1.742.4,0,.407-.4.511-1.017.511-2.882,0-4.661-.144-5.488-.144-.407,0-2.5.144-4.77.144-.591,0-.986-.04-.986-.511,0-.3.264-.4.683-.4a6.566,6.566,0,0,0,2-.276c1.158-.4,1.321-1.883,1.389-6.335l.384-30.3c0-1.026.139-1.744.591-1.744s.866.666,1.624,1.6c.534.647,7.277,9,13.728,16.414,3.013,3.477,8.989,10.865,9.735,11.668h.235l-.436-22.975c-.068-3.129-.471-4.092-1.526-4.6a6.1,6.1,0,0,0-2.342-.315c-.546,0-.706-.148-.706-.447,0-.419.494-.459,1.13-.459,2.312,0,4.447.132,5.365.132.5,0,2.175-.132,4.351-.132.563,0,1,.04,1,.459,0,.3-.271.447-.782.447a4.583,4.583,0,0,0-1.337.144c-1.245.424-1.589,1.493-1.636,4.362l-.471,32.3c0,1.125-.188,1.584-.586,1.584-.471,0-1.01-.556-1.5-1.125-2.795-3.061-8.459-9.768-13.057-15.037-4.833-5.533-9.728-11.943-10.542-12.908h-.127Z" transform="translate(-93.13 -139.639)"/>
      <path id="Path_466" data-name="Path 466" d="M278.65,155.762c0-7.769,0-9.224-.1-10.865-.092-1.733-.454-2.554-1.9-2.922a8.526,8.526,0,0,0-1.712-.144c-.506,0-.758-.1-.758-.454s.287-.459.958-.459c1.205,0,2.479.047,3.6.047,1.154.045,2.159.087,2.778.087,1.4,0,10.227,0,11.089-.04a14.017,14.017,0,0,0,1.883-.3,4.186,4.186,0,0,1,.706-.212c.235,0,.271.212.271.471a33.4,33.4,0,0,0-.367,3.322c-.035.506-.132,2.762-.219,3.385-.052.235-.12.556-.436.556s-.4-.235-.4-.706a6.358,6.358,0,0,0-.264-1.836c-.315-.923-.751-1.537-2.985-1.86-.746-.1-5.384-.2-6.291-.2-.212,0-.283.148-.283.516V157.1c0,.367.035.567.283.567,1,0,6.072,0,7.089-.1,1.074-.1,1.756-.259,2.147-.782.3-.4.471-.654.706-.654.179,0,.315.1.315.407s-.2,1.13-.363,3.732c-.045,1.034-.184,3.061-.184,3.444s0,.958-.391.958c-.315,0-.407-.2-.407-.454a14.5,14.5,0,0,0-.179-1.853c-.207-1.015-.843-1.792-2.474-1.992-.85-.1-5.212-.148-6.291-.148-.212,0-.235.207-.235.511v4.023c0,1.745-.064,6.451,0,7.939.068,3.531.786,4.3,5.3,4.3a9.888,9.888,0,0,0,4.172-.614c1.13-.626,1.681-1.693,1.992-3.783.075-.567.16-.775.471-.775s.351.414.351.925a45.568,45.568,0,0,1-.574,5.671c-.316,1.337-.706,1.337-2.394,1.337-3.317,0-5.744-.1-7.656-.155-1.883-.1-3.272-.148-4.591-.148-.506,0-1.476,0-2.526.047-1.027,0-2.164.1-3.061.1-.574,0-.862-.148-.862-.523,0-.235.155-.391.706-.391a6.207,6.207,0,0,0,1.6-.212c.878-.2,1.109-1.325,1.274-2.813.235-2.147.235-6.192.235-10.91Z" transform="translate(-57.765 -139.265)"/>
      <path id="Path_467" data-name="Path 467" d="M261.621,140.524a19.858,19.858,0,0,0-6.905,1.3,9.6,9.6,0,0,1-12.753,14.342,20.428,20.428,0,0,0-.563,4.586,20.221,20.221,0,1,0,20.223-20.226" transform="translate(-213.118 -139.134)"/>
      <path id="Path_468" data-name="Path 468" d="M257.145,142.957A9.6,9.6,0,1,0,244.391,157.3a20.2,20.2,0,0,1,12.753-14.342" transform="translate(-215.547 -140.282)"/>
    </g>
  </g>
</svg>
