<svg xmlns="http://www.w3.org/2000/svg" xmlns:xlink="http://www.w3.org/1999/xlink" width="500" height="300" viewBox="0 0 500 300">
  <defs>
    <clipPath id="clip-path">
      <rect id="Rectangle_5" data-name="Rectangle 5" width="245.236" height="82.369" fill="none"/>
    </clipPath>
    <clipPath id="clip-logo_18">
      <rect width="500" height="300"/>
    </clipPath>
  </defs>
  <g id="logo_18" clip-path="url(#clip-logo_18)">
    <g id="Group_10" data-name="Group 10" transform="translate(127.04 108.632)">
      <g id="Group_9" data-name="Group 9" clip-path="url(#clip-path)">
        <path id="Path_79" data-name="Path 79" d="M140.5,19.581a2.085,2.085,0,0,0-2.115,1.846c-.185,8.729-.259,17.264.067,26,.039,1.035.49,2.579,1.4,2.908a14,14,0,0,0,4.848.572l2.849-6.526A35.492,35.492,0,0,1,151.98,36.4l.966-1.654,1.527-2.595,4.93-7.364,4.613-6.6,2.594-3.522L169.6,10.9a42.594,42.594,0,0,0,3.143-4.516c-2.4,1.049-3.968,2.8-5.814,4.523l-2.1,1.964a115.522,115.522,0,0,0-10,10.579l-1.588,1.9-1.248,1.427c-1.85,2.117-3.5,4.227-5.247,6.469-.375.481-1.128,1.116-.9,1.655.285.684,1.073.8,1.954.844l-1.056,1.984c-.267.5-1.734.3-2.181-.041s-.924-1.482-.651-1.969a19.278,19.278,0,0,1,1.951-3l1.978-2.213c.935-1.047,1.74-2.091,2.631-3.248l1.513-1.964,4.273-4.568,3.2-3.818,5.042-5.242,2.553-2.45L170.8,5.984a20.661,20.661,0,0,0,4.323-4.728,2.539,2.539,0,0,1,3.512-.862,3.233,3.233,0,0,1-.893,2.523c-1.221,1.335-1.884,3.026-2.971,4.378l-3.393,4.223-3.042,4.023-2.168,2.505-3.449,4.793-1.276,1.925-4.384,6.792L154.3,36.121l-2.083,3.806c-.849,1.55-1.679,3.013-2.374,4.644l-2.594,6.081c3.062.11,3.088-2.212,4.394-4.537a14.791,14.791,0,0,1-.761,6.259c-2.408.836-4.245-.514-5.111,1.336l-4.082,8.723a7.694,7.694,0,0,1,.523,7.059c-.886,2.209-3.15,3.83-5.661,2.943a4.049,4.049,0,0,1-1.856-1.889c-.337-.759.371-2.136.459-2.919.191-1.683.874-2.333,2.074-3.514l1.865-1.832c1.187-1.167,1.535-3.038,2.313-4.442a23.765,23.765,0,0,0,2.364-5.218l-12.632-.161a3.855,3.855,0,0,1,2.366-.878,9.413,9.413,0,0,0,.891-3.808l.015-25.565a3.111,3.111,0,0,0-.816-2.088,6.118,6.118,0,0,0-2.163-.605l-.631-.078c-.118-.015-.119-.55,0-.55H141.58c.151.086.239.611.068.622Z" transform="translate(-96.452 0)"/>
        <path id="Path_80" data-name="Path 80" d="M482.227,104.466c-9.807-9.1-17.9-18.417-26.7-27.938l.637,23.551a4.05,4.05,0,0,0,.9,2.271,5.053,5.053,0,0,0,2.292.7l.615.087c.11.016.413.323.306.347l-.851.187-9.132.018c-.088-.072-.419-.506-.294-.527l.672-.111a5,5,0,0,0,1.846-.587,3.378,3.378,0,0,0,.768-2.089l.073-29.881a1.4,1.4,0,0,1,.733-1.17l16.538,17.792L480.291,97.6l-.51-24.2a3.345,3.345,0,0,0-.846-2.079,5.453,5.453,0,0,0-2.413-.62l-.69-.039c-.107-.006-.225-.23-.279-.338-.073-.146.528-.31.7-.309l8.667.035h.581c.121,0,.116.529,0,.547l-.642.1a4.955,4.955,0,0,0-1.643.549,3.158,3.158,0,0,0-.625,1.9Z" transform="translate(-332.031 -51.156)"/>
        <path id="Path_81" data-name="Path 81" d="M337.778,89.205,327.615,89.2l-3.425,10.181a2.593,2.593,0,0,0,.32,1.782,3.6,3.6,0,0,0,1.848.55c.521-.109.385.627-.051.586l-8.891.009c-.1,0-.7-.113-.629-.182l.478-.454a4.2,4.2,0,0,0,4.145-2.507l11.85-31.7L344.3,95.568l1.775,3.779c1,1.958,2.578,1.91,4.795,2.782a63.148,63.148,0,0,1-9.333.083l.61-1.419Zm-.634-1.719L332.51,74.525l-4.3,12.992Z" transform="translate(-233.751 -49.779)"/>
        <path id="Path_82" data-name="Path 82" d="M10.783,90.6l-3.354,9.985a3.389,3.389,0,0,0,.106,1.808c.205.422,1.135.652,1.932.718.627-.13.431.66,0,.588L.8,103.714.1,103.6c-.107-.017-.121-.114-.063-.192.574-.781,3.022.438,4.751-3.212l11.13-30.36c.152-.159.515-.556.613-.447l.492.545L27.771,97.8a15.215,15.215,0,0,0,2.548,4.265c.912,1.006,2.315.538,3.644,1.557a91.71,91.71,0,0,1-9.3-.005,2.644,2.644,0,0,0,.41-2.166L20.927,90.6Zm9.53-1.7-4.64-12.966L11.4,88.923Z" transform="translate(0 -51.189)"/>
        <path id="Path_83" data-name="Path 83" d="M266.461,102.928c-3.982,2.423-8.931,1.929-12.857.139-.017-2.635-.435-4.872.677-7.242.058,4.068,2.021,6.516,5.685,6.929,2.733.308,5.556-.489,6.889-3.105a6.914,6.914,0,0,0-1.412-7.927c-2.929-3.024-6.2-4.929-8.69-8.028a9.181,9.181,0,0,1-1.212-9.975c2.511-4.82,9.2-4.689,14.527-3.358l-.361,6.235-1.327-3.321c-1.638-2.474-7.616-3.19-9.91.03a5.344,5.344,0,0,0-.407,5.35c1.578,3.256,6.255,5.607,9.872,9.417,4.107,4.326,3.912,11.581-1.474,14.857" transform="translate(-187.065 -51.331)"/>
        <path id="Path_84" data-name="Path 84" d="M807.459,108.081a30.339,30.339,0,0,1-4.892-4.788L790.616,89.542l.343,15.388c.01.442.211,1.47.578,1.645l2.025.964-6.738-.023,1.707-.782c.365-.167.5-1.118.556-1.612l.2-21.061,16.7,19.058-.269-16.168c-.033-1.977-2.3-.994-2.661-2.062l6.506.07-1.577.85c-.3.163-.436.953-.438,1.4Z" transform="translate(-580.592 -62.026)"/>
        <path id="Path_85" data-name="Path 85" d="M773,246.948l-5.339-7.519-3.909-.174.241,8.23,2.484.945-7.032.04,1.353-.852a2.137,2.137,0,0,0,.526-1.426l.025-17.623a1.545,1.545,0,0,0-.57-1.1l-1.62-.652,8.852-.056a5.125,5.125,0,0,1,4.943,6.133,9.954,9.954,0,0,1-3.23,5.619l5.171,6.936c1.225,1.643,2.545,2.27,4.77,2.91l-3.188.185a4.4,4.4,0,0,1-3.478-1.6m-3.94-17.926c-1.344-1.459-3.537-1.528-5.293-.985l.012,9.763a7.817,7.817,0,0,0,4.625.2c2.267-.794,3.032-6.4.657-8.978" transform="translate(-560.175 -167.328)"/>
        <path id="Path_86" data-name="Path 86" d="M228.861,237.717c-.3.444-1.242.511-2.055.486l-.934-.028c-.232-.007-.24.883-.124.825l.916-.566c.183-.113,1.293,1.239,1.013,1.257l-.894.06-1.042.07c-.276.019-.192.893-.083.977l2.736.271-7.613,1.742-.932-1.879,3.824-.068.042-.917c.022-.476-1.834.164-1.963-.021l-.686-.988,2.715.026-.269-1.439-3.9,1.549,2.485-2.682-1.211.059c-.263.013-.553-.789-.588-.964l3.386.075v-1.076c0-.211-.745-.118-.964-.1l-1.032.085c-.273.023-.532-.636-.7-1.007l2.785.1-.289-1.747,1.144.082c.228.016.248-.326.251-.9l-3.676,0c-.26,0-1.028.321-1.148.1l-.574-1.041,5.515.074-.237-2.887a7.392,7.392,0,0,1,2.515.786,3.157,3.157,0,0,0-.405,2.075l3.241.015-.15-2.773,2.4.716-.529,2.076,2.541-.094c.362-.014.933-.761,1.369-1.239a7.448,7.448,0,0,1,1.781,2.1l-5.619.125,0,1.134c0,.275.725.494.943.592a5.911,5.911,0,0,0-.561,2.745l1.753-.728a5.249,5.249,0,0,1,1.526,1.041,4,4,0,0,0,.195,4.941l1.254-2.279a28.3,28.3,0,0,0,.332,4.675,3.471,3.471,0,0,1-3.912-3l-.19-3.831-.984-.019c-.029,0-1,1.7.25,2.767a1.815,1.815,0,0,1,.408,1.806,1.121,1.121,0,0,1-1.116.006l-.637-.9a9.54,9.54,0,0,1-2.69,2.659l1.68-3.967-1.15-1.231Zm-.04-2.215,1.712.023-.031-2.614-.588-1.918-2.926.034c-.244,1.414-.993,1.132-1.431,2.451-.05.149.428.028.528-.094l.507-.614a6.548,6.548,0,0,1,1.577,1.45l-2.593.214c-.051.349-.055,1.165.191,1.142l.929-.085c.281-.026.8-.732,1.023-.56l.967.738Zm.162.212-.134.306a3.437,3.437,0,0,1-1.692.47l-.531.054c-.094.01-.065.283.027.3l.515.122,1.539.365.138-.106,1.462.192.212-.976-.933.021c-.239.005-.541-.593-.605-.752m-3.686.678-1.992.014a2.115,2.115,0,0,0,2.2,1.285Z" transform="translate(-161.956 -167.687)"/>
        <path id="Path_87" data-name="Path 87" d="M681.879,225.053l-6.974-.007L672.61,232.6c-.113.373-.09,1.35.191,1.5l1.419.78a56.127,56.127,0,0,1-6.909-.006c1.881-.651,2.922-.968,3.48-2.63l7.991-23.788,8.358,23.476c.635,1.784,1.784,2.3,3.741,2.941l-6.413.051.431-.941Zm-.422-1.328-3.189-9.824-2.958,9.832Z" transform="translate(-492.404 -153.822)"/>
        <path id="Path_88" data-name="Path 88" d="M527.491,247.079l-.654-2.008-3.029,3.4-1.193-2.323.279-1.453v-8.205l-.324-2.288,2.778.895-1.117-3.274-2.257.017L521.584,242a8.241,8.241,0,0,1-3.185,6.3l1.072-4.236.4-7.264-.187-6.917,2.884.911,5.234.123-.732-1.258-1.363-2.5a7.43,7.43,0,0,1,2.9,1.157,1.684,1.684,0,0,1,.06,2.579l4.164.059,1.492-1.157a7.066,7.066,0,0,1,1.9,1.964l-11.377.083,1.7,1.106c.361.235.258,1.354.181,1.652a3.89,3.89,0,0,1,1.646.207c1.167.5.267,1.231.27,1.886l.024,5.191-1.933.825-.192-1.184-1.824.079.018,3.54,2.139-.789-.463-1.511c2.152.793,3.229,3.014,2.35,3.826a2.925,2.925,0,0,1-1.277.413m-2.4-9.324c.665.04,1.581.053,1.595-.226l.062-1.236c.024-.47-1.362-.543-1.827-.247-.4.252-.293,1.681.171,1.709m1.641,2.994-.038-2.15-1.965.055.005,2.1Z" transform="translate(-382.523 -167.614)"/>
        <path id="Path_89" data-name="Path 89" d="M691.893,84.667h-4.485c-.008,4.135-.081,7.9.3,12.07.443.674,1.861.872,2.861,1.3l-8.158.051,1.558-.862a2.089,2.089,0,0,0,.592-1.356c.178-7.618.229-15.055-.007-22.695-.031-1.008-1.84-1.055-2.609-1.586l11.5-.056,2.517-.276-.6,4.713c-.668-1.927-1.012-2.914-2.812-2.951l-5.108-.105-.049,10.335,5.521.037a4.659,4.659,0,0,0,2.2-1l-.545,5.256-.816-2.033c-.192-.477-1.326-.844-1.862-.844" transform="translate(-503.201 -52.582)"/>
        <path id="Path_90" data-name="Path 90" d="M886.5,98.507l-.005,8.323c0,2.135,3.646,2.23,6.18,1.448.77-.237,1.018-1.55,1.583-2.483a12.268,12.268,0,0,1-.436,4.157l-7.392-.087-4.617-.071,1.448-.777c.345-.185.567-1.146.568-1.617l.037-17.617c0-.536-.127-1.54-.515-1.7l-1.943-.82,12.323-.106-.563,3.91-.606-1.67c-.137-.378-.964-.729-1.4-.748l-4.651-.2-.018,8.739h4.692a6.43,6.43,0,0,0,2.086-.756l-.493,4.343c-.371-.712-.667-2-1.212-2.025Z" transform="translate(-650.386 -64.31)"/>
        <path id="Path_91" data-name="Path 91" d="M435.636,240.676l-14.752.05-.979.131c-.247.033-.476-.551-.72-1.011l7.009-.04-.013-1.012c0-.2-.623-.283-.826-.271l-3.832.229-.679-1.011,5.337.052-.009-1.582-4.364.112-.665-.964,5.04.008-.023-1.34-6.046.031c-.261,0-.879.244-.992.074l-.652-.98,7.694.011-.006-1.336-3.784.05c-.236,0-.782.312-.881.149l-.6-.991,5.328,0L426,228.093l2.572.781-.375,2.2,3.095-.123c.246-.01.85-.715.981-.791l1.848,1.276a4.6,4.6,0,0,0-.556,1.791l1.523-1.118,1.336,1.87-2.887.078-.014,2.33-1.741.361a3.992,3.992,0,0,0-3.513-.3l0,1.175c0,.088,3.017.783,4.281-.8a5.8,5.8,0,0,1,1.312,1.717l-5.608.069.01,1.221,4.68,0,1.253-.975Zm-4.106-7.516-.012-1.318-3.266,0,0,1.317Zm.008,2.271-.034-1.4h-3.257l0,1.4Z" transform="translate(-308.787 -168.308)"/>
        <path id="Path_92" data-name="Path 92" d="M900.834,246.72a10.143,10.143,0,0,1-7.708-.255,13.623,13.623,0,0,1,.279-4.633c.391,2.645,1.7,4.215,4.284,4.282a4.363,4.363,0,0,0,3.4-1.182,4.2,4.2,0,0,0,.856-3.532c-.289-1.431-1.516-2.488-2.585-3.465l-4.3-3.928c-2.233-2.505-2.067-6.649.853-8.432,2.382-1.454,5.233-.995,7.721-.265l-.339,3.855c-.667-2.185-1.5-3.166-3.62-3.306a4.042,4.042,0,0,0-3.546,1.27,3.493,3.493,0,0,0-.047,3.847c2.09,2.946,6.35,4.348,7.716,8.07,1.071,2.92.068,6.414-2.958,7.674" transform="translate(-658.972 -165.746)"/>
        <path id="Path_93" data-name="Path 93" d="M832.394,244.61a4.008,4.008,0,0,0,.344,1.4c.444.794,1.948.217,2.266,1.117l-7.181-.037,1.448-.828a2.256,2.256,0,0,0,.529-1.428l.021-18.155-4.806.079c-1.306.021-1.615.906-2.624,2.167l.706-4.023,3.317.468,9.124.014,4.029-.252-.241,3.995c-.574-1.247-.857-2.214-2-2.258l-4.952-.191Z" transform="translate(-606.836 -165.956)"/>
        <path id="Path_94" data-name="Path 94" d="M755.258,109.057l2.483.886-7.443.1,1.409-.874a2.345,2.345,0,0,0,.586-1.581l.029-18.183a1.666,1.666,0,0,0-.493-1.138l-1.625-.842,6.838,0-1.613.861c-.3.162-.47.955-.469,1.4l.012,16.441Z" transform="translate(-553.569 -64.505)"/>
        <path id="Path_95" data-name="Path 95" d="M634.378,133.194a1.073,1.073,0,0,1-1.025.194v-63.8l1.024-.008Z" transform="translate(-467.346 -51.346)"/>
        <path id="Path_96" data-name="Path 96" d="M353.76,282.278l-5.982.069a5.517,5.517,0,0,1-2.187.979l-.071-10.387a12.684,12.684,0,0,0,8.282.859l.635-.73c.15-.173.681.244.877.379l.9.616c.236.162-.369.953-.367,1.244l.045,7.526-1.945.789Zm.106-4.6-.01-2.973-6.279.041-.044,2.939Zm-.009,3.743,0-2.935-6.309,0-.012,2.937Z" transform="translate(-254.957 -201.4)"/>
        <path id="Path_97" data-name="Path 97" d="M563.413,261.271l1.731-.286a4.521,4.521,0,0,0-1.254-4.738l.878-4.433-1.7-.1.036,14.537-1.942.593.108-12.317L561,250l2.288.792a1.552,1.552,0,0,0,2.06-.675l2.326,1.342a6.33,6.33,0,0,0-1.163,1.035l-1.742,3.432a10.632,10.632,0,0,1,2.332,3.306,3.162,3.162,0,0,1-2.091,4.1,4.918,4.918,0,0,0-1.6-2.058" transform="translate(-413.958 -184.472)"/>
        <path id="Path_98" data-name="Path 98" d="M323.962,236.171,324,249.26l-1.979.437.055-13.6a21.962,21.962,0,0,1-3.317,3.757,110.653,110.653,0,0,0,4.826-12.33l2.335,1.2c.091.047.348.469.263.525a3.358,3.358,0,0,0-.711.531l-2.366,4.6,1.6.983Z" transform="translate(-235.212 -167.89)"/>
        <path id="Path_99" data-name="Path 99" d="M441.022,284.07l-1.762.628-.559-.8-7.161.119-2.342.673-.038-7.249a13.068,13.068,0,0,0,2.594.833l6.794.034c.272,0,.8-.756,1.025-.7a3.541,3.541,0,0,1,1.079.509l.751.626c.153.127-.43.722-.427.932Zm-6.947-3.276,0-1.621-2.8-.008-.033,1.629Zm4.914,0,.012-1.633-2.939.048-.056,1.6Zm-4.919,2.349,0-1.487-2.831.008v1.48Zm4.927,0-.046-1.484-2.968,0v1.482Z" transform="translate(-316.675 -204.722)"/>
        <path id="Path_100" data-name="Path 100" d="M358.344,240.481l-1.684.791-.615-1a14.372,14.372,0,0,0-3.308.143l-2.463.895-.067-10.6c4.333,2.24,7.026.306,6.726.168l1.1.506a4.943,4.943,0,0,1,.753.563c.152.135-.5.74-.5.966ZM356.3,235.49l.012-2.9-4-.078-.076,2.969Zm.006,3.98-.01-3.207-4.025-.033-.015,3.257Z" transform="translate(-258.415 -170.235)"/>
        <path id="Path_101" data-name="Path 101" d="M234.528,295.144l-.775-1.158-9.268,1.491-1-1.986c1.664-.221,2.72-.707,3.407-2.2l-4.424.138c-.387.028-.874-.68-.953-1.043l14.012.039,1.206-1.239a9.181,9.181,0,0,1,1.971,2.039l-9.065.112a1.319,1.319,0,0,1-.454.864l-2.427,1.337,6.584-.134-1.624-1.718a5.45,5.45,0,0,1,4.51,2.26,1.609,1.609,0,0,1-.2,1.516,1.415,1.415,0,0,1-1.5-.314" transform="translate(-163.453 -213.384)"/>
        <path id="Path_102" data-name="Path 102" d="M418.861,305.547l-1.09.112c-.2.02-.383-.427-.676-1.012l15.13,0,1.351-1.035a5.3,5.3,0,0,1,1.643,1.877Z" transform="translate(-307.771 -224.034)"/>
        <path id="Path_103" data-name="Path 103" d="M237.6,284.2c-.771.011-1.276.19-1.6-.9l7.092-.04,1.3-.969,1.593,1.79Z" transform="translate(-174.142 -208.305)"/>
      </g>
    </g>
  </g>
</svg>
