<svg xmlns="http://www.w3.org/2000/svg" xmlns:xlink="http://www.w3.org/1999/xlink" width="500" height="300" viewBox="0 0 500 300">
  <defs>
    <clipPath id="clip-logo_22">
      <rect width="500" height="300"/>
    </clipPath>
  </defs>
  <g id="logo_22" clip-path="url(#clip-logo_22)">
    <g id="Group_42" data-name="Group 42" transform="translate(150.615 106.361)">
      <path id="Path_2118" data-name="Path 2118" d="M695.086,261.346l-1.306-.468c-9.579-3.237-13.8-4.931-13.73-10.966a9.246,9.246,0,0,1,9.888-9.213c5.462,0,8.408,2.776,9.579,9l.239,1.274h9.966l-.154-1.7c-1.108-13.025-11.129-17.647-19.375-17.647a21.4,21.4,0,0,0-15.239,6,17.558,17.558,0,0,0-4.99,12.881c0,12.988,11.973,16.573,17.068,18.113l1.189.372c6.766,2.177,12.627,4.071,12.627,11.288a10.748,10.748,0,0,1-10.985,10.408c-1.668,0-9.962-.542-11.013-11.231l-.126-1.417H668.634l.052,1.628c.42,12.015,8.974,20.094,21.256,20.094,12.165,0,20.995-8.4,20.995-19.976,0-12.361-9.925-16.16-15.849-18.443" transform="translate(-668.634 -224.08)"/>
      <path id="Path_2119" data-name="Path 2119" d="M718.384,231.831H677.239v9.335h15.433v56.6h10.171v-56.6h15.535Z" transform="translate(-631.566 -223.18)"/>
      <path id="Path_2120" data-name="Path 2120" d="M726.047,273.98a20.76,20.76,0,0,0,8.49-7.249,21.551,21.551,0,0,0,4.028-13.225c0-7.559-3.747-14.886-9.3-18.215-4.354-2.754-13.232-3.4-19.9-3.455H697.757v65.921h10.18v-56.6H711.3c5.791,0,9.217.314,11.871,2.033a13.28,13.28,0,0,1,5.482,10.822,13.885,13.885,0,0,1-4.289,10.428c-2.149,2.134-4.415,2.356-9.091,2.356h-4.935l20.061,30.957h11.416Z" transform="translate(-543.201 -223.169)"/>
      <path id="Path_2121" data-name="Path 2121" d="M692.882,241.147l23.076,43.466-19.525-46.927Z" transform="translate(-564.187 -197.96)"/>
      <path id="Path_2122" data-name="Path 2122" d="M701.562,286.913l18.108-37.936,9.187,17.285L733.3,263l-13.626-32.8L693.42,293.372l-9.766,23.479,70.182-65.837Z" transform="translate(-603.937 -230.2)"/>
    </g>
  </g>
</svg>
