<svg xmlns="http://www.w3.org/2000/svg" xmlns:xlink="http://www.w3.org/1999/xlink" width="500" height="300" viewBox="0 0 500 300">
  <defs>
    <clipPath id="clip-logo_12">
      <rect width="500" height="300"/>
    </clipPath>
  </defs>
  <g id="logo_12" clip-path="url(#clip-logo_12)">
    <g id="Group_35" data-name="Group 35" transform="translate(202.451 102.451)">
      <path id="Path_33" data-name="Path 33" d="M20.6,277.324h94.333V183H20.6Zm62.516-85.391h6.96v6.177h1.14l5.322-6.167h6.853l-6.89,8.23,6.918,12.293H95.728L91.7,205.3H90.076v7.173h-6.96ZM52.326,268.509H45.363v-7.492l-5.681-.023v7.515H32.7V247.983h6.973v7.431h5.69v-7.431h6.964Zm27.9,4.147h-19.3a17.117,17.117,0,0,0,6.686-13.234c0-8.572-17.278-16.031-17.278-16.031s-18.992-6.384-18.992-26.169c0-23.81,26-29.723,26-29.723H73.537a17.5,17.5,0,0,0-4.995,12.755c0,7.637,7.331,11.987,7.331,11.987s3.421,2.191,9.474,5.458S104.2,228.587,104.2,243.391c0,22.254-23.974,29.269-23.974,29.269" transform="translate(-20.6 -183)" fill-rule="evenodd"/>
    </g>
  </g>
</svg>
