<svg xmlns="http://www.w3.org/2000/svg" xmlns:xlink="http://www.w3.org/1999/xlink" width="500" height="300" viewBox="0 0 500 300">
  <defs>
    <clipPath id="clip-path">
      <rect id="Rectangle_1" data-name="Rectangle 1" width="305.904" height="84.883"/>
    </clipPath>
    <clipPath id="clip-logo_11">
      <rect width="500" height="300"/>
    </clipPath>
  </defs>
  <g id="logo_11" clip-path="url(#clip-logo_11)">
    <g id="West_Kowloon_logo" transform="translate(97.522 107.433)">
      <g id="Group_1" data-name="Group 1" clip-path="url(#clip-path)">
        <path id="Path_1" data-name="Path 1" d="M195.622,58.217V55.16a12.869,12.869,0,0,1-3.057.18H176.919l-1.619,2.7h17.264a14.6,14.6,0,0,1,3.057.18M181.954,44.729h9.352c0-.719-.18-1.259-.18-2.338V39.873a8.061,8.061,0,0,1,.18-2.158H179.077c0,.719.18,1.259.18,2.158v2.518a7.411,7.411,0,0,1-.18,2.158,12.8,12.8,0,0,0,2.877.18m0-4.316h6.474v1.978h-6.474Zm4.136,7.913v5.4c.719,0,1.439-.18,2.7-.18H192.2a11.908,11.908,0,0,1,2.7.18c0-.54-.18-1.259-.18-2.338V48.506a10.29,10.29,0,0,1,.18-2.518c-.539,0-1.079.18-2.158.18H186.09v2.158m2.7.18h3.237v2.7h-3.237Zm-12.768-.18v5.4c.719,0,1.439-.18,2.7-.18h3.417a11.908,11.908,0,0,1,2.7.18V46.168h-6.654a6.794,6.794,0,0,1-2.158-.18v2.338m2.7.18h3.057v2.7h-3.057Zm13.128-12.049a17.561,17.561,0,0,1,3.417.18V33.759a18.64,18.64,0,0,1-3.6.18H174.94a16.6,16.6,0,0,1-3.417-.18c0,.9.18,1.8.18,3.237V54.98a21.762,21.762,0,0,1-.18,3.417,19.546,19.546,0,0,1,3.237-.18V36.636h17.085ZM153.54,54.26V48.506a41.291,41.291,0,0,0,9.711-9.711c.36-.36.36-.54.54-.719l-3.057-2.158a19.091,19.091,0,0,1-2.518,3.777,30.974,30.974,0,0,1-4.856,4.856V36.277a18.554,18.554,0,0,1,.18-3.417h-3.6a18.554,18.554,0,0,1,.18,3.417V46.707a24.53,24.53,0,0,1-4.856,2.158V39.873c1.079-2.7,1.439-3.237,1.978-4.856a16.967,16.967,0,0,1,.54-1.619l-3.237-.9a24.1,24.1,0,0,1-2.877,7.014,25.621,25.621,0,0,1-3.956,5.035,11.494,11.494,0,0,1,1.439,3.417,23.4,23.4,0,0,0,2.877-3.777V54.26a22.928,22.928,0,0,1-.18,3.6h3.417a25.326,25.326,0,0,1-.18-3.6V49.225a14.1,14.1,0,0,1,1.8,2.7c1.439-.719,1.978-.9,3.057-1.439v4.5c0,2.518.9,3.057,5.4,3.057,4.676,0,6.114-.36,7.014-1.439.719-.9,1.079-2.7,1.259-6.294a10.386,10.386,0,0,1-3.057-1.079c-.18,3.417-.36,4.5-.719,5.215-.36.54-1.439.54-3.956.54-1.8.36-2.338.18-2.338-.719m-20.861,1.259a27.586,27.586,0,0,1-11.15-5.035,29.624,29.624,0,0,0,3.417-4.856,20.365,20.365,0,0,0,2.158-5.755h1.439a18.555,18.555,0,0,1,3.417.18V37a20.714,20.714,0,0,1-3.6.18h-7.553v-.719a18.554,18.554,0,0,1,.18-3.417h-3.6a18.555,18.555,0,0,1,.18,3.417v.719h-7.733a21.8,21.8,0,0,1-3.6-.18v3.237a20.651,20.651,0,0,1,3.417-.18h1.259a26.7,26.7,0,0,0,2.518,5.935,21.17,21.17,0,0,0,3.417,4.5A26.837,26.837,0,0,1,105.7,55.7a10.528,10.528,0,0,1,1.8,3.057,42.261,42.261,0,0,0,6.114-2.518,21.645,21.645,0,0,0,5.575-3.777c3.057,2.7,6.654,4.5,11.51,6.114a17.818,17.818,0,0,1,1.978-3.057m-13.488-7.194a18.783,18.783,0,0,1-2.7-3.6,17.242,17.242,0,0,1-2.158-4.856h9.352a24.735,24.735,0,0,1-1.978,4.856,10.033,10.033,0,0,1-2.518,3.6M99.768,56.958c.54-1.079.719-2.7,1.079-6.474A6.031,6.031,0,0,1,97.97,49.4a18.93,18.93,0,0,1-.54,5.4c-.18.719-.54.719-1.8.719-1.079,0-1.259,0-1.259-.719h0V42.211a17.485,17.485,0,0,1,.18-3.237c-1.079,0-1.978.18-3.417.18h-2.7l-1.8,3.057h4.316V56.239c0,1.978.719,2.518,4.136,2.518,3.057-.36,4.136-.719,4.676-1.8M86.28,35.557a11.909,11.909,0,0,1,.18-2.7h-3.6a13.648,13.648,0,0,1,.18,2.877v2.877H79.087a19.662,19.662,0,0,1-3.6-.18v3.417a19.662,19.662,0,0,1,3.6-.18h3.6v.719a22.412,22.412,0,0,1-2.158,7.194,14.2,14.2,0,0,1-6.654,6.294,10.971,10.971,0,0,1,2.338,2.7,23.406,23.406,0,0,0,4.136-3.237A19.073,19.073,0,0,0,85.2,46.527a23.363,23.363,0,0,0,.719-4.856c.18-2.158.36-4.856.36-6.114m-21.4,1.079a18.493,18.493,0,0,1,3.237.18V33.579a17.485,17.485,0,0,1-3.237.18H45.817a19.584,19.584,0,0,1-3.417-.18v3.237a18.493,18.493,0,0,1,3.237-.18h5.215v3.237H47.076a15.58,15.58,0,0,1-3.237-.18,20.651,20.651,0,0,1,.18,3.417V55.339a13.647,13.647,0,0,1-.18,2.877,16.516,16.516,0,0,1,3.237-.18V50.3a21.553,21.553,0,0,1,2.158,1.978,9.149,9.149,0,0,0,3.417-3.6c.719-1.439.9-3.057,1.259-5.575v-.54h2.7v5.575c0,1.079.18,1.619.719,1.978.36.36,1.079.36,2.877.36h1.259l1.619-2.7H60.2c-.719,0-.9,0-.9-.54V42.391h4.5V54.98H49.594l-1.619,2.7H63.621a16.516,16.516,0,0,1,3.237.18,18.64,18.64,0,0,1-.18-3.6V42.931a19.584,19.584,0,0,1,.18-3.417,17.485,17.485,0,0,1-3.237.18H59.3V36.456H64.88ZM50.852,42.751v.54a10.369,10.369,0,0,1-1.259,4.676,7.576,7.576,0,0,1-2.518,2.158V42.751Zm5.575-2.877H53.91V36.636h2.518Z" transform="translate(33.851 25.947)"/>
      </g>
      <g id="Group_2" data-name="Group 2" clip-path="url(#clip-path)">
        <path id="Path_2" data-name="Path 2" d="M305.9,35.428V20.5c0-3.777-.54-5.575-2.158-7.194-1.618-1.8-4.5-2.7-8.452-2.7a43.521,43.521,0,0,0-12.049,1.8V35.428h7.733V17.264a14.173,14.173,0,0,1,3.6-.36c2.7,0,3.6,1.079,3.6,3.956V35.608H305.9M278.928,23.019c0-7.733-4.676-12.589-12.229-12.589-7.733,0-12.589,5.035-12.589,13.128,0,7.733,4.676,12.589,12.409,12.589,7.553-.18,12.409-5.035,12.409-13.128m-7.733.18c0,4.316-1.8,6.654-4.676,6.654-3.057,0-4.676-2.518-4.676-6.654,0-4.316,1.8-6.834,4.676-6.834,3.057.18,4.676,2.7,4.676,6.834m-20.142-.18c0-7.733-4.676-12.589-12.229-12.589-7.733,0-12.589,5.035-12.589,13.128,0,7.733,4.676,12.589,12.409,12.589,7.553-.18,12.409-5.035,12.409-13.128m-7.913.18c0,4.316-1.8,6.654-4.676,6.654-3.057,0-4.676-2.518-4.676-6.654,0-4.316,1.8-6.834,4.676-6.834,3.057.18,4.676,2.7,4.676,6.834M214.007,35.428h7.733V0h-7.733Zm-16.545.54a41.551,41.551,0,0,0,10.97-1.619V11.15H200.7V29.314a11.292,11.292,0,0,1-3.417.54c-2.518,0-3.6-1.079-3.6-3.6V11.15h-7.733V26.436a10.885,10.885,0,0,0,.36,2.7,7.793,7.793,0,0,1-3.417.719c-2.338,0-3.417-1.079-3.417-3.417V11.15h-7.733V26.8c0,3.417.54,5.4,2.158,6.834,1.619,1.619,4.136,2.338,7.553,2.338a21.25,21.25,0,0,0,8.632-1.8,14.46,14.46,0,0,0,7.373,1.8M168.148,23.019c0-7.733-4.676-12.589-12.229-12.589-7.733,0-12.589,5.035-12.589,13.128,0,7.733,4.676,12.589,12.409,12.589,7.553-.18,12.409-5.035,12.409-13.128m-7.913.18c0,4.316-1.8,6.654-4.676,6.654-3.057,0-4.676-2.518-4.676-6.654,0-4.316,1.8-6.834,4.676-6.834,3.057.18,4.676,2.7,4.676,6.834m-29.673-5.755L141.352,0h-9.711L121.39,17.624l11.33,17.624h10.431ZM111.14,35.428h8.093V0H111.14V35.428Zm-5.755-17.264,3.777-6.654H98.371V0H90.278V35.428h8.093V18.164Zm-29.853.719a1.374,1.374,0,0,1-.36-.9c0-1.079,1.259-1.619,3.237-1.619A14.228,14.228,0,0,1,84.7,17.984V11.869a15.586,15.586,0,0,0-6.834-1.439c-6.294,0-10.251,2.877-10.251,7.733,0,3.417,1.439,5.215,6.114,7.373l3.057,1.439c.719.36,1.259.9,1.259,1.439,0,1.079-1.079,1.619-3.057,1.619a14.677,14.677,0,0,1-7.373-1.978v6.294a17.69,17.69,0,0,0,7.553,1.439c6.834,0,10.251-2.7,10.251-7.733,0-3.417-1.439-5.215-6.294-7.373-1.259-.54-2.338-1.079-3.057-1.439a2.587,2.587,0,0,1-.54-.36m-11.51,5.935v-1.8c0-7.913-4.136-12.589-11.15-12.589-7.373,0-12.229,5.035-12.229,12.948s4.676,12.409,12.948,12.409a18.33,18.33,0,0,0,9.172-2.338V27.515a13.936,13.936,0,0,1-8.093,2.518c-3.956,0-6.294-1.619-6.654-4.676H63.842Zm-7.014-4.5H48.017c.54-2.7,2.338-4.316,4.856-4.316s3.956,1.439,4.136,4.316M25.537,35.968a41.551,41.551,0,0,0,10.97-1.619V11.15H28.774V29.314a11.292,11.292,0,0,1-3.417.54c-2.518,0-3.6-1.079-3.6-3.6V11.15H14.207V26.436a10.885,10.885,0,0,0,.36,2.7,7.793,7.793,0,0,1-3.417.719c-2.338,0-3.417-1.079-3.417-3.417V11.15H0V26.8c0,3.417.54,5.4,2.158,6.834s4.136,2.338,7.553,2.338a21.25,21.25,0,0,0,8.632-1.8,12.57,12.57,0,0,0,7.194,1.8"/>
      </g>
    </g>
  </g>
</svg>
