<svg xmlns="http://www.w3.org/2000/svg" xmlns:xlink="http://www.w3.org/1999/xlink" width="500" height="300" viewBox="0 0 500 300">
  <defs>
    <clipPath id="clip-logo_29">
      <rect width="500" height="300"/>
    </clipPath>
  </defs>
  <g id="logo_29" clip-path="url(#clip-logo_29)">
    <g id="Group_10" data-name="Group 10" transform="translate(137.125 116.105)">
      <path id="Path_2123" data-name="Path 2123" d="M574.357,56.175a17.725,17.725,0,0,1,13.967,7.3l.289.4h4l-.935-1.466a20.6,20.6,0,1,0-17.32,31.465,20.324,20.324,0,0,0,17.292-9.347l.84-1.432h-3.872l-.293.4a17.446,17.446,0,0,1-13.967,7.109,17.208,17.208,0,0,1,0-34.417M608.7,63.625a15.131,15.131,0,1,0,0,30.262v0a15.131,15.131,0,1,0,0-30.26m0,27.029a11.9,11.9,0,1,1,11.859-11.9,11.571,11.571,0,0,1-11.859,11.9M716.1,68.83a15.336,15.336,0,0,0-11.7-5.214,14.9,14.9,0,0,0-11.073,4.6,15.583,15.583,0,0,0-.074,21,14.879,14.879,0,0,0,11.145,4.664h.044a14.639,14.639,0,0,0,11.6-5.24l.08,4.558h3.315V64.272H716.1ZM704.553,90.654a11.488,11.488,0,0,1-9.024-3.81,12.586,12.586,0,0,1-2.982-8.117,11.847,11.847,0,1,1,12.006,11.909m40.21-26.364h-4.011L733.146,75.6,725.6,64.272h-4.111l9.659,14.416L721.5,93.2h4.111l7.544-11.43,7.606,11.43h4.011l-9.6-14.514Zm-105,14.119a16.743,16.743,0,0,0-5.484-2.206,10.36,10.36,0,0,1-3.97-1.755,3.781,3.781,0,0,1-1.251-2.928c0-.078,0-.16,0-.235a4.51,4.51,0,0,1,4.981-4.43h.126a4.775,4.775,0,0,1,3.233,1.1,4.668,4.668,0,0,1,1.4,3.658v.94h3.319v-.948a7.719,7.719,0,0,0-2.406-5.944,8.5,8.5,0,0,0-5.665-2.043,8.7,8.7,0,0,0-5.827,2.047,7.648,7.648,0,0,0-2.479,5.885,6.83,6.83,0,0,0,2.527,5.539,15.867,15.867,0,0,0,5.45,2.36h.048a9.076,9.076,0,0,1,4.424,1.965,4.883,4.883,0,0,1,1.368,3.609v.17a5.3,5.3,0,0,1-5.535,5.426,6.032,6.032,0,0,1-4.257-1.53,5.757,5.757,0,0,1-1.682-4.355v-.952h-3.267l-.058.9v.578a8.143,8.143,0,0,0,2.859,6.277,9.812,9.812,0,0,0,6.417,2.318,8.681,8.681,0,0,0,8.863-8.6v-.513a7.889,7.889,0,0,0-3.124-6.365m27.059,9.268-16.845-34.1h-4V93.2h3.433V60.109L665.766,93.2h2.057l16.211-33.087.1,33.087h3.409V53.556h-3.922Z" transform="translate(-553.819 -42.401)"/>
      <path id="Path_2124" data-name="Path 2124" d="M614.9,62.983h12.212v9.9H614.9V85.1h-9.91V72.887h-12.2l-.014-9.914h12.212V50.757h9.91Z" transform="translate(-402.322 -50.757)" fill-rule="evenodd"/>
      <path id="Path_2125" data-name="Path 2125" d="M553.9,62.221h1.065V71.8h4.083v1.027H553.9Z" transform="translate(-553.495 -6.179)"/>
      <path id="Path_2126" data-name="Path 2126" d="M553.9,62.221h1.065V71.8h4.083v1.027H553.9Z" transform="translate(-553.495 -6.179)"/>
      <path id="Path_2127" data-name="Path 2127" d="M563.28,62.956V70.8h-.986V69.443a4.427,4.427,0,0,1-1.428,1.163,3.95,3.95,0,0,1-4.562-.822,4.011,4.011,0,0,1-1.187-2.928,3.944,3.944,0,0,1,1.193-2.894,3.87,3.87,0,0,1,2.866-1.217,3.8,3.8,0,0,1,1.755.421,3.891,3.891,0,0,1,1.364,1.231V62.956Zm-4.01.768a3.042,3.042,0,0,0-2.7,1.578,3.259,3.259,0,0,0-.415,1.584,3.362,3.362,0,0,0,.415,1.584,3.13,3.13,0,0,0,1.149,1.179,3.029,3.029,0,0,0,1.544.415,3.134,3.134,0,0,0,1.56-.415,2.853,2.853,0,0,0,1.149-1.135,3.28,3.28,0,0,0,.4-1.6,3.116,3.116,0,0,0-.9-2.268,2.94,2.94,0,0,0-2.2-.914" transform="translate(-548.778 -4.141)"/>
      <path id="Path_2128" data-name="Path 2128" d="M563.28,62.956V70.8h-.986V69.443a4.427,4.427,0,0,1-1.428,1.163,3.95,3.95,0,0,1-4.562-.822,4.011,4.011,0,0,1-1.187-2.928,3.944,3.944,0,0,1,1.193-2.894,3.87,3.87,0,0,1,2.866-1.217,3.8,3.8,0,0,1,1.755.421,3.891,3.891,0,0,1,1.364,1.231V62.956Zm-4.01.768a3.042,3.042,0,0,0-2.7,1.578,3.259,3.259,0,0,0-.415,1.584,3.362,3.362,0,0,0,.415,1.584,3.13,3.13,0,0,0,1.149,1.179,3.029,3.029,0,0,0,1.544.415,3.134,3.134,0,0,0,1.56-.415,2.853,2.853,0,0,0,1.149-1.135,3.28,3.28,0,0,0,.4-1.6,3.116,3.116,0,0,0-.9-2.268,2.94,2.94,0,0,0-2.2-.914" transform="translate(-548.778 -4.141)"/>
      <path id="Path_2129" data-name="Path 2129" d="M561.727,63.8l-.666.666a2.313,2.313,0,0,0-1.574-.778,1.221,1.221,0,0,0-.84.323,1.014,1.014,0,0,0-.351.758,1.118,1.118,0,0,0,.283.728,4.1,4.1,0,0,0,1.2.826,4.716,4.716,0,0,1,1.544,1.125,2.071,2.071,0,0,1,.4,1.241,2.247,2.247,0,0,1-.69,1.628,2.308,2.308,0,0,1-1.686.67,2.984,2.984,0,0,1-1.305-.293,2.952,2.952,0,0,1-1.027-.816l.636-.724a2.166,2.166,0,0,0,1.642.87,1.444,1.444,0,0,0,1.041-.387,1.235,1.235,0,0,0,.425-.914,1.2,1.2,0,0,0-.289-.768,4.656,4.656,0,0,0-1.281-.846,4.284,4.284,0,0,1-1.438-1.075,2.105,2.105,0,0,1-.387-1.2,1.959,1.959,0,0,1,.6-1.472,2.128,2.128,0,0,1,1.55-.6,3.187,3.187,0,0,1,2.19,1.061" transform="translate(-541.364 -4.132)"/>
      <path id="Path_2130" data-name="Path 2130" d="M561.727,63.8l-.666.666a2.313,2.313,0,0,0-1.574-.778,1.221,1.221,0,0,0-.84.323,1.014,1.014,0,0,0-.351.758,1.118,1.118,0,0,0,.283.728,4.1,4.1,0,0,0,1.2.826,4.716,4.716,0,0,1,1.544,1.125,2.071,2.071,0,0,1,.4,1.241,2.247,2.247,0,0,1-.69,1.628,2.308,2.308,0,0,1-1.686.67,2.984,2.984,0,0,1-1.305-.293,2.952,2.952,0,0,1-1.027-.816l.636-.724a2.166,2.166,0,0,0,1.642.87,1.444,1.444,0,0,0,1.041-.387,1.235,1.235,0,0,0,.425-.914,1.2,1.2,0,0,0-.289-.768,4.656,4.656,0,0,0-1.281-.846,4.284,4.284,0,0,1-1.438-1.075,2.105,2.105,0,0,1-.387-1.2,1.959,1.959,0,0,1,.6-1.472,2.128,2.128,0,0,1,1.55-.6,3.187,3.187,0,0,1,2.19,1.061" transform="translate(-541.364 -4.132)"/>
      <path id="Path_2131" data-name="Path 2131" d="M565.175,68.2l.856.431a4.639,4.639,0,0,1-.958,1.336,4.023,4.023,0,0,1-1.237.762,4.262,4.262,0,0,1-1.56.269,3.722,3.722,0,0,1-2.992-1.257,4.259,4.259,0,0,1-.166-5.494,3.732,3.732,0,0,1,3.1-1.5,3.9,3.9,0,0,1,3.208,1.53,4.212,4.212,0,0,1,.866,2.679h-7.054a3.169,3.169,0,0,0,.87,2.234,2.772,2.772,0,0,0,2.088.87,3.174,3.174,0,0,0,1.163-.2,3.008,3.008,0,0,0,.969-.551,4.834,4.834,0,0,0,.846-1.1m0-2.118A3.164,3.164,0,0,0,564.6,64.8a2.739,2.739,0,0,0-1.021-.782,3.145,3.145,0,0,0-1.335-.293,2.82,2.82,0,0,0-1.985.738,3.335,3.335,0,0,0-.914,1.622Z" transform="translate(-536.808 -4.145)"/>
      <path id="Path_2132" data-name="Path 2132" d="M565.175,68.2l.856.431a4.639,4.639,0,0,1-.958,1.336,4.023,4.023,0,0,1-1.237.762,4.262,4.262,0,0,1-1.56.269,3.722,3.722,0,0,1-2.992-1.257,4.259,4.259,0,0,1-.166-5.494,3.732,3.732,0,0,1,3.1-1.5,3.9,3.9,0,0,1,3.208,1.53,4.212,4.212,0,0,1,.866,2.679h-7.054a3.169,3.169,0,0,0,.87,2.234,2.772,2.772,0,0,0,2.088.87,3.174,3.174,0,0,0,1.163-.2,3.008,3.008,0,0,0,.969-.551,4.834,4.834,0,0,0,.846-1.1m0-2.118A3.164,3.164,0,0,0,564.6,64.8a2.739,2.739,0,0,0-1.021-.782,3.145,3.145,0,0,0-1.335-.293,2.82,2.82,0,0,0-1.985.738,3.335,3.335,0,0,0-.914,1.622Z" transform="translate(-536.808 -4.145)"/>
      <path id="Path_2133" data-name="Path 2133" d="M560.083,62.95h1.027v1.139a3.755,3.755,0,0,1,.979-1.017,1.881,1.881,0,0,1,1.065-.327,1.847,1.847,0,0,1,.9.279l-.533.84a1.46,1.46,0,0,0-.538-.136,1.421,1.421,0,0,0-.962.4,2.7,2.7,0,0,0-.724,1.285,12.655,12.655,0,0,0-.187,2.717V70.78h-1.027Z" transform="translate(-529.469 -4.14)"/>
      <path id="Path_2134" data-name="Path 2134" d="M560.083,62.95h1.027v1.139a3.755,3.755,0,0,1,.979-1.017,1.881,1.881,0,0,1,1.065-.327,1.847,1.847,0,0,1,.9.279l-.533.84a1.46,1.46,0,0,0-.538-.136,1.421,1.421,0,0,0-.962.4,2.7,2.7,0,0,0-.724,1.285,12.655,12.655,0,0,0-.187,2.717V70.78h-1.027Z" transform="translate(-529.469 -4.14)"/>
      <path id="Path_2135" data-name="Path 2135" d="M569.814,68.6l.718.768a16.105,16.105,0,0,1-1.319,1.061c.3.265.674.626,1.139,1.095.361.353.666.71.944,1H569.8l-1.4-1.452a9.544,9.544,0,0,1-2.146,1.384,4.92,4.92,0,0,1-1.76.323,2.731,2.731,0,0,1-1.965-.69,2.33,2.33,0,0,1-.744-1.755,2.986,2.986,0,0,1,.5-1.6,8.823,8.823,0,0,1,2.043-2.005,9.46,9.46,0,0,1-1.125-1.56,2.127,2.127,0,0,1-.255-.953,1.664,1.664,0,0,1,.616-1.309,2.607,2.607,0,0,1,1.761-.6,2.635,2.635,0,0,1,1.2.279,2.029,2.029,0,0,1,.84.7,1.869,1.869,0,0,1,.283.969,2.261,2.261,0,0,1-.371,1.135A8.336,8.336,0,0,1,565.8,66.92l1.6,1.676,1.061,1.075A14.57,14.57,0,0,0,569.8,68.6m-4.777-1.075a9.444,9.444,0,0,0-1.785,1.622,2.074,2.074,0,0,0-.421,1.109,1.424,1.424,0,0,0,.527,1.075,1.765,1.765,0,0,0,1.261.465,2.837,2.837,0,0,0,1.091-.221,9.221,9.221,0,0,0,1.961-1.257l-1.683-1.721c-.283-.309-.6-.66-.952-1.075m.126-1.394a4.848,4.848,0,0,0,1.149-1.179,1.4,1.4,0,0,0,.283-.728.815.815,0,0,0-.357-.636,1.59,1.59,0,0,0-.959-.255,1.452,1.452,0,0,0-.908.259.83.83,0,0,0-.353.66,1.082,1.082,0,0,0,.142.547,9.435,9.435,0,0,0,1,1.329" transform="translate(-522.84 -5.877)"/>
      <path id="Path_2136" data-name="Path 2136" d="M569.814,68.6l.718.768a16.105,16.105,0,0,1-1.319,1.061c.3.265.674.626,1.139,1.095.361.353.666.71.944,1H569.8l-1.4-1.452a9.544,9.544,0,0,1-2.146,1.384,4.92,4.92,0,0,1-1.76.323,2.731,2.731,0,0,1-1.965-.69,2.33,2.33,0,0,1-.744-1.755,2.986,2.986,0,0,1,.5-1.6,8.823,8.823,0,0,1,2.043-2.005,9.46,9.46,0,0,1-1.125-1.56,2.127,2.127,0,0,1-.255-.953,1.664,1.664,0,0,1,.616-1.309,2.607,2.607,0,0,1,1.761-.6,2.635,2.635,0,0,1,1.2.279,2.029,2.029,0,0,1,.84.7,1.869,1.869,0,0,1,.283.969,2.261,2.261,0,0,1-.371,1.135A8.336,8.336,0,0,1,565.8,66.92l1.6,1.676,1.061,1.075A14.57,14.57,0,0,0,569.8,68.6m-4.777-1.075a9.444,9.444,0,0,0-1.785,1.622,2.074,2.074,0,0,0-.421,1.109,1.424,1.424,0,0,0,.527,1.075,1.765,1.765,0,0,0,1.261.465,2.837,2.837,0,0,0,1.091-.221,9.221,9.221,0,0,0,1.961-1.257l-1.683-1.721c-.283-.309-.6-.66-.952-1.075m.126-1.394a4.848,4.848,0,0,0,1.149-1.179,1.4,1.4,0,0,0,.283-.728.815.815,0,0,0-.357-.636,1.59,1.59,0,0,0-.959-.255,1.452,1.452,0,0,0-.908.259.83.83,0,0,0-.353.66,1.082,1.082,0,0,0,.142.547,9.435,9.435,0,0,0,1,1.329" transform="translate(-522.84 -5.877)"/>
      <path id="Path_2137" data-name="Path 2137" d="M564.657,72.829l1.526-10.608h.167l4.317,8.707,4.263-8.707h.17l1.516,10.608h-1.031l-1.047-7.588-3.75,7.588h-.275l-3.784-7.642-1.047,7.636Z" transform="translate(-511.675 -6.179)"/>
      <path id="Path_2138" data-name="Path 2138" d="M564.657,72.829l1.526-10.608h.167l4.317,8.707,4.263-8.707h.17l1.516,10.608h-1.031l-1.047-7.588-3.75,7.588h-.275l-3.784-7.642-1.047,7.636Z" transform="translate(-511.675 -6.179)"/>
      <path id="Path_2139" data-name="Path 2139" d="M574.337,68.2l.856.431a4.764,4.764,0,0,1-.973,1.336,3.812,3.812,0,0,1-1.227.762,4.262,4.262,0,0,1-1.56.269,3.748,3.748,0,0,1-3.008-1.257A4.285,4.285,0,0,1,567.34,66.9a4.211,4.211,0,0,1,.919-2.655,3.754,3.754,0,0,1,3.118-1.5,3.9,3.9,0,0,1,3.2,1.53,4.238,4.238,0,0,1,.87,2.679h-7.061a3.209,3.209,0,0,0,.884,2.234,2.753,2.753,0,0,0,2.082.87,3.179,3.179,0,0,0,1.163-.2,2.8,2.8,0,0,0,.953-.552,4.332,4.332,0,0,0,.87-1.1m0-2.118a3.237,3.237,0,0,0-.6-1.285,2.84,2.84,0,0,0-1.017-.782,3.184,3.184,0,0,0-1.343-.293,2.825,2.825,0,0,0-1.979.738,3.446,3.446,0,0,0-.908,1.622Z" transform="translate(-501.234 -4.145)"/>
      <path id="Path_2140" data-name="Path 2140" d="M574.337,68.2l.856.431a4.764,4.764,0,0,1-.973,1.336,3.812,3.812,0,0,1-1.227.762,4.262,4.262,0,0,1-1.56.269,3.748,3.748,0,0,1-3.008-1.257A4.285,4.285,0,0,1,567.34,66.9a4.211,4.211,0,0,1,.919-2.655,3.754,3.754,0,0,1,3.118-1.5,3.9,3.9,0,0,1,3.2,1.53,4.238,4.238,0,0,1,.87,2.679h-7.061a3.209,3.209,0,0,0,.884,2.234,2.753,2.753,0,0,0,2.082.87,3.179,3.179,0,0,0,1.163-.2,2.8,2.8,0,0,0,.953-.552,4.332,4.332,0,0,0,.87-1.1m0-2.118a3.237,3.237,0,0,0-.6-1.285,2.84,2.84,0,0,0-1.017-.782,3.184,3.184,0,0,0-1.343-.293,2.825,2.825,0,0,0-1.979.738,3.446,3.446,0,0,0-.908,1.622Z" transform="translate(-501.234 -4.145)"/>
      <path id="Path_2141" data-name="Path 2141" d="M577.415,62.169V73.036h-1V71.682a4.46,4.46,0,0,1-1.422,1.163,3.854,3.854,0,0,1-1.727.4,3.81,3.81,0,0,1-2.846-1.2,4.011,4.011,0,0,1-1.183-2.928,3.926,3.926,0,0,1,1.193-2.894A3.866,3.866,0,0,1,573.274,65a3.7,3.7,0,0,1,1.761.421,3.81,3.81,0,0,1,1.378,1.231V62.169Zm-4.039,3.794a3.153,3.153,0,0,0-1.56.4,3.067,3.067,0,0,0-1.129,1.173,3.115,3.115,0,0,0-.425,1.584,3.263,3.263,0,0,0,.425,1.584,3.054,3.054,0,0,0,1.143,1.179,2.98,2.98,0,0,0,1.536.415,3.081,3.081,0,0,0,1.56-.415,2.807,2.807,0,0,0,1.153-1.135,3.34,3.34,0,0,0,.4-1.6,3.118,3.118,0,0,0-.9-2.268,2.936,2.936,0,0,0-2.206-.914" transform="translate(-493.865 -6.38)"/>
      <path id="Path_2142" data-name="Path 2142" d="M577.415,62.169V73.036h-1V71.682a4.46,4.46,0,0,1-1.422,1.163,3.854,3.854,0,0,1-1.727.4,3.81,3.81,0,0,1-2.846-1.2,4.011,4.011,0,0,1-1.183-2.928,3.926,3.926,0,0,1,1.193-2.894A3.866,3.866,0,0,1,573.274,65a3.7,3.7,0,0,1,1.761.421,3.81,3.81,0,0,1,1.378,1.231V62.169Zm-4.039,3.794a3.153,3.153,0,0,0-1.56.4,3.067,3.067,0,0,0-1.129,1.173,3.115,3.115,0,0,0-.425,1.584,3.263,3.263,0,0,0,.425,1.584,3.054,3.054,0,0,0,1.143,1.179,2.98,2.98,0,0,0,1.536.415,3.081,3.081,0,0,0,1.56-.415,2.807,2.807,0,0,0,1.153-1.135,3.34,3.34,0,0,0,.4-1.6,3.118,3.118,0,0,0-.9-2.268,2.936,2.936,0,0,0-2.206-.914" transform="translate(-493.865 -6.38)"/>
      <path id="Path_2143" data-name="Path 2143" d="M572.033,62.125a.824.824,0,0,1,.586.249.8.8,0,0,1,.241.592.787.787,0,0,1-.241.588.8.8,0,0,1-.586.255.87.87,0,0,1-.83-.84.86.86,0,0,1,.83-.84m-.5,3.237h1V73.2h-1Z" transform="translate(-486.221 -6.552)"/>
      <path id="Path_2144" data-name="Path 2144" d="M572.033,62.125a.824.824,0,0,1,.586.249.8.8,0,0,1,.241.592.787.787,0,0,1-.241.588.8.8,0,0,1-.586.255.87.87,0,0,1-.83-.84.86.86,0,0,1,.83-.84m-.5,3.237h1V73.2h-1Z" transform="translate(-486.221 -6.552)"/>
      <path id="Path_2145" data-name="Path 2145" d="M579.738,64.58l-.8.5a3.375,3.375,0,0,0-2.821-1.374,3.283,3.283,0,0,0-2.386.918,3.111,3.111,0,0,0-.507,3.844,2.913,2.913,0,0,0,1.193,1.179,3.624,3.624,0,0,0,4.522-.953l.8.523a3.809,3.809,0,0,1-1.526,1.315,4.743,4.743,0,0,1-2.142.465,4.243,4.243,0,0,1-3.094-1.187,3.842,3.842,0,0,1-1.221-2.874,4.1,4.1,0,0,1,.561-2.108,4.234,4.234,0,0,1,1.588-1.536,4.631,4.631,0,0,1,2.244-.547,5.185,5.185,0,0,1,1.5.245,4.153,4.153,0,0,1,1.221.622,3.466,3.466,0,0,1,.866.973" transform="translate(-484.074 -4.143)"/>
      <path id="Path_2146" data-name="Path 2146" d="M579.738,64.58l-.8.5a3.375,3.375,0,0,0-2.821-1.374,3.283,3.283,0,0,0-2.386.918,3.111,3.111,0,0,0-.507,3.844,2.913,2.913,0,0,0,1.193,1.179,3.624,3.624,0,0,0,4.522-.953l.8.523a3.809,3.809,0,0,1-1.526,1.315,4.743,4.743,0,0,1-2.142.465,4.243,4.243,0,0,1-3.094-1.187,3.842,3.842,0,0,1-1.221-2.874,4.1,4.1,0,0,1,.561-2.108,4.234,4.234,0,0,1,1.588-1.536,4.631,4.631,0,0,1,2.244-.547,5.185,5.185,0,0,1,1.5.245,4.153,4.153,0,0,1,1.221.622,3.466,3.466,0,0,1,.866.973" transform="translate(-484.074 -4.143)"/>
      <path id="Path_2147" data-name="Path 2147" d="M581.789,62.946v7.841H580.8V69.433a4.466,4.466,0,0,1-1.4,1.163,3.921,3.921,0,0,1-1.73.4,3.79,3.79,0,0,1-2.845-1.2,3.992,3.992,0,0,1-1.183-2.928,3.923,3.923,0,0,1,1.187-2.894,3.874,3.874,0,0,1,2.86-1.217,3.781,3.781,0,0,1,1.755.421,3.726,3.726,0,0,1,1.364,1.231V62.946Zm-4.011.768a3.008,3.008,0,0,0-2.7,1.578,3.113,3.113,0,0,0-.421,1.584,3.209,3.209,0,0,0,.421,1.584,3.127,3.127,0,0,0,1.149,1.179,2.95,2.95,0,0,0,1.53.415,3.1,3.1,0,0,0,1.568-.415,2.913,2.913,0,0,0,1.149-1.135,3.278,3.278,0,0,0,.4-1.6,3.148,3.148,0,0,0-.89-2.268,2.972,2.972,0,0,0-2.206-.914" transform="translate(-476.764 -4.13)"/>
      <path id="Path_2148" data-name="Path 2148" d="M581.789,62.946v7.841H580.8V69.433a4.466,4.466,0,0,1-1.4,1.163,3.921,3.921,0,0,1-1.73.4,3.79,3.79,0,0,1-2.845-1.2,3.992,3.992,0,0,1-1.183-2.928,3.923,3.923,0,0,1,1.187-2.894,3.874,3.874,0,0,1,2.86-1.217,3.781,3.781,0,0,1,1.755.421,3.726,3.726,0,0,1,1.364,1.231V62.946Zm-4.011.768a3.008,3.008,0,0,0-2.7,1.578,3.113,3.113,0,0,0-.421,1.584,3.209,3.209,0,0,0,.421,1.584,3.127,3.127,0,0,0,1.149,1.179,2.95,2.95,0,0,0,1.53.415,3.1,3.1,0,0,0,1.568-.415,2.913,2.913,0,0,0,1.149-1.135,3.278,3.278,0,0,0,.4-1.6,3.148,3.148,0,0,0-.89-2.268,2.972,2.972,0,0,0-2.206-.914" transform="translate(-476.764 -4.13)"/>
      <rect id="Rectangle_87" data-name="Rectangle 87" width="1.007" height="10.873" transform="translate(106.79 55.783)"/>
      <rect id="Rectangle_88" data-name="Rectangle 88" width="1.007" height="10.873" transform="translate(106.79 55.783)"/>
      <path id="Path_2149" data-name="Path 2149" d="M576.794,71.053l.909-.533c.622,1.153,1.36,1.745,2.2,1.745a2.167,2.167,0,0,0,1-.249,1.756,1.756,0,0,0,.71-.666,1.659,1.659,0,0,0,.245-.884,1.8,1.8,0,0,0-.353-1.041,8.139,8.139,0,0,0-1.819-1.707,9.082,9.082,0,0,1-1.652-1.452,2.639,2.639,0,0,1-.557-1.618,2.382,2.382,0,0,1,1.261-2.156,2.825,2.825,0,0,1,2.7.044,4.794,4.794,0,0,1,1.384,1.364l-.86.65a4.262,4.262,0,0,0-1.023-1.041,1.749,1.749,0,0,0-.924-.255,1.552,1.552,0,0,0-1.051.387,1.336,1.336,0,0,0-.4.973,1.525,1.525,0,0,0,.147.66,1.991,1.991,0,0,0,.527.694,13.423,13.423,0,0,0,1.364,1.065,7.69,7.69,0,0,1,1.891,1.8A2.981,2.981,0,0,1,583,70.432a2.724,2.724,0,0,1-.87,2.005,2.98,2.98,0,0,1-2.136.846,3.112,3.112,0,0,1-1.745-.513,4.528,4.528,0,0,1-1.452-1.727" transform="translate(-464.48 -6.377)"/>
      <path id="Path_2150" data-name="Path 2150" d="M576.794,71.053l.909-.533c.622,1.153,1.36,1.745,2.2,1.745a2.167,2.167,0,0,0,1-.249,1.756,1.756,0,0,0,.71-.666,1.659,1.659,0,0,0,.245-.884,1.8,1.8,0,0,0-.353-1.041,8.139,8.139,0,0,0-1.819-1.707,9.082,9.082,0,0,1-1.652-1.452,2.639,2.639,0,0,1-.557-1.618,2.382,2.382,0,0,1,1.261-2.156,2.825,2.825,0,0,1,2.7.044,4.794,4.794,0,0,1,1.384,1.364l-.86.65a4.262,4.262,0,0,0-1.023-1.041,1.749,1.749,0,0,0-.924-.255,1.552,1.552,0,0,0-1.051.387,1.336,1.336,0,0,0-.4.973,1.525,1.525,0,0,0,.147.66,1.991,1.991,0,0,0,.527.694,13.423,13.423,0,0,0,1.364,1.065,7.69,7.69,0,0,1,1.891,1.8A2.981,2.981,0,0,1,583,70.432a2.724,2.724,0,0,1-.87,2.005,2.98,2.98,0,0,1-2.136.846,3.112,3.112,0,0,1-1.745-.513,4.528,4.528,0,0,1-1.452-1.727" transform="translate(-464.48 -6.377)"/>
      <path id="Path_2151" data-name="Path 2151" d="M578.41,62.168h1.017v6.2l3.632-3.172h1.482l-4.307,3.73,4.562,4.117h-1.418l-3.95-3.539v3.537H578.41Z" transform="translate(-458.195 -6.383)"/>
      <path id="Path_2152" data-name="Path 2152" d="M578.41,62.168h1.017v6.2l3.632-3.172h1.482l-4.307,3.73,4.562,4.117h-1.418l-3.95-3.539v3.537H578.41Z" transform="translate(-458.195 -6.383)"/>
      <path id="Path_2153" data-name="Path 2153" d="M580.586,62.125a.842.842,0,0,1,.826.84.812.812,0,0,1-1.4.588.779.779,0,0,1-.255-.588.86.86,0,0,1,.83-.84m-.5,3.237h1V73.2h-1Z" transform="translate(-452.966 -6.552)"/>
      <path id="Path_2154" data-name="Path 2154" d="M580.586,62.125a.842.842,0,0,1,.826.84.812.812,0,0,1-1.4.588.779.779,0,0,1-.255-.588.86.86,0,0,1,.83-.84m-.5,3.237h1V73.2h-1Z" transform="translate(-452.966 -6.552)"/>
      <path id="Path_2155" data-name="Path 2155" d="M580.385,62.948H581.4v1.4a4.292,4.292,0,0,1,1.325-1.2,3.3,3.3,0,0,1,1.6-.4,2.722,2.722,0,0,1,1.56.449,2.554,2.554,0,0,1,1,1.2,6.333,6.333,0,0,1,.317,2.346v4.043h-1V67.045a8.827,8.827,0,0,0-.112-1.819,1.9,1.9,0,0,0-.67-1.149,1.985,1.985,0,0,0-1.3-.4,2.527,2.527,0,0,0-1.638.6,3.009,3.009,0,0,0-.973,1.5,11.6,11.6,0,0,0-.126,2.142v2.874h-1.017Z" transform="translate(-450.535 -4.139)"/>
      <path id="Path_2156" data-name="Path 2156" d="M580.385,62.948H581.4v1.4a4.292,4.292,0,0,1,1.325-1.2,3.3,3.3,0,0,1,1.6-.4,2.722,2.722,0,0,1,1.56.449,2.554,2.554,0,0,1,1,1.2,6.333,6.333,0,0,1,.317,2.346v4.043h-1V67.045a8.827,8.827,0,0,0-.112-1.819,1.9,1.9,0,0,0-.67-1.149,1.985,1.985,0,0,0-1.3-.4,2.527,2.527,0,0,0-1.638.6,3.009,3.009,0,0,0-.973,1.5,11.6,11.6,0,0,0-.126,2.142v2.874h-1.017Z" transform="translate(-450.535 -4.139)"/>
      <path id="Path_2157" data-name="Path 2157" d="M593.2,64.4l-.83.64a4.58,4.58,0,0,0-1.666-1.36,4.863,4.863,0,0,0-4.482.142,4.4,4.4,0,0,0-2.278,3.944,4.329,4.329,0,0,0,1.343,3.237,4.646,4.646,0,0,0,3.349,1.3,4.777,4.777,0,0,0,3.736-1.741l.83.63a5.345,5.345,0,0,1-1.975,1.56,6.153,6.153,0,0,1-2.655.543,5.514,5.514,0,0,1-4.385-1.849,5.594,5.594,0,0,1-1.34-3.778,5.213,5.213,0,0,1,1.632-3.91,5.583,5.583,0,0,1,4.087-1.588,5.779,5.779,0,0,1,2.673.592A5.013,5.013,0,0,1,593.2,64.4" transform="translate(-440.958 -6.386)"/>
      <path id="Path_2158" data-name="Path 2158" d="M593.2,64.4l-.83.64a4.58,4.58,0,0,0-1.666-1.36,4.863,4.863,0,0,0-4.482.142,4.4,4.4,0,0,0-2.278,3.944,4.329,4.329,0,0,0,1.343,3.237,4.646,4.646,0,0,0,3.349,1.3,4.777,4.777,0,0,0,3.736-1.741l.83.63a5.345,5.345,0,0,1-1.975,1.56,6.153,6.153,0,0,1-2.655.543,5.514,5.514,0,0,1-4.385-1.849,5.594,5.594,0,0,1-1.34-3.778,5.213,5.213,0,0,1,1.632-3.91,5.583,5.583,0,0,1,4.087-1.588,5.779,5.779,0,0,1,2.673.592A5.013,5.013,0,0,1,593.2,64.4" transform="translate(-440.958 -6.386)"/>
      <path id="Path_2159" data-name="Path 2159" d="M593.379,62.956V70.8H592.4V69.443a4.6,4.6,0,0,1-1.432,1.163,3.964,3.964,0,0,1-4.57-.822,4.043,4.043,0,0,1-1.179-2.928,4,4,0,0,1,1.183-2.894,3.894,3.894,0,0,1,2.865-1.217,3.752,3.752,0,0,1,1.755.421A3.972,3.972,0,0,1,592.4,64.4V62.956Zm-4.039.768a3.008,3.008,0,0,0-2.683,1.578,3.157,3.157,0,0,0-.421,1.584,3.254,3.254,0,0,0,.421,1.584,3.085,3.085,0,0,0,1.159,1.179,2.932,2.932,0,0,0,1.526.415,3.1,3.1,0,0,0,1.564-.415,2.881,2.881,0,0,0,1.149-1.135,3.284,3.284,0,0,0,.4-1.6,3.136,3.136,0,0,0-.9-2.268,2.97,2.97,0,0,0-2.206-.914" transform="translate(-431.732 -4.14)"/>
      <path id="Path_2160" data-name="Path 2160" d="M593.379,62.956V70.8H592.4V69.443a4.6,4.6,0,0,1-1.432,1.163,3.964,3.964,0,0,1-4.57-.822,4.043,4.043,0,0,1-1.179-2.928,4,4,0,0,1,1.183-2.894,3.894,3.894,0,0,1,2.865-1.217,3.752,3.752,0,0,1,1.755.421A3.972,3.972,0,0,1,592.4,64.4V62.956Zm-4.039.768a3.008,3.008,0,0,0-2.683,1.578,3.157,3.157,0,0,0-.421,1.584,3.254,3.254,0,0,0,.421,1.584,3.085,3.085,0,0,0,1.159,1.179,2.932,2.932,0,0,0,1.526.415,3.1,3.1,0,0,0,1.564-.415,2.881,2.881,0,0,0,1.149-1.135,3.284,3.284,0,0,0,.4-1.6,3.136,3.136,0,0,0-.9-2.268,2.97,2.97,0,0,0-2.206-.914" transform="translate(-431.732 -4.14)"/>
      <path id="Path_2161" data-name="Path 2161" d="M587.2,62.95h1.037v1.139a3.813,3.813,0,0,1,.969-1.017,1.921,1.921,0,0,1,1.071-.327,1.787,1.787,0,0,1,.894.279l-.533.84a1.405,1.405,0,0,0-.523-.136,1.448,1.448,0,0,0-.978.4,2.579,2.579,0,0,0-.718,1.285,13.126,13.126,0,0,0-.181,2.717V70.78H587.2Z" transform="translate(-424.026 -4.14)"/>
      <path id="Path_2162" data-name="Path 2162" d="M587.2,62.95h1.037v1.139a3.813,3.813,0,0,1,.969-1.017,1.921,1.921,0,0,1,1.071-.327,1.787,1.787,0,0,1,.894.279l-.533.84a1.405,1.405,0,0,0-.523-.136,1.448,1.448,0,0,0-.978.4,2.579,2.579,0,0,0-.718,1.285,13.126,13.126,0,0,0-.181,2.717V70.78H587.2Z" transform="translate(-424.026 -4.14)"/>
      <path id="Path_2163" data-name="Path 2163" d="M595.006,68.2l.846.431a4.641,4.641,0,0,1-.958,1.336,3.956,3.956,0,0,1-1.237.762A4.21,4.21,0,0,1,592.1,71,3.714,3.714,0,0,1,589.1,69.74a4.24,4.24,0,0,1-1.091-2.839,4.146,4.146,0,0,1,.919-2.655,3.754,3.754,0,0,1,3.118-1.5,3.9,3.9,0,0,1,3.2,1.53,4.21,4.21,0,0,1,.866,2.679h-7.065a3.172,3.172,0,0,0,.874,2.234,2.779,2.779,0,0,0,2.1.87,3.15,3.15,0,0,0,1.159-.2,2.774,2.774,0,0,0,.959-.551,4.436,4.436,0,0,0,.866-1.1m0-2.118a3.233,3.233,0,0,0-.591-1.285,2.844,2.844,0,0,0-1.017-.782,3.177,3.177,0,0,0-1.34-.293,2.835,2.835,0,0,0-1.985.738,3.3,3.3,0,0,0-.918,1.622Z" transform="translate(-420.844 -4.145)"/>
      <path id="Path_2164" data-name="Path 2164" d="M595.006,68.2l.846.431a4.641,4.641,0,0,1-.958,1.336,3.956,3.956,0,0,1-1.237.762A4.21,4.21,0,0,1,592.1,71,3.714,3.714,0,0,1,589.1,69.74a4.24,4.24,0,0,1-1.091-2.839,4.146,4.146,0,0,1,.919-2.655,3.754,3.754,0,0,1,3.118-1.5,3.9,3.9,0,0,1,3.2,1.53,4.21,4.21,0,0,1,.866,2.679h-7.065a3.172,3.172,0,0,0,.874,2.234,2.779,2.779,0,0,0,2.1.87,3.15,3.15,0,0,0,1.159-.2,2.774,2.774,0,0,0,.959-.551,4.436,4.436,0,0,0,.866-1.1m0-2.118a3.233,3.233,0,0,0-.591-1.285,2.844,2.844,0,0,0-1.017-.782,3.177,3.177,0,0,0-1.34-.293,2.835,2.835,0,0,0-1.985.738,3.3,3.3,0,0,0-.918,1.622Z" transform="translate(-420.844 -4.145)"/>
      <path id="Path_2165" data-name="Path 2165" d="M600.889,64.4l-.846.64a4.725,4.725,0,0,0-3.784-1.839,4.637,4.637,0,0,0-2.352.622,4.585,4.585,0,0,0-.942,7.181,4.917,4.917,0,0,0,7.079-.445l.846.63a5.442,5.442,0,0,1-1.979,1.56,6.147,6.147,0,0,1-2.649.543,5.509,5.509,0,0,1-4.4-1.849,5.616,5.616,0,0,1-1.346-3.778,5.213,5.213,0,0,1,1.632-3.91,5.615,5.615,0,0,1,4.091-1.588,5.849,5.849,0,0,1,2.683.592,5.154,5.154,0,0,1,1.961,1.642" transform="translate(-411.109 -6.386)"/>
      <path id="Path_2166" data-name="Path 2166" d="M600.889,64.4l-.846.64a4.725,4.725,0,0,0-3.784-1.839,4.637,4.637,0,0,0-2.352.622,4.585,4.585,0,0,0-.942,7.181,4.917,4.917,0,0,0,7.079-.445l.846.63a5.442,5.442,0,0,1-1.979,1.56,6.147,6.147,0,0,1-2.649.543,5.509,5.509,0,0,1-4.4-1.849,5.616,5.616,0,0,1-1.346-3.778,5.213,5.213,0,0,1,1.632-3.91,5.615,5.615,0,0,1,4.091-1.588,5.849,5.849,0,0,1,2.683.592,5.154,5.154,0,0,1,1.961,1.642" transform="translate(-411.109 -6.386)"/>
      <path id="Path_2167" data-name="Path 2167" d="M599.875,68.2l.856.431a4.842,4.842,0,0,1-.963,1.336,3.877,3.877,0,0,1-1.241.762,4.2,4.2,0,0,1-1.554.269,3.7,3.7,0,0,1-2.988-1.257,4.245,4.245,0,0,1-.176-5.495,3.744,3.744,0,0,1,3.114-1.5,3.9,3.9,0,0,1,3.208,1.53,4.212,4.212,0,0,1,.856,2.679h-7.071a3.207,3.207,0,0,0,.88,2.234,2.765,2.765,0,0,0,2.088.87,3.132,3.132,0,0,0,1.159-.2,2.841,2.841,0,0,0,.962-.552,4.557,4.557,0,0,0,.86-1.1m0-2.118a3.162,3.162,0,0,0-.581-1.285,2.924,2.924,0,0,0-1.027-.782,3.172,3.172,0,0,0-1.346-.293,2.783,2.783,0,0,0-1.969.738,3.371,3.371,0,0,0-.914,1.622Z" transform="translate(-401.907 -4.145)"/>
      <path id="Path_2168" data-name="Path 2168" d="M599.875,68.2l.856.431a4.842,4.842,0,0,1-.963,1.336,3.877,3.877,0,0,1-1.241.762,4.2,4.2,0,0,1-1.554.269,3.7,3.7,0,0,1-2.988-1.257,4.245,4.245,0,0,1-.176-5.495,3.744,3.744,0,0,1,3.114-1.5,3.9,3.9,0,0,1,3.208,1.53,4.212,4.212,0,0,1,.856,2.679h-7.071a3.207,3.207,0,0,0,.88,2.234,2.765,2.765,0,0,0,2.088.87,3.132,3.132,0,0,0,1.159-.2,2.841,2.841,0,0,0,.962-.552,4.557,4.557,0,0,0,.86-1.1m0-2.118a3.162,3.162,0,0,0-.581-1.285,2.924,2.924,0,0,0-1.027-.782,3.172,3.172,0,0,0-1.346-.293,2.783,2.783,0,0,0-1.969.738,3.371,3.371,0,0,0-.914,1.622Z" transform="translate(-401.907 -4.145)"/>
      <path id="Path_2169" data-name="Path 2169" d="M594.851,62.948h1v1.4a4.265,4.265,0,0,1,1.336-1.2,3.259,3.259,0,0,1,1.6-.4,2.753,2.753,0,0,1,1.568.449,2.573,2.573,0,0,1,1,1.2,6.333,6.333,0,0,1,.317,2.346v4.043h-1V67.045a10.325,10.325,0,0,0-.1-1.819,1.94,1.94,0,0,0-.684-1.149,1.961,1.961,0,0,0-1.281-.4,2.558,2.558,0,0,0-1.656.6,2.973,2.973,0,0,0-.959,1.5,11.362,11.362,0,0,0-.136,2.142v2.874h-1Z" transform="translate(-394.262 -4.139)"/>
      <path id="Path_2170" data-name="Path 2170" d="M594.851,62.948h1v1.4a4.265,4.265,0,0,1,1.336-1.2,3.259,3.259,0,0,1,1.6-.4,2.753,2.753,0,0,1,1.568.449,2.573,2.573,0,0,1,1,1.2,6.333,6.333,0,0,1,.317,2.346v4.043h-1V67.045a10.325,10.325,0,0,0-.1-1.819,1.94,1.94,0,0,0-.684-1.149,1.961,1.961,0,0,0-1.281-.4,2.558,2.558,0,0,0-1.656.6,2.973,2.973,0,0,0-.959,1.5,11.362,11.362,0,0,0-.136,2.142v2.874h-1Z" transform="translate(-394.262 -4.139)"/>
      <path id="Path_2171" data-name="Path 2171" d="M597.9,62.192h1v2.914h1.6v.87h-1.6v6.966h-1V65.976h-1.384v-.87H597.9Z" transform="translate(-387.79 -6.293)"/>
      <path id="Path_2172" data-name="Path 2172" d="M597.9,62.192h1v2.914h1.6v.87h-1.6v6.966h-1V65.976h-1.384v-.87H597.9Z" transform="translate(-387.79 -6.293)"/>
      <path id="Path_2173" data-name="Path 2173" d="M597.494,62.95h1.027v1.139a3.754,3.754,0,0,1,.972-1.017,1.905,1.905,0,0,1,1.065-.327,1.8,1.8,0,0,1,.9.279l-.533.84a1.4,1.4,0,0,0-.533-.136,1.468,1.468,0,0,0-.979.4,2.57,2.57,0,0,0-.7,1.285,11.934,11.934,0,0,0-.2,2.717V70.78h-1.027Z" transform="translate(-384.013 -4.14)"/>
      <path id="Path_2174" data-name="Path 2174" d="M597.494,62.95h1.027v1.139a3.754,3.754,0,0,1,.972-1.017,1.905,1.905,0,0,1,1.065-.327,1.8,1.8,0,0,1,.9.279l-.533.84a1.4,1.4,0,0,0-.533-.136,1.468,1.468,0,0,0-.979.4,2.57,2.57,0,0,0-.7,1.285,11.934,11.934,0,0,0-.2,2.717V70.78h-1.027Z" transform="translate(-384.013 -4.14)"/>
      <path id="Path_2175" data-name="Path 2175" d="M605.293,68.2l.856.431a4.746,4.746,0,0,1-.962,1.336,4.014,4.014,0,0,1-1.237.762,4.26,4.26,0,0,1-1.56.269,3.721,3.721,0,0,1-2.992-1.257,4.259,4.259,0,0,1-.167-5.494,3.716,3.716,0,0,1,3.11-1.5,3.887,3.887,0,0,1,3.208,1.53,4.238,4.238,0,0,1,.866,2.679h-7.069a3.241,3.241,0,0,0,.88,2.234,2.78,2.78,0,0,0,2.088.87,3.166,3.166,0,0,0,1.169-.2,2.915,2.915,0,0,0,.959-.551,4.572,4.572,0,0,0,.86-1.1m0-2.118a3.109,3.109,0,0,0-.6-1.285,2.806,2.806,0,0,0-1.017-.782,3.159,3.159,0,0,0-1.336-.293,2.848,2.848,0,0,0-1.989.738,3.447,3.447,0,0,0-.908,1.622Z" transform="translate(-380.823 -4.145)"/>
      <path id="Path_2176" data-name="Path 2176" d="M605.293,68.2l.856.431a4.746,4.746,0,0,1-.962,1.336,4.014,4.014,0,0,1-1.237.762,4.26,4.26,0,0,1-1.56.269,3.721,3.721,0,0,1-2.992-1.257,4.259,4.259,0,0,1-.167-5.494,3.716,3.716,0,0,1,3.11-1.5,3.887,3.887,0,0,1,3.208,1.53,4.238,4.238,0,0,1,.866,2.679h-7.069a3.241,3.241,0,0,0,.88,2.234,2.78,2.78,0,0,0,2.088.87,3.166,3.166,0,0,0,1.169-.2,2.915,2.915,0,0,0,.959-.551,4.572,4.572,0,0,0,.86-1.1m0-2.118a3.109,3.109,0,0,0-.6-1.285,2.806,2.806,0,0,0-1.017-.782,3.159,3.159,0,0,0-1.336-.293,2.848,2.848,0,0,0-1.989.738,3.447,3.447,0,0,0-.908,1.622Z" transform="translate(-380.823 -4.145)"/>
    </g>
  </g>
</svg>
