<svg xmlns="http://www.w3.org/2000/svg" xmlns:xlink="http://www.w3.org/1999/xlink" width="500" height="300" viewBox="0 0 500 300">
  <defs>
    <clipPath id="clip-path">
      <rect id="Rectangle_7" data-name="Rectangle 7" width="320.976" height="39.838" fill="none"/>
    </clipPath>
    <clipPath id="clip-logo_25">
      <rect width="500" height="300"/>
    </clipPath>
  </defs>
  <g id="logo_25" clip-path="url(#clip-logo_25)">
    <g id="Group_14" data-name="Group 14" transform="translate(89.696 129.976)">
      <g id="Group_13" data-name="Group 13" transform="translate(0 0)" clip-path="url(#clip-path)">
        <path id="Path_117" data-name="Path 117" d="M27.15,28.607a33.1,33.1,0,0,1,6.1,8.623l3.762-2.724a35.6,35.6,0,0,0-6.276-8.016L27.15,28.628Z" transform="translate(1.298 1.266)"/>
        <path id="Path_118" data-name="Path 118" d="M16.7,6.716v1.53H8.937a29.3,29.3,0,0,1-4.568-.21,31.987,31.987,0,0,1,.168,4.045v5.543a31.314,31.314,0,0,1-.168,4.013,35.728,35.728,0,0,1,4.516-.168h7.806v1.792q-7.969.173-10.111.168c-2.609,0-4.013-.042-5.973-.21l.681,4.474a29.566,29.566,0,0,1,3.416-.3c16.5-.555,20.527-.775,27.432-1.4,1.153,1.32,2,2.389,2.557,3.154l3.081-2.861A42.548,42.548,0,0,0,32.649,21.5q1.147.094,1.666.126a32.056,32.056,0,0,1-.168-4.013v-5.6a32.163,32.163,0,0,1,.168-4.013,31.18,31.18,0,0,1-4.652.21H21.134V6.685H33.456a36.545,36.545,0,0,1,4.778.21V2.63a36.142,36.142,0,0,1-4.82.262H21.123A16.973,16.973,0,0,1,21.385,0H16.44A14.193,14.193,0,0,1,16.7,2.892H5.228A37.5,37.5,0,0,1,.45,2.63V6.895a35.624,35.624,0,0,1,4.694-.21H16.712v.031Zm0,11.432H8.979V16.4H16.7Zm0-4.872H8.979V11.652H16.7Zm4.443-1.614h8.582v1.624H21.144Zm0,4.736h8.582v1.75H21.144Zm0,5.082h6.444A20.087,20.087,0,0,1,29.3,22.842c-3.762.21-4.474.21-8.152.3Z" transform="translate(0.022 0)"/>
        <path id="Path_119" data-name="Path 119" d="M0,34.649l3.793,2.819a28.519,28.519,0,0,0,4.694-8.582L4.516,27.01A19.6,19.6,0,0,1,0,34.649" transform="translate(0 1.291)"/>
        <path id="Path_120" data-name="Path 120" d="M19.378,33.692a18.122,18.122,0,0,1-4.568-.3c-.3-.126-.377-.3-.377-.681V30.318A18.625,18.625,0,0,1,14.6,27.29H9.78a22.122,22.122,0,0,1,.21,3.667v2.986c0,3.248,1.195,3.709,9.263,3.709,9.514,0,10.153-.377,10.792-6.318a10.7,10.7,0,0,1-4.474-1.582c-.168,3.877-.21,3.929-6.182,3.929h-.01Z" transform="translate(0.468 1.305)"/>
        <path id="Path_121" data-name="Path 121" d="M15.68,27.961a20.49,20.49,0,0,1,4.568,4.778l3.458-2.64a33.639,33.639,0,0,0-4.778-4.348L15.68,27.961" transform="translate(0.75 1.231)"/>
        <path id="Path_122" data-name="Path 122" d="M70.757,30.815a38.647,38.647,0,0,0,5.8-4.736l-2.861-2.1a5.836,5.836,0,0,0,.891.042A17.9,17.9,0,0,1,74.466,21V18.273h.775a16.9,16.9,0,0,1,3.028.21v-4.1a17.648,17.648,0,0,1-2.986.168h-.807V12.122A22.429,22.429,0,0,1,74.6,8.968c-1.058.094-1.876.126-3.542.126H63.129v-2H74.267a35.117,35.117,0,0,1,3.762.168V2.912a40.068,40.068,0,0,1-4.988.262H62.123v-.6A10.312,10.312,0,0,1,62.332.02H57.251a10.447,10.447,0,0,1,.21,2.473v.681H47.516a43.745,43.745,0,0,1-5.459-.21,32.875,32.875,0,0,1,.262,5.375,120.273,120.273,0,0,1-1.153,18.766,24.8,24.8,0,0,1-2.557,8.655A19.612,19.612,0,0,1,42.235,39.6a26.581,26.581,0,0,0,3.154-9.126c1.058-5.6,1.32-10.457,1.362-23.377H58.822v2H52a19.026,19.026,0,0,1-3.081-.168V12.8a24.472,24.472,0,0,1,3.112-.168h6.779v1.928H50.66a17.822,17.822,0,0,1-3.081-.168v4.045a26.043,26.043,0,0,1,3.154-.168H58.8V20.41H51.77a20.5,20.5,0,0,1-3.112-.168V24.12a22.318,22.318,0,0,1,2.515-.168l-2.64,2.263A24.154,24.154,0,0,1,53.311,30.4a37.756,37.756,0,0,1-7.9,2.861l2,4.223a13.545,13.545,0,0,1,1.362-.639c1.278-.534,2.672-1.174,4.181-1.928a23.256,23.256,0,0,1,.891,4.443c2.515.094,2.986.094,3.835.094,4.181,0,5.417-.943,5.417-4.181V31.046c0-.472-.042-1.195-.042-1.4-.031-.765-.063-1.383-.094-1.834,2.819,4.946,6.35,8.183,12.794,11.6a26.68,26.68,0,0,1,2.892-4.013,32.6,32.6,0,0,1-7.932-4.568l.021-.021Zm-11.945,3.2c0,.891-.21,1.027-1.624,1.027a20.746,20.746,0,0,1-3.762-.346c2-.985,3.154-1.624,5.375-2.944v2.263Zm0-6.444q-3.835,2.043-5.25,2.724l2.557-2.682a21.287,21.287,0,0,0-4.307-3.667h7v3.625h0Zm4.3-14.921h7.031v1.928H63.108Zm0,5.627h7.031V20.41H63.108Zm1.54,5.679h7.9a19.674,19.674,0,0,1-4.778,4.139,21.09,21.09,0,0,1-3.112-4.139Z" transform="translate(1.846 0.001)"/>
        <path id="Path_123" data-name="Path 123" d="M126.4,9.917a.635.635,0,0,0-.5-.262h-7.827a.638.638,0,0,0-.608.461l-4,14.837L108.8,9.99a.619.619,0,0,0-.6-.44h-6.79a.629.629,0,0,0-.6.44l-4.6,14.889L92.311,10.116a.611.611,0,0,0-.608-.461H83.719a.663.663,0,0,0-.5.241.6.6,0,0,0-.094.545l8.561,28.008a.619.619,0,0,0,.6.44h7.062a.629.629,0,0,0,.6-.44l4.841-15.193,4.757,15.193a.619.619,0,0,0,.6.44h7.1a.629.629,0,0,0,.6-.44l8.655-28.008A.63.63,0,0,0,126.4,9.9Z" transform="translate(3.973 0.457)"/>
        <path id="Path_124" data-name="Path 124" d="M148.786,13.99a13.19,13.19,0,0,0-10.74-4.82c-8.183,0-14.365,6.486-14.365,15.088v.1c0,8.676,6.36,14.984,15.141,14.984a14.475,14.475,0,0,0,11.84-5.417.618.618,0,0,0-.063-.849l-4.506-3.992a.637.637,0,0,0-.838,0,8.478,8.478,0,0,1-6.318,2.682,5.787,5.787,0,0,1-5.983-4.2h18.536a.628.628,0,0,0,.618-.587c.052-.723.1-1.477.1-2.117a17.482,17.482,0,0,0-3.426-10.9Zm-10.73,2.745c2.64,0,4.516,1.729,5.124,4.673H132.8c.733-2.976,2.62-4.673,5.26-4.673" transform="translate(5.913 0.438)"/>
        <path id="Path_125" data-name="Path 125" d="M153.977.06h7.953a.587.587,0,0,1,.587.587V38.577a.587.587,0,0,1-.587.587h-7.953a.587.587,0,0,1-.587-.587V.647a.587.587,0,0,1,.587-.587" transform="translate(7.334 0.003)"/>
        <path id="Path_126" data-name="Path 126" d="M166.057.06h7.953a.587.587,0,0,1,.587.587V38.577a.587.587,0,0,1-.587.587h-7.953a.587.587,0,0,1-.587-.587V.647a.587.587,0,0,1,.587-.587" transform="translate(7.911 0.003)"/>
        <path id="Path_127" data-name="Path 127" d="M203.4,33.207l-4.621-4.663a.633.633,0,0,0-.87-.01c-1.771,1.676-3.458,2.787-5.952,2.787-3.793,0-6.434-2.892-6.434-7.062v-.1c0-3.887,2.682-6.947,6.119-6.947,2.63,0,4.254,1.142,5.868,2.861a.609.609,0,0,0,.451.189.582.582,0,0,0,.451-.2l4.82-5.187a.615.615,0,0,0,0-.838c-3.007-3.363-6.58-4.872-11.568-4.872A14.889,14.889,0,0,0,176.47,24.248v.1a14.879,14.879,0,0,0,15.088,14.984,14.466,14.466,0,0,0,11.809-5.291.618.618,0,0,0-.021-.849h.042Z" transform="translate(8.437 0.438)"/>
        <path id="Path_128" data-name="Path 128" d="M268.467,9.16a11.9,11.9,0,0,0-9.011,3.982,9,9,0,0,0-7.942-3.982,10.119,10.119,0,0,0-7.576,3.384V10.292a.631.631,0,0,0-.629-.629h-7.89a.631.631,0,0,0-.629.629v27.8a.631.631,0,0,0,.629.629h7.89a.631.631,0,0,0,.629-.629v-15.5c0-2.295.712-5.029,4.149-5.029,2.651,0,3.992,1.687,3.992,5.029v15.5a.631.631,0,0,0,.629.629h7.89a.63.63,0,0,0,.629-.629v-15.5c0-2.295.713-5.029,4.149-5.029,2.651,0,3.992,1.687,3.992,5.029v15.5a.631.631,0,0,0,.629.629h7.89a.631.631,0,0,0,.629-.629v-18.1c0-6.895-3.646-10.834-10.007-10.834h-.042Z" transform="translate(11.225 0.438)"/>
        <path id="Path_129" data-name="Path 129" d="M304.206,13.99a13.19,13.19,0,0,0-10.74-4.82c-8.183,0-14.365,6.486-14.365,15.088v.1c0,8.676,6.36,14.984,15.141,14.984a14.475,14.475,0,0,0,11.84-5.417.618.618,0,0,0-.063-.849l-4.506-3.992a.637.637,0,0,0-.838,0,8.477,8.477,0,0,1-6.318,2.682,5.787,5.787,0,0,1-5.983-4.2h18.536a.628.628,0,0,0,.618-.587c.052-.723.1-1.477.1-2.117a17.482,17.482,0,0,0-3.426-10.9Zm-10.74,2.745c2.64,0,4.516,1.729,5.124,4.673H288.206c.733-2.976,2.619-4.673,5.26-4.673" transform="translate(13.344 0.438)"/>
        <path id="Path_130" data-name="Path 130" d="M218.657,9.22c-8.812,0-15.717,6.633-15.717,15.088v.1a14.7,14.7,0,0,0,4.453,10.625A15.813,15.813,0,0,0,218.542,39.4c8.812,0,15.717-6.633,15.717-15.088v-.1a14.7,14.7,0,0,0-4.453-10.625A15.813,15.813,0,0,0,218.657,9.22Zm-6.7,14.984c0-4.778,3.416-6.947,6.591-6.947a6.724,6.724,0,0,1,6.685,7.062v.1c0,4.778-3.416,6.947-6.591,6.947a6.724,6.724,0,0,1-6.685-7.062Z" transform="translate(9.703 0.441)"/>
      </g>
    </g>
  </g>
</svg>
