<svg xmlns="http://www.w3.org/2000/svg" xmlns:xlink="http://www.w3.org/1999/xlink" width="500" height="300" viewBox="0 0 500 300">
  <defs>
    <clipPath id="clip-logo_13">
      <rect width="500" height="300"/>
    </clipPath>
  </defs>
  <g id="logo_13" clip-path="url(#clip-logo_13)">
    <g id="Group_44" data-name="Group 44" transform="translate(104.576 106.961)">
      <path id="Path_2034" data-name="Path 2034" d="M571.362,321.4h8.14a11.694,11.694,0,0,1-1.051-5.785V303.071h18.184V315.62a12.087,12.087,0,0,1-1.057,5.785h8.11a9.811,9.811,0,0,1-1.077-4.073V293.162a15.288,15.288,0,0,1,1.077-7.531h-8.109a12.017,12.017,0,0,1,1.056,5.775v9.1H578.451v-9.1a11.623,11.623,0,0,1,1.051-5.775h-8.14a15.427,15.427,0,0,1,1.09,7.531v24.2a10.19,10.19,0,0,1-1.09,4.042" transform="translate(-460.752 -273.166)"/>
      <path id="Path_2035" data-name="Path 2035" d="M577.349,321.395h8.1a11.942,11.942,0,0,1-1.082-5.78V302.9c.5-.416.95-.824,1.26-1.059,5.364,10.01,6.232,10.243,12.655,19.628h9.091a80.9,80.9,0,0,1-18.093-22.647l13-13.122h-4.729a21.335,21.335,0,0,1-4.961,5.036l-8.21,8.884v-8.21a11.926,11.926,0,0,1,1.082-5.78h-8.1a15.374,15.374,0,0,1,1.033,7.531v24.168a9.482,9.482,0,0,1-1.033,4.068" transform="translate(-429.046 -273.192)"/>
      <path id="Path_2036" data-name="Path 2036" d="M574.969,294.34a1.241,1.241,0,0,1,.56.088.589.589,0,0,1,.276.566v2.154h-2.859v-2.18a.517.517,0,0,1,.258-.517,1.17,1.17,0,0,1,.547-.114v-.258h-2.425v.258h.2c.408,0,.61.209.61.63v4.863c0,.408-.258.622-.806.622v.258h2.425v-.258a1.807,1.807,0,0,1-.535-.1.459.459,0,0,1-.276-.46v-2.435H575.8v2.368a.537.537,0,0,1-.289.517,1.2,1.2,0,0,1-.547.1v.258h2.456v-.258a1.517,1.517,0,0,1-.542-.1.516.516,0,0,1-.258-.517v-4.873a.517.517,0,0,1,.258-.516,1.23,1.23,0,0,1,.547-.114v-.258h-2.456Z" transform="translate(-460.926 -228.46)"/>
      <path id="Path_2037" data-name="Path 2037" d="M574.281,294.419a1.712,1.712,0,0,0-1.41.736,2.427,2.427,0,0,0-.534,1.581,2.4,2.4,0,0,0,.547,1.573,1.774,1.774,0,0,0,1.418.713,1.751,1.751,0,0,0,1.4-.661,2.3,2.3,0,0,0,.573-1.607,2.447,2.447,0,0,0-.553-1.6,1.738,1.738,0,0,0-1.436-.736m.955,3.778a1.033,1.033,0,0,1-1.883-.057,3.163,3.163,0,0,1-.276-1.423,2.993,2.993,0,0,1,.315-1.472,1.012,1.012,0,0,1,.919-.561,1.033,1.033,0,0,1,.95.666,3.329,3.329,0,0,1,.258,1.418,3.1,3.1,0,0,1-.3,1.428" transform="translate(-455.596 -226.625)"/>
      <path id="Path_2038" data-name="Path 2038" d="M576.951,297.989v-1.965c0-1.064-.385-1.606-1.134-1.606a2.354,2.354,0,0,0-1.485.837v-.837H574.2l-1.191.408v.258c.452.018.687.227.687.61v2.368c0,.22-.026.359-.119.434a.915.915,0,0,1-.452.119v.258h1.862v-.258a1.127,1.127,0,0,1-.473-.088.537.537,0,0,1-.183-.465v-2.505a1.889,1.889,0,0,1,1.209-.666c.516,0,.775.372.775,1.134v2.04a.535.535,0,0,1-.145.447,1.009,1.009,0,0,1-.467.106v.258h1.865v-.258a.924.924,0,0,1-.478-.119.732.732,0,0,1-.139-.517" transform="translate(-452.026 -226.623)"/>
      <path id="Path_2039" data-name="Path 2039" d="M577.095,294.885a1.807,1.807,0,0,0-1.227-.465,1.624,1.624,0,0,0-1.227.517,1.4,1.4,0,0,0-.447,1.059,1.549,1.549,0,0,0,.806,1.327,3.16,3.16,0,0,0-.573.328.434.434,0,0,0-.22.359.422.422,0,0,0,.232.351c.3.1.555.183.775.258v.018a4.149,4.149,0,0,0-.989.372.723.723,0,0,0-.455.622c0,.289.2.517.555.687a4.211,4.211,0,0,0,1.593.258,3.9,3.9,0,0,0,1.221-.171,1.04,1.04,0,0,0,.845-.976.836.836,0,0,0-.429-.762,4.8,4.8,0,0,0-1.725-.516c-.643-.1-.971-.22-.971-.354s.127-.2.354-.359a2.657,2.657,0,0,0,.679.119,1.669,1.669,0,0,0,1.216-.46,1.549,1.549,0,0,0,.465-1.108,1.373,1.373,0,0,0-.346-.919.406.406,0,0,1,.258-.127.259.259,0,0,1,.22.114.662.662,0,0,0,.359.145c.24,0,.359-.127.359-.385s-.163-.39-.478-.39a1.266,1.266,0,0,0-.849.465m-.127,4.186c.31.132.46.31.46.542,0,.454-.516.7-1.511.7s-1.467-.24-1.467-.679c0-.372.385-.674,1.2-.894a7.826,7.826,0,0,1,1.322.333m-.478-2.032a.866.866,0,0,1-.623.258.774.774,0,0,1-.656-.364,1.759,1.759,0,0,1,0-1.9.813.813,0,0,1,.679-.346.844.844,0,0,1,.679.333,1.528,1.528,0,0,1,.258.945,1.457,1.457,0,0,1-.351,1.069" transform="translate(-447.994 -226.624)"/>
      <path id="Path_2040" data-name="Path 2040" d="M580.13,299.831l-2.1-3.262,1.593-1.63a1.773,1.773,0,0,1,1.214-.612v-.258h-2.2v.258c.39.026.591.145.591.364a1.075,1.075,0,0,1-.39.666l-2.2,2.28v-2.611a.65.65,0,0,1,.214-.573,1.264,1.264,0,0,1,.591-.114v-.258H575.03v.258a1.232,1.232,0,0,1,.573.114c.163.1.232.3.232.6v4.514c0,.39-.07.63-.227.744a.966.966,0,0,1-.6.152v.258h2.43v-.258a1.254,1.254,0,0,1-.56-.119.67.67,0,0,1-.258-.578v-1.748l.806-.845,1.808,2.771a.581.581,0,0,1,.075.227c0,.158-.227.258-.687.284v.258H581.1v-.258a1.192,1.192,0,0,1-.517-.132,1.291,1.291,0,0,1-.459-.491" transform="translate(-441.435 -228.46)"/>
      <path id="Path_2041" data-name="Path 2041" d="M577.967,294.419a1.691,1.691,0,0,0-1.4.736,2.557,2.557,0,0,0,0,3.153,1.773,1.773,0,0,0,1.415.713,1.73,1.73,0,0,0,1.392-.661,2.324,2.324,0,0,0,.586-1.606,2.452,2.452,0,0,0-.56-1.6,1.738,1.738,0,0,0-1.436-.736m.958,3.778a1.033,1.033,0,0,1-1.883-.057,3.254,3.254,0,0,1-.276-1.423,3.065,3.065,0,0,1,.315-1.472,1.013,1.013,0,0,1,.919-.561,1.033,1.033,0,0,1,.95.667,3.312,3.312,0,0,1,.258,1.418,3.1,3.1,0,0,1-.3,1.428" transform="translate(-436.087 -226.625)"/>
      <path id="Path_2042" data-name="Path 2042" d="M580.641,297.989v-1.965c0-1.064-.377-1.606-1.134-1.606a2.337,2.337,0,0,0-1.48.837v-.837h-.14l-1.2.408v.258c.46.018.7.227.7.61v2.368c0,.22-.031.359-.126.434a.918.918,0,0,1-.455.119v.258h1.865v-.258a1.136,1.136,0,0,1-.473-.088.538.538,0,0,1-.176-.465v-2.505a1.872,1.872,0,0,1,1.209-.666c.516,0,.775.372.775,1.134v2.04a.532.532,0,0,1-.145.447.983.983,0,0,1-.465.106v.258h1.87v-.258a.935.935,0,0,1-.485-.119.738.738,0,0,1-.14-.516" transform="translate(-432.521 -226.623)"/>
      <path id="Path_2043" data-name="Path 2043" d="M580.782,294.885a1.826,1.826,0,0,0-1.227-.465,1.614,1.614,0,0,0-1.227.517,1.425,1.425,0,0,0-.454,1.059,1.55,1.55,0,0,0,.813,1.328,3.057,3.057,0,0,0-.578.328.449.449,0,0,0-.22.359.436.436,0,0,0,.232.351c.3.1.555.183.775.258v.018a4.337,4.337,0,0,0-.994.372.726.726,0,0,0-.447.622c0,.289.2.517.56.687a4.2,4.2,0,0,0,1.586.258,3.9,3.9,0,0,0,1.222-.17c.555-.183.845-.516.845-.976a.841.841,0,0,0-.421-.762,4.906,4.906,0,0,0-1.733-.516c-.643-.1-.969-.22-.969-.354s.126-.2.351-.359a2.692,2.692,0,0,0,.687.119,1.65,1.65,0,0,0,1.208-.46,1.549,1.549,0,0,0,.478-1.108,1.387,1.387,0,0,0-.359-.919.422.422,0,0,1,.258-.127.258.258,0,0,1,.219.114.679.679,0,0,0,.372.145c.227,0,.351-.127.351-.385s-.163-.39-.486-.39a1.239,1.239,0,0,0-.844.465m-.132,4.186c.315.132.46.31.46.542,0,.454-.5.7-1.511.7s-1.467-.24-1.467-.679c0-.372.4-.674,1.2-.894a7.632,7.632,0,0,1,1.322.333m-.478-2.032a.863.863,0,0,1-.617.258.775.775,0,0,1-.661-.364,1.759,1.759,0,0,1,0-1.9.823.823,0,0,1,.687-.346.853.853,0,0,1,.679.333,1.571,1.571,0,0,1,.258.945,1.457,1.457,0,0,1-.354,1.069" transform="translate(-428.487 -226.624)"/>
      <path id="Path_2044" data-name="Path 2044" d="M579.488,294.332h.276a.729.729,0,0,1,.485.152.858.858,0,0,1,.15.573V300.5c0,.981-.163,1.462-.491,1.462-.126,0-.258-.1-.338-.315-.132-.258-.284-.39-.473-.39a.49.49,0,0,0-.359.127.484.484,0,0,0-.15.364.571.571,0,0,0,.233.455.826.826,0,0,0,.6.2,1.57,1.57,0,0,0,1.222-.553A2.726,2.726,0,0,0,581.2,300v-5.005a.573.573,0,0,1,.258-.548,1.21,1.21,0,0,1,.56-.114v-.258H579.5Z" transform="translate(-422.482 -228.452)"/>
      <path id="Path_2045" data-name="Path 2045" d="M581.234,298.624a1.126,1.126,0,0,1-1.059-.666,2.031,2.031,0,0,1-.258-1.033v-.455h2.758a3.046,3.046,0,0,0-.372-1.317,1.483,1.483,0,0,0-1.291-.736,1.565,1.565,0,0,0-1.292.731,2.808,2.808,0,0,0-.542,1.712,2.563,2.563,0,0,0,.39,1.4,1.632,1.632,0,0,0,1.454.749,1.917,1.917,0,0,0,1.134-.346,3.519,3.519,0,0,0,.6-.617l-.175-.152a1.968,1.968,0,0,1-1.335.718m-.894-3.6a.816.816,0,0,1,.661-.333c.586,0,.9.486.907,1.472h-1.958a1.762,1.762,0,0,1,.39-1.139" transform="translate(-419.383 -226.623)"/>
      <path id="Path_2046" data-name="Path 2046" d="M584.622,294.707c.447.026.674.158.674.416a1.287,1.287,0,0,1-.052.32l-.832,2.425h-.018l-.937-2.619-.044-.183c0-.258.188-.341.555-.359v-.258h-1.857v.258a.688.688,0,0,1,.473.152,2.5,2.5,0,0,1,.31.561l-.868,2.461h0l-.927-2.658a.715.715,0,0,1-.052-.258c0-.158.188-.258.573-.258v-.258h-1.852v.258a.72.72,0,0,1,.346.075c.145.057.233.207.315.421l1.291,3.69h.227l1.064-3.016h.026l1.072,3.016h.258l1.227-3.582a.929.929,0,0,1,.39-.517.675.675,0,0,1,.341-.1v-.258h-1.694Z" transform="translate(-416.247 -226.497)"/>
      <path id="Path_2047" data-name="Path 2047" d="M582.91,298.624a1.121,1.121,0,0,1-1.059-.666,2.027,2.027,0,0,1-.258-1.033v-.455h2.745a2.96,2.96,0,0,0-.364-1.317,1.483,1.483,0,0,0-1.291-.736,1.562,1.562,0,0,0-1.291.731,2.8,2.8,0,0,0-.543,1.712,2.515,2.515,0,0,0,.4,1.4,1.614,1.614,0,0,0,1.449.749,1.9,1.9,0,0,0,1.134-.346,3.536,3.536,0,0,0,.6-.617l-.183-.152a1.932,1.932,0,0,1-1.327.718m-.894-3.6a.827.827,0,0,1,.661-.333c.591,0,.888.486.906,1.472H581.64a1.73,1.73,0,0,1,.39-1.139" transform="translate(-410.525 -226.623)"/>
      <path id="Path_2048" data-name="Path 2048" d="M582.805,300.071v-6.02h-.132l-1.209.434v.258c.465,0,.705.183.705.517v4.747c0,.232-.052.4-.176.465a1.032,1.032,0,0,1-.465.088v.258h1.878v-.258a.963.963,0,0,1-.429-.083.462.462,0,0,1-.17-.416" transform="translate(-407.246 -228.574)"/>
      <path id="Path_2049" data-name="Path 2049" d="M583.12,295.5h-.026V294.42h-.119l-1.157.408v.258c.434.018.656.22.656.586v2.4c0,.219-.052.385-.175.454a1.033,1.033,0,0,1-.478.1v.258h2.046v-.258a1.493,1.493,0,0,1-.6-.1.71.71,0,0,1-.17-.555v-2.032a1.059,1.059,0,0,1,.289-.465c.2-.258.39-.385.553-.385a1.416,1.416,0,0,1,.3.106.8.8,0,0,0,.341.106c.289,0,.455-.145.455-.421a.436.436,0,0,0-.5-.452c-.455,0-.92.364-1.41,1.082" transform="translate(-405.381 -226.618)"/>
      <path id="Path_2050" data-name="Path 2050" d="M585.139,294.7c.429.026.656.132.656.354a1.374,1.374,0,0,1-.127.517l-.906,2.368-.989-2.714a.434.434,0,0,1-.057-.258.206.206,0,0,1,.176-.219,2,2,0,0,1,.4-.044v-.258h-1.939v.258a1.017,1.017,0,0,1,.468.1.9.9,0,0,1,.315.473l1.291,3.512c-.258.736-.491,1.1-.736,1.1a.615.615,0,0,1-.258-.158.516.516,0,0,0-.346-.163.367.367,0,0,0-.3.119.434.434,0,0,0-.114.3.388.388,0,0,0,.17.32.756.756,0,0,0,.447.139c.542,0,.956-.408,1.291-1.234l1.524-3.928a.883.883,0,0,1,.811-.565v-.258h-1.774Z" transform="translate(-402.534 -226.491)"/>
      <path id="Path_2051" data-name="Path 2051" d="M587.4,299.471h-.018l-1.9-5.39h-1.888v.258a1.364,1.364,0,0,1,.573.1.624.624,0,0,1,.258.591v4.543a.775.775,0,0,1-.819.881v.258h2v-.258a1.153,1.153,0,0,1-.517-.132.875.875,0,0,1-.32-.775v-5.225h.018l2.255,6.456h.258l2.255-6.436h.026v5.439a.633.633,0,0,1-.258.578,1.55,1.55,0,0,1-.591.1v.258H591.2v-.258a1.748,1.748,0,0,1-.516-.088.534.534,0,0,1-.284-.542v-4.886a.517.517,0,0,1,.258-.517,1.289,1.289,0,0,1,.552-.1v-.258H589.33Z" transform="translate(-395.971 -228.451)"/>
      <path id="Path_2052" data-name="Path 2052" d="M588.406,298.6c-.2,0-.289-.163-.289-.517v-2.606c0-.7-.486-1.059-1.472-1.059a2.323,2.323,0,0,0-1.2.3c-.307.176-.46.364-.46.586a.517.517,0,0,0,.1.3.429.429,0,0,0,.341.145c.2,0,.364-.158.486-.447a1.031,1.031,0,0,1,.3-.478.8.8,0,0,1,.5-.145c.517,0,.775.315.775.932v.61a7.556,7.556,0,0,0-1.738.566c-.617.333-.932.731-.932,1.209a.96.96,0,0,0,.328.731,1.153,1.153,0,0,0,.813.284,1.745,1.745,0,0,0,.757-.152,8.54,8.54,0,0,0,.775-.491,1.4,1.4,0,0,0,.17.46.581.581,0,0,0,.486.183.723.723,0,0,0,.723-.517l-.176-.088a.354.354,0,0,1-.3.183m-.906-.517a2.108,2.108,0,0,1-1.235.578.653.653,0,0,1-.473-.175.7.7,0,0,1-.219-.517,1.181,1.181,0,0,1,.622-.937,3.8,3.8,0,0,1,1.292-.535Z" transform="translate(-389.463 -226.633)"/>
      <path id="Path_2053" data-name="Path 2053" d="M589.447,297.989v-1.965c0-1.064-.385-1.606-1.126-1.606a2.364,2.364,0,0,0-1.493.837v-.837H586.7l-1.191.408v.258c.46.018.692.227.692.61v2.368a.579.579,0,0,1-.119.434,1.012,1.012,0,0,1-.46.119v.258h1.865v-.258a1.08,1.08,0,0,1-.468-.088.516.516,0,0,1-.188-.465v-2.505a1.9,1.9,0,0,1,1.214-.666c.516,0,.775.372.775,1.134v2.04a.534.534,0,0,1-.15.447.983.983,0,0,1-.465.106v.258h1.862v-.258a.946.946,0,0,1-.478-.119.739.739,0,0,1-.139-.516" transform="translate(-385.846 -226.623)"/>
      <path id="Path_2054" data-name="Path 2054" d="M590.249,298.189v-3.765h-.132l-1.26.341v.258a1.656,1.656,0,0,1,.542.057.4.4,0,0,1,.219.4v2.361a1.751,1.751,0,0,1-1.273.723.775.775,0,0,1-.591-.289,1.4,1.4,0,0,1-.233-.831v-3.029h-.114l-1.147.341v.258c.442,0,.648.15.648.408v2.211a1.485,1.485,0,0,0,.32,1,1.1,1.1,0,0,0,.844.372,2.283,2.283,0,0,0,1.55-.831v.775h.132a2.147,2.147,0,0,1,.692-.1h.434v-.258c-.434,0-.63-.158-.63-.434" transform="translate(-381.839 -226.63)"/>
      <path id="Path_2055" data-name="Path 2055" d="M589.012,294.543c.062,0,.132.044.214.145a.643.643,0,0,0,.434.219.346.346,0,0,0,.385-.4c0-.3-.175-.46-.534-.46a1.2,1.2,0,0,0-.893.385,2.092,2.092,0,0,0-.534,1.033,6.384,6.384,0,0,0-.114,1.082l-.945-.026v.341l.945-.018v3.135a.534.534,0,0,1-.214.516,1.838,1.838,0,0,1-.666.088v.258h2.443v-.258a2.109,2.109,0,0,1-.731-.083c-.15-.062-.207-.258-.207-.534v-3.1l1.139.018v-.341l-1.139.026c0-1.335.145-2,.421-2" transform="translate(-377.812 -228.575)"/>
      <path id="Path_2056" data-name="Path 2056" d="M591.059,298.6c-.2,0-.289-.163-.289-.517v-2.606c0-.7-.5-1.059-1.467-1.059a2.3,2.3,0,0,0-1.2.3c-.32.176-.46.364-.46.586a.438.438,0,0,0,.1.3.4.4,0,0,0,.328.145c.214,0,.377-.158.491-.447a1.073,1.073,0,0,1,.3-.478.775.775,0,0,1,.5-.144c.517,0,.775.315.775.932v.609a7.823,7.823,0,0,0-1.73.566c-.61.333-.92.731-.92,1.209a.953.953,0,0,0,.32.731,1.154,1.154,0,0,0,.813.284,1.735,1.735,0,0,0,.749-.152,7.166,7.166,0,0,0,.775-.491,1.26,1.26,0,0,0,.183.46.564.564,0,0,0,.473.184.729.729,0,0,0,.736-.517l-.176-.088a.339.339,0,0,1-.3.183m-.919-.517a2.05,2.05,0,0,1-1.214.578.7.7,0,0,1-.491-.176.736.736,0,0,1-.207-.517,1.152,1.152,0,0,1,.623-.938,3.837,3.837,0,0,1,1.291-.535Z" transform="translate(-375.35 -226.634)"/>
      <path id="Path_2057" data-name="Path 2057" d="M590.264,298.617a1.152,1.152,0,0,1-1.1-.749,2.975,2.975,0,0,1-.232-1.234,2.917,2.917,0,0,1,.258-1.278,1.033,1.033,0,0,1,.963-.674c.315,0,.517.183.617.542s.258.473.486.473a.374.374,0,0,0,.429-.421.7.7,0,0,0-.447-.592,1.911,1.911,0,0,0-2.487.486,2.641,2.641,0,0,0-.573,1.712,2.388,2.388,0,0,0,.4,1.4,1.68,1.68,0,0,0,1.485.736,1.986,1.986,0,0,0,1.687-1.051l-.145-.139a1.971,1.971,0,0,1-1.348.793" transform="translate(-371.671 -226.624)"/>
      <path id="Path_2058" data-name="Path 2058" d="M590.6,299.825c-.359,0-.516-.284-.516-.85v-2.864h1.335v-.333h-1.335v-1.586h-.258a1.614,1.614,0,0,1-1.033,1.65v.258h.656v2.921c0,.793.31,1.191.92,1.191a1.24,1.24,0,0,0,1.077-.71l-.145-.1a.915.915,0,0,1-.687.411" transform="translate(-368.467 -227.829)"/>
      <path id="Path_2059" data-name="Path 2059" d="M593.224,298.189v-3.765h-.132l-1.26.341v.258a1.614,1.614,0,0,1,.534.057.39.39,0,0,1,.219.4v2.361a1.728,1.728,0,0,1-1.273.723.749.749,0,0,1-.586-.289,1.4,1.4,0,0,1-.227-.831v-3.029h-.119l-1.152.341v.258c.442,0,.656.15.656.408v2.211a1.481,1.481,0,0,0,.32,1,1.108,1.108,0,0,0,.845.372,2.257,2.257,0,0,0,1.536-.832v.775h.137a2.139,2.139,0,0,1,.687-.1h.442v-.258c-.434,0-.63-.158-.63-.434" transform="translate(-366.124 -226.63)"/>
      <path id="Path_2060" data-name="Path 2060" d="M591.294,295.5h-.026V294.42h-.119l-1.16.408v.258c.429.018.648.22.648.586v2.4c0,.219-.044.385-.163.454a1.139,1.139,0,0,1-.485.1v.258h2.045v-.258a1.448,1.448,0,0,1-.6-.1.688.688,0,0,1-.17-.555v-2.032a1,1,0,0,1,.289-.465.8.8,0,0,1,.547-.385.847.847,0,0,1,.3.106.775.775,0,0,0,.333.106c.3,0,.455-.145.455-.421a.436.436,0,0,0-.5-.452c-.452,0-.919.364-1.4,1.082" transform="translate(-362.1 -226.618)"/>
      <path id="Path_2061" data-name="Path 2061" d="M592.6,298.624a1.118,1.118,0,0,1-1.051-.666,2.024,2.024,0,0,1-.258-1.033v-.455h2.745a2.967,2.967,0,0,0-.364-1.317,1.482,1.482,0,0,0-1.291-.736,1.549,1.549,0,0,0-1.291.731,2.807,2.807,0,0,0-.542,1.712,2.464,2.464,0,0,0,.4,1.4,1.627,1.627,0,0,0,1.449.749,1.937,1.937,0,0,0,1.139-.346,3.781,3.781,0,0,0,.6-.617l-.184-.152a1.932,1.932,0,0,1-1.335.718m-.888-3.6a.823.823,0,0,1,.656-.333c.6,0,.9.486.914,1.472h-1.958a1.767,1.767,0,0,1,.39-1.139" transform="translate(-359.19 -226.623)"/>
      <path id="Path_2062" data-name="Path 2062" d="M592.426,295.5h0V294.42h-.132l-1.16.408v.258c.434.018.656.22.656.586v2.4c0,.219-.049.385-.17.454a1.09,1.09,0,0,1-.486.1v.258H593.2v-.258a1.453,1.453,0,0,1-.6-.1c-.109-.083-.163-.258-.163-.555v-2.032a.967.967,0,0,1,.284-.465c.2-.258.385-.385.555-.385a1.288,1.288,0,0,1,.289.106.856.856,0,0,0,.341.106c.3,0,.455-.145.455-.421a.436.436,0,0,0-.5-.452c-.452,0-.907.364-1.41,1.082" transform="translate(-356.052 -226.618)"/>
      <path id="Path_2063" data-name="Path 2063" d="M593.577,296.308a3.21,3.21,0,0,1-1.077-.429.586.586,0,0,1-.258-.478.688.688,0,0,1,.214-.517.911.911,0,0,1,.591-.2,2.343,2.343,0,0,1,1.707,1.159l.258-.088-.517-1.34a.62.62,0,0,1-.473.2,1.6,1.6,0,0,1-.447-.083,1.837,1.837,0,0,0-.516-.114,1.239,1.239,0,0,0-.875.333,1.206,1.206,0,0,0,.17,1.844,3.644,3.644,0,0,0,.956.4,6.5,6.5,0,0,1,1.064.354.646.646,0,0,1,.315.573.8.8,0,0,1-.258.6.958.958,0,0,1-.617.24,1.773,1.773,0,0,1-1.147-.491,4.718,4.718,0,0,1-.775-.8l-.219.088.516,1.454a.968.968,0,0,1,.566-.207,3.789,3.789,0,0,1,.39.1,2.494,2.494,0,0,0,.61.114,1.394,1.394,0,0,0,.994-.377,1.247,1.247,0,0,0,.4-.925,1.134,1.134,0,0,0-.517-.994,3.612,3.612,0,0,0-1.051-.421" transform="translate(-353.195 -226.632)"/>
      <path id="Path_2064" data-name="Path 2064" d="M592.318,294.611a6.623,6.623,0,0,0,.109.775l.24,1.328h.2l.258-1.327a5.95,5.95,0,0,0,.119-.832.418.418,0,0,0-.472-.473c-.289,0-.434.176-.434.542" transform="translate(-349.769 -228.447)"/>
      <path id="Path_2065" data-name="Path 2065" d="M598.5,299.783l-1.878-5.736-.71.17-1.808,5.5a1.2,1.2,0,0,1-.516.757,1.16,1.16,0,0,1-.56.132v.258h2.216V300.6c-.555-.018-.837-.2-.837-.5a1.477,1.477,0,0,1,.088-.465l.359-1.139h2.412l.465,1.392c.039.214.057.3.057.3a.333.333,0,0,1-.277.341,1.86,1.86,0,0,1-.542.07v.258h2.57V300.6a1.24,1.24,0,0,1-.6-.139,1.19,1.19,0,0,1-.434-.679m-3.533-1.63,1.1-3.357h.018l1.09,3.357Z" transform="translate(-346.034 -228.595)"/>
      <path id="Path_2066" data-name="Path 2066" d="M596.006,296.308a3.1,3.1,0,0,1-1.072-.429.591.591,0,0,1-.258-.478.687.687,0,0,1,.214-.517.9.9,0,0,1,.591-.2,2.324,2.324,0,0,1,1.7,1.159l.258-.088-.516-1.34a.6.6,0,0,1-.472.2,1.64,1.64,0,0,1-.447-.083,1.879,1.879,0,0,0-.517-.113,1.265,1.265,0,0,0-.88.333,1.139,1.139,0,0,0-.346.868,1.111,1.111,0,0,0,.517.976,3.644,3.644,0,0,0,.958.4,6.706,6.706,0,0,1,1.064.354.645.645,0,0,1,.315.573.794.794,0,0,1-.258.6.973.973,0,0,1-.617.24,1.793,1.793,0,0,1-1.16-.491,4.746,4.746,0,0,1-.762-.8l-.227.088.516,1.454a.965.965,0,0,1,.56-.207,1.934,1.934,0,0,1,.4.1,2.535,2.535,0,0,0,.617.114,1.389,1.389,0,0,0,.989-.377,1.248,1.248,0,0,0,.4-.925,1.121,1.121,0,0,0-.517-.994A3.621,3.621,0,0,0,596,296.3" transform="translate(-340.381 -226.632)"/>
      <path id="Path_2067" data-name="Path 2067" d="M596.629,296.308a3.276,3.276,0,0,1-1.077-.429.6.6,0,0,1-.245-.478.685.685,0,0,1,.214-.517.914.914,0,0,1,.6-.2,2.324,2.324,0,0,1,1.7,1.16l.258-.088-.517-1.34a.621.621,0,0,1-.478.2,1.685,1.685,0,0,1-.447-.083,1.893,1.893,0,0,0-.516-.114,1.245,1.245,0,0,0-.881.333,1.121,1.121,0,0,0-.351.868,1.1,1.1,0,0,0,.517.976,3.6,3.6,0,0,0,.95.4,6.863,6.863,0,0,1,1.069.354.654.654,0,0,1,.31.573.774.774,0,0,1-.258.6.976.976,0,0,1-.623.24,1.807,1.807,0,0,1-1.152-.491,4.992,4.992,0,0,1-.775-.8l-.232.088.535,1.454a.983.983,0,0,1,.565-.207,3.783,3.783,0,0,1,.39.1,2.531,2.531,0,0,0,.617.114,1.379,1.379,0,0,0,.989-.377,1.25,1.25,0,0,0,.4-.925,1.121,1.121,0,0,0-.516-.994,3.545,3.545,0,0,0-1.051-.421" transform="translate(-337.174 -226.632)"/>
      <path id="Path_2068" data-name="Path 2068" d="M597.264,294.419a1.712,1.712,0,0,0-1.41.736,2.426,2.426,0,0,0-.535,1.581,2.4,2.4,0,0,0,.547,1.573,1.764,1.764,0,0,0,1.415.713,1.73,1.73,0,0,0,1.392-.661,2.309,2.309,0,0,0,.579-1.607,2.45,2.45,0,0,0-.553-1.6,1.738,1.738,0,0,0-1.436-.736m.95,3.778a1,1,0,0,1-.92.573,1.033,1.033,0,0,1-.963-.63,3.268,3.268,0,0,1-.258-1.423,2.993,2.993,0,0,1,.315-1.472,1,1,0,0,1,.92-.56,1.018,1.018,0,0,1,.945.666,3.233,3.233,0,0,1,.258,1.418,3.017,3.017,0,0,1-.3,1.428" transform="translate(-333.876 -226.625)"/>
      <path id="Path_2069" data-name="Path 2069" d="M598.081,298.617a1.149,1.149,0,0,1-1.1-.749,3.073,3.073,0,0,1-.24-1.234,2.914,2.914,0,0,1,.276-1.278,1.033,1.033,0,0,1,.968-.674.623.623,0,0,1,.612.542c.1.359.245.473.478.473a.377.377,0,0,0,.434-.421.7.7,0,0,0-.442-.591,1.919,1.919,0,0,0-2.492.485,2.582,2.582,0,0,0-.566,1.712,2.381,2.381,0,0,0,.39,1.4,1.681,1.681,0,0,0,1.485.736,1.986,1.986,0,0,0,1.686-1.051l-.144-.139a1.983,1.983,0,0,1-1.348.793" transform="translate(-330.236 -226.624)"/>
      <path id="Path_2070" data-name="Path 2070" d="M597.521,294.87a.5.5,0,0,0,0-.674.44.44,0,0,0-.315-.145.517.517,0,0,0-.32.114.444.444,0,0,0-.189.372.464.464,0,0,0,.145.328.408.408,0,0,0,.333.139.429.429,0,0,0,.346-.132" transform="translate(-326.579 -228.574)"/>
      <path id="Path_2071" data-name="Path 2071" d="M597.933,298.159v-3.74H597.8l-1.178.408v.258c.452.026.679.2.679.517v2.342c0,.284-.031.473-.119.547a.8.8,0,0,1-.485.132v.258h1.878v-.258c-.442-.026-.643-.176-.643-.46" transform="translate(-326.965 -226.618)"/>
      <path id="Path_2072" data-name="Path 2072" d="M600.555,298.6c-.2,0-.289-.163-.289-.517v-2.606c0-.7-.491-1.059-1.48-1.059a2.3,2.3,0,0,0-1.19.3c-.307.176-.465.364-.465.586a.514.514,0,0,0,.1.3.446.446,0,0,0,.341.145c.215,0,.372-.158.486-.447a1.077,1.077,0,0,1,.3-.478.774.774,0,0,1,.517-.144c.517,0,.775.315.775.932v.609a7.568,7.568,0,0,0-1.738.565c-.617.333-.924.731-.924,1.209a.938.938,0,0,0,.328.731,1.134,1.134,0,0,0,.811.284,1.762,1.762,0,0,0,.757-.152,8.789,8.789,0,0,0,.774-.491,1.574,1.574,0,0,0,.171.46.6.6,0,0,0,.486.183.738.738,0,0,0,.736-.517l-.183-.088a.346.346,0,0,1-.3.183m-.914-.517a2.067,2.067,0,0,1-1.227.578.679.679,0,0,1-.478-.176.692.692,0,0,1-.214-.516,1.165,1.165,0,0,1,.622-.938,3.821,3.821,0,0,1,1.291-.535Z" transform="translate(-325.051 -226.633)"/>
      <path id="Path_2073" data-name="Path 2073" d="M599.486,299.825c-.359,0-.517-.284-.517-.85v-2.864H600.3v-.333h-1.335v-1.586h-.258a1.607,1.607,0,0,1-1.033,1.65v.258h.656v2.921c0,.793.31,1.191.919,1.191a1.24,1.24,0,0,0,1.077-.71l-.145-.1a.924.924,0,0,1-.687.411" transform="translate(-321.4 -227.829)"/>
      <path id="Path_2074" data-name="Path 2074" d="M599.464,294.419h-.139l-1.183.408v.258c.452.026.687.2.687.517v2.348c0,.276-.031.473-.127.542a.733.733,0,0,1-.485.132v.258h1.877v-.258c-.429-.018-.635-.163-.635-.455Z" transform="translate(-318.915 -226.625)"/>
      <path id="Path_2075" data-name="Path 2075" d="M599.043,294.87a.5.5,0,0,0,0-.674.445.445,0,0,0-.32-.145.517.517,0,0,0-.315.114.428.428,0,0,0-.189.372.438.438,0,0,0,.145.328.413.413,0,0,0,.328.139.452.452,0,0,0,.351-.132" transform="translate(-318.517 -228.574)"/>
      <path id="Path_2076" data-name="Path 2076" d="M600.451,294.419a1.707,1.707,0,0,0-1.4.736,2.424,2.424,0,0,0-.535,1.581,2.393,2.393,0,0,0,.542,1.573,1.785,1.785,0,0,0,1.423.713,1.748,1.748,0,0,0,1.392-.661,2.342,2.342,0,0,0,.578-1.606,2.417,2.417,0,0,0-.56-1.6,1.738,1.738,0,0,0-1.436-.736m.958,3.778a1.033,1.033,0,0,1-1.883-.057,3.247,3.247,0,0,1-.276-1.423,2.989,2.989,0,0,1,.32-1.472.99.99,0,0,1,.912-.561,1.033,1.033,0,0,1,.95.666,3.321,3.321,0,0,1,.258,1.418,3.03,3.03,0,0,1-.289,1.428" transform="translate(-316.96 -226.625)"/>
      <path id="Path_2077" data-name="Path 2077" d="M603.135,297.989v-1.965c0-1.064-.385-1.606-1.134-1.606a2.363,2.363,0,0,0-1.493.837v-.837h-.127l-1.2.408v.258c.46.018.692.227.692.61v2.368a.58.58,0,0,1-.119.434.99.99,0,0,1-.46.119v.258h1.865v-.258a1.074,1.074,0,0,1-.465-.088.54.54,0,0,1-.188-.465v-2.505a1.914,1.914,0,0,1,1.214-.666c.516,0,.775.372.775,1.134v2.04a.534.534,0,0,1-.15.447.982.982,0,0,1-.465.106v.258h1.87v-.258a.977.977,0,0,1-.485-.119.74.74,0,0,1-.132-.517" transform="translate(-313.397 -226.623)"/>
      <path id="Path_2078" data-name="Path 2078" d="M563.741,295.315a1.165,1.165,0,0,0-.989-.132,1.129,1.129,0,0,0-.775.674,1.749,1.749,0,0,0,.031,1.291,1.808,1.808,0,0,0,.7,1.077,1.147,1.147,0,0,0,.989.132,1.076,1.076,0,0,0,.744-.661,1.776,1.776,0,0,0-.031-1.309,1.808,1.808,0,0,0-.679-1.077" transform="translate(-511.012 -222.882)"/>
      <path id="Path_2079" data-name="Path 2079" d="M563.146,294.811a1.768,1.768,0,0,0,.359,1.2,1.887,1.887,0,0,0,1,.881,1.169,1.169,0,0,0,1.033-.15,1.55,1.55,0,0,0,.408-.421,1.487,1.487,0,0,0,.258-.517l-.328-.517-.888.579-.442-.674.793-.517h-2.172l-.031.139" transform="translate(-504.314 -225.285)"/>
      <path id="Path_2080" data-name="Path 2080" d="M559.344,295.056a1.845,1.845,0,0,0-.819,1.007,1.919,1.919,0,0,0-.145,1.291,1.092,1.092,0,0,0,.674.736,1.152,1.152,0,0,0,.989-.018,1.858,1.858,0,0,0,.819-1.033,1.947,1.947,0,0,0,.176-1.266,1.244,1.244,0,0,0-1.694-.713" transform="translate(-529.791 -223.848)"/>
      <path id="Path_2081" data-name="Path 2081" d="M565.586,289.919l-.026.031h0a1.2,1.2,0,0,0,.408,1.743,1.861,1.861,0,0,0,1.291.088,1.832,1.832,0,0,0,1.126-.6,1.149,1.149,0,0,0,.209-.981.807.807,0,0,0-.075-.258,1.2,1.2,0,0,0-.516-.547,1.944,1.944,0,0,0-1.291-.088,1.874,1.874,0,0,0-1.139.609" transform="translate(-492.641 -254.056)"/>
      <path id="Path_2082" data-name="Path 2082" d="M634.963,322.91c-.1-1.134-.258-2.255-.465-3.357h0c-.031-.17-.075-.333-.108-.517l4.507-1.485a43.229,43.229,0,0,0-2.448-7.688l-4.484,1.485a34.5,34.5,0,0,0-1.782-3.538l3.84-2.8c-.447-.744-.907-1.493-1.379-2.211a43.994,43.994,0,0,0-3.324-4.344l-3.833,2.794a36.232,36.232,0,0,0-2.8-2.841l2.763-3.84a.6.6,0,0,0-.126-.126,44.188,44.188,0,0,0-6.366-4.664l-2.764,3.84a38.641,38.641,0,0,0-3.595-1.857l1.462-4.514a43.688,43.688,0,0,0-7.662-2.526l-1.449,4.507a38.169,38.169,0,0,0-4.016-.643v-4.742a43.687,43.687,0,0,0-5.963-.152c-.718.031-1.418.088-2.11.144l.026,4.734a38.481,38.481,0,0,0-4.05.635l-1.48-4.5a42.67,42.67,0,0,0-7.668,2.505l1.472,4.5a39.852,39.852,0,0,0-3.647,1.878l-2.789-3.822a44.321,44.321,0,0,0-6.4,4.672l-.1.114,2.8,3.814a39.091,39.091,0,0,0-2.872,2.916l-3.846-2.771a43.333,43.333,0,0,0-3.267,4.295c-.5.744-.968,1.493-1.428,2.268l3.861,2.771a35.791,35.791,0,0,0-1.808,3.652l-4.514-1.441a42.286,42.286,0,0,0-2.412,7.694l4.514,1.454c-.018.114-.044.232-.07.351-.227,1.209-.39,2.417-.516,3.639l-4.734.018a44.715,44.715,0,0,0-.106,5.364c.044.907.119,1.808.214,2.714l4.742-.026a38.315,38.315,0,0,0,.674,3.954l-4.5,1.472a42.809,42.809,0,0,0,2.583,7.637l4.507-1.48c.566,1.2,1.191,2.368,1.857,3.5l-3.809,2.794a41.967,41.967,0,0,0,2.663,3.892c.7.881,1.41,1.738,2.167,2.562l3.512-2.562.315-.232c.062.07.145.145.22.227h9.383l1.033-1.712.793.473-.744,1.24-.233.39,1.55.932.775-1.322.183-.3.5.3.3.17-2.487,4.132-.775-.478,1.077-1.808-1.55-.924-1.082,1.808-.793-.486,1.467-2.412h-9.383c.819.863,1.681,1.7,2.583,2.492l-2.776,3.84c.824.71,1.694,1.392,2.583,2.045a46.653,46.653,0,0,0,4.011,2.614l1.9-2.614.888-1.234c.775.434,1.568.837,2.381,1.222.351.176.731.341,1.09.5l-1.436,4.514a42.552,42.552,0,0,0,7.7,2.4l1.449-4.509q1.859.359,3.809.56v4.729a43.763,43.763,0,0,0,5.534.106q1.286-.058,2.549-.183l-.026-4.742c1.291-.15,2.544-.359,3.765-.622l1.5,4.5a42.494,42.494,0,0,0,7.655-2.536l-1.493-4.5c.163-.07.315-.145.455-.2,1.02-.473,2-.994,2.939-1.55l1.134,1.55,1.676,2.273a40.364,40.364,0,0,0,3.424-2.273c1.064-.775,2.1-1.617,3.086-2.487l-2.807-3.827c.744-.661,1.449-1.353,2.115-2.066h0c.2-.22.4-.429.578-.635l.888.635,2.96,2.141q.935-1.059,1.782-2.141a42.212,42.212,0,0,0,2.965-4.391l-3.835-2.763a35.868,35.868,0,0,0,1.751-3.424l4.519,1.449a41.676,41.676,0,0,0,2.518-7.65l-4.5-1.454a34.919,34.919,0,0,0,.612-3.827l4.747-.018a46.035,46.035,0,0,0,.17-6.134c-.026-.643-.075-1.291-.132-1.927Zm-5.333-4.7a1.562,1.562,0,0,1,.547.5,2.326,2.326,0,0,1,.385.857h0v.044a2.144,2.144,0,0,1-.3,1.738,3.1,3.1,0,0,1-3.582.775,2.132,2.132,0,0,1-.989-1.441,2.583,2.583,0,0,1,0-1.121h0a1.948,1.948,0,0,1,.289-.6,2.606,2.606,0,0,1,1.65-.968,3.4,3.4,0,0,1,1.24-.057,2.325,2.325,0,0,1,.736.276m-1.033-4.558a2.047,2.047,0,0,1,.491.775,1.829,1.829,0,0,1,.088,1.361,1.474,1.474,0,0,1-.824.814l-.364-.857a.834.834,0,0,0,.4-.434.823.823,0,0,0-.057-.6,1,1,0,0,0-.385-.517.377.377,0,0,0-.339-.031.431.431,0,0,0-.214.232,2.04,2.04,0,0,0,0,.919,4.043,4.043,0,0,1,.031,1.033,1.422,1.422,0,0,1-.258.648,1.632,1.632,0,0,1-.661.447,1.488,1.488,0,0,1-.793.07,1.385,1.385,0,0,1-.736-.377,3.1,3.1,0,0,1-.516-.868,1.913,1.913,0,0,1-.075-1.4,1.894,1.894,0,0,1,.95-.958l.4.814a1.141,1.141,0,0,0-.534.561,1.16,1.16,0,0,0,.465,1.253.651.651,0,0,0,.516.049.492.492,0,0,0,.233-.2.644.644,0,0,0,.083-.385c0-.114-.026-.364-.07-.775a2.4,2.4,0,0,1,.075-1.139,1.25,1.25,0,0,1,.749-.744,1.363,1.363,0,0,1,.713-.062,1.292,1.292,0,0,1,.648.359m-37.964,30.108,5.534,5.067-8.28,2.789-4.855-7.523Zm-8.264-1.253-.289-6.591,6.883,6.3Zm-.4-8.863-.548-12.549,1.41-1.537,7.084-7.712,12.528-.555,9.039,8.264.232.214.547,12.549-8.486,9.256-12.541.548Zm21.079-23.995-5.478-5.018,5.351-1.808,2.9-.976.635.976,4.194,6.5Zm8.264,1.26.289,6.586-6.888-6.3Zm-13.429-8.1-1.405.478-.018-.478-.163-3.67a27.515,27.515,0,0,1,8.781,1.247Zm2.877,6.945-9.318.4,4.458-4.86Zm-6.529-5.044-5.067,5.553-7.567.315,3.853-7.768.057-.106.516.106Zm-7.952-3.494a27.826,27.826,0,0,1,8.411-2l.152,3.595.018.4-1.694-.4Zm1.348,10.723-6.309,6.875-.284-6.585Zm24.713,22.652.289,6.591-6.591.289Zm-7.846,8.561,7.549-.32-3.98,8.021-8.871-1.914Zm9.111.132,2.916,2.714a27.292,27.292,0,0,1-6.774,5.062Zm7.115-27.954-.9,4.225-.989,4.558-4.974-4.558-.573-.516-.333-7.549Zm-7.461-5.5,2.727-2.965a27.675,27.675,0,0,1,5.2,6.888Zm8.225,9.728.775-3.59a27.352,27.352,0,0,1,2.1,8.727l-4.016.176Zm-2.6,7.934,2.771,8.236-7.43,4.773-.328-7.588Zm-5.08,3.141-.416-9.313,4.873,4.458Zm.907,11.477,7.645-4.922a27.148,27.148,0,0,1-4.7,7.6Zm5.521-15.62,4.174-.176a27.17,27.17,0,0,1-1.278,8.732Zm5.5-17.44a1.306,1.306,0,0,1,.713.258,2.257,2.257,0,0,1,.579.718,1.806,1.806,0,0,1,.276,1.327,1.387,1.387,0,0,1-.692.907l-.491-.775a.821.821,0,0,0,.346-.485.844.844,0,0,0-.15-.586,1.007,1.007,0,0,0-.447-.465.377.377,0,0,0-.339,0,.387.387,0,0,0-.183.258,2.309,2.309,0,0,0,.119.894,3.885,3.885,0,0,1,.188,1.033,1.175,1.175,0,0,1-.2.674,1.291,1.291,0,0,1-.566.517,1.492,1.492,0,0,1-.775.2,1.291,1.291,0,0,1-.775-.284,2.268,2.268,0,0,1-.635-.775,1.869,1.869,0,0,1-.277-1.366,1.841,1.841,0,0,1,.806-1.077l.517.736a1.172,1.172,0,0,0-.455.622.994.994,0,0,0,.119.692,1.08,1.08,0,0,0,.5.491.561.561,0,0,0,.517-.026.416.416,0,0,0,.214-.227,1.054,1.054,0,0,0,.018-.39,5.645,5.645,0,0,0-.17-.749,2.432,2.432,0,0,1-.093-1.134,1.206,1.206,0,0,1,.648-.837,1.174,1.174,0,0,1,.687-.17m-1.831-3.569.6.775-2.737,4.362-.61-.806.623-.976-1.09-1.454-1.1.351-.591-.775Zm-4.489-2.67.416-.622.56-.578.679.656-.516.547-.044.039-.718.548-.46-.442Zm-3.848,0h0a1.358,1.358,0,0,0,.183.2,1.034,1.034,0,0,0,.656.258.592.592,0,0,0,.465-.219.454.454,0,0,0,.114-.258h0v-.031a.665.665,0,0,0-.14-.372c-.057-.1-.2-.31-.434-.63a2.455,2.455,0,0,1-.5-1.033,1.264,1.264,0,0,1,.284-1.015,1.208,1.208,0,0,1,.586-.408,1.309,1.309,0,0,1,.749-.018,2.341,2.341,0,0,1,.813.434,1.868,1.868,0,0,1,.749,1.134,1.441,1.441,0,0,1-.31,1.108l-.749-.548a.791.791,0,0,0,.126-.565.9.9,0,0,0-.333-.517,1.121,1.121,0,0,0-.6-.258.348.348,0,0,0-.3.139.358.358,0,0,0-.083.315,2.386,2.386,0,0,0,.459.775,3.955,3.955,0,0,1,.548.893,1.208,1.208,0,0,1,.106.586v.119a1.5,1.5,0,0,1-.346.705,1.38,1.38,0,0,1-.648.465,1.291,1.291,0,0,1-.819.026,2.515,2.515,0,0,1-.894-.486,2.278,2.278,0,0,1-.666-.832H610.6a27.958,27.958,0,0,1,4.2,2.973l-2.65,2.89-3.771-5.862-1.033-1.606a27,27,0,0,1,3.262,1.606h3.959a1.177,1.177,0,0,1-.1-.328,1.9,1.9,0,0,1,.354-1.314l.754.5a1.221,1.221,0,0,0-.188.757.947.947,0,0,0,.175.4M614.269,297a2.933,2.933,0,0,1,.845.666,1.1,1.1,0,0,1,.22.661,1.564,1.564,0,0,1-.22.749,1.347,1.347,0,0,1-.723.617,1.435,1.435,0,0,1-1.007-.083,2.081,2.081,0,0,1,.22.592,5.893,5.893,0,0,1,.044.945v1.1l-.945-.573-.039-1.24a7.188,7.188,0,0,0-.052-.857.6.6,0,0,0-.132-.315,1.326,1.326,0,0,0-.372-.276l-.15-.114-1.033,1.73-.793-.478,2.474-4.132Zm-6.4-2.614.15-.346.857.346,2.291.925-.31.757-2.3-.868-.408.989,2.128.863-.3.749-2.123-.857-.5,1.214,2.368.958-.3.749-3.223-1.291Zm-5.312,0,.408-1.655,1.888.473a3.051,3.051,0,0,1,.995.377,1.165,1.165,0,0,1,.416.573,1.721,1.721,0,0,1,.039.232,1.638,1.638,0,0,1-.026.555,1.316,1.316,0,0,1-.517.793,1.436,1.436,0,0,1-.994.215,2.028,2.028,0,0,1,.385.516,5.7,5.7,0,0,1,.328.881l.3,1.033-1.064-.258-.4-1.178a4.467,4.467,0,0,0-.31-.806.644.644,0,0,0-.215-.258,2.487,2.487,0,0,0-.434-.163l-.188-.044-.485,1.958-.888-.227Zm-5.188.4.018-.4.157-2.159.914.062-.14,2.1-.031.517a3.383,3.383,0,0,0-.026.811.807.807,0,0,0,.24.491,1.033,1.033,0,0,0,.6.219.95.95,0,0,0,.6-.132.652.652,0,0,0,.258-.4c.026-.163.062-.434.088-.811l.052-.687.145-1.965.919.057-.132,1.909-.044.622a5.666,5.666,0,0,1-.17,1.209,1.291,1.291,0,0,1-.31.586,1.359,1.359,0,0,1-.565.354,2.206,2.206,0,0,1-.889.088,2.5,2.5,0,0,1-.981-.227,1.458,1.458,0,0,1-.517-.447,1.274,1.274,0,0,1-.219-.561,6.471,6.471,0,0,1,0-1.221m-1.033-2.606.057.819-1.353.088.1,1.291.183,2.694-.914.07-.188-2.763-.093-1.227-1.348.093-.07-.811Zm-7.882,1.687a1.919,1.919,0,0,1,1.371-.968,1.733,1.733,0,0,1,2.084.989l-.832.416a1.069,1.069,0,0,0-.473-.517.919.919,0,0,0-.643-.075,1,1,0,0,0-.731.542l-.057.127a2.2,2.2,0,0,0,0,1.165,2,2,0,0,0,.578,1.2.971.971,0,0,0,.862.214.941.941,0,0,0,.573-.372,1.433,1.433,0,0,0,.207-.844l.945.106a2.092,2.092,0,0,1-.442,1.291,1.825,1.825,0,0,1-1.1.622,1.909,1.909,0,0,1-1.606-.328,2.6,2.6,0,0,1-.95-1.624,3.571,3.571,0,0,1-.018-1.436,2.225,2.225,0,0,1,.214-.517m-3.6.517.17-.062.044.062,3.388,3.783-.937.354-.775-.868L585,298.3l.039,1.17-.906.341-.062-5.132Zm-1.769,8.368c.258-.145.516-.3.8-.447l-.227.447-3.69,7.466-2.96-2.727a27.465,27.465,0,0,1,6.064-4.742Zm-8.494,23.357-2.11-6.611-.623-1.976,7.6-4.721.3,6.7.039.945Zm5.294-3.393.416,9.326-4.861-4.458Zm-8.424-6.849a27.731,27.731,0,0,1,4.452-7.177l2.877,2.632Zm1.686,11.012-3.874.17a27.649,27.649,0,0,1,.925-7.549c.1-.315.176-.635.284-.969l.31.968Zm.031,1.606L571.29,337.1a29.182,29.182,0,0,1-2.02-8.437Zm1.519.617,5.682,5.214.341,7.58-7.923-3.884Zm6.945-33.362.4.718-1.94,1.069.555.994,1.674-.919.39.71-1.663.932.994,1.787-.811.442-2.324-4.212Zm-6.258,4.029,1.573,2.084a7.511,7.511,0,0,0,.517.617.818.818,0,0,0,.516.209.86.86,0,0,0,.591-.227.971.971,0,0,0,.39-.491.691.691,0,0,0-.062-.478c-.088-.139-.233-.377-.46-.674l-1.606-2.123.736-.566,1.519,2.022a6.736,6.736,0,0,1,.687,1.02,1.585,1.585,0,0,1,.14.661,1.533,1.533,0,0,1-.189.63,2.355,2.355,0,0,1-.228.3h0a3.4,3.4,0,0,1-1.278.819,1.634,1.634,0,0,1-.679,0,1.41,1.41,0,0,1-.517-.258,4.5,4.5,0,0,1-.516-.542h0c-.1-.114-.2-.258-.3-.377l-1.536-2.066Zm-3.915,3.616,3.616.875-1.549-1.511-.749-.723.6-.612,1.392,1.335,2.066,2.009-.648.661-3.533-.85,2.247,2.18-.6.622-3.45-3.357Zm-2.461,3.06,5,1.26-.578.832-1.134-.307-1.033,1.506.679.932-.56.806-2.921-4.225Zm-3.546,5.986,3.318.705-2.583-2.19.617-1.234,4.339,2.11-.385.775-3.406-1.663,3,2.482-.385.793-3.809-.837,3.406,1.65-.364.775-4.344-2.115Zm-2.312,7.2.5-.139,1.606-.447-1.593-1.472.258-1.033,2.291,2.3,1.971.491-.044.163-.176.731-1.97-.491-3.117.95Zm-.578,3.954a3.381,3.381,0,0,1,.227-1.033,1.007,1.007,0,0,1,.517-.491,1.5,1.5,0,0,1,1.642.238,1.462,1.462,0,0,1,.364.937,1.916,1.916,0,0,1,.447-.454,3.793,3.793,0,0,1,.824-.452l.981-.478-.1,1.1-1.1.566a6.517,6.517,0,0,0-.744.429.734.734,0,0,0-.233.258,1.7,1.7,0,0,0-.088.465l-.018.176,2,.176-.075.925-4.791-.429Zm0,5.6,3.959-.276-.15-2.286.806-.057.22,3.21-4.76.333Zm.183,2.324.775-.163.485,2.425,1.033-.2-.447-2.254.793-.158.447,2.255,1.291-.258-.491-2.505.8-.152.661,3.412-4.729.919Zm2.681,9.331,2.841-1.826-3.394.4-.385-1.033,2.841-1.945-3.388.547-.346-.875,4.907-.674.351.9-3.035,2.141,3.683-.434.346.932-4.093,2.75Zm2.737,4.878-1.751-2.9.7-.421,1.273,2.115.914-.548L568.1,342l.687-.421,1.191,1.97,1.126-.679-1.317-2.185.692-.421,1.795,2.986Zm4.716.875a1.086,1.086,0,0,0,.372-.46.483.483,0,0,0-.07-.517.5.5,0,0,0-.434-.219,1.509,1.509,0,0,0-.674.377l-2.417,1.965-.586-.723,2.373-1.914a3.4,3.4,0,0,1,.775-.5,1.319,1.319,0,0,1,.837-.057,1.551,1.551,0,0,1,.775.573,1.32,1.32,0,0,1,.354,1.059,1.743,1.743,0,0,1-.687,1.033Zm3.166,4.7-.894-.609-.881.609.289-1.033-.844-.656,1.077-.031.359-1.02.364,1.02,1.082.031-.857.656Zm1.519-4.935a27.458,27.458,0,0,1-5.057-6.73l7.725,3.814Zm1.183,1.1,2.683-2.934,4.922,7.619a27.835,27.835,0,0,1-7.606-4.685m5.741,11.17a2.066,2.066,0,0,1-1.743-.026,2.1,2.1,0,0,1-1.235-1.24,2.632,2.632,0,0,1,.145-1.9,3.359,3.359,0,0,1,.687-1.051,2.237,2.237,0,0,1,.635-.447,1.938,1.938,0,0,1,.723-.163,2.433,2.433,0,0,1,.981.214,2.041,2.041,0,0,1,1.222,1.235,3.022,3.022,0,0,1-1.418,3.375m4.5,2-.881-.258-.914-3.525-.85,3.016-.824-.232L586.819,355l.857.258.919,3.616.888-3.1.813.24Zm2.291-.837a1.229,1.229,0,0,0,.876.555,1.711,1.711,0,0,0,.591-.031,2.691,2.691,0,0,0,.542-.22l.088-.617-1.033-.145.1-.8,1.984.276-.258,1.9a2.271,2.271,0,0,1-.919.411,2.925,2.925,0,0,1-1.121.057,2.4,2.4,0,0,1-1.2-.478,1.855,1.855,0,0,1-.661-1.015,3.19,3.19,0,0,1,.39-2.583,2.05,2.05,0,0,1,.989-.775,2.323,2.323,0,0,1,1.126-.083,2.067,2.067,0,0,1,1.253.56,1.776,1.776,0,0,1,.486,1.113l-.938.057a1.046,1.046,0,0,0-.914-.912,1.248,1.248,0,0,0-1.021.258,1.809,1.809,0,0,0-.516,1.134,2.066,2.066,0,0,0,.189,1.335M588.7,353l.031-.018,8.349-2.82.106,2.82.07,1.234A27.792,27.792,0,0,1,588.7,353m4.217-9.4,9.331-.4-4.458,4.86Zm5.893,9.38-.119-2.562,8.424,1.808c-.666.258-1.361.517-2.066.744h-.018a27.4,27.4,0,0,1-6.157,1.16Zm4.339,7.7-1.63-2.009-.6.919.258,1.436-.907.163-.837-4.742.9-.158.385,2.1,1.454-2.43,1.235-.214-1.371,2.146,2.3,2.583Zm4.966-1.914a2.066,2.066,0,0,1-1.34,1.09,2.1,2.1,0,0,1-1.761-.152,2.56,2.56,0,0,1-1.09-1.55,3.122,3.122,0,0,1-.171-1.234,2.857,2.857,0,0,1,.215-.762,1.807,1.807,0,0,1,.447-.591,2.459,2.459,0,0,1,.875-.46,2.067,2.067,0,0,1,1.751.15,3.115,3.115,0,0,1,1.077,3.507m8.228-3.853a2.715,2.715,0,0,1-.813.793,2.544,2.544,0,0,1-1.214.421,2.052,2.052,0,0,1-1.178-.328,3.172,3.172,0,0,1-.912-.938,2.772,2.772,0,0,1-.478-1.278,2.094,2.094,0,0,1,.026-.6H610.8l2.027,4.313-.845.4-3.009-2.066,1.327,2.841-.775.364-2.033-4.357.819-.385,3.047,2.123L610,353.3l.687-.307.093-.052.018.052h.976a1.613,1.613,0,0,1,.22-.622,2.141,2.141,0,0,1,.793-.806,2.007,2.007,0,0,1,1.317-.4,1.64,1.64,0,0,1,1.082.535l-.679.643a1.06,1.06,0,0,0-.6-.258,1.014,1.014,0,0,0-.666.188,1.334,1.334,0,0,0-.566.723h2.177l.881-.578.364.578.679,1.033a2.5,2.5,0,0,1-.429.893m3.017-3.616-.894-.609-.889.609.3-1.033-.845-.656,1.069-.031.364-1.02.372,1.02,1.069.031-.85.656Zm5.044-4.042-3.678-.56,2.513,2.014-.542.674-3.753-3.034.592-.71,3.595.547-2.43-1.988.542-.656,3.734,3.022Zm2.619-3.874a2.066,2.066,0,0,1-1.361,1.1,2.539,2.539,0,0,1-1.9-.359,2.567,2.567,0,0,1-1.291-1.41,2.019,2.019,0,0,1,.2-1.725,2.052,2.052,0,0,1,1.361-1.1,2.5,2.5,0,0,1,1.87.341,3.3,3.3,0,0,1,.981.775,2.68,2.68,0,0,1,.372.7,1.934,1.934,0,0,1,.083.723,2.261,2.261,0,0,1-.3.95m1.436-3.086L624,338.491l.351-.855,4.465,1.808Zm.643-1.55-.775-.258.421-1.291-3.814-1.234.284-.875,3.814,1.234.408-1.291.775.258Zm1.643-6.108-5.031,1.051.157-.994,1.147-.22.258-1.808-1.015-.548.157-.968,4.475,2.513Zm.408-3.437-4.8-.328.062-.925,4.8.333Zm-.328-2.539a1.755,1.755,0,0,1-.875.5l-.258-.9a1.049,1.049,0,0,0,.578-.364.94.94,0,0,0,.188-.63,1,1,0,0,0-.4-.814,1.921,1.921,0,0,0-1.252-.258,2.025,2.025,0,0,0-1.291.354,1,1,0,0,0-.359.824.9.9,0,0,0,.258.63,1.411,1.411,0,0,0,.775.346l-.258.907a2.176,2.176,0,0,1-1.2-.643,1.919,1.919,0,0,1-.421-1.2,1.836,1.836,0,0,1,.6-1.506,2.482,2.482,0,0,1,1.769-.661,2.717,2.717,0,0,1,1.883.517,1.99,1.99,0,0,1,.71,1.529,1.787,1.787,0,0,1-.465,1.379" transform="translate(-553.795 -283.649)"/>
      <path id="Path_2083" data-name="Path 2083" d="M556.056,289.89a.578.578,0,0,0-.4.1.517.517,0,0,0-.232.32c0,.07-.031.3-.062.666l-.062.718,1.209.114.07-.687a3.156,3.156,0,0,0,0-.832.5.5,0,0,0-.176-.258.67.67,0,0,0-.354-.132" transform="translate(-545.808 -250.623)"/>
      <path id="Path_2084" data-name="Path 2084" d="M565.786,292.744a1.137,1.137,0,0,0-.814.6,1.182,1.182,0,0,0-.083.989,2,2,0,0,0,.945.919,1.808,1.808,0,0,0,1.247.3,1.1,1.1,0,0,0,.788-.584,1.239,1.239,0,0,0,.088-1.02,1.942,1.942,0,0,0-.925-.907,1.826,1.826,0,0,0-1.252-.284" transform="translate(-495.403 -235.557)"/>
      <path id="Path_2085" data-name="Path 2085" d="M565.744,291.192l-.189,1.234,1.865-.333Z" transform="translate(-491.507 -243.715)"/>
      <path id="Path_2086" data-name="Path 2086" d="M556.309,287.448l1.108,1.537.718-1.033Z" transform="translate(-540.472 -263.545)"/>
      <path id="Path_2087" data-name="Path 2087" d="M566.35,287.286l-1.808.578.749.994Z" transform="translate(-496.86 -264.398)"/>
      <path id="Path_2088" data-name="Path 2088" d="M564.421,287.578a.578.578,0,0,0,.328-.039.773.773,0,0,0,.258-.258.68.68,0,0,0,.088-.4.59.59,0,0,0-.194-.341c-.07-.044-.258-.163-.573-.364l-.612-.364-.635,1.033.591.346a3.009,3.009,0,0,0,.736.385" transform="translate(-504.575 -272.231)"/>
      <path id="Path_2089" data-name="Path 2089" d="M559.969,286.991l-1.227-1.441.052,1.888Z" transform="translate(-527.591 -273.597)"/>
      <path id="Path_2090" data-name="Path 2090" d="M563.132,286.745a.517.517,0,0,0,.3-.132.7.7,0,0,0,.17-.333.533.533,0,0,0,0-.385v-.026a.54.54,0,0,0-.3-.258c-.049-.031-.284-.083-.635-.183l-.7-.163-.17.635-.127.542.656.171a3.926,3.926,0,0,0,.824.139" transform="translate(-512.089 -275.112)"/>
      <path id="Path_2091" data-name="Path 2091" d="M671.647,320.033,655.136,285.4h-1.423c-2.342,5.855-10.532,26.2-13.85,33.716-1.392,3.166-1.932,3.853-3.13,3.967a5.994,5.994,0,0,1-3.275-4.791L627.314,285.4h-.924l-14.31,28.22L596.842,285.4h-.976c-1.165,5.994-5.824,30.183-6.456,33.6-.723,3.892-3.293,4.006-3.708,4.006l.516.863H592.6l4.269-23.024,12.957,23.628,13.07-25.519,4.5,25.033h19.517l.473-.749c-3.14-.372-4.391-2.355-3.6-4.217s9.039-21.779,9.039-21.779l5.955,13.706h-8.8l-1.549,3.236h11.766l4.243,9.814h10.878l.351-.881a5.333,5.333,0,0,1-4.024-3.066" transform="translate(-384.817 -274.392)"/>
      <path id="Path_2092" data-name="Path 2092" d="M600.11,311.977V291.1c0-2.815.661-3.45,3.616-3.7l1.738-.158a1.121,1.121,0,0,0,.328-.925c0-.411-.1-.845-.328-.95H588.522c-.227.106-.341.542-.341.95a1.123,1.123,0,0,0,.341.925l1.738.158c2.939.258,3.616.888,3.616,3.7v21.539c0,8.148-6.511,11.043-10.937,6.178-.359-.635-.656-.46-.674-.114a8.522,8.522,0,0,0,7.807,6.743c4.8.258,10.049-3.8,10.049-13.468" transform="translate(-403.03 -274.572)"/>
    </g>
  </g>
</svg>
