<svg xmlns="http://www.w3.org/2000/svg" xmlns:xlink="http://www.w3.org/1999/xlink" width="500" height="300" viewBox="0 0 500 300">
  <defs>
    <clipPath id="clip-logo_21">
      <rect width="500" height="300"/>
    </clipPath>
  </defs>
  <g id="logo_21" clip-path="url(#clip-logo_21)">
    <g id="Group_15" data-name="Group 15" transform="translate(156.891 87.564)">
      <path id="Path_263" data-name="Path 263" d="M390.911,94.5H369.874v1.94a21.853,21.853,0,0,1,2.509.354,4.138,4.138,0,0,1,1.813.807c1.253,1.061,1.221,3.066,1.221,6.69v24.364c0,4.949.453,11.972-6.572,11.873a7.547,7.547,0,0,1-7.062-6.094H359.37c1.022,6.558,4.508,11.016,12.994,11.016h.027c7.209,0,13.629-3.309,13.618-14.558V104.3c0-3.626-.027-5.541,1.233-6.62a5.484,5.484,0,0,1,3.662-1.233Z" transform="translate(-278.19 -77.945)"/>
      <path id="Path_264" data-name="Path 264" d="M386.676,94.5H365.639v1.94a5.439,5.439,0,0,1,3.662,1.233c1.011.857,1.194,2.266,1.226,4.657v34c-.034,2.386-.227,3.8-1.226,4.653a5.412,5.412,0,0,1-3.662,1.244v1.929h31.779l3.358-9.718H398.3a9.316,9.316,0,0,1-9.663,5.967,11.19,11.19,0,0,1-6.01-1.027c-1.088-.68-1.475-2.493-1.5-5.557V104.3c0-3.626-.034-5.629,1.226-6.69a7.992,7.992,0,0,1,4.319-1.16Z" transform="translate(-249.836 -77.945)"/>
      <path id="Path_265" data-name="Path 265" d="M367.239,97.725h0m-.016-.023h0m-.054-.084h0m-.1-.127h0m-.027-.027h0m6.724-5.96a16.561,16.561,0,0,0-6.463,1.564,18.211,18.211,0,0,0-2.808,1.607c-.181.138-.376.261-.553.4a25.306,25.306,0,0,0-3.116,2.79,32.147,32.147,0,0,0-3.381,4.326,37.768,37.768,0,0,0-2.2,3.762,54.391,54.391,0,0,0-5.076,16.2,71.793,71.793,0,0,0,0,21.463,54.206,54.206,0,0,0,5.076,16.192c.3.6.626,1.172.945,1.752a49.544,49.544,0,0,0,3.42-7.9,61.985,61.985,0,0,1-3-15.435c-.127-1.763-.177-3.558-.184-5.341h0c0-1.784.043-3.562.172-5.341a60.138,60.138,0,0,1,4.215-18.689,47.4,47.4,0,0,1,3.4-6.658c.315-.5.6-1.017.922-1.5.68-.988,1.387-1.956,2.16-2.905a33.013,33.013,0,0,1,2.8-3.1,27.1,27.1,0,0,1,3.381-2.84,2.587,2.587,0,0,1,.288-.227Z" transform="translate(-323.501 -91.504)"/>
      <path id="Path_266" data-name="Path 266" d="M371.417,91.506a16.544,16.544,0,0,0-6.459,1.564,18.253,18.253,0,0,0-2.812,1.607c-.177.138-.369.254-.553.4a30.869,30.869,0,0,0-8.691,10.878,54.559,54.559,0,0,0-5.083,16.2,72.293,72.293,0,0,0,0,21.463,54.376,54.376,0,0,0,5.083,16.192,31.989,31.989,0,0,0,7.85,10.209,38.11,38.11,0,0,0,2.973-3.608l-.929-1.333a54.822,54.822,0,0,1-8.535-26.857c-.122-1.763-.188-3.558-.188-5.341s.066-3.562.188-5.341a54.858,54.858,0,0,1,8.535-26.85c.68-.988,1.387-1.956,2.16-2.905a32.978,32.978,0,0,1,2.8-3.1,27.5,27.5,0,0,1,3.377-2.84c.1-.077.188-.154.288-.227Z" transform="translate(-334.09 -91.501)"/>
      <path id="Path_267" data-name="Path 267" d="M363.247,101.7a61.75,61.75,0,0,1,3,15.442c.116,1.768.161,3.553.166,5.348h0c0,1.779-.043,3.562-.154,5.337a59.4,59.4,0,0,1-4.238,18.689,46.874,46.874,0,0,1-3.381,6.663c-.315.5-.591,1.006-.922,1.5q-1,1.491-2.155,2.905a35.513,35.513,0,0,1-2.8,3.1,29.04,29.04,0,0,1-3.386,2.844c-.088.072-.181.138-.288.211v.116a16.587,16.587,0,0,0,6.47-1.564,18.092,18.092,0,0,0,2.8-1.607c.188-.138.392-.261.576-.4a24.246,24.246,0,0,0,3.089-2.79,30.279,30.279,0,0,0,3.393-4.326,41.489,41.489,0,0,0,2.194-3.762,54.212,54.212,0,0,0,5.076-16.2,72.23,72.23,0,0,0,0-21.459,53.976,53.976,0,0,0-5.076-16.2c-.308-.592-.619-1.165-.95-1.745a48.671,48.671,0,0,0-3.415,7.889" transform="translate(-324.697 -81.099)"/>
      <path id="Path_268" data-name="Path 268" d="M359.131,95.879c.32.437.625.879.922,1.326a54.642,54.642,0,0,1,8.541,26.861c.116,1.763.188,3.547.188,5.332s-.073,3.574-.188,5.341a54.7,54.7,0,0,1-8.541,26.861c-.68.984-1.38,1.956-2.148,2.894a33.177,33.177,0,0,1-2.806,3.1,27.943,27.943,0,0,1-3.386,2.851,2.679,2.679,0,0,1-.281.211v.122a16.849,16.849,0,0,0,6.475-1.575,18.285,18.285,0,0,0,2.806-1.607c.172-.134.376-.242.564-.392a31.1,31.1,0,0,0,8.68-10.878,53.951,53.951,0,0,0,5.088-16.2,73.246,73.246,0,0,0,0-21.459,54.047,54.047,0,0,0-5.088-16.2,31.825,31.825,0,0,0-7.857-10.2,38.51,38.51,0,0,0-2.967,3.608" transform="translate(-314.118 -88.02)"/>
      <path id="Path_269" data-name="Path 269" d="M353.7,110.994a40.721,40.721,0,0,0,2.973-3.608c-.326-.453-.63-.879-.934-1.333s-.607-1-.922-1.5a30.634,30.634,0,0,1-3.386,4.319,24.984,24.984,0,0,0,2.266,2.121" transform="translate(-314.108 -32.476)"/>
      <path id="Path_270" data-name="Path 270" d="M355.41,105.91a19.262,19.262,0,0,1-2.806,1.614,16.9,16.9,0,0,0,6.463,1.564v-.116a28.728,28.728,0,0,1-3.658-3.062" transform="translate(-308.814 -26.327)"/>
      <path id="Path_271" data-name="Path 271" d="M355.5,108.993c.354-.034.68-.1,1.049-.154-.365-.249-.707-.508-1.049-.78-.845-.669-1.657-1.391-2.443-2.148a18.629,18.629,0,0,1-2.8,1.607,17.144,17.144,0,0,0,4.193,1.321c.342.054.7.122,1.045.154m1.221.084v-.111c-.061-.039-.116-.088-.172-.127-.36.054-.7.122-1.049.154.408.045.818.073,1.221.084" transform="translate(-319.401 -26.324)"/>
      <path id="Path_272" data-name="Path 272" d="M353.778,91.506v.116a34.5,34.5,0,0,1,8.612,9.065,54.844,54.844,0,0,1,8.53,26.85q.19,2.667.188,5.341c0,1.784-.061,3.581-.188,5.341a54.821,54.821,0,0,1-8.534,26.857,34.647,34.647,0,0,1-8.612,9.065v.116a17.5,17.5,0,0,0,9.817-3.569,30.977,30.977,0,0,0,8.7-10.878,54.679,54.679,0,0,0,5.076-16.192,72.268,72.268,0,0,0,0-21.463,54.866,54.866,0,0,0-5.076-16.2,30.958,30.958,0,0,0-8.7-10.878,17.542,17.542,0,0,0-9.817-3.569" transform="translate(-303.52 -91.501)"/>
      <path id="Path_273" data-name="Path 273" d="M369.075,91.506a17.543,17.543,0,0,0-9.822,3.569,30.862,30.862,0,0,0-8.691,10.878,54.56,54.56,0,0,0-5.083,16.2,72.291,72.291,0,0,0,0,21.463,54.374,54.374,0,0,0,5.083,16.192,30.879,30.879,0,0,0,8.691,10.878,17.487,17.487,0,0,0,9.822,3.569v-.116a34.6,34.6,0,0,1-8.625-9.065,54.812,54.812,0,0,1-8.53-26.857c-.122-1.763-.188-3.558-.188-5.341s.066-3.563.188-5.341a54.742,54.742,0,0,1,8.535-26.85,34.235,34.235,0,0,1,8.611-9.065Z" transform="translate(-344.677 -91.501)"/>
      <path id="Path_274" data-name="Path 274" d="M393.041,94.512h-21.06v1.933a5.534,5.534,0,0,1,3.68,1.237c1,.857,1.176,2.266,1.21,4.664v31.607c-.016.906,0,1.713,0,2.443-.034,2.393-.211,3.8-1.21,4.664a5.57,5.57,0,0,1-3.68,1.226v1.944H403.8l3.646-9.745h-2.767A9.291,9.291,0,0,1,395,140.464a11.256,11.256,0,0,1-6.017-1.011c-1.083-.68-1.475-2.493-1.5-5.568V104.3c0-3.626-.027-5.629,1.233-6.7a8.018,8.018,0,0,1,4.319-1.156Z" transform="translate(-221.14 -77.901)"/>
      <rect id="Rectangle_12" data-name="Rectangle 12" width="185.852" height="0.419" transform="translate(0 93.212)"/>
      <path id="Path_275" data-name="Path 275" d="M372.493,115.846h4.193v5.509h-4.193Zm0-1.276v-4.138h-1.314v4.138H365.74v9.7h1.31v-1.627h4.138v8.1H372.5v-8.1h4.188v1.636H378v-9.7Zm-8.265.066a19.045,19.045,0,0,0,.68-1.795c.2-.619.392-1.26.569-1.94l-1.221-.508-.227.807a19.506,19.506,0,0,1-5.183,9.049v.066l1.133.85a25.7,25.7,0,0,0,2.089-2.452h.039V130.74h1.314V116.4Zm2.812,1.21h4.138v5.509h-4.138Z" transform="translate(-280.562 -6.035)"/>
      <path id="Path_276" data-name="Path 276" d="M368.19,122.629h5.244v.841H368.19Zm11.823.857h-5.271v-.845h5.271Zm-11.823-3.093h5.244v.961H368.19Zm6.552,0h5.271v.961h-5.271Zm9.441,8.652v-1.283h-9.441v-.906h7.435v-1.283h-7.435v-.811h6.586v-5.652H366.892v5.652h6.552v.811h-7.413v1.283h7.4v.906h-9.391v1.283ZM364.9,118.293h18.4v-1.276H364.9Zm3.927-4.138h10.4v.934h-10.4Zm-1.3,2.216h13.01v-5.829h-13.01Zm1.3-4.532h10.4v1.038h-10.4Z" transform="translate(-257.06 -5.368)"/>
      <path id="Path_277" data-name="Path 277" d="M388.584,126.124v-3.95h-1.3v2.663h-2.414v-3.243h-1.314v8.929h1.314v-4.4Zm-11.12-3.95v3.95h3.281a3.232,3.232,0,0,1-1.514,2.094,6.448,6.448,0,0,1-2.828,1.022l.857,1.283a5.522,5.522,0,0,0,1.713-.585,7.848,7.848,0,0,0,1.813-1.276,4.514,4.514,0,0,0,1.194-1.745,7.914,7.914,0,0,0,.392-2.393l.066-2.928h-1.3a24.682,24.682,0,0,1-.093,3.243h-2.266v-2.665ZM372.22,124.7v-3.562h2.447v2.885q-1.586.5-2.447.68m2.447-4.841H372.22v-3.093h2.447Zm1.314-7.17h1.48v-1.276h-7.9v1.276h1.342v12.36l-1.518.338.784,1.26,4.492-1.26v5.187h1.314Zm12.138,7.193a6.2,6.2,0,0,1,.342,1.176,9.866,9.866,0,0,1,1.26-.381,14.661,14.661,0,0,0-1.53-3.5,2.478,2.478,0,0,0-.63.165c-.265.093-.453.161-.557.188a6.809,6.809,0,0,1,.585,1.133c-.746.134-1.648.249-2.708.358l-.045-.039a18.176,18.176,0,0,0,4.338-5.425,11.515,11.515,0,0,0-1.253-.63,14.18,14.18,0,0,1-1.045,1.972l-2.67.331-.039-.045a.7.7,0,0,0,.161-.088l.127-.088a14.516,14.516,0,0,0,2.84-4.066c-.657-.326-1.045-.508-1.187-.557a1.764,1.764,0,0,0-.161.3,17.02,17.02,0,0,1-3.354,4.507l.741,1.41a15.127,15.127,0,0,1,2.57-.426,20.729,20.729,0,0,1-2.72,2.905l.714,1.414c2.094-.342,3.508-.553,4.222-.623m-6.767-8.949a3.836,3.836,0,0,1-.6-.276,2.616,2.616,0,0,0-.664-.277,17.284,17.284,0,0,1-3.558,5.056c.082.138.2.369.365.7a6.566,6.566,0,0,0,.358.707c.166-.034.519-.111,1.061-.254a4.972,4.972,0,0,1,1.376-.193,24.038,24.038,0,0,1-2.973,3.139,9.773,9.773,0,0,0,.73,1.425c.78-.211,2.187-.469,4.227-.791a8.179,8.179,0,0,1,.3,1.018c.154-.034.569-.177,1.253-.431a14.358,14.358,0,0,0-1.41-3.247,6.8,6.8,0,0,0-1.187.387l.453.768c.088.143.127.227.111.3-1.271.2-2.121.31-2.547.331l-.043-.045A18.015,18.015,0,0,0,382.816,114a1,1,0,0,1,.15-.281.415.415,0,0,0,.1-.31l-1.242-.58a9.869,9.869,0,0,1-1.172,2.133c-1.011.15-1.79.242-2.348.281l-.043-.039a12.1,12.1,0,0,0,3.093-4.276m-9.133,1.756h2.447v2.8h-2.447Z" transform="translate(-232.863 -6.129)"/>
      <path id="Path_278" data-name="Path 278" d="M389.209,128.657v-9.718h-5.928v-1.283h11.37v1.283h-4.134v9.944a2.634,2.634,0,0,1-.514,1.3q-.374.5-1.641.5h-2.42c-.043-.122-.111-.331-.227-.641a5.633,5.633,0,0,1-.227-.718c.576.05,1.26.077,2.006.077a7.9,7.9,0,0,0,1.133-.045,1.077,1.077,0,0,0,.376-.227.641.641,0,0,0,.193-.469m-9.332,2.16h-1.3V121.8a25.188,25.188,0,0,1-2.663,1.94h-.061c-.111-.122-.3-.3-.576-.542a3.877,3.877,0,0,1-.564-.542,21.629,21.629,0,0,0,6.8-6.746l1.133.768a26.584,26.584,0,0,1-2.785,3.626Zm3.927-18.723h9.568v1.276h-9.543Zm-7.757,5.056-1.011-.872a20.721,20.721,0,0,0,5.6-5.928l1.06.823a23.974,23.974,0,0,1-3.576,4.512,8.478,8.478,0,0,1-1.922,1.607l-.043-.039a.188.188,0,0,0-.073-.093" transform="translate(-208.818 -6.252)"/>
      <path id="Path_279" data-name="Path 279" d="M380.122,94.491a3.173,3.173,0,0,1,1.568.415,2.921,2.921,0,0,1,1.183,1.176,3.2,3.2,0,0,1,.431,1.6,3.254,3.254,0,0,1-.419,1.586,3.048,3.048,0,0,1-1.176,1.176,3.222,3.222,0,0,1-1.586.415,3.147,3.147,0,0,1-1.586-.415,3.047,3.047,0,0,1-1.176-1.176,3.188,3.188,0,0,1,0-3.173,2.855,2.855,0,0,1,1.183-1.176,3.087,3.087,0,0,1,1.568-.415m0,.63a2.57,2.57,0,0,0-1.265.326,2.453,2.453,0,0,0-.956.945,2.567,2.567,0,0,0-.338,1.292,2.656,2.656,0,0,0,.326,1.276,2.529,2.529,0,0,0,.95.934,2.614,2.614,0,0,0,1.283.349,2.536,2.536,0,0,0,1.264-.349,2.45,2.45,0,0,0,.95-.934,2.617,2.617,0,0,0,.342-1.276,2.532,2.532,0,0,0-.353-1.292,2.406,2.406,0,0,0-.95-.945,2.545,2.545,0,0,0-1.253-.326M378.662,99.4V96h1.756a1.469,1.469,0,0,1,.537.138.906.906,0,0,1,.315.315,1.078,1.078,0,0,1,.122.492.906.906,0,0,1-.242.623,1.054,1.054,0,0,1-.657.326.655.655,0,0,1,.227.127,1.822,1.822,0,0,1,.227.249c.023.034.1.181.249.419l.392.68h-.841l-.292-.553a2.021,2.021,0,0,0-.476-.7.707.707,0,0,0-.476-.143h-.172V99.37Zm.68-1.922h.281a3.171,3.171,0,0,0,.741-.05.491.491,0,0,0,.227-.154.546.546,0,0,0,.077-.261.474.474,0,0,0-.073-.254.453.453,0,0,0-.227-.154,3.172,3.172,0,0,0-.734-.05h-.281Z" transform="translate(-198.711 -77.995)"/>
    </g>
  </g>
</svg>
