<svg xmlns="http://www.w3.org/2000/svg" xmlns:xlink="http://www.w3.org/1999/xlink" width="500" height="300" viewBox="0 0 500 300">
  <defs>
    <clipPath id="clip-logo_08">
      <rect width="500" height="300"/>
    </clipPath>
  </defs>
  <g id="logo_08" clip-path="url(#clip-logo_08)">
    <g id="Group_22" data-name="Group 22" transform="translate(103.696 120.59)">
      <path id="Path_2033" data-name="Path 2033" d="M17.674,142.825v1.455h5.462v28.5c0,8.549-2.375,10.965-7.665,10.965a3.559,3.559,0,0,1-3.875-3.835c0-3.111-.179-5.026-3.007-5.026s-3.2,2.891-3.2,3.759c0,3.934,1.748,6.929,9.557,6.929,9.292,0,14.248-3.134,14.248-13.547V144.273h5.66v-1.455Zm17.094,37.108a3.172,3.172,0,0,0-1,2.391,3.007,3.007,0,0,0,1.007,2.328,3.259,3.259,0,0,0,2.38.972,3.3,3.3,0,0,0,2.408-.972,3.066,3.066,0,0,0,1-2.328,3.347,3.347,0,0,0-3.4-3.358,3.139,3.139,0,0,0-2.391.967m38.137,0a3.158,3.158,0,0,0-.976,2.392,3.021,3.021,0,0,0,.976,2.328,3.465,3.465,0,0,0,4.814,0,3.026,3.026,0,0,0,.983-2.328,3.16,3.16,0,0,0-.976-2.392,3.271,3.271,0,0,0-2.432-.967,3.154,3.154,0,0,0-2.387.967M46.515,142.825v1.455h4.927v32.5a10.125,10.125,0,0,1-.425,3.955,3.514,3.514,0,0,1-2.019,1.9,10,10,0,0,1-3.455.528v1.351H63.638v-1.328a11.821,11.821,0,0,1-3.467-.488,3.483,3.483,0,0,1-2.123-1.9,6.253,6.253,0,0,1-.443-2.663V167.014l4.481-.024c13.012,0,16.658-5.13,16.658-12.137,0-7.075-2.236-12.028-15.4-12.028H46.511M57.6,144.476l3.111-.045c10.028,0,12.217,4.139,12.217,10.821,0,6.726-3.95,10.153-11.908,10.153H57.6V144.476m68.082-1.559c-.149.392-12.736,31.773-12.736,31.773l-.281.2-.316-.2S98.93,143.309,98.777,142.917H86.925v1.344h5.146v32.273l-.116,2.95a4.444,4.444,0,0,1-.7,2.019,3.729,3.729,0,0,1-1.9,1.351,8.829,8.829,0,0,1-2.432.333v1.34H98.682V183.2a6.036,6.036,0,0,1-2.019-.34,3.587,3.587,0,0,1-1.932-1.323,4.2,4.2,0,0,1-.708-2.052l-.144-2.95v-27.88h.679s15.207,35.476,15.358,35.865h1.276l14.387-35.469h.347v28.743a9.725,9.725,0,0,1-.356,2.915,3.3,3.3,0,0,1-1.788,1.943,8.726,8.726,0,0,1-2.983.528v1.34h16.387v-1.34a8.7,8.7,0,0,1-3-.547,3.262,3.262,0,0,1-1.84-1.988,9.434,9.434,0,0,1-.356-2.83V144.3l4.363-.035v-1.335H125.666M140.173,169.9c0,14.858,11.556,15.84,14.04,15.84,4.953,0,14.311-3.083,14.311-16.1,0-10.153-5.986-15.663-14.115-15.663-8.74,0-14.236,5.8-14.236,15.927m6.538.179c0-8.146.507-14.264,7.59-14.264,7.653,0,7.693,6.325,7.693,13.743,0,10.66-1.835,14.335-7.693,14.335-6.59,0-7.59-3.288-7.59-13.811m36.4-9.413h-.415c-.04,0-.748-4.587-1.019-5.939-2.047,0-10.141-.024-10.141-.024v1.559h5.479s-.028,4.658-.028,6.33v14.264a10.392,10.392,0,0,1-.66,4.323c-.568,1.019-1.816,1.528-3.91,1.528h-.88v1.816h16.981v-1.816H187.6c-2.243,0-3.2-.488-3.79-1.455a8.611,8.611,0,0,1-.788-4.4v-10.7c0-3.6,2.715-7.71,5.974-7.71,3.4,0,3.3,5.238,7.17,3.134,2.087-1.151,1.748-7.153-4.766-7.153-5.231,0-6.858,3.094-8.309,6.25m53.011-4.4a5.571,5.571,0,0,0-2.679,4.795,2.408,2.408,0,0,0,.741,1.972,2.618,2.618,0,0,0,1.851.66c1.691,0,2.639-.856,2.979-3.066a5.809,5.809,0,0,1,1.436-3.443,5.368,5.368,0,0,1,4.047-1.368,5.25,5.25,0,0,1,4.481,1.719,7.434,7.434,0,0,1,1.179,4.351v5c-5.45.5-18.3,1.528-17.722,11.321a7.875,7.875,0,0,0,7.958,7.193,13.4,13.4,0,0,0,9.948-4.939,5.639,5.639,0,0,0,5.778,4.559c3.943,0,6.318-1.932,6.582-6.778h-1.007c-.271,2.1-1.58,3.243-2.644,3.243-1.823,0-2.391-1.016-2.531-2.7l-.109-3.818V162.5a7.759,7.759,0,0,0-2.019-6.1c-1.571-1.58-4.606-2.4-8.962-2.4a15.41,15.41,0,0,0-9.321,2.295m2.283,20.778c0-5.549,7.594-8.325,11.769-8.325v9.59l-.109.236-.127.12a11.047,11.047,0,0,1-6.75,3.583,4.646,4.646,0,0,1-4.783-5.2m36.269-16.955h-.54l-1.075-5.424-9.217-.024v1.564c1.724.064,4.611.1,4.611.1v20.519a12.668,12.668,0,0,1-.351,3.491,2.79,2.79,0,0,1-1.708,1.9,7.49,7.49,0,0,1-2.552.425v1.887h14.663v-1.887a3.806,3.806,0,0,1-2.991-1.264,7.548,7.548,0,0,1-.84-4.219v-7.87a18.868,18.868,0,0,1,1.111-8.446,6.63,6.63,0,0,1,5.91-3.323,4.078,4.078,0,0,1,4.163,2.123,21.813,21.813,0,0,1,.983,6.957l-.068,9.762c0,1.623.2,2.83.068,3.594a3.052,3.052,0,0,1-1.276,2.071,5.031,5.031,0,0,1-2.358.608v1.908h14.151v-1.887c-1.8-.12-2.967-.54-3.484-1.38a8,8,0,0,1-1.047-4.434l.068-13.512a10.546,10.546,0,0,0-.983-5,7.45,7.45,0,0,0-3.087-3.012,9.884,9.884,0,0,0-4.481-.976,10.483,10.483,0,0,0-9.67,5.766m-47.245-7.33a2.892,2.892,0,0,0-1.764,2.38c-.236,1.212-.691,1.915-1.3,2.1a3.352,3.352,0,0,1-2.123-.149,13.512,13.512,0,0,0-9.573-3.123,11.085,11.085,0,0,0-11.908,11.257c0,6.295,2.42,9.332,7.733,10.457.323.075.323.425.052.488-4.542.915-8.561,2.248-8.561,6.549a4.892,4.892,0,0,0,3.4,4.8,25.4,25.4,0,0,0,8.774,1.375c3.266.035,5.559.16,7.075.328a8.019,8.019,0,0,1,3.851,1.34,3.974,3.974,0,0,1,1.5,3.33,5.394,5.394,0,0,1-3.2,4.79,16.65,16.65,0,0,1-8.045,1.679,13.368,13.368,0,0,1-7.4-1.639,3.929,3.929,0,0,1-1.535-4.278,2.413,2.413,0,0,0-1.84-3.156,2.691,2.691,0,0,0-2.531,1.139,4.965,4.965,0,0,0-.656,2.731,6.085,6.085,0,0,0,4.83,5.818,24.979,24.979,0,0,0,8.238,1.212,21.009,21.009,0,0,0,9.321-1.748,10.205,10.205,0,0,0,4.679-4.151,9.985,9.985,0,0,0,1.3-4.835,8.922,8.922,0,0,0-1.38-5.189c-2.962-4.059-7.141-3.538-16.582-3.991-4.535,0-5.41-.811-5.41-2.215,0-2.04,1.691-2.851,8.255-3.858,6.469-1.007,12.5-3.375,12.5-11.269a13.08,13.08,0,0,0-1.179-5.578,7.033,7.033,0,0,0,3.731-.092,4.2,4.2,0,0,0,2.644-1.972,3.229,3.229,0,0,0,.316-2.623c-.42-1.387-1.167-2.071-2.224-2.071a3.416,3.416,0,0,0-.976.156M206.743,165.28c0-5.542,1.939-9.67,6.083-9.67,4.811,0,6.222,3.759,6.222,9.549,0,8.3-2.611,9.373-6.222,9.373-3.863,0-6.083-1.4-6.083-9.257" transform="translate(-5.393 -142.818)"/>
    </g>
  </g>
</svg>
