<svg xmlns="http://www.w3.org/2000/svg" xmlns:xlink="http://www.w3.org/1999/xlink" width="500" height="300" viewBox="0 0 500 300">
  <defs>
    <clipPath id="clip-path">
      <rect id="Rectangle_3" data-name="Rectangle 3" width="314.391" height="42.174"/>
    </clipPath>
    <clipPath id="clip-logo_03">
      <rect width="500" height="300"/>
    </clipPath>
  </defs>
  <g id="logo_03" clip-path="url(#clip-logo_03)">
    <g id="Group_5" data-name="Group 5" transform="translate(93.109 128.649)">
      <g id="Group_4" data-name="Group 4" clip-path="url(#clip-path)">
        <path id="Path_35" data-name="Path 35" d="M128.354,22.925a4.826,4.826,0,0,0-1.229,1.932l7.15,17.273-2-.117L126.063,27l-7.22,14.852a1.934,1.934,0,0,1-1.238.332,2.46,2.46,0,0,1-.809-.919l-9.059-18.631L99.6,42.168l-3.9.009V.292l4.523,0,7.96,16.445L115,.349l1.979.017L125.6,21.113,135.582.367,140.1.293l0,41.874-3.786.011Zm-17.892-1.766L117.076,5.23l-1.148-2.638L109.266,18.68a10.272,10.272,0,0,0,1.2,2.478m-3.772-.883L99.358,5.317l.033,32.5Zm29.863,17.439.038-32.4L129.236,20.4Zm-18.589-.725,6.594-13.7L118.042,7.471l-6.617,16.008Z" transform="translate(-56.676 -0.171)"/>
        <path id="Path_36" data-name="Path 36" d="M373.936,42.073l-3.8.084,0-19.727-25.148-.009,0,19.737-3.8-.085,0-41.857,3.794.028,0,19.112,25.125,0,.037-19.11,3.791-.032Z" transform="translate(-202.061 -0.127)"/>
        <path id="Path_37" data-name="Path 37" d="M478.654,29.663l-20.759-.008-5.1,12.523-3.827.043L466.065.4l4.379-.04,17.085,41.75-3.777.129Zm-1.242-3.055L468.27,3.875l-9.13,22.7Z" transform="translate(-265.887 -0.213)"/>
        <path id="Path_38" data-name="Path 38" d="M21.511,22.505l-17.719.007V38.859l21.164,0-.006,3.3H0L0,.212H25.006V3.419L3.787,3.425l.007,15.883,17.66.01Z" transform="translate(0 -0.126)"/>
        <path id="Path_39" data-name="Path 39" d="M264.788,23.488a16.23,16.23,0,0,1-6.638,1.679l-9.111.071V42.152l-3.724-.03,0-41.906,12.351.006a20.875,20.875,0,0,1,7.406,1.451,11.078,11.078,0,0,1,6.47,9.9c.3,5.048-1.959,9.663-6.75,11.914m.993-5.168a9.708,9.708,0,0,0-.044-11.757,10.089,10.089,0,0,0-7.36-3.069l-9.342-.067.008,18.533,9.142-.089a10.455,10.455,0,0,0,7.6-3.552" transform="translate(-145.279 -0.128)"/>
        <path id="Path_40" data-name="Path 40" d="M585.366,39.988c-6.483,3.925-16.438,2.481-21.012-3.658.944-1,2.819-1.617,3.961-.665a12.788,12.788,0,0,0,15.515,1.079,7.342,7.342,0,0,0,3.085-7.252,7.608,7.608,0,0,0-4.749-5.9l-9.639-3.454a9.172,9.172,0,0,1-5.985-6.842,10.614,10.614,0,0,1,2.69-9.814c4.937-4.926,14.975-4.633,19.9,1.039a3.526,3.526,0,0,1-4.807.459,10.048,10.048,0,0,0-10.475-.54,7.149,7.149,0,0,0-3.194,9.632,6.66,6.66,0,0,0,3.354,2.7l8.792,3.195a13.378,13.378,0,0,1,5.591,3.506c4.489,5.257,2.918,12.923-3.025,16.521" transform="translate(-334.224 -0.004)"/>
        <path id="Path_41" data-name="Path 41" d="M729.262,37.93c-5.8,6.1-17.9,5.647-23.583-1.519.832-1.079,2.828-1.694,4.041-.7a12.884,12.884,0,0,0,15.224,1.209,7.391,7.391,0,0,0,3.266-7.785,8.721,8.721,0,0,0-6.089-6.146l-6.884-2.315a11.142,11.142,0,0,1-6.179-4.483,10.757,10.757,0,0,1,.334-11.271c4.308-6.4,15.535-6.555,21.079-.524-1.32,1.763-3.26,1.585-4.891.506a9.815,9.815,0,0,0-11.7.466,6.794,6.794,0,0,0-1.329,9.488,8.221,8.221,0,0,0,3.578,2.2l8.342,3a12.229,12.229,0,0,1,5.993,4.367,10.747,10.747,0,0,1-1.2,13.5" transform="translate(-417.92 0)"/>
        <path id="Path_42" data-name="Path 42" d="M666.5,42.11l-3.833.017V.258L666.5.208Z" transform="translate(-392.449 -0.123)"/>
      </g>
    </g>
  </g>
</svg>
