<svg xmlns="http://www.w3.org/2000/svg" xmlns:xlink="http://www.w3.org/1999/xlink" width="500" height="300" viewBox="0 0 500 300">
  <defs>
    <clipPath id="clip-logo_07">
      <rect width="500" height="300"/>
    </clipPath>
  </defs>
  <g id="logo_07" clip-path="url(#clip-logo_07)">
    <g id="Group_49" data-name="Group 49" transform="translate(194.539 83.698)">
      <path id="Path_2093" data-name="Path 2093" d="M27.787,294.653a31.175,31.175,0,0,0,2.57,1.824l1.338-1.653a23.818,23.818,0,0,1-2.371-1.673Z" transform="translate(10.08 -211.304)"/>
      <path id="Path_2094" data-name="Path 2094" d="M31.678,288.347,30.335,286.7a27.752,27.752,0,0,0-2.575,1.848l1.543,1.5a25.184,25.184,0,0,1,2.375-1.7" transform="translate(9.946 -242.687)"/>
      <path id="Path_2095" data-name="Path 2095" d="M26.856,293.255a24.911,24.911,0,0,0,2.007,2.582l1.8-1.237a23.83,23.83,0,0,1-1.831-2.37Z" transform="translate(5.548 -215.791)"/>
      <path id="Path_2096" data-name="Path 2096" d="M30.639,288.809l-1.831-1.225a26.256,26.256,0,0,0-1.971,2.611l1.971,1.028a23.277,23.277,0,0,1,1.831-2.407" transform="translate(5.45 -238.399)"/>
      <path id="Path_2097" data-name="Path 2097" d="M36.952,287.843a30.868,30.868,0,0,0-2.763-1.461l-1.057,1.8a24.766,24.766,0,0,1,2.534,1.338Z" transform="translate(36.1 -244.25)"/>
      <path id="Path_2098" data-name="Path 2098" d="M32.61,288.03l-.722-1.913A30.024,30.024,0,0,0,29,287.137l.963,1.831c.852-.347,1.747-.669,2.647-.939" transform="translate(15.962 -245.54)"/>
      <path id="Path_2099" data-name="Path 2099" d="M35.122,286.533c-.963-.241-1.954-.433-2.97-.587l-.371,2.007a27.716,27.716,0,0,1,2.729.534Z" transform="translate(29.529 -246.373)"/>
      <path id="Path_2100" data-name="Path 2100" d="M33.437,287.923l-.089-2.031c-1.008.041-2,.111-2.979.241l.31,2.012c.915-.111,1.824-.183,2.758-.212" transform="translate(22.642 -246.634)"/>
      <path id="Path_2101" data-name="Path 2101" d="M30.344,296.126c.963.123,1.954.2,2.958.241l.094-2.024c-.927-.036-1.824-.1-2.717-.217Z" transform="translate(22.524 -206.558)"/>
      <path id="Path_2102" data-name="Path 2102" d="M29.009,295.637a29.549,29.549,0,0,0,2.852,1l.722-1.913q-1.338-.4-2.623-.922Z" transform="translate(16.027 -208.116)"/>
      <path id="Path_2103" data-name="Path 2103" d="M27.5,303.174H45.964c.036-5.831-.036-11.372-.142-16-9.67,1-17.3,7.321-18.322,16" transform="translate(8.673 -240.395)"/>
      <path id="Path_2104" data-name="Path 2104" d="M76.762,279.2c-30.616,0-55.429,29.648-55.429,66.218S46.146,411.64,76.762,411.64,132.2,382,132.2,345.422,107.382,279.2,76.762,279.2m.963,5.239c1.754.1,5.5.58,4.231,3.129A11.672,11.672,0,0,0,80.4,292.7H75.06a11.679,11.679,0,0,0-1.543-5.129c-1.261-2.551,2.464-3.244,4.219-3.129m2.611,9.7c0,.257-.017.481-.017.775,0,.85-.017,2.248-.041,3.884H75.2c-.024-1.644-.041-3.032-.041-3.884,0-.282,0-.517-.017-.775Zm17.81,71.609a35.649,35.649,0,0,1-19.639,6.455c-.787,0-1.55-.058-2.306-.106-.4,2.019-.833,3.942-1.326,5.716-5.8,21.059-10.349,23.511-13.254,27.135l-6.9-6.173a28.252,28.252,0,0,0,18.154-20.324,60.6,60.6,0,0,0,1.326-6.549c-14.734-1.836-26.161-12.878-26.931-26.5-1.331.481-1.55,2.06-1.625,3.186,0,0-.452,19.15-.452,20.337s.371,1.174.881,1.86a2.77,2.77,0,1,1-5.011,1.632,2.647,2.647,0,0,1,.539-1.632c.51-.686.869-.686.869-1.86s-.457-20.337-.457-20.337c-.077-1.355-.351-3.35-2.529-3.35H36.324c-1.444,0-1.925-.048-1.925-1.636s.465-1.637,1.925-1.637H39.5c2.166,0,2.452-1.988,2.529-3.35,0,0,.457-19.157.457-20.337s-.359-1.174-.869-1.86a2.648,2.648,0,0,1-.539-1.625,2.773,2.773,0,1,1,5.011,1.625c-.51.686-.881.686-.881,1.86s.452,20.337.452,20.337c.077,1.138.3,2.729,1.665,3.2,1.15-13.706,13.119-24.678,28.233-25.951,0-.212-.217-9.222-.33-15.619h5.028c-.118,6.142-.322,14.7-.347,15.547a36.459,36.459,0,0,1,18.236,6.373c4.313,4.587,3.75,5.663,2.963,7.112a.873.873,0,0,1-.611.433,12.589,12.589,0,0,1-7.275-3.146,25.357,25.357,0,0,0-14.71-4.5c-13.348,0-24.209,9.827-24.209,21.9s10.861,21.9,24.209,21.9a25.327,25.327,0,0,0,14.71-4.5c3.064-2.212,5.945-3.449,7.275-3.129a.869.869,0,0,1,.611.428c.787,1.444,1.35,2.529-2.958,7.1m17.29-20.512h-3.177c-2.166,0-2.448,2-2.541,3.35,0,0-.457,19.15-.457,20.337s.371,1.174.886,1.86a2.77,2.77,0,1,1-5.011,1.632,2.621,2.621,0,0,1,.539-1.632c.51-.686.862-.686.862-1.86s-.452-20.337-.452-20.337c-.082-1.355-.359-3.35-2.534-3.35h-24.3c-.335,5.535-.8,11.34-1.478,16.847.241,0,.481.024.722.024a23.344,23.344,0,0,0,14.286-4.594c3.68-2.852,9.658-3.02,11.112-1.925,1.249.934,2.563,3.146-1.391,6.864a4.255,4.255,0,0,0-.147-4.505,2.226,2.226,0,0,0-1.543-1.143c-2.582-.587-6.77,2.166-8.455,3.369a23.783,23.783,0,0,1-13.853,4.236c-12.561,0-22.77-9.177-22.77-20.457s10.209-20.457,22.77-20.457a23.74,23.74,0,0,1,13.853,4.236c1.685,1.2,5.86,3.942,8.455,3.369a2.25,2.25,0,0,0,1.543-1.138,4.224,4.224,0,0,0,.152-4.476c3.961,3.721,2.647,5.932,1.4,6.859-1.444,1.085-7.434.91-11.112-1.925a23,23,0,0,0-12.89-4.546c-.041,4.46-.176,10.067-.481,16.094h24.139c2.166,0,2.452-1.988,2.534-3.35,0,0,.452-19.157.452-20.337s-.351-1.174-.862-1.86a2.616,2.616,0,0,1-.539-1.625,2.77,2.77,0,1,1,5.011,1.625c-.517.686-.886.686-.886,1.86s.457,20.337.457,20.337c.094,1.362.363,3.35,2.541,3.35h3.179c1.444,0,1.894.053,1.894,1.637s-.445,1.636-1.894,1.636" transform="translate(-21.333 -279.2)"/>
      <path id="Path_2105" data-name="Path 2105" d="M45.324,307.115c.38-5.333.587-11.071.652-16.657H27.49c.652,8.888,8.156,15.449,17.824,16.657" transform="translate(8.634 -224.411)"/>
      <path id="Path_2106" data-name="Path 2106" d="M31.744,294.535l.351,2c.992-.147,1.971-.322,2.934-.546l-.6-1.954c-.874.2-1.783.375-2.688.5" transform="translate(29.333 -207.003)"/>
      <path id="Path_2107" data-name="Path 2107" d="M33.037,294.807l1.02,1.824c.946-.421,1.853-.886,2.746-1.384l-1.237-1.706a26.81,26.81,0,0,1-2.529,1.268" transform="translate(35.633 -209.408)"/>
    </g>
  </g>
</svg>
